<?xml version="1.0" encoding="UTF-8"?>
<svg width="700pt" height="700pt" version="1.1" viewBox="0 0 700 700" xmlns="http://www.w3.org/2000/svg" xmlns:xlink="http://www.w3.org/1999/xlink">
 <defs>
  <symbol id="v" overflow="visible">
   <path d="m1.8281-0.10938c-0.09375 0.054688-0.19531 0.089844-0.29688 0.10938-0.09375 0.019531-0.19922 0.03125-0.3125 0.03125-0.33594 0-0.60156-0.085938-0.79688-0.26562-0.1875-0.1875-0.28125-0.44141-0.28125-0.76562 0-0.3125 0.09375-0.5625 0.28125-0.75 0.19531-0.1875 0.46094-0.28125 0.79688-0.28125 0.11328 0 0.21875 0.015625 0.3125 0.046875 0.10156 0.023437 0.20312 0.058594 0.29688 0.10938v0.40625c-0.09375-0.0625-0.1875-0.10938-0.28125-0.14062s-0.19531-0.046875-0.29688-0.046875c-0.17969 0-0.32031 0.0625-0.42188 0.1875-0.10547 0.11719-0.15625 0.27344-0.15625 0.46875 0 0.21094 0.050781 0.375 0.15625 0.5 0.10156 0.11719 0.24219 0.17188 0.42188 0.17188 0.10156 0 0.20312-0.015625 0.29688-0.046875s0.1875-0.078125 0.28125-0.14062z"/>
  </symbol>
  <symbol id="f" overflow="visible">
   <path d="m1.3438-1.0938c-0.042969-0.019531-0.085938-0.03125-0.125-0.03125-0.042969-0.007812-0.085938-0.015625-0.125-0.015625-0.125 0-0.22656 0.042969-0.29688 0.125-0.0625 0.074219-0.09375 0.18359-0.09375 0.32812v0.6875h-0.46875v-1.5h0.46875v0.25c0.0625-0.09375 0.12891-0.16016 0.20312-0.20312 0.082031-0.050781 0.17969-0.078125 0.29688-0.078125h0.046875c0.019531 0 0.050781 0.007812 0.09375 0.015625z"/>
  </symbol>
  <symbol id="a" overflow="visible">
   <path d="m1.7188-0.75v0.14062h-1.1094c0.007813 0.10547 0.046875 0.1875 0.10938 0.25 0.070312 0.054687 0.17188 0.078125 0.29688 0.078125 0.10156 0 0.20703-0.015625 0.3125-0.046875 0.10156-0.03125 0.21094-0.070313 0.32812-0.125v0.35938c-0.11719 0.042969-0.23047 0.074219-0.34375 0.09375-0.11719 0.019531-0.23047 0.03125-0.34375 0.03125-0.27344 0-0.48047-0.066406-0.625-0.20312-0.14844-0.13281-0.21875-0.32812-0.21875-0.57812 0-0.23828 0.070312-0.42578 0.21875-0.5625 0.14453-0.14453 0.34766-0.21875 0.60938-0.21875 0.22656 0 0.41016 0.074219 0.54688 0.21875 0.14453 0.13672 0.21875 0.32422 0.21875 0.5625zm-0.48438-0.15625c0-0.09375-0.027344-0.16406-0.078125-0.21875-0.054688-0.0625-0.125-0.09375-0.21875-0.09375-0.085938 0-0.15625 0.027344-0.21875 0.078125-0.0625 0.054687-0.10156 0.13281-0.10938 0.23438z"/>
  </symbol>
  <symbol id="e" overflow="visible">
   <path d="m0.90625-0.67188c-0.10547 0-0.18359 0.015625-0.23438 0.046875-0.054687 0.03125-0.078125 0.085938-0.078125 0.15625 0 0.0625 0.019531 0.10938 0.0625 0.14062 0.039062 0.03125 0.097656 0.046875 0.17188 0.046875 0.09375 0 0.16406-0.03125 0.21875-0.09375 0.0625-0.0625 0.09375-0.14453 0.09375-0.25v-0.046875zm0.71875-0.1875v0.85938h-0.48438v-0.21875c-0.0625 0.09375-0.13672 0.16406-0.21875 0.20312-0.074219 0.03125-0.16797 0.046875-0.28125 0.046875-0.15625 0-0.28125-0.039062-0.375-0.125-0.09375-0.09375-0.14062-0.21094-0.14062-0.35938 0-0.17578 0.054688-0.30078 0.17188-0.375 0.125-0.082031 0.3125-0.125 0.5625-0.125h0.28125v-0.046875c0-0.070312-0.03125-0.125-0.09375-0.15625-0.054687-0.039062-0.14062-0.0625-0.26562-0.0625-0.10547 0-0.20312 0.011719-0.29688 0.03125-0.085937 0.023438-0.16406 0.054688-0.23438 0.09375v-0.35938c0.10156-0.03125 0.20703-0.050781 0.3125-0.0625 0.10156-0.007813 0.20312-0.015625 0.29688-0.015625 0.26953 0 0.46094 0.054688 0.57812 0.15625 0.125 0.10547 0.1875 0.27734 0.1875 0.51562z"/>
  </symbol>
  <symbol id="d" overflow="visible">
   <path d="m0.75-1.9219v0.42188h0.5v0.34375h-0.5v0.64062c0 0.0625 0.007812 0.10938 0.03125 0.14062 0.03125 0.023438 0.085938 0.03125 0.17188 0.03125h0.25v0.34375h-0.40625c-0.1875 0-0.32422-0.035156-0.40625-0.10938-0.074219-0.082031-0.10938-0.21875-0.10938-0.40625v-0.64062h-0.25v-0.34375h0.25v-0.42188z"/>
  </symbol>
  <symbol id="k" overflow="visible">
   <path d="m1.25-1.2812v-0.79688h0.48438v2.0781h-0.48438v-0.21875c-0.074219 0.09375-0.15234 0.16406-0.23438 0.20312-0.074219 0.03125-0.16406 0.046875-0.26562 0.046875-0.17969 0-0.32812-0.070312-0.45312-0.21875-0.11719-0.14453-0.17188-0.33203-0.17188-0.5625 0-0.22656 0.054688-0.41406 0.17188-0.5625 0.125-0.14453 0.27344-0.21875 0.45312-0.21875 0.10156 0 0.19141 0.023438 0.26562 0.0625 0.082031 0.042969 0.16016 0.10547 0.23438 0.1875zm-0.3125 0.96875c0.09375 0 0.16406-0.035156 0.21875-0.10938 0.0625-0.070313 0.09375-0.17969 0.09375-0.32812 0-0.13281-0.03125-0.23828-0.09375-0.3125-0.054688-0.082031-0.125-0.125-0.21875-0.125-0.10547 0-0.18359 0.042969-0.23438 0.125-0.054687 0.074219-0.078125 0.17969-0.078125 0.3125 0 0.14844 0.023438 0.25781 0.078125 0.32812 0.050781 0.074219 0.12891 0.10938 0.23438 0.10938z"/>
  </symbol>
  <symbol id="j" overflow="visible">
   <path d="m1.0312-0.3125c0.09375 0 0.16406-0.035156 0.21875-0.10938 0.0625-0.070313 0.09375-0.17969 0.09375-0.32812 0-0.13281-0.03125-0.23828-0.09375-0.3125-0.054688-0.082031-0.125-0.125-0.21875-0.125-0.10547 0-0.1875 0.042969-0.25 0.125-0.054688 0.074219-0.078125 0.17969-0.078125 0.3125 0 0.14844 0.023437 0.25781 0.078125 0.32812 0.0625 0.074219 0.14453 0.10938 0.25 0.10938zm-0.32812-0.96875c0.070313-0.082031 0.14453-0.14453 0.21875-0.1875 0.082031-0.039062 0.17578-0.0625 0.28125-0.0625 0.1875 0 0.33594 0.074219 0.45312 0.21875 0.11328 0.14844 0.17188 0.33594 0.17188 0.5625 0 0.23047-0.058594 0.41797-0.17188 0.5625-0.11719 0.14844-0.26562 0.21875-0.45312 0.21875-0.10547 0-0.19922-0.015625-0.28125-0.046875-0.074219-0.039062-0.14844-0.10938-0.21875-0.20312v0.21875h-0.46875v-2.0781h0.46875z"/>
  </symbol>
  <symbol id="i" overflow="visible">
   <path d="m0.03125-1.5h0.48438l0.39062 1.0156 0.34375-1.0156h0.48438l-0.625 1.6406c-0.0625 0.16406-0.14062 0.28125-0.23438 0.34375-0.085938 0.070313-0.19531 0.10938-0.32812 0.10938h-0.26562v-0.3125h0.14062c0.082031 0 0.14062-0.015625 0.17188-0.046875 0.039062-0.023437 0.070312-0.070313 0.09375-0.14062l0.015625-0.03125z"/>
  </symbol>
  <symbol id="c" overflow="visible">
   <path d="m1.3906-1.4531v0.375c-0.09375-0.050781-0.19531-0.085937-0.29688-0.10938-0.09375-0.019531-0.18359-0.03125-0.26562-0.03125-0.085937 0-0.15234 0.015625-0.20312 0.046875-0.042969 0.023437-0.0625 0.054687-0.0625 0.09375 0 0.042969 0.015625 0.074219 0.046875 0.09375 0.03125 0.023437 0.09375 0.039063 0.1875 0.046875l0.078125 0.015625c0.25 0.03125 0.41406 0.085937 0.5 0.15625 0.082031 0.0625 0.125 0.17188 0.125 0.32812s-0.0625 0.27734-0.1875 0.35938c-0.11719 0.074219-0.28906 0.10938-0.51562 0.10938-0.10547 0-0.21094-0.011719-0.3125-0.03125-0.10547-0.0078125-0.21094-0.03125-0.3125-0.0625v-0.35938c0.09375 0.054687 0.1875 0.089844 0.28125 0.10938 0.10156 0.023438 0.20703 0.03125 0.3125 0.03125 0.09375 0 0.16016-0.007812 0.20312-0.03125 0.050781-0.03125 0.078125-0.070312 0.078125-0.125 0-0.039062-0.015625-0.070312-0.046875-0.09375-0.03125-0.019531-0.10156-0.035156-0.20312-0.046875l-0.078125-0.015625c-0.21875-0.019531-0.37109-0.066406-0.45312-0.14062-0.085937-0.070313-0.125-0.17969-0.125-0.32812 0-0.15625 0.050781-0.26953 0.15625-0.34375 0.11328-0.082031 0.28125-0.125 0.5-0.125 0.09375 0 0.1875 0.011719 0.28125 0.03125 0.10156 0.011719 0.20703 0.027344 0.3125 0.046875z"/>
  </symbol>
  <symbol id="b" overflow="visible">
   <path d="m1.7344-0.90625v0.90625h-0.48438v-0.6875c0-0.13281-0.007812-0.22266-0.015625-0.26562 0-0.050781-0.007813-0.09375-0.015625-0.125-0.023438-0.03125-0.046875-0.050781-0.078125-0.0625-0.03125-0.019531-0.070313-0.03125-0.10938-0.03125-0.10547 0-0.1875 0.042969-0.25 0.125-0.054688 0.074219-0.078125 0.17969-0.078125 0.3125v0.73438h-0.46875v-2.0781h0.46875v0.79688c0.070313-0.082031 0.14844-0.14453 0.23438-0.1875 0.082031-0.039062 0.17188-0.0625 0.26562-0.0625 0.17578 0 0.30469 0.054688 0.39062 0.15625 0.09375 0.10547 0.14062 0.26172 0.14062 0.46875z"/>
  </symbol>
  <symbol id="h" overflow="visible">
   <path d="m1.7344-0.90625v0.90625h-0.48438v-0.70312c0-0.125-0.007812-0.20703-0.015625-0.25 0-0.050781-0.007813-0.09375-0.015625-0.125-0.023438-0.03125-0.046875-0.050781-0.078125-0.0625-0.03125-0.019531-0.070313-0.03125-0.10938-0.03125-0.10547 0-0.1875 0.042969-0.25 0.125-0.054688 0.074219-0.078125 0.17969-0.078125 0.3125v0.73438h-0.46875v-1.5h0.46875v0.21875c0.070313-0.082031 0.14844-0.14453 0.23438-0.1875 0.082031-0.039062 0.17188-0.0625 0.26562-0.0625 0.17578 0 0.30469 0.054688 0.39062 0.15625 0.09375 0.10547 0.14062 0.26172 0.14062 0.46875z"/>
  </symbol>
  <symbol id="u" overflow="visible">
   <path d="m0.23438-2.0781h0.46875v1.125l0.54688-0.54688h0.5625l-0.73438 0.6875 0.79688 0.8125h-0.57812l-0.59375-0.625v0.625h-0.46875z"/>
  </symbol>
  <symbol id="t" overflow="visible">
   <path d="m0.23438-1.5h0.46875v1.5h-0.46875zm0-0.57812h0.46875v0.39062h-0.46875z"/>
  </symbol>
  <symbol id="s" overflow="visible">
   <path d="m1.25-0.25c-0.074219 0.085938-0.15234 0.14844-0.23438 0.1875-0.074219 0.042969-0.16406 0.0625-0.26562 0.0625-0.17969 0-0.32812-0.070312-0.45312-0.21875-0.11719-0.14453-0.17188-0.32812-0.17188-0.54688s0.054688-0.39844 0.17188-0.54688c0.125-0.14453 0.27344-0.21875 0.45312-0.21875 0.10156 0 0.19141 0.023438 0.26562 0.0625 0.082031 0.042969 0.16016 0.10547 0.23438 0.1875v-0.21875h0.48438v1.3438c0 0.23828-0.078125 0.42188-0.23438 0.54688-0.15625 0.13281-0.375 0.20312-0.65625 0.20312-0.09375 0-0.1875-0.011719-0.28125-0.03125-0.085938-0.011719-0.16797-0.03125-0.25-0.0625v-0.375c0.082031 0.050781 0.16016 0.085938 0.23438 0.10938 0.082031 0.03125 0.16406 0.046875 0.25 0.046875 0.15625 0 0.26953-0.039062 0.34375-0.10938 0.070313-0.074219 0.10938-0.17969 0.10938-0.32812zm-0.3125-0.9375c-0.10547 0-0.18359 0.039062-0.23438 0.10938-0.054687 0.074219-0.078125 0.17969-0.078125 0.3125 0 0.13672 0.023438 0.24219 0.078125 0.3125 0.050781 0.074219 0.12891 0.10938 0.23438 0.10938 0.09375 0 0.16406-0.035156 0.21875-0.10938 0.0625-0.070313 0.09375-0.17578 0.09375-0.3125 0-0.13281-0.03125-0.23828-0.09375-0.3125-0.054688-0.070313-0.125-0.10938-0.21875-0.10938z"/>
  </symbol>
  <symbol id="r" overflow="visible">
   <path d="m1.2188-2.0781v0.3125h-0.26562c-0.074219 0-0.125 0.015625-0.15625 0.046875-0.023437 0.023438-0.03125 0.0625-0.03125 0.125v0.09375h0.40625v0.34375h-0.40625v1.1562h-0.46875v-1.1562h-0.25v-0.34375h0.25v-0.09375c0-0.16406 0.039063-0.28516 0.125-0.35938 0.09375-0.082031 0.23438-0.125 0.42188-0.125z"/>
  </symbol>
  <symbol id="g" overflow="visible">
   <path d="m0.9375-1.1875c-0.10547 0-0.1875 0.039062-0.25 0.10938-0.054688 0.074219-0.078125 0.18359-0.078125 0.32812 0 0.14844 0.023437 0.26172 0.078125 0.34375 0.0625 0.074219 0.14453 0.10938 0.25 0.10938 0.10156 0 0.17969-0.035156 0.23438-0.10938 0.0625-0.082031 0.09375-0.19531 0.09375-0.34375 0-0.14453-0.03125-0.25391-0.09375-0.32812-0.054687-0.070313-0.13281-0.10938-0.23438-0.10938zm0-0.34375c0.25781 0 0.46094 0.074219 0.60938 0.21875 0.14453 0.13672 0.21875 0.32422 0.21875 0.5625 0 0.25-0.074219 0.44531-0.21875 0.57812-0.14844 0.13672-0.35156 0.20312-0.60938 0.20312-0.26172 0-0.46484-0.066406-0.60938-0.20312-0.13672-0.13281-0.20312-0.32812-0.20312-0.57812 0-0.23828 0.066406-0.42578 0.20312-0.5625 0.14453-0.14453 0.34766-0.21875 0.60938-0.21875z"/>
  </symbol>
  <symbol id="q" overflow="visible">
   <path d="m1.6094-1.25c0.0625-0.09375 0.13281-0.16016 0.21875-0.20312 0.082031-0.050781 0.17578-0.078125 0.28125-0.078125 0.16406 0 0.29688 0.054688 0.39062 0.15625 0.09375 0.10547 0.14062 0.26172 0.14062 0.46875v0.90625h-0.48438v-0.78125-0.03125-0.0625c0-0.10156-0.015625-0.17578-0.046875-0.21875-0.03125-0.050781-0.085937-0.078125-0.15625-0.078125-0.085937 0-0.15234 0.039063-0.20312 0.10938-0.054688 0.074219-0.078125 0.18359-0.078125 0.32812v0.73438h-0.48438v-0.78125c0-0.16406-0.015625-0.26953-0.046875-0.3125-0.023437-0.050781-0.070313-0.078125-0.14062-0.078125-0.09375 0-0.16797 0.042969-0.21875 0.125-0.054688 0.074219-0.078125 0.17969-0.078125 0.3125v0.73438h-0.46875v-1.5h0.46875v0.21875c0.0625-0.082031 0.12891-0.14453 0.20312-0.1875 0.082031-0.039062 0.16406-0.0625 0.25-0.0625 0.10156 0 0.19141 0.027344 0.26562 0.078125 0.082031 0.054687 0.14453 0.12109 0.1875 0.20312z"/>
  </symbol>
  <symbol id="p" overflow="visible">
   <path d="m0.25-2h0.57812l0.71875 1.375v-1.375h0.48438v2h-0.5625l-0.73438-1.375v1.375h-0.48438z"/>
  </symbol>
  <symbol id="o" overflow="visible">
   <path d="m0.21875-0.57812v-0.92188h0.46875v0.15625 0.3125 0.23438 0.26562c0.007812 0.054688 0.023438 0.089844 0.046875 0.10938 0.019531 0.03125 0.046875 0.058594 0.078125 0.078125 0.03125 0.011719 0.066406 0.015625 0.10938 0.015625 0.09375 0 0.16406-0.035156 0.21875-0.10938 0.0625-0.070312 0.09375-0.17578 0.09375-0.3125v-0.75h0.48438v1.5h-0.48438v-0.21875c-0.074219 0.09375-0.15234 0.16406-0.23438 0.20312-0.074219 0.03125-0.15625 0.046875-0.25 0.046875-0.17969 0-0.3125-0.050781-0.40625-0.15625-0.085938-0.10156-0.125-0.25391-0.125-0.45312z"/>
  </symbol>
  <symbol id="n" overflow="visible">
   <path d="m0.25-2h0.85938c0.25 0 0.44141 0.058594 0.57812 0.17188 0.13281 0.11719 0.20312 0.27734 0.20312 0.48438 0 0.21094-0.070313 0.37109-0.20312 0.48438-0.13672 0.11719-0.32812 0.17188-0.57812 0.17188h-0.34375v0.6875h-0.51562zm0.51562 0.375v0.5625h0.28125c0.10156 0 0.17969-0.019531 0.23438-0.0625 0.050781-0.050781 0.078125-0.125 0.078125-0.21875s-0.027344-0.16016-0.078125-0.20312c-0.054688-0.050781-0.13281-0.078125-0.23438-0.078125z"/>
  </symbol>
  <symbol id="m" overflow="visible">
   <path d="m0.23438-1.5h0.46875v1.4688c0 0.20703-0.046875 0.36328-0.14062 0.46875-0.09375 0.10156-0.23438 0.15625-0.42188 0.15625h-0.23438v-0.3125h0.078125c0.09375 0 0.15625-0.023438 0.1875-0.0625 0.039063-0.042969 0.0625-0.125 0.0625-0.25zm0-0.57812h0.46875v0.39062h-0.46875z"/>
  </symbol>
  <symbol id="l" overflow="visible">
   <path d="m1.4375-1.4531v0.39062c-0.0625-0.039062-0.13281-0.070312-0.20312-0.09375-0.0625-0.019531-0.13281-0.03125-0.20312-0.03125-0.125 0-0.23047 0.042969-0.3125 0.125-0.074219 0.074219-0.10938 0.17969-0.10938 0.3125 0 0.14844 0.035156 0.26172 0.10938 0.34375 0.082031 0.074219 0.1875 0.10938 0.3125 0.10938 0.082031 0 0.15625-0.007813 0.21875-0.03125 0.070312-0.03125 0.13281-0.066406 0.1875-0.10938v0.39062c-0.074219 0.03125-0.15234 0.050781-0.23438 0.0625-0.074219 0.0078125-0.14844 0.015625-0.21875 0.015625-0.27344 0-0.48438-0.066406-0.64062-0.20312-0.14844-0.13281-0.21875-0.32812-0.21875-0.57812 0-0.23828 0.070312-0.42578 0.21875-0.5625 0.15625-0.14453 0.36719-0.21875 0.64062-0.21875 0.070313 0 0.14453 0.011719 0.21875 0.03125 0.082031 0.011719 0.16016 0.027344 0.23438 0.046875z"/>
  </symbol>
 </defs>
 <g>
  <path d="m561.37 508.59h-12.414-33.633-49.383-59.664-64.422-63.766-57.586-45.938-28.82-6.2891-0.82031c-2.0781 0 0-0.054688 0 0.054688 0 0.10937-1.8594-0.76563-0.054687 0.10937-0.27344-0.10937-0.71094-0.32812-0.92969-0.54687-0.71094-0.71094 0.16406 0.32812 0.27344 0.21875-0.10938 0.054687-0.82031-0.98438-0.10938 0.054687-0.27344-0.38281-0.49219-0.82031-0.71094-1.2031 0.21875 0.4375 0.10938 0.92969 0.21875 0.27344 0.10938-0.875-0.10937 1.2031-0.054687-0.38281v-0.21875c0.054687-4.8125 0-9.625 0-14.438v-33.906-48.672-58.68-63.984-64.477-60.32-51.352-37.68-19.195-1.4219-0.10938c-0.054687-1.5859 0.054687 0.49219 0.054687-0.38281 0-0.76563-0.054687 0-0.21875 0.27344 0.21875-0.4375 0.4375-0.82031 0.71094-1.2031-0.054688 0.10938-0.65625 1.0938-0.16406 0.32812 0.60156-0.98438-0.875 0.76562 0-0.054687 0.21875-0.21875 0.65625-0.38281 0.92969-0.54688-1.8047 0.875 0.054687 0 0.054687 0.10938 0 0.10937-2.0781 0.054687 0 0.054687h3.4453 24.062 42.492 55.398 62.836 64.75 61.25 52.227 37.789c5.9609 0 11.867-0.054687 17.828 0h0.54687c0.65625 0 0.98438 0.4375 0.16406-0.054687 1.3125 0.71094 0.38281 0.054687 0.054687-0.10938 0.4375 0.21875 0.82031 0.4375 1.2031 0.71094-0.10938-0.054688-1.0938-0.65625-0.32813-0.16406 0.98438 0.60156-0.76562-0.875 0.054688 0 0.21875 0.21875 0.38281 0.65625 0.54688 0.92969-0.875-1.8047 0 0.054687-0.10938 0.054687s-0.054688-2.0781-0.054688 0v0.27344 4.6484 25.102 42.109 54.414 62.016 64.859 62.945 56.273 44.898 28.656 6.7266 1.3672 0.16406c0 2.0781-0.054687 0 0.054688 0s-0.76562 1.8594 0.10938 0.054687c-0.16406 0.27344-0.32812 0.65625-0.54688 0.92969-0.76562 0.875 0.98438-0.65625-0.054688 0-0.76562 0.49219 0.21875-0.054687 0.32813-0.16406-0.38281 0.27344-0.82031 0.49219-1.2031 0.71094 1.1484-0.49219-0.054687 0.054687-0.10937-0.054688 0 0 2.0781-0.054688 0 0-4.2656 0.16406-8.4219 3.6641-8.2031 8.2031 0.21875 4.3203 3.6094 8.3672 8.2031 8.2031 10.391-0.38281 17.719-8.4766 17.773-18.703v-6.2891-28.219-44.734-56.711-63.383-65.352-62.508-55.016-42.164-24.719c0-1.4219 0.054687-2.8438 0-4.3203-0.27344-10.117-8.0938-17.773-18.211-17.883-5.5781-0.054688-11.211 0-16.789 0h-37.352-52.281-61.852-65.297-63.328-56-42.547-23.734c-1.5312 0-3.0078-0.054688-4.5391 0.10938-9.8984 0.98438-16.297 9.0781-16.352 18.703-0.054687 6.125 0 12.25 0 18.375v37.297 51.625 60.648 65.023 64.531 59.391 48.891 33.742c0 4.5938-0.16406 9.1875 0 13.781 0.32812 10.117 8.1484 17.773 18.266 17.883h5.6875 28.109 45.773 58.078 64.203 65.242 60.102 49.656 33.523 11.812c4.2656 0 8.4219-3.7734 8.2031-8.2031-0.16406-4.4297-3.5547-8.2031-8.1484-8.2031z"/>
  <path d="m129.06 119.22h11.867 32.047 47.633 58.133 63.383 64.258 59.664 50.641 36.422c5.7422 0 11.43 0.10938 17.172 0h0.76562c4.2656 0 8.4219-3.7734 8.2031-8.2031s-3.6094-8.2031-8.2031-8.2031h-11.867-32.047-47.633-58.133-63.383-64.258-59.664-50.641-36.422c-5.7422 0-11.43-0.10938-17.172 0h-0.76562c-4.2656 0-8.4219 3.7734-8.2031 8.2031s3.6094 8.2031 8.2031 8.2031z"/>
  <path d="m503.89 307.34c-1.6406 1.4766-3.3359 2.9531-5.0312 4.375-0.875 0.71094-1.75 1.4219-2.625 2.1328-0.32812 0.27344-1.9141 1.4766-0.16406 0.10938-0.60156 0.49219-1.2031 0.92969-1.8594 1.3672-3.7734 2.8438-7.7109 5.4688-11.758 7.8203-4.2109 2.5156-8.5859 4.7031-13.07 6.6719-1.9141 0.875 1.6406-0.65625-0.32812 0.16406-0.60156 0.21875-1.1484 0.49219-1.75 0.71094-0.98438 0.38281-1.9688 0.76563-2.9531 1.0938-2.625 0.92969-5.25 1.75-7.9297 2.4609-2.5156 0.65625-5.0859 1.2578-7.6562 1.75-1.0938 0.21875-2.1875 0.38281-3.2812 0.54688-0.32812 0.054687-2.5703 0.32812-0.49219 0.054687-0.875 0.10938-1.8047 0.21875-2.6797 0.32813-5.5781 0.54687-11.211 0.60156-16.789 0.21875-1.4766-0.10938-2.9531-0.21875-4.375-0.38281-0.21875 0-2.6797-0.32812-0.76563-0.054687-0.76562-0.10938-1.4766-0.21875-2.2422-0.32813-3.0625-0.49219-6.125-1.0938-9.1328-1.8594-3.1719-0.76563-6.3438-1.6953-9.4609-2.7344-1.6406-0.54687-3.2266-1.0938-4.8125-1.6953-0.82031-0.32812-1.6406-0.60156-2.4609-0.92969 0.054687 0-2.4609-0.98437-1.3125-0.54687-7.3281-3.0625-14.383-6.8906-21.164-10.992-7.2188-4.4297-14-9.5156-21.164-14-12.742-7.9297-26.469-14.602-40.852-19.141-22.312-7.0547-46.32-8.4219-69.125-2.625-20.125 5.0859-38.391 15.531-54.195 28.82 4.6484 1.9141 9.3516 3.8828 14 5.7969-0.054688-4.3203 0.054687-8.6406 0.32812-12.906 0.10938-2.0234 0.27344-4.0469 0.49219-6.0156 0.10938-0.98438 0.21875-2.0234 0.32812-3.0078 0.054687-0.21875 0.21875-1.8047 0.10938-0.76562-0.16406 1.0938 0.10938-0.92969 0.16406-1.1484 1.2031-8.0391 3.0078-16.023 5.4141-23.789 1.2031-3.8281 2.5156-7.6016 3.9922-11.375 0.38281-0.875 0.71094-1.8047 1.0938-2.6797 0.49219-1.2031-0.49219 1.1484 0-0.054687 0.21875-0.4375 0.38281-0.875 0.60156-1.3125 0.82031-1.8594 1.6953-3.7188 2.625-5.5781 3.5-7.1094 7.4922-13.945 11.977-20.453 1.0938-1.5859 2.1875-3.1172 3.3359-4.6484 0.27344-0.38281 1.8594-2.4062 0.875-1.2031 0.65625-0.82031 1.3125-1.6953 2.0234-2.5156 2.4609-3.0625 5.0859-6.0156 7.7656-8.8594 5.4141-5.7422 11.266-10.992 17.391-15.914 0.21875-0.16406 1.2031-0.92969 0.054688-0.054688 0.38281-0.27344 0.76562-0.60156 1.1484-0.875 0.65625-0.49219 1.3125-0.98437 2.0234-1.4766 1.6406-1.2031 3.2812-2.3516 4.9766-3.5 3.2812-2.1875 6.6172-4.2656 10.062-6.2344 3.4453-1.9688 6.9453-3.7734 10.555-5.4688 1.75-0.82031 3.5-1.6406 5.3047-2.4062-1.5859 0.65625 1.0938-0.4375 1.3672-0.54688 1.0391-0.38281 2.0234-0.82031 3.0625-1.2031 7.5469-2.8438 15.312-5.1406 23.242-6.8359 1.9141-0.4375 3.8828-0.76563 5.8516-1.1484 0.98438-0.16406 1.9688-0.32812 2.9531-0.49219 0.4375-0.054687 3.6094-0.49219 1.9141-0.27344 4.1562-0.49219 8.2578-0.875 12.414-1.0938 8.4219-0.4375 16.844-0.16406 25.211 0.71094 0.875 0.10938 1.75 0.21875 2.625 0.32813 1.6406 0.21875 0.38281 0.054687 0.054687 0 0.49219 0.054687 0.98438 0.16406 1.4766 0.21875 2.2422 0.32812 4.4297 0.71094 6.6172 1.1484 3.8828 0.76562 7.7656 1.6406 11.594 2.6797 4.0469 1.0938 7.9844 2.3516 11.922 3.7188 1.6953 0.60156 3.4453 1.2578 5.1406 1.9141 0.4375 0.16406 0.875 0.38281 1.3672 0.54688 0.21875 0.10938 1.6406 0.65625 0.71094 0.27344-0.92969-0.38281 0.49219 0.21875 0.71094 0.27344 0.54687 0.21875 1.0938 0.49219 1.6406 0.71094 7.2734 3.2266 14.273 7.0547 20.945 11.32 3.3359 2.1328 6.5625 4.4297 9.7344 6.7812 0.16406 0.10938 1.3672 1.0391 0.60156 0.4375-0.76562-0.60156 0.4375 0.32812 0.60156 0.4375 0.76562 0.60156 1.4766 1.2031 2.2422 1.8047 1.5859 1.3125 3.1172 2.625 4.6484 3.9375 5.9062 5.1953 11.43 10.883 16.516 16.898 1.2578 1.4766 2.4609 2.9531 3.6094 4.4297 0.16406 0.21875 0.92969 1.2578 0.054688 0.054687 0.27344 0.38281 0.60156 0.76562 0.875 1.1484 0.65625 0.875 1.2578 1.75 1.9141 2.625 2.2969 3.2266 4.4844 6.5078 6.5625 9.8984s3.9922 6.8359 5.7969 10.391c0.82031 1.5859 1.6406 3.2266 2.4062 4.8672 0.4375 0.875 0.82031 1.75 1.2031 2.625 0.21875 0.4375 0.38281 0.875 0.60156 1.3125 0.054688 0.16406 0.98438 2.3516 0.32813 0.71094 3.0625 7.4922 5.6328 15.148 7.5469 22.969 0.92969 3.8828 1.75 7.7656 2.4062 11.648 0.16406 0.98437 0.32813 1.9688 0.49219 2.9531 0.054688 0.49219 0.16406 0.98438 0.21875 1.4766-0.21875-1.5312-0.054688-0.21875 0 0.054687 0.27344 2.2422 0.49219 4.5391 0.71094 6.7812 0.32812 4.1016 0.49219 8.1484 0.54687 12.25 0.054688 4.2656 3.7734 8.4219 8.2031 8.2031 4.4297-0.21875 8.2578-3.6094 8.2031-8.2031-0.21875-34.562-11.047-68.906-31.391-96.906-20.18-27.891-48.234-49.109-80.664-60.648-32.977-11.758-69.945-12.633-103.52-2.6797-32.266 9.5703-61.633 29.039-82.688 55.344-21.82 27.18-34.836 60.156-37.133 94.992-0.27344 4.4297-0.38281 8.8594-0.32812 13.289 0.10938 7.5469 8.6953 10.281 14 5.7969 1.4219-1.2031 2.8984-2.3516 4.375-3.5547 1.3672-1.0938-1.5312 1.1484-0.10938 0.10938 0.38281-0.27344 0.76562-0.60156 1.1484-0.875 0.92969-0.71094 1.8594-1.3672 2.8438-2.0234 3.3906-2.4062 6.8906-4.6484 10.5-6.7266 3.8281-2.1875 7.7656-4.2109 11.812-6.0156 0.54688-0.21875 1.0391-0.4375 1.5859-0.65625-2.0781 0.875-0.21875 0.10938 0.16406-0.054687 0.875-0.38281 1.8047-0.71094 2.6797-1.0391 2.4062-0.875 4.8125-1.6953 7.2734-2.4609 4.7031-1.4219 9.5156-2.5156 14.383-3.2812 0.60156-0.10938 1.2578-0.16406 1.8594-0.27344-2.1875 0.32812 0 0 0.38281-0.054688 1.3125-0.16406 2.5703-0.27344 3.8828-0.38281 2.6797-0.21875 5.3047-0.32812 7.9844-0.38281 2.7344-0.054688 5.5234 0.054687 8.2578 0.21875 1.4219 0.10937 2.8438 0.21875 4.2656 0.32812 0.49219 0.054688 0.92969 0.10938 1.4219 0.16406 0.32812 0.054687 3.3906 0.4375 1.4219 0.16406 6.125 0.875 12.141 2.1875 18.047 3.9375 14.109 4.1016 26.25 9.9531 39.156 17.938 7.2188 4.4297 13.945 9.5156 21.164 14 6.5625 4.0469 13.344 7.7109 20.398 10.828 23.625 10.445 49.219 14.711 74.703 9.2422 22.531-4.8125 42.766-17.062 59.719-32.375 3.2812-2.9531 3.0078-8.5859 0-11.594-3.3359-3.2812-8.3672-3.0078-11.648 0z"/>
  <path d="m501.48 313.91c-0.054687 4.1562-0.16406 8.3672-0.49219 12.523-0.16406 1.8594-0.32813 3.7734-0.54688 5.6328-0.054687 0.38281-0.38281 3.2812-0.16406 1.5312-0.16406 1.2578-0.32812 2.4609-0.54688 3.7188-1.2578 7.7656-3.0625 15.477-5.4688 23.023-1.2031 3.8281-2.5703 7.6016-4.1016 11.32-0.16406 0.4375-0.38281 0.875-0.54687 1.3672-0.49219 1.2031 0.49219-1.1484 0 0.054687-0.38281 0.875-0.76563 1.75-1.1484 2.625-0.82031 1.8594-1.75 3.7188-2.625 5.5234-3.5 6.9453-7.4922 13.672-11.977 20.07-1.0391 1.4766-2.0781 2.8984-3.1719 4.375-0.27344 0.38281-0.60156 0.76562-0.875 1.1484 0.92969-1.2031 0.16406-0.21875-0.054687 0.054688-0.76562 0.92969-1.4766 1.8594-2.2422 2.7891-2.4062 2.9531-4.9766 5.7969-7.6016 8.5859-5.3594 5.6328-11.102 10.828-17.172 15.641-0.98438 0.76562 0.98438-0.71094-0.054688 0.054687-0.38281 0.27344-0.76562 0.60156-1.1484 0.875-0.76562 0.54688-1.5312 1.1484-2.2969 1.6953-1.6406 1.2031-3.3359 2.3516-5.0312 3.5-3.1719 2.1328-6.4531 4.1562-9.7891 6.0156-3.4453 1.9688-7 3.7734-10.555 5.4688-0.875 0.4375-1.75 0.82031-2.625 1.2031-0.4375 0.21875-0.875 0.38281-1.3125 0.60156-0.21875 0.10937-1.5859 0.71094-0.71094 0.32812 0.82031-0.38281-0.27344 0.10938-0.38281 0.16406-0.4375 0.16406-0.875 0.38281-1.3672 0.54688-1.1484 0.4375-2.2422 0.875-3.3906 1.3125-7.4375 2.7891-15.094 5.0312-22.914 6.7266-1.8047 0.38281-3.6641 0.76563-5.4688 1.0391-0.98438 0.16406-1.9688 0.32812-2.9531 0.49219-0.49219 0.054688-0.98438 0.16406-1.4766 0.21875-0.16406 0-2.625 0.32813-0.82031 0.10938-3.9922 0.49219-8.0391 0.875-12.086 1.0938-8.3125 0.4375-16.625 0.21875-24.883-0.60156-0.98438-0.10938-2.0234-0.21875-3.0078-0.32812-0.21875-0.054688-1.8047-0.21875-0.76562-0.10938 1.0391 0.10938-0.54688-0.054687-0.76563-0.10938-2.1328-0.32812-4.2109-0.65625-6.2891-1.0391-3.8828-0.71094-7.7656-1.5859-11.648-2.625-3.9375-1.0391-7.8203-2.2422-11.648-3.5547-1.75-0.60156-3.4453-1.2578-5.1406-1.9141-0.92969-0.32813-1.8047-0.71094-2.7344-1.0938-1.4766-0.60156-0.38281-0.16406-0.054687 0-0.65625-0.27344-1.3125-0.60156-2.0234-0.875-7.1641-3.1719-14.109-6.8906-20.781-11.102-3.2266-2.0781-6.3984-4.2656-9.5156-6.5078-0.38281-0.27344-0.76562-0.60156-1.1484-0.875-0.16406-0.10937-1.3672-1.0391-0.60156-0.4375 0.76562 0.60156-0.4375-0.32812-0.60156-0.49219-0.38281-0.27344-0.76562-0.60156-1.1484-0.875-1.5859-1.2578-3.1719-2.5703-4.7031-3.9375-5.8516-5.1406-11.375-10.664-16.461-16.57-1.2578-1.4766-2.4609-2.9531-3.6641-4.4297-0.27344-0.38281-1.6406-2.1328-0.71094-0.875-0.71094-0.92969-1.4219-1.9141-2.1328-2.8984-2.2422-3.1172-4.4297-6.2891-6.4531-9.5703-4.2109-6.7812-7.9297-13.891-11.102-21.219-0.054687-0.10938-0.49219-1.2031-0.16406-0.38281 0.38281 0.92969-0.21875-0.49219-0.27344-0.71094-0.38281-0.92969-0.71094-1.8047-1.0938-2.7344-0.76562-1.9141-1.4766-3.8828-2.1328-5.8516-1.2578-3.7188-2.4062-7.4922-3.3906-11.32-1.0391-3.9922-1.9141-7.9844-2.625-12.031-0.32812-1.9688-0.65625-3.9375-0.92969-5.9609-0.16406-1.3125 0.16406 1.2578 0-0.054688-0.054688-0.38281-0.10938-0.76562-0.16406-1.1484-0.16406-1.2578-0.27344-2.5156-0.38281-3.7734-0.38281-4.2109-0.60156-8.4219-0.71094-12.688-0.82031 1.9141-1.5859 3.8828-2.4062 5.7969 1.4219-1.2031 2.8984-2.3516 4.375-3.5547 1.3672-1.0938-1.5312 1.1484-0.10938 0.10938 0.38281-0.27344 0.76562-0.60156 1.1484-0.875 0.92969-0.71094 1.8594-1.3672 2.8438-2.0234 3.3906-2.4062 6.8906-4.6484 10.5-6.7266 3.8281-2.1875 7.7656-4.2109 11.812-6.0156 0.54687-0.21875 1.0391-0.4375 1.5859-0.65625-2.0781 0.875-0.21875 0.10938 0.16406-0.054687 0.875-0.38281 1.8047-0.71094 2.6797-1.0391 2.4062-0.875 4.8125-1.6953 7.2734-2.4609 4.7031-1.4219 9.5156-2.5156 14.383-3.2812 0.60156-0.10938 1.2578-0.16406 1.8594-0.27344-2.1875 0.32812 0 0 0.38281-0.054688 1.3125-0.16406 2.5703-0.27344 3.8828-0.38281 2.6797-0.21875 5.3047-0.32813 7.9844-0.38281 2.7344-0.054687 5.5234 0.054687 8.2578 0.21875 1.4219 0.10938 2.8438 0.21875 4.2656 0.32812 0.49219 0.054688 0.92969 0.10938 1.4219 0.16406 0.32813 0.054688 3.3906 0.4375 1.4219 0.16406 6.125 0.875 12.141 2.1875 18.047 3.9375 14.109 4.1016 26.25 9.9531 39.156 17.938 7.2188 4.4297 13.945 9.5156 21.164 14 6.5625 4.0469 13.344 7.7109 20.398 10.828 23.625 10.445 49.219 14.711 74.703 9.2422 22.531-4.8125 42.766-17.062 59.719-32.375-4.6484-1.9141-9.3516-3.8828-14-5.7969 0.054687 0 0.054687 0.21875 0.054687 0.49219 0.054687 4.2656 3.7734 8.4219 8.2031 8.2031s8.2578-3.6094 8.2031-8.2031v-0.76562c-0.054687-7.3828-8.8047-10.5-14-5.7969-1.9688 1.8047-4.0469 3.5547-6.125 5.25-0.49219 0.4375-1.0391 0.82031-1.5312 1.2578-0.27344 0.21875-0.60156 0.49219-0.875 0.71094 0 0 1.2578-0.92969 0.54688-0.38281-1.1484 0.875-2.2969 1.75-3.5 2.5703-4.7031 3.3359-9.5703 6.4531-14.656 9.1328-2.625 1.4219-5.3047 2.6797-8.0391 3.8828-1.9141 0.82031 0.76562-0.27344-0.60156 0.27344-0.65625 0.27344-1.3672 0.54688-2.0234 0.82031-1.4766 0.54688-2.9531 1.0938-4.4844 1.5859-5.9609 2.0234-12.141 3.4453-18.375 4.3203 2.0781-0.32812-0.76562 0.054687-1.1484 0.10938-0.65625 0.054688-1.3672 0.10938-2.0234 0.21875-1.8594 0.16406-3.6641 0.27344-5.5234 0.32812-3.3359 0.10938-6.6172 0.054687-9.9531-0.21875-1.6953-0.10938-3.4453-0.27344-5.1406-0.49219-1.6406-0.16406-0.38281-0.054688-0.054688 0-0.49219-0.054688-0.98437-0.16406-1.4766-0.21875-0.98438-0.16406-2.0234-0.32813-3.0078-0.49219-3.7734-0.65625-7.4922-1.5859-11.156-2.625-3.9375-1.0938-7.7656-2.4609-11.594-3.9375-2.1328-0.82031-2.4062-0.92969-4.5938-1.9141-2.1328-0.92969-4.2109-1.9688-6.2891-3.0078-8.8594-4.4844-17.062-9.8438-25.211-15.422-27.234-18.703-59.555-32.156-93.133-30.898-23.789 0.92969-46.812 9.0781-66.391 22.531-4.3203 2.9531-8.8594 6.0156-12.633 9.625-3.7734 3.6094-2.7344 9.4609-2.4062 14.219 0.27344 4.2656 0.76562 8.5312 1.3672 12.742 2.0234 14.711 6.0703 28.93 11.867 42.602 11.32 26.633 29.695 49.82 52.609 67.43 23.352 17.938 51.188 29.094 80.336 32.977 29.914 3.9375 60.484-0.60156 88.156-12.469 26.469-11.375 49.383-29.75 66.883-52.555 17.664-23.023 28.766-50.531 32.648-79.188 0.98438-7.3828 1.4766-14.766 1.5312-22.258 0.054687-4.2656-3.7734-8.4219-8.2031-8.2031-4.4844 0.27344-8.1484 3.6641-8.2031 8.2578z"/>
  <use x="70" y="568.203125" xlink:href="#v"/>
  <use x="72.007812" y="568.203125" xlink:href="#f"/>
  <use x="73.355469" y="568.203125" xlink:href="#a"/>
  <use x="75.210937" y="568.203125" xlink:href="#e"/>
  <use x="77.054688" y="568.203125" xlink:href="#d"/>
  <use x="78.363281" y="568.203125" xlink:href="#a"/>
  <use x="80.214844" y="568.203125" xlink:href="#k"/>
  <use x="83.125" y="568.203125" xlink:href="#j"/>
  <use x="85.082031" y="568.203125" xlink:href="#i"/>
  <use x="87.816406" y="568.203125" xlink:href="#c"/>
  <use x="89.445312" y="568.203125" xlink:href="#b"/>
  <use x="91.390625" y="568.203125" xlink:href="#e"/>
  <use x="93.238281" y="568.203125" xlink:href="#c"/>
  <use x="94.863281" y="568.203125" xlink:href="#b"/>
  <use x="96.8125" y="568.203125" xlink:href="#e"/>
  <use x="98.65625" y="568.203125" xlink:href="#h"/>
  <use x="100.601562" y="568.203125" xlink:href="#u"/>
  <use x="103.375" y="568.203125" xlink:href="#c"/>
  <use x="105" y="568.203125" xlink:href="#t"/>
  <use x="105.9375" y="568.203125" xlink:href="#h"/>
  <use x="107.882812" y="568.203125" xlink:href="#s"/>
  <use x="109.84375" y="568.203125" xlink:href="#b"/>
  <use x="70" y="570.9375" xlink:href="#r"/>
  <use x="71.191406" y="570.9375" xlink:href="#f"/>
  <use x="72.539062" y="570.9375" xlink:href="#g"/>
  <use x="74.417969" y="570.9375" xlink:href="#q"/>
  <use x="78.21875" y="570.9375" xlink:href="#d"/>
  <use x="79.523438" y="570.9375" xlink:href="#b"/>
  <use x="81.472656" y="570.9375" xlink:href="#a"/>
  <use x="84.277344" y="570.9375" xlink:href="#p"/>
  <use x="86.566406" y="570.9375" xlink:href="#g"/>
  <use x="88.445312" y="570.9375" xlink:href="#o"/>
  <use x="90.390625" y="570.9375" xlink:href="#h"/>
  <use x="93.289062" y="570.9375" xlink:href="#n"/>
  <use x="95.292969" y="570.9375" xlink:href="#f"/>
  <use x="96.644531" y="570.9375" xlink:href="#g"/>
  <use x="98.519531" y="570.9375" xlink:href="#m"/>
  <use x="99.457031" y="570.9375" xlink:href="#a"/>
  <use x="101.3125" y="570.9375" xlink:href="#l"/>
  <use x="102.933594" y="570.9375" xlink:href="#d"/>
 </g>
</svg>
