<?xml version="1.0" encoding="UTF-8"?>
<svg width="700pt" height="700pt" version="1.1" viewBox="0 0 700 700" xmlns="http://www.w3.org/2000/svg" xmlns:xlink="http://www.w3.org/1999/xlink">
 <defs>
  <symbol id="v" overflow="visible">
   <path d="m1.8281-0.10938c-0.09375 0.054688-0.19531 0.089844-0.29688 0.10938-0.09375 0.019531-0.19922 0.03125-0.3125 0.03125-0.33594 0-0.60156-0.085938-0.79688-0.26562-0.1875-0.1875-0.28125-0.44141-0.28125-0.76562 0-0.3125 0.09375-0.5625 0.28125-0.75 0.19531-0.1875 0.46094-0.28125 0.79688-0.28125 0.11328 0 0.21875 0.015625 0.3125 0.046875 0.10156 0.023437 0.20312 0.058594 0.29688 0.10938v0.40625c-0.09375-0.0625-0.1875-0.10938-0.28125-0.14062s-0.19531-0.046875-0.29688-0.046875c-0.17969 0-0.32031 0.0625-0.42188 0.1875-0.10547 0.11719-0.15625 0.27344-0.15625 0.46875 0 0.21094 0.050781 0.375 0.15625 0.5 0.10156 0.11719 0.24219 0.17188 0.42188 0.17188 0.10156 0 0.20312-0.015625 0.29688-0.046875s0.1875-0.078125 0.28125-0.14062z"/>
  </symbol>
  <symbol id="f" overflow="visible">
   <path d="m1.3438-1.0938c-0.042969-0.019531-0.085938-0.03125-0.125-0.03125-0.042969-0.007812-0.085938-0.015625-0.125-0.015625-0.125 0-0.22656 0.042969-0.29688 0.125-0.0625 0.074219-0.09375 0.18359-0.09375 0.32812v0.6875h-0.46875v-1.5h0.46875v0.25c0.0625-0.09375 0.12891-0.16016 0.20312-0.20312 0.082031-0.050781 0.17969-0.078125 0.29688-0.078125h0.046875c0.019531 0 0.050781 0.007812 0.09375 0.015625z"/>
  </symbol>
  <symbol id="a" overflow="visible">
   <path d="m1.7188-0.75v0.14062h-1.1094c0.007813 0.10547 0.046875 0.1875 0.10938 0.25 0.070312 0.054687 0.17188 0.078125 0.29688 0.078125 0.10156 0 0.20703-0.015625 0.3125-0.046875 0.10156-0.03125 0.21094-0.070313 0.32812-0.125v0.35938c-0.11719 0.042969-0.23047 0.074219-0.34375 0.09375-0.11719 0.019531-0.23047 0.03125-0.34375 0.03125-0.27344 0-0.48047-0.066406-0.625-0.20312-0.14844-0.13281-0.21875-0.32812-0.21875-0.57812 0-0.23828 0.070312-0.42578 0.21875-0.5625 0.14453-0.14453 0.34766-0.21875 0.60938-0.21875 0.22656 0 0.41016 0.074219 0.54688 0.21875 0.14453 0.13672 0.21875 0.32422 0.21875 0.5625zm-0.48438-0.15625c0-0.09375-0.027344-0.16406-0.078125-0.21875-0.054688-0.0625-0.125-0.09375-0.21875-0.09375-0.085938 0-0.15625 0.027344-0.21875 0.078125-0.0625 0.054687-0.10156 0.13281-0.10938 0.23438z"/>
  </symbol>
  <symbol id="e" overflow="visible">
   <path d="m0.90625-0.67188c-0.10547 0-0.18359 0.015625-0.23438 0.046875-0.054687 0.03125-0.078125 0.085938-0.078125 0.15625 0 0.0625 0.019531 0.10938 0.0625 0.14062 0.039062 0.03125 0.097656 0.046875 0.17188 0.046875 0.09375 0 0.16406-0.03125 0.21875-0.09375 0.0625-0.0625 0.09375-0.14453 0.09375-0.25v-0.046875zm0.71875-0.1875v0.85938h-0.48438v-0.21875c-0.0625 0.09375-0.13672 0.16406-0.21875 0.20312-0.074219 0.03125-0.16797 0.046875-0.28125 0.046875-0.15625 0-0.28125-0.039062-0.375-0.125-0.09375-0.09375-0.14062-0.21094-0.14062-0.35938 0-0.17578 0.054688-0.30078 0.17188-0.375 0.125-0.082031 0.3125-0.125 0.5625-0.125h0.28125v-0.046875c0-0.070312-0.03125-0.125-0.09375-0.15625-0.054687-0.039062-0.14062-0.0625-0.26562-0.0625-0.10547 0-0.20312 0.011719-0.29688 0.03125-0.085937 0.023438-0.16406 0.054688-0.23438 0.09375v-0.35938c0.10156-0.03125 0.20703-0.050781 0.3125-0.0625 0.10156-0.007813 0.20312-0.015625 0.29688-0.015625 0.26953 0 0.46094 0.054688 0.57812 0.15625 0.125 0.10547 0.1875 0.27734 0.1875 0.51562z"/>
  </symbol>
  <symbol id="d" overflow="visible">
   <path d="m0.75-1.9219v0.42188h0.5v0.34375h-0.5v0.64062c0 0.0625 0.007812 0.10938 0.03125 0.14062 0.03125 0.023438 0.085938 0.03125 0.17188 0.03125h0.25v0.34375h-0.40625c-0.1875 0-0.32422-0.035156-0.40625-0.10938-0.074219-0.082031-0.10938-0.21875-0.10938-0.40625v-0.64062h-0.25v-0.34375h0.25v-0.42188z"/>
  </symbol>
  <symbol id="k" overflow="visible">
   <path d="m1.25-1.2812v-0.79688h0.48438v2.0781h-0.48438v-0.21875c-0.074219 0.09375-0.15234 0.16406-0.23438 0.20312-0.074219 0.03125-0.16406 0.046875-0.26562 0.046875-0.17969 0-0.32812-0.070312-0.45312-0.21875-0.11719-0.14453-0.17188-0.33203-0.17188-0.5625 0-0.22656 0.054688-0.41406 0.17188-0.5625 0.125-0.14453 0.27344-0.21875 0.45312-0.21875 0.10156 0 0.19141 0.023438 0.26562 0.0625 0.082031 0.042969 0.16016 0.10547 0.23438 0.1875zm-0.3125 0.96875c0.09375 0 0.16406-0.035156 0.21875-0.10938 0.0625-0.070313 0.09375-0.17969 0.09375-0.32812 0-0.13281-0.03125-0.23828-0.09375-0.3125-0.054688-0.082031-0.125-0.125-0.21875-0.125-0.10547 0-0.18359 0.042969-0.23438 0.125-0.054687 0.074219-0.078125 0.17969-0.078125 0.3125 0 0.14844 0.023438 0.25781 0.078125 0.32812 0.050781 0.074219 0.12891 0.10938 0.23438 0.10938z"/>
  </symbol>
  <symbol id="j" overflow="visible">
   <path d="m1.0312-0.3125c0.09375 0 0.16406-0.035156 0.21875-0.10938 0.0625-0.070313 0.09375-0.17969 0.09375-0.32812 0-0.13281-0.03125-0.23828-0.09375-0.3125-0.054688-0.082031-0.125-0.125-0.21875-0.125-0.10547 0-0.1875 0.042969-0.25 0.125-0.054688 0.074219-0.078125 0.17969-0.078125 0.3125 0 0.14844 0.023437 0.25781 0.078125 0.32812 0.0625 0.074219 0.14453 0.10938 0.25 0.10938zm-0.32812-0.96875c0.070313-0.082031 0.14453-0.14453 0.21875-0.1875 0.082031-0.039062 0.17578-0.0625 0.28125-0.0625 0.1875 0 0.33594 0.074219 0.45312 0.21875 0.11328 0.14844 0.17188 0.33594 0.17188 0.5625 0 0.23047-0.058594 0.41797-0.17188 0.5625-0.11719 0.14844-0.26562 0.21875-0.45312 0.21875-0.10547 0-0.19922-0.015625-0.28125-0.046875-0.074219-0.039062-0.14844-0.10938-0.21875-0.20312v0.21875h-0.46875v-2.0781h0.46875z"/>
  </symbol>
  <symbol id="i" overflow="visible">
   <path d="m0.03125-1.5h0.48438l0.39062 1.0156 0.34375-1.0156h0.48438l-0.625 1.6406c-0.0625 0.16406-0.14062 0.28125-0.23438 0.34375-0.085938 0.070313-0.19531 0.10938-0.32812 0.10938h-0.26562v-0.3125h0.14062c0.082031 0 0.14062-0.015625 0.17188-0.046875 0.039062-0.023437 0.070312-0.070313 0.09375-0.14062l0.015625-0.03125z"/>
  </symbol>
  <symbol id="c" overflow="visible">
   <path d="m1.3906-1.4531v0.375c-0.09375-0.050781-0.19531-0.085937-0.29688-0.10938-0.09375-0.019531-0.18359-0.03125-0.26562-0.03125-0.085937 0-0.15234 0.015625-0.20312 0.046875-0.042969 0.023437-0.0625 0.054687-0.0625 0.09375 0 0.042969 0.015625 0.074219 0.046875 0.09375 0.03125 0.023437 0.09375 0.039063 0.1875 0.046875l0.078125 0.015625c0.25 0.03125 0.41406 0.085937 0.5 0.15625 0.082031 0.0625 0.125 0.17188 0.125 0.32812s-0.0625 0.27734-0.1875 0.35938c-0.11719 0.074219-0.28906 0.10938-0.51562 0.10938-0.10547 0-0.21094-0.011719-0.3125-0.03125-0.10547-0.0078125-0.21094-0.03125-0.3125-0.0625v-0.35938c0.09375 0.054687 0.1875 0.089844 0.28125 0.10938 0.10156 0.023438 0.20703 0.03125 0.3125 0.03125 0.09375 0 0.16016-0.007812 0.20312-0.03125 0.050781-0.03125 0.078125-0.070312 0.078125-0.125 0-0.039062-0.015625-0.070312-0.046875-0.09375-0.03125-0.019531-0.10156-0.035156-0.20312-0.046875l-0.078125-0.015625c-0.21875-0.019531-0.37109-0.066406-0.45312-0.14062-0.085937-0.070313-0.125-0.17969-0.125-0.32812 0-0.15625 0.050781-0.26953 0.15625-0.34375 0.11328-0.082031 0.28125-0.125 0.5-0.125 0.09375 0 0.1875 0.011719 0.28125 0.03125 0.10156 0.011719 0.20703 0.027344 0.3125 0.046875z"/>
  </symbol>
  <symbol id="b" overflow="visible">
   <path d="m1.7344-0.90625v0.90625h-0.48438v-0.6875c0-0.13281-0.007812-0.22266-0.015625-0.26562 0-0.050781-0.007813-0.09375-0.015625-0.125-0.023438-0.03125-0.046875-0.050781-0.078125-0.0625-0.03125-0.019531-0.070313-0.03125-0.10938-0.03125-0.10547 0-0.1875 0.042969-0.25 0.125-0.054688 0.074219-0.078125 0.17969-0.078125 0.3125v0.73438h-0.46875v-2.0781h0.46875v0.79688c0.070313-0.082031 0.14844-0.14453 0.23438-0.1875 0.082031-0.039062 0.17188-0.0625 0.26562-0.0625 0.17578 0 0.30469 0.054688 0.39062 0.15625 0.09375 0.10547 0.14062 0.26172 0.14062 0.46875z"/>
  </symbol>
  <symbol id="h" overflow="visible">
   <path d="m1.7344-0.90625v0.90625h-0.48438v-0.70312c0-0.125-0.007812-0.20703-0.015625-0.25 0-0.050781-0.007813-0.09375-0.015625-0.125-0.023438-0.03125-0.046875-0.050781-0.078125-0.0625-0.03125-0.019531-0.070313-0.03125-0.10938-0.03125-0.10547 0-0.1875 0.042969-0.25 0.125-0.054688 0.074219-0.078125 0.17969-0.078125 0.3125v0.73438h-0.46875v-1.5h0.46875v0.21875c0.070313-0.082031 0.14844-0.14453 0.23438-0.1875 0.082031-0.039062 0.17188-0.0625 0.26562-0.0625 0.17578 0 0.30469 0.054688 0.39062 0.15625 0.09375 0.10547 0.14062 0.26172 0.14062 0.46875z"/>
  </symbol>
  <symbol id="u" overflow="visible">
   <path d="m0.23438-2.0781h0.46875v1.125l0.54688-0.54688h0.5625l-0.73438 0.6875 0.79688 0.8125h-0.57812l-0.59375-0.625v0.625h-0.46875z"/>
  </symbol>
  <symbol id="t" overflow="visible">
   <path d="m0.23438-1.5h0.46875v1.5h-0.46875zm0-0.57812h0.46875v0.39062h-0.46875z"/>
  </symbol>
  <symbol id="s" overflow="visible">
   <path d="m1.25-0.25c-0.074219 0.085938-0.15234 0.14844-0.23438 0.1875-0.074219 0.042969-0.16406 0.0625-0.26562 0.0625-0.17969 0-0.32812-0.070312-0.45312-0.21875-0.11719-0.14453-0.17188-0.32812-0.17188-0.54688s0.054688-0.39844 0.17188-0.54688c0.125-0.14453 0.27344-0.21875 0.45312-0.21875 0.10156 0 0.19141 0.023438 0.26562 0.0625 0.082031 0.042969 0.16016 0.10547 0.23438 0.1875v-0.21875h0.48438v1.3438c0 0.23828-0.078125 0.42188-0.23438 0.54688-0.15625 0.13281-0.375 0.20312-0.65625 0.20312-0.09375 0-0.1875-0.011719-0.28125-0.03125-0.085938-0.011719-0.16797-0.03125-0.25-0.0625v-0.375c0.082031 0.050781 0.16016 0.085938 0.23438 0.10938 0.082031 0.03125 0.16406 0.046875 0.25 0.046875 0.15625 0 0.26953-0.039062 0.34375-0.10938 0.070313-0.074219 0.10938-0.17969 0.10938-0.32812zm-0.3125-0.9375c-0.10547 0-0.18359 0.039062-0.23438 0.10938-0.054687 0.074219-0.078125 0.17969-0.078125 0.3125 0 0.13672 0.023438 0.24219 0.078125 0.3125 0.050781 0.074219 0.12891 0.10938 0.23438 0.10938 0.09375 0 0.16406-0.035156 0.21875-0.10938 0.0625-0.070313 0.09375-0.17578 0.09375-0.3125 0-0.13281-0.03125-0.23828-0.09375-0.3125-0.054688-0.070313-0.125-0.10938-0.21875-0.10938z"/>
  </symbol>
  <symbol id="r" overflow="visible">
   <path d="m1.2188-2.0781v0.3125h-0.26562c-0.074219 0-0.125 0.015625-0.15625 0.046875-0.023437 0.023438-0.03125 0.0625-0.03125 0.125v0.09375h0.40625v0.34375h-0.40625v1.1562h-0.46875v-1.1562h-0.25v-0.34375h0.25v-0.09375c0-0.16406 0.039063-0.28516 0.125-0.35938 0.09375-0.082031 0.23438-0.125 0.42188-0.125z"/>
  </symbol>
  <symbol id="g" overflow="visible">
   <path d="m0.9375-1.1875c-0.10547 0-0.1875 0.039062-0.25 0.10938-0.054688 0.074219-0.078125 0.18359-0.078125 0.32812 0 0.14844 0.023437 0.26172 0.078125 0.34375 0.0625 0.074219 0.14453 0.10938 0.25 0.10938 0.10156 0 0.17969-0.035156 0.23438-0.10938 0.0625-0.082031 0.09375-0.19531 0.09375-0.34375 0-0.14453-0.03125-0.25391-0.09375-0.32812-0.054687-0.070313-0.13281-0.10938-0.23438-0.10938zm0-0.34375c0.25781 0 0.46094 0.074219 0.60938 0.21875 0.14453 0.13672 0.21875 0.32422 0.21875 0.5625 0 0.25-0.074219 0.44531-0.21875 0.57812-0.14844 0.13672-0.35156 0.20312-0.60938 0.20312-0.26172 0-0.46484-0.066406-0.60938-0.20312-0.13672-0.13281-0.20312-0.32812-0.20312-0.57812 0-0.23828 0.066406-0.42578 0.20312-0.5625 0.14453-0.14453 0.34766-0.21875 0.60938-0.21875z"/>
  </symbol>
  <symbol id="q" overflow="visible">
   <path d="m1.6094-1.25c0.0625-0.09375 0.13281-0.16016 0.21875-0.20312 0.082031-0.050781 0.17578-0.078125 0.28125-0.078125 0.16406 0 0.29688 0.054688 0.39062 0.15625 0.09375 0.10547 0.14062 0.26172 0.14062 0.46875v0.90625h-0.48438v-0.78125-0.03125-0.0625c0-0.10156-0.015625-0.17578-0.046875-0.21875-0.03125-0.050781-0.085937-0.078125-0.15625-0.078125-0.085937 0-0.15234 0.039063-0.20312 0.10938-0.054688 0.074219-0.078125 0.18359-0.078125 0.32812v0.73438h-0.48438v-0.78125c0-0.16406-0.015625-0.26953-0.046875-0.3125-0.023437-0.050781-0.070313-0.078125-0.14062-0.078125-0.09375 0-0.16797 0.042969-0.21875 0.125-0.054688 0.074219-0.078125 0.17969-0.078125 0.3125v0.73438h-0.46875v-1.5h0.46875v0.21875c0.0625-0.082031 0.12891-0.14453 0.20312-0.1875 0.082031-0.039062 0.16406-0.0625 0.25-0.0625 0.10156 0 0.19141 0.027344 0.26562 0.078125 0.082031 0.054687 0.14453 0.12109 0.1875 0.20312z"/>
  </symbol>
  <symbol id="p" overflow="visible">
   <path d="m0.25-2h0.57812l0.71875 1.375v-1.375h0.48438v2h-0.5625l-0.73438-1.375v1.375h-0.48438z"/>
  </symbol>
  <symbol id="o" overflow="visible">
   <path d="m0.21875-0.57812v-0.92188h0.46875v0.15625 0.3125 0.23438 0.26562c0.007812 0.054688 0.023438 0.089844 0.046875 0.10938 0.019531 0.03125 0.046875 0.058594 0.078125 0.078125 0.03125 0.011719 0.066406 0.015625 0.10938 0.015625 0.09375 0 0.16406-0.035156 0.21875-0.10938 0.0625-0.070312 0.09375-0.17578 0.09375-0.3125v-0.75h0.48438v1.5h-0.48438v-0.21875c-0.074219 0.09375-0.15234 0.16406-0.23438 0.20312-0.074219 0.03125-0.15625 0.046875-0.25 0.046875-0.17969 0-0.3125-0.050781-0.40625-0.15625-0.085938-0.10156-0.125-0.25391-0.125-0.45312z"/>
  </symbol>
  <symbol id="n" overflow="visible">
   <path d="m0.25-2h0.85938c0.25 0 0.44141 0.058594 0.57812 0.17188 0.13281 0.11719 0.20312 0.27734 0.20312 0.48438 0 0.21094-0.070313 0.37109-0.20312 0.48438-0.13672 0.11719-0.32812 0.17188-0.57812 0.17188h-0.34375v0.6875h-0.51562zm0.51562 0.375v0.5625h0.28125c0.10156 0 0.17969-0.019531 0.23438-0.0625 0.050781-0.050781 0.078125-0.125 0.078125-0.21875s-0.027344-0.16016-0.078125-0.20312c-0.054688-0.050781-0.13281-0.078125-0.23438-0.078125z"/>
  </symbol>
  <symbol id="m" overflow="visible">
   <path d="m0.23438-1.5h0.46875v1.4688c0 0.20703-0.046875 0.36328-0.14062 0.46875-0.09375 0.10156-0.23438 0.15625-0.42188 0.15625h-0.23438v-0.3125h0.078125c0.09375 0 0.15625-0.023438 0.1875-0.0625 0.039063-0.042969 0.0625-0.125 0.0625-0.25zm0-0.57812h0.46875v0.39062h-0.46875z"/>
  </symbol>
  <symbol id="l" overflow="visible">
   <path d="m1.4375-1.4531v0.39062c-0.0625-0.039062-0.13281-0.070312-0.20312-0.09375-0.0625-0.019531-0.13281-0.03125-0.20312-0.03125-0.125 0-0.23047 0.042969-0.3125 0.125-0.074219 0.074219-0.10938 0.17969-0.10938 0.3125 0 0.14844 0.035156 0.26172 0.10938 0.34375 0.082031 0.074219 0.1875 0.10938 0.3125 0.10938 0.082031 0 0.15625-0.007813 0.21875-0.03125 0.070312-0.03125 0.13281-0.066406 0.1875-0.10938v0.39062c-0.074219 0.03125-0.15234 0.050781-0.23438 0.0625-0.074219 0.0078125-0.14844 0.015625-0.21875 0.015625-0.27344 0-0.48438-0.066406-0.64062-0.20312-0.14844-0.13281-0.21875-0.32812-0.21875-0.57812 0-0.23828 0.070312-0.42578 0.21875-0.5625 0.15625-0.14453 0.36719-0.21875 0.64062-0.21875 0.070313 0 0.14453 0.011719 0.21875 0.03125 0.082031 0.011719 0.16016 0.027344 0.23438 0.046875z"/>
  </symbol>
 </defs>
 <g>
  <path d="m575.86 425.47h-9.1875-25.375-38.227-48.016-54.086-57.039-56.656-53.047-46.102-35.875-22.367c-1.6406 0-3.3359-0.054688-4.9766 0h-0.76562c1.2578-0.10938 0 0 0 0 0.49219-0.49219 0.49219 1.0938 0.32812 0.16406-0.16406-1.0391 0 0.76563 0.27344 0.27344 0.21875-0.4375-1.2031-0.4375-0.27344-0.21875 0.65625 0.16406-0.32812-0.54688 0.054688 0 0.65625 0.92969-0.21875-0.38281 0-0.38281 16.516 0.92969 0.10937 0.98437 0.16406 0.71094v-0.10938c0.32812-4.9219 0-10.008 0-14.93v-34.945-48.617-55.836-56.766-51.242-39.484-21c0-0.54688 0.054688-1.0938 0-1.6406v-0.21875c0.054688 0.38281-0.32812 1.2031-0.054688 0.38281 0.32813-0.98438-0.16406 0.32812-0.21875 0.32812-0.49219-0.16406 1.2578-0.60156 0.10938-0.32812-0.92969 0.21875 0.49219 0.21875 0.27344-0.21875-0.27344-0.49219-0.4375 1.3125-0.27344 0.27344 0.16406-0.92969 0.16406 0.65625-0.32813 0.16406-0.27344-0.27344 2.3516 0.21875-0.054687 0 0.82031 0.10938 1.6953 0 2.5156 0h17.992 32.43 43.586 51.461 56 57.531 55.18 49.82 41.18 29.258c4.6484 0 9.3516 0.27344 14 0h0.71094c0.16406 0-1.5859 0.10938-0.38281-0.054687-1.2031 0.21875 0.54688-0.10938 0.32812 0.10937 0 0-1.3125-0.54687-0.32812-0.16406 0.92969 0.4375-0.32812-0.16406-0.27344-0.27344 0.16406 0.16406 0.32812 0.32813 0.49219 0.49219-0.16406-0.16406-0.27344-0.38281-0.4375-0.54688-0.49219 0.65625 1.0391 0.21875 0.16406 0.27344-0.16406-0.4375-0.21875-0.4375-0.054688 0 0.10938 0.49219 0.10938 0.4375 0 0 0.054688-0.49219-0.054688-0.4375-0.054688-0.16406-0.10937 1.5859 0 3.1719 0 4.7578v26.031 42.984 53.156 57.094 54.688 45.883 30.68 7.4922 1.6406 0.27344l0.16406-0.71094c-0.054687 0.10938-0.054687 0.21875-0.10938 0.32812-0.10938 0.4375-0.10938 0.4375 0.054688 0 0.875 0.054687-0.65625-0.38281-0.16406 0.27344 0.054687-0.10937 0.16406-0.16406 0.21875-0.27344 0.38281-0.4375 0.27344-0.38281-0.27344 0.21875-0.054688-0.10938 1.2031-0.71094 0.27344-0.27344-0.875 0.27344 0.4375-0.27344 0.4375-0.27344 0.10938 0.10938-2.1875 0.10938 0 0-4.2656 0.21875-8.4219 3.6094-8.2031 8.2031 0.16406 4.2656 3.6094 8.4219 8.2031 8.2031 9.4609-0.4375 15.805-7.6562 15.859-16.953v-6.9453-29.805-45.883-54.961-57.695-54.031-43.312-26.359c0-1.5312 0.054688-3.1172 0-4.6484-0.27344-9.0781-7.1641-15.75-16.188-16.023-4.2109-0.10937-8.4219 0-12.633 0h-28.438-41.07-49.93-55.836-57.805-56.875-52.008-44.188-32.539-17.828c-1.8047 0-3.3359 0.054688-5.1406 0.32813-8.2578 1.3672-12.961 8.9688-12.961 16.789v19.742 38.992 51.297 57.477 56.492 49.383 35.273c0 4.9219-0.16406 9.8984 0 14.875 0.32812 9.0234 7.1641 15.805 16.242 15.969h4.2656 21.328 35.328 46.211 53.266 57.422 57.586 54.906 48.289 38.664 25.32 8.75c4.2656 0 8.4219-3.7734 8.2031-8.2031s-3.6094-8.2031-8.2031-8.2031z"/>
  <path d="m444.06 93.516v33.961 81.211 98.492 84.82c0 13.672-0.38281 27.453 0 41.125v0.54688c0 4.2656 3.7734 8.4219 8.2031 8.2031s8.2031-3.6094 8.2031-8.2031v-33.961-81.211-98.492-84.82c0-13.672 0.38281-27.453 0-41.125v-0.54688c0-4.2656-3.7734-8.4219-8.2031-8.2031s-8.2031 3.6094-8.2031 8.2031z"/>
  <path d="m537.03 360.39c0 0.76562-0.054688 1.5312-0.10938 2.2969-0.10938 1.6406-0.054687 0.38281 0 0.054688-0.21875 1.2031-0.49219 2.4062-0.82031 3.5547-0.21875 0.71094-0.4375 1.3672-0.71094 2.0781 0.16406-0.32812 0.71094-1.3125-0.054687 0-0.71094 1.2578-1.4219 2.4609-2.1875 3.6641-1.2578 1.8594 0.65625-0.71094-0.27344 0.32813-0.38281 0.4375-0.76562 0.875-1.2031 1.3125-0.38281 0.38281-2.8438 2.5703-1.5312 1.5312-0.92969 0.71094-1.9688 1.3672-3.0078 1.9688-0.4375 0.21875-0.875 0.4375-1.2578 0.65625-0.875 0.38281-0.875 0.4375 0 0.054687-0.32812 0.10938-0.65625 0.27344-1.0391 0.38281-1.1484 0.38281-2.2969 0.71094-3.5 0.98437-0.4375 0.10938-2.0234 0.32813-0.38281 0.10938-0.60156 0.054687-1.2578 0.10937-1.8594 0.16406-1.2578 0.054688-2.5156 0-3.7734-0.10938-1.4219-0.10938 1.8594 0.4375-0.38281-0.054687-0.71094-0.16406-1.4219-0.32813-2.1328-0.49219-0.71094-0.21875-1.3672-0.4375-2.0781-0.65625-0.32812-0.10938-1.3672-0.65625-0.054687 0-1.0938-0.49219-2.1328-1.0938-3.1719-1.6953-0.49219-0.32813-0.98438-0.65625-1.4766-0.98438-1.0938-0.76562 1.3125 1.3125-0.27344-0.27344-1.0391-0.98438-2.0234-1.9688-2.9531-3.0625 0.98438 1.0938 0.16406 0.21875 0-0.054687-0.38281-0.60156-0.82031-1.2031-1.1484-1.8047-0.27344-0.49219-1.6953-3.4453-1.0938-1.9141-0.4375-1.1484-0.82031-2.2969-1.1484-3.4453-0.10938-0.49219-0.21875-0.98438-0.32812-1.4219-0.16406-0.98438-0.16406-0.98438-0.054687-0.054688-0.054688-0.38281-0.054688-0.76562-0.10938-1.1484-0.054687-1.1484-0.10937-2.2969 0-3.4453 0-0.27344 0.38281-2.6797 0.054688-0.82031 0.10938-0.49219 0.16406-0.98438 0.27344-1.4766 0.27344-1.2031 0.65625-2.3516 1.0391-3.5 0.71094-2.1328-0.76562 1.2578 0.32812-0.71094 0.32812-0.60156 0.65625-1.2578 1.0391-1.9141 0.32812-0.49219 0.65625-0.98438 0.98437-1.4766 0.21875-0.38281 1.2578-1.5312 0.21875-0.32812 0.76563-0.875 1.5859-1.75 2.4609-2.5703-0.054688 0.054687 1.6953-1.4766 0.82031-0.76563-0.92969 0.76563 0.92969-0.65625 0.875-0.60156 1.2031-0.82031 2.4609-1.4766 3.7188-2.1328-0.32812 0.16406-1.4219 0.49219 0.054688 0 0.71094-0.21875 1.3672-0.49219 2.0781-0.65625 0.49219-0.10938 0.92969-0.27344 1.4219-0.38281-0.054688 0 2.3516-0.4375 1.0938-0.21875-1.2031 0.16406 1.2031-0.10938 1.1484-0.054687 0.65625-0.054688 1.2578-0.054688 1.9141-0.054688s1.2578 0.054688 1.9141 0.10938c1.9141 0.054687-0.92969-0.32812 0.76563 0.10938 1.4219 0.38281 2.8438 0.71094 4.2109 1.2031 2.1875 0.71094-0.875-0.4375 0.38281 0.16406 0.76562 0.38281 1.4766 0.76562 2.1875 1.2031 0.38281 0.21875 0.82031 0.49219 1.2031 0.76563 0.38281 0.27344 0.76563 0.54687 1.1484 0.82031-0.71094-0.54688-0.71094-0.54688 0 0.054688 0.82031 0.82031 1.6953 1.6953 2.5156 2.5156 1.5859 1.5859-0.76562-1.2578 0.49219 0.60156 0.38281 0.60156 0.82031 1.2031 1.1484 1.8047 0.38281 0.60156 0.65625 1.2578 1.0391 1.9141 0.82031 1.4766-0.27344-1.0938 0.32813 0.71094 0.49219 1.4219 0.82031 2.7891 1.2031 4.2109 0.054688 0.32812 0.21875 1.5859 0.054688 0.054688-0.054688 0.875 0 1.8594 0 2.8984 0.054688 4.2656 3.7188 8.4219 8.2031 8.2031 4.375-0.21875 8.2578-3.6094 8.2031-8.2031-0.21875-15.094-9.5156-28.109-23.57-33.414-13.453-5.0859-29.914-0.71094-39.047 10.445-9.5156 11.594-11.375 28.109-3.5547 41.18 7.8203 13.07 22.859 19.305 37.625 16.68 16.516-2.9531 28.273-18.375 28.492-34.836 0.054688-4.2656-3.8281-8.4219-8.2031-8.2031-4.4297 0.16406-8.0938 3.5547-8.1484 8.1484z"/>
  <path d="m537.03 275.08c0 0.76562-0.054688 1.5312-0.10938 2.2969-0.10938 1.6406-0.054687 0.38281 0 0.054688-0.21875 1.2031-0.49219 2.4062-0.82031 3.5547-0.21875 0.71094-0.4375 1.3672-0.71094 2.0781 0.16406-0.32812 0.71094-1.3125-0.054687 0-0.71094 1.2578-1.4219 2.4609-2.1875 3.6641-1.2578 1.8594 0.65625-0.71094-0.27344 0.32813-0.38281 0.4375-0.76562 0.875-1.2031 1.3125-0.38281 0.38281-2.8438 2.5703-1.5312 1.5312-0.92969 0.71094-1.9688 1.3672-3.0078 1.9688-0.4375 0.21875-0.875 0.4375-1.2578 0.65625-0.875 0.38281-0.875 0.4375 0 0.054687-0.32812 0.10938-0.65625 0.27344-1.0391 0.38281-1.1484 0.38281-2.2969 0.71094-3.5 0.98437-0.4375 0.10938-2.0234 0.32813-0.38281 0.10938-0.60156 0.054687-1.2578 0.10937-1.8594 0.16406-1.2578 0.054688-2.5156 0-3.7734-0.10938-1.4219-0.10938 1.8594 0.4375-0.38281-0.054687-0.71094-0.16406-1.4219-0.32813-2.1328-0.49219-0.71094-0.21875-1.3672-0.4375-2.0781-0.65625-0.32812-0.10938-1.3672-0.65625-0.054687 0-1.0938-0.49219-2.1328-1.0938-3.1719-1.6953-0.49219-0.32813-0.98438-0.65625-1.4766-0.98438-1.0938-0.76562 1.3125 1.3125-0.27344-0.27344-1.0391-0.98438-2.0234-1.9688-2.9531-3.0625 0.98438 1.0938 0.16406 0.21875 0-0.054687-0.38281-0.60156-0.82031-1.2031-1.1484-1.8047-0.27344-0.49219-1.6953-3.4453-1.0938-1.9141-0.4375-1.1484-0.82031-2.2969-1.1484-3.4453-0.10938-0.49219-0.21875-0.98438-0.32812-1.4219-0.16406-0.98438-0.16406-0.98438-0.054687-0.054688-0.054688-0.38281-0.054688-0.76562-0.10938-1.1484-0.054687-1.1484-0.10937-2.2969 0-3.4453 0-0.27344 0.38281-2.6797 0.054688-0.82031 0.10938-0.49219 0.16406-0.98438 0.27344-1.4766 0.27344-1.2031 0.65625-2.3516 1.0391-3.5 0.71094-2.1328-0.76562 1.2578 0.32812-0.71094 0.32812-0.60156 0.65625-1.2578 1.0391-1.9141 0.32812-0.49219 0.65625-0.98438 0.98437-1.4766 0.21875-0.38281 1.2578-1.5312 0.21875-0.32812 0.76563-0.875 1.5859-1.75 2.4609-2.5703-0.054688 0.054687 1.6953-1.4766 0.82031-0.76563-0.92969 0.76563 0.92969-0.65625 0.875-0.60156 1.2031-0.82031 2.4609-1.4766 3.7188-2.1328-0.32812 0.16406-1.4219 0.49219 0.054688 0 0.71094-0.21875 1.3672-0.49219 2.0781-0.65625 0.49219-0.10938 0.92969-0.27344 1.4219-0.38281-0.054688 0 2.3516-0.4375 1.0938-0.21875-1.2031 0.16406 1.2031-0.10938 1.1484-0.054687 0.65625-0.054688 1.2578-0.054688 1.9141-0.054688s1.2578 0.054688 1.9141 0.10938c1.9141 0.054687-0.92969-0.32812 0.76563 0.10938 1.4219 0.38281 2.8438 0.71094 4.2109 1.2031 2.1875 0.71094-0.875-0.4375 0.38281 0.16406 0.76562 0.38281 1.4766 0.76562 2.1875 1.2031 0.38281 0.21875 0.82031 0.49219 1.2031 0.76563 0.38281 0.27344 0.76563 0.54687 1.1484 0.82031-0.71094-0.54688-0.71094-0.54688 0 0.054688 0.82031 0.82031 1.6953 1.6953 2.5156 2.5156 1.5859 1.5859-0.76562-1.2578 0.49219 0.60156 0.38281 0.60156 0.82031 1.2031 1.1484 1.8047 0.38281 0.60156 0.65625 1.2578 1.0391 1.9141 0.82031 1.4766-0.27344-1.0938 0.32813 0.71094 0.49219 1.4219 0.82031 2.7891 1.2031 4.2109 0.054688 0.32812 0.21875 1.5859 0.054688 0.054688-0.054688 0.875 0 1.8594 0 2.8984 0.054688 4.2656 3.7188 8.4219 8.2031 8.2031 4.375-0.21875 8.2578-3.6094 8.2031-8.2031-0.21875-15.094-9.5156-28.109-23.57-33.414-13.453-5.0859-29.914-0.71094-39.047 10.445-9.5156 11.594-11.375 28.109-3.5547 41.18 7.8203 13.07 22.859 19.305 37.625 16.68 16.516-2.9531 28.273-18.375 28.492-34.836 0.054688-4.2656-3.8281-8.4219-8.2031-8.2031-4.4297 0.16406-8.0938 3.5547-8.1484 8.1484z"/>
  <path d="m152.03 433.67v32.812c0 4.2656 3.7734 8.4219 8.2031 8.2031s8.2031-3.6094 8.2031-8.2031v-32.812c0-4.2656-3.7734-8.4219-8.2031-8.2031s-8.2031 3.6094-8.2031 8.2031z"/>
  <path d="m531.56 433.67v32.812c0 4.2656 3.7734 8.4219 8.2031 8.2031s8.2031-3.6094 8.2031-8.2031v-32.812c0-4.2656-3.7734-8.4219-8.2031-8.2031s-8.2031 3.6094-8.2031 8.2031z"/>
  <path d="m496.02 204.53h43.75c4.2656 0 8.4219-3.7734 8.2031-8.2031s-3.6094-8.2031-8.2031-8.2031h-43.75c-4.2656 0-8.4219 3.7734-8.2031 8.2031s3.6094 8.2031 8.2031 8.2031z"/>
  <path d="m496.02 156.41h43.75c4.2656 0 8.4219-3.7734 8.2031-8.2031s-3.6094-8.2031-8.2031-8.2031h-43.75c-4.2656 0-8.4219 3.7734-8.2031 8.2031s3.6094 8.2031 8.2031 8.2031z"/>
  <use x="70" y="568.203125" xlink:href="#v"/>
  <use x="72.007812" y="568.203125" xlink:href="#f"/>
  <use x="73.355469" y="568.203125" xlink:href="#a"/>
  <use x="75.210937" y="568.203125" xlink:href="#e"/>
  <use x="77.054688" y="568.203125" xlink:href="#d"/>
  <use x="78.363281" y="568.203125" xlink:href="#a"/>
  <use x="80.214844" y="568.203125" xlink:href="#k"/>
  <use x="83.125" y="568.203125" xlink:href="#j"/>
  <use x="85.082031" y="568.203125" xlink:href="#i"/>
  <use x="87.816406" y="568.203125" xlink:href="#c"/>
  <use x="89.445312" y="568.203125" xlink:href="#b"/>
  <use x="91.390625" y="568.203125" xlink:href="#e"/>
  <use x="93.238281" y="568.203125" xlink:href="#c"/>
  <use x="94.863281" y="568.203125" xlink:href="#b"/>
  <use x="96.8125" y="568.203125" xlink:href="#e"/>
  <use x="98.65625" y="568.203125" xlink:href="#h"/>
  <use x="100.601562" y="568.203125" xlink:href="#u"/>
  <use x="103.375" y="568.203125" xlink:href="#c"/>
  <use x="105" y="568.203125" xlink:href="#t"/>
  <use x="105.9375" y="568.203125" xlink:href="#h"/>
  <use x="107.882812" y="568.203125" xlink:href="#s"/>
  <use x="109.84375" y="568.203125" xlink:href="#b"/>
  <use x="70" y="570.9375" xlink:href="#r"/>
  <use x="71.191406" y="570.9375" xlink:href="#f"/>
  <use x="72.539062" y="570.9375" xlink:href="#g"/>
  <use x="74.417969" y="570.9375" xlink:href="#q"/>
  <use x="78.21875" y="570.9375" xlink:href="#d"/>
  <use x="79.523438" y="570.9375" xlink:href="#b"/>
  <use x="81.472656" y="570.9375" xlink:href="#a"/>
  <use x="84.277344" y="570.9375" xlink:href="#p"/>
  <use x="86.566406" y="570.9375" xlink:href="#g"/>
  <use x="88.445312" y="570.9375" xlink:href="#o"/>
  <use x="90.390625" y="570.9375" xlink:href="#h"/>
  <use x="93.289062" y="570.9375" xlink:href="#n"/>
  <use x="95.292969" y="570.9375" xlink:href="#f"/>
  <use x="96.644531" y="570.9375" xlink:href="#g"/>
  <use x="98.519531" y="570.9375" xlink:href="#m"/>
  <use x="99.457031" y="570.9375" xlink:href="#a"/>
  <use x="101.3125" y="570.9375" xlink:href="#l"/>
  <use x="102.933594" y="570.9375" xlink:href="#d"/>
 </g>
</svg>
