<?xml version="1.0" encoding="UTF-8"?>
<svg width="700pt" height="700pt" version="1.1" viewBox="0 0 700 700" xmlns="http://www.w3.org/2000/svg" xmlns:xlink="http://www.w3.org/1999/xlink">
 <defs>
  <symbol id="v" overflow="visible">
   <path d="m1.8281-0.10938c-0.09375 0.054688-0.19531 0.089844-0.29688 0.10938-0.09375 0.019531-0.19922 0.03125-0.3125 0.03125-0.33594 0-0.60156-0.085938-0.79688-0.26562-0.1875-0.1875-0.28125-0.44141-0.28125-0.76562 0-0.3125 0.09375-0.5625 0.28125-0.75 0.19531-0.1875 0.46094-0.28125 0.79688-0.28125 0.11328 0 0.21875 0.015625 0.3125 0.046875 0.10156 0.023437 0.20312 0.058594 0.29688 0.10938v0.40625c-0.09375-0.0625-0.1875-0.10938-0.28125-0.14062s-0.19531-0.046875-0.29688-0.046875c-0.17969 0-0.32031 0.0625-0.42188 0.1875-0.10547 0.11719-0.15625 0.27344-0.15625 0.46875 0 0.21094 0.050781 0.375 0.15625 0.5 0.10156 0.11719 0.24219 0.17188 0.42188 0.17188 0.10156 0 0.20312-0.015625 0.29688-0.046875s0.1875-0.078125 0.28125-0.14062z"/>
  </symbol>
  <symbol id="f" overflow="visible">
   <path d="m1.3438-1.0938c-0.042969-0.019531-0.085938-0.03125-0.125-0.03125-0.042969-0.007812-0.085938-0.015625-0.125-0.015625-0.125 0-0.22656 0.042969-0.29688 0.125-0.0625 0.074219-0.09375 0.18359-0.09375 0.32812v0.6875h-0.46875v-1.5h0.46875v0.25c0.0625-0.09375 0.12891-0.16016 0.20312-0.20312 0.082031-0.050781 0.17969-0.078125 0.29688-0.078125h0.046875c0.019531 0 0.050781 0.007812 0.09375 0.015625z"/>
  </symbol>
  <symbol id="a" overflow="visible">
   <path d="m1.7188-0.75v0.14062h-1.1094c0.007813 0.10547 0.046875 0.1875 0.10938 0.25 0.070312 0.054687 0.17188 0.078125 0.29688 0.078125 0.10156 0 0.20703-0.015625 0.3125-0.046875 0.10156-0.03125 0.21094-0.070313 0.32812-0.125v0.35938c-0.11719 0.042969-0.23047 0.074219-0.34375 0.09375-0.11719 0.019531-0.23047 0.03125-0.34375 0.03125-0.27344 0-0.48047-0.066406-0.625-0.20312-0.14844-0.13281-0.21875-0.32812-0.21875-0.57812 0-0.23828 0.070312-0.42578 0.21875-0.5625 0.14453-0.14453 0.34766-0.21875 0.60938-0.21875 0.22656 0 0.41016 0.074219 0.54688 0.21875 0.14453 0.13672 0.21875 0.32422 0.21875 0.5625zm-0.48438-0.15625c0-0.09375-0.027344-0.16406-0.078125-0.21875-0.054688-0.0625-0.125-0.09375-0.21875-0.09375-0.085938 0-0.15625 0.027344-0.21875 0.078125-0.0625 0.054687-0.10156 0.13281-0.10938 0.23438z"/>
  </symbol>
  <symbol id="e" overflow="visible">
   <path d="m0.90625-0.67188c-0.10547 0-0.18359 0.015625-0.23438 0.046875-0.054687 0.03125-0.078125 0.085938-0.078125 0.15625 0 0.0625 0.019531 0.10938 0.0625 0.14062 0.039062 0.03125 0.097656 0.046875 0.17188 0.046875 0.09375 0 0.16406-0.03125 0.21875-0.09375 0.0625-0.0625 0.09375-0.14453 0.09375-0.25v-0.046875zm0.71875-0.1875v0.85938h-0.48438v-0.21875c-0.0625 0.09375-0.13672 0.16406-0.21875 0.20312-0.074219 0.03125-0.16797 0.046875-0.28125 0.046875-0.15625 0-0.28125-0.039062-0.375-0.125-0.09375-0.09375-0.14062-0.21094-0.14062-0.35938 0-0.17578 0.054688-0.30078 0.17188-0.375 0.125-0.082031 0.3125-0.125 0.5625-0.125h0.28125v-0.046875c0-0.070312-0.03125-0.125-0.09375-0.15625-0.054687-0.039062-0.14062-0.0625-0.26562-0.0625-0.10547 0-0.20312 0.011719-0.29688 0.03125-0.085937 0.023438-0.16406 0.054688-0.23438 0.09375v-0.35938c0.10156-0.03125 0.20703-0.050781 0.3125-0.0625 0.10156-0.007813 0.20312-0.015625 0.29688-0.015625 0.26953 0 0.46094 0.054688 0.57812 0.15625 0.125 0.10547 0.1875 0.27734 0.1875 0.51562z"/>
  </symbol>
  <symbol id="d" overflow="visible">
   <path d="m0.75-1.9219v0.42188h0.5v0.34375h-0.5v0.64062c0 0.0625 0.007812 0.10938 0.03125 0.14062 0.03125 0.023438 0.085938 0.03125 0.17188 0.03125h0.25v0.34375h-0.40625c-0.1875 0-0.32422-0.035156-0.40625-0.10938-0.074219-0.082031-0.10938-0.21875-0.10938-0.40625v-0.64062h-0.25v-0.34375h0.25v-0.42188z"/>
  </symbol>
  <symbol id="k" overflow="visible">
   <path d="m1.25-1.2812v-0.79688h0.48438v2.0781h-0.48438v-0.21875c-0.074219 0.09375-0.15234 0.16406-0.23438 0.20312-0.074219 0.03125-0.16406 0.046875-0.26562 0.046875-0.17969 0-0.32812-0.070312-0.45312-0.21875-0.11719-0.14453-0.17188-0.33203-0.17188-0.5625 0-0.22656 0.054688-0.41406 0.17188-0.5625 0.125-0.14453 0.27344-0.21875 0.45312-0.21875 0.10156 0 0.19141 0.023438 0.26562 0.0625 0.082031 0.042969 0.16016 0.10547 0.23438 0.1875zm-0.3125 0.96875c0.09375 0 0.16406-0.035156 0.21875-0.10938 0.0625-0.070313 0.09375-0.17969 0.09375-0.32812 0-0.13281-0.03125-0.23828-0.09375-0.3125-0.054688-0.082031-0.125-0.125-0.21875-0.125-0.10547 0-0.18359 0.042969-0.23438 0.125-0.054687 0.074219-0.078125 0.17969-0.078125 0.3125 0 0.14844 0.023438 0.25781 0.078125 0.32812 0.050781 0.074219 0.12891 0.10938 0.23438 0.10938z"/>
  </symbol>
  <symbol id="j" overflow="visible">
   <path d="m1.0312-0.3125c0.09375 0 0.16406-0.035156 0.21875-0.10938 0.0625-0.070313 0.09375-0.17969 0.09375-0.32812 0-0.13281-0.03125-0.23828-0.09375-0.3125-0.054688-0.082031-0.125-0.125-0.21875-0.125-0.10547 0-0.1875 0.042969-0.25 0.125-0.054688 0.074219-0.078125 0.17969-0.078125 0.3125 0 0.14844 0.023437 0.25781 0.078125 0.32812 0.0625 0.074219 0.14453 0.10938 0.25 0.10938zm-0.32812-0.96875c0.070313-0.082031 0.14453-0.14453 0.21875-0.1875 0.082031-0.039062 0.17578-0.0625 0.28125-0.0625 0.1875 0 0.33594 0.074219 0.45312 0.21875 0.11328 0.14844 0.17188 0.33594 0.17188 0.5625 0 0.23047-0.058594 0.41797-0.17188 0.5625-0.11719 0.14844-0.26562 0.21875-0.45312 0.21875-0.10547 0-0.19922-0.015625-0.28125-0.046875-0.074219-0.039062-0.14844-0.10938-0.21875-0.20312v0.21875h-0.46875v-2.0781h0.46875z"/>
  </symbol>
  <symbol id="i" overflow="visible">
   <path d="m0.03125-1.5h0.48438l0.39062 1.0156 0.34375-1.0156h0.48438l-0.625 1.6406c-0.0625 0.16406-0.14062 0.28125-0.23438 0.34375-0.085938 0.070313-0.19531 0.10938-0.32812 0.10938h-0.26562v-0.3125h0.14062c0.082031 0 0.14062-0.015625 0.17188-0.046875 0.039062-0.023437 0.070312-0.070313 0.09375-0.14062l0.015625-0.03125z"/>
  </symbol>
  <symbol id="c" overflow="visible">
   <path d="m1.3906-1.4531v0.375c-0.09375-0.050781-0.19531-0.085937-0.29688-0.10938-0.09375-0.019531-0.18359-0.03125-0.26562-0.03125-0.085937 0-0.15234 0.015625-0.20312 0.046875-0.042969 0.023437-0.0625 0.054687-0.0625 0.09375 0 0.042969 0.015625 0.074219 0.046875 0.09375 0.03125 0.023437 0.09375 0.039063 0.1875 0.046875l0.078125 0.015625c0.25 0.03125 0.41406 0.085937 0.5 0.15625 0.082031 0.0625 0.125 0.17188 0.125 0.32812s-0.0625 0.27734-0.1875 0.35938c-0.11719 0.074219-0.28906 0.10938-0.51562 0.10938-0.10547 0-0.21094-0.011719-0.3125-0.03125-0.10547-0.0078125-0.21094-0.03125-0.3125-0.0625v-0.35938c0.09375 0.054687 0.1875 0.089844 0.28125 0.10938 0.10156 0.023438 0.20703 0.03125 0.3125 0.03125 0.09375 0 0.16016-0.007812 0.20312-0.03125 0.050781-0.03125 0.078125-0.070312 0.078125-0.125 0-0.039062-0.015625-0.070312-0.046875-0.09375-0.03125-0.019531-0.10156-0.035156-0.20312-0.046875l-0.078125-0.015625c-0.21875-0.019531-0.37109-0.066406-0.45312-0.14062-0.085937-0.070313-0.125-0.17969-0.125-0.32812 0-0.15625 0.050781-0.26953 0.15625-0.34375 0.11328-0.082031 0.28125-0.125 0.5-0.125 0.09375 0 0.1875 0.011719 0.28125 0.03125 0.10156 0.011719 0.20703 0.027344 0.3125 0.046875z"/>
  </symbol>
  <symbol id="b" overflow="visible">
   <path d="m1.7344-0.90625v0.90625h-0.48438v-0.6875c0-0.13281-0.007812-0.22266-0.015625-0.26562 0-0.050781-0.007813-0.09375-0.015625-0.125-0.023438-0.03125-0.046875-0.050781-0.078125-0.0625-0.03125-0.019531-0.070313-0.03125-0.10938-0.03125-0.10547 0-0.1875 0.042969-0.25 0.125-0.054688 0.074219-0.078125 0.17969-0.078125 0.3125v0.73438h-0.46875v-2.0781h0.46875v0.79688c0.070313-0.082031 0.14844-0.14453 0.23438-0.1875 0.082031-0.039062 0.17188-0.0625 0.26562-0.0625 0.17578 0 0.30469 0.054688 0.39062 0.15625 0.09375 0.10547 0.14062 0.26172 0.14062 0.46875z"/>
  </symbol>
  <symbol id="h" overflow="visible">
   <path d="m1.7344-0.90625v0.90625h-0.48438v-0.70312c0-0.125-0.007812-0.20703-0.015625-0.25 0-0.050781-0.007813-0.09375-0.015625-0.125-0.023438-0.03125-0.046875-0.050781-0.078125-0.0625-0.03125-0.019531-0.070313-0.03125-0.10938-0.03125-0.10547 0-0.1875 0.042969-0.25 0.125-0.054688 0.074219-0.078125 0.17969-0.078125 0.3125v0.73438h-0.46875v-1.5h0.46875v0.21875c0.070313-0.082031 0.14844-0.14453 0.23438-0.1875 0.082031-0.039062 0.17188-0.0625 0.26562-0.0625 0.17578 0 0.30469 0.054688 0.39062 0.15625 0.09375 0.10547 0.14062 0.26172 0.14062 0.46875z"/>
  </symbol>
  <symbol id="u" overflow="visible">
   <path d="m0.23438-2.0781h0.46875v1.125l0.54688-0.54688h0.5625l-0.73438 0.6875 0.79688 0.8125h-0.57812l-0.59375-0.625v0.625h-0.46875z"/>
  </symbol>
  <symbol id="t" overflow="visible">
   <path d="m0.23438-1.5h0.46875v1.5h-0.46875zm0-0.57812h0.46875v0.39062h-0.46875z"/>
  </symbol>
  <symbol id="s" overflow="visible">
   <path d="m1.25-0.25c-0.074219 0.085938-0.15234 0.14844-0.23438 0.1875-0.074219 0.042969-0.16406 0.0625-0.26562 0.0625-0.17969 0-0.32812-0.070312-0.45312-0.21875-0.11719-0.14453-0.17188-0.32812-0.17188-0.54688s0.054688-0.39844 0.17188-0.54688c0.125-0.14453 0.27344-0.21875 0.45312-0.21875 0.10156 0 0.19141 0.023438 0.26562 0.0625 0.082031 0.042969 0.16016 0.10547 0.23438 0.1875v-0.21875h0.48438v1.3438c0 0.23828-0.078125 0.42188-0.23438 0.54688-0.15625 0.13281-0.375 0.20312-0.65625 0.20312-0.09375 0-0.1875-0.011719-0.28125-0.03125-0.085938-0.011719-0.16797-0.03125-0.25-0.0625v-0.375c0.082031 0.050781 0.16016 0.085938 0.23438 0.10938 0.082031 0.03125 0.16406 0.046875 0.25 0.046875 0.15625 0 0.26953-0.039062 0.34375-0.10938 0.070313-0.074219 0.10938-0.17969 0.10938-0.32812zm-0.3125-0.9375c-0.10547 0-0.18359 0.039062-0.23438 0.10938-0.054687 0.074219-0.078125 0.17969-0.078125 0.3125 0 0.13672 0.023438 0.24219 0.078125 0.3125 0.050781 0.074219 0.12891 0.10938 0.23438 0.10938 0.09375 0 0.16406-0.035156 0.21875-0.10938 0.0625-0.070313 0.09375-0.17578 0.09375-0.3125 0-0.13281-0.03125-0.23828-0.09375-0.3125-0.054688-0.070313-0.125-0.10938-0.21875-0.10938z"/>
  </symbol>
  <symbol id="r" overflow="visible">
   <path d="m1.2188-2.0781v0.3125h-0.26562c-0.074219 0-0.125 0.015625-0.15625 0.046875-0.023437 0.023438-0.03125 0.0625-0.03125 0.125v0.09375h0.40625v0.34375h-0.40625v1.1562h-0.46875v-1.1562h-0.25v-0.34375h0.25v-0.09375c0-0.16406 0.039063-0.28516 0.125-0.35938 0.09375-0.082031 0.23438-0.125 0.42188-0.125z"/>
  </symbol>
  <symbol id="g" overflow="visible">
   <path d="m0.9375-1.1875c-0.10547 0-0.1875 0.039062-0.25 0.10938-0.054688 0.074219-0.078125 0.18359-0.078125 0.32812 0 0.14844 0.023437 0.26172 0.078125 0.34375 0.0625 0.074219 0.14453 0.10938 0.25 0.10938 0.10156 0 0.17969-0.035156 0.23438-0.10938 0.0625-0.082031 0.09375-0.19531 0.09375-0.34375 0-0.14453-0.03125-0.25391-0.09375-0.32812-0.054687-0.070313-0.13281-0.10938-0.23438-0.10938zm0-0.34375c0.25781 0 0.46094 0.074219 0.60938 0.21875 0.14453 0.13672 0.21875 0.32422 0.21875 0.5625 0 0.25-0.074219 0.44531-0.21875 0.57812-0.14844 0.13672-0.35156 0.20312-0.60938 0.20312-0.26172 0-0.46484-0.066406-0.60938-0.20312-0.13672-0.13281-0.20312-0.32812-0.20312-0.57812 0-0.23828 0.066406-0.42578 0.20312-0.5625 0.14453-0.14453 0.34766-0.21875 0.60938-0.21875z"/>
  </symbol>
  <symbol id="q" overflow="visible">
   <path d="m1.6094-1.25c0.0625-0.09375 0.13281-0.16016 0.21875-0.20312 0.082031-0.050781 0.17578-0.078125 0.28125-0.078125 0.16406 0 0.29688 0.054688 0.39062 0.15625 0.09375 0.10547 0.14062 0.26172 0.14062 0.46875v0.90625h-0.48438v-0.78125-0.03125-0.0625c0-0.10156-0.015625-0.17578-0.046875-0.21875-0.03125-0.050781-0.085937-0.078125-0.15625-0.078125-0.085937 0-0.15234 0.039063-0.20312 0.10938-0.054688 0.074219-0.078125 0.18359-0.078125 0.32812v0.73438h-0.48438v-0.78125c0-0.16406-0.015625-0.26953-0.046875-0.3125-0.023437-0.050781-0.070313-0.078125-0.14062-0.078125-0.09375 0-0.16797 0.042969-0.21875 0.125-0.054688 0.074219-0.078125 0.17969-0.078125 0.3125v0.73438h-0.46875v-1.5h0.46875v0.21875c0.0625-0.082031 0.12891-0.14453 0.20312-0.1875 0.082031-0.039062 0.16406-0.0625 0.25-0.0625 0.10156 0 0.19141 0.027344 0.26562 0.078125 0.082031 0.054687 0.14453 0.12109 0.1875 0.20312z"/>
  </symbol>
  <symbol id="p" overflow="visible">
   <path d="m0.25-2h0.57812l0.71875 1.375v-1.375h0.48438v2h-0.5625l-0.73438-1.375v1.375h-0.48438z"/>
  </symbol>
  <symbol id="o" overflow="visible">
   <path d="m0.21875-0.57812v-0.92188h0.46875v0.15625 0.3125 0.23438 0.26562c0.007812 0.054688 0.023438 0.089844 0.046875 0.10938 0.019531 0.03125 0.046875 0.058594 0.078125 0.078125 0.03125 0.011719 0.066406 0.015625 0.10938 0.015625 0.09375 0 0.16406-0.035156 0.21875-0.10938 0.0625-0.070312 0.09375-0.17578 0.09375-0.3125v-0.75h0.48438v1.5h-0.48438v-0.21875c-0.074219 0.09375-0.15234 0.16406-0.23438 0.20312-0.074219 0.03125-0.15625 0.046875-0.25 0.046875-0.17969 0-0.3125-0.050781-0.40625-0.15625-0.085938-0.10156-0.125-0.25391-0.125-0.45312z"/>
  </symbol>
  <symbol id="n" overflow="visible">
   <path d="m0.25-2h0.85938c0.25 0 0.44141 0.058594 0.57812 0.17188 0.13281 0.11719 0.20312 0.27734 0.20312 0.48438 0 0.21094-0.070313 0.37109-0.20312 0.48438-0.13672 0.11719-0.32812 0.17188-0.57812 0.17188h-0.34375v0.6875h-0.51562zm0.51562 0.375v0.5625h0.28125c0.10156 0 0.17969-0.019531 0.23438-0.0625 0.050781-0.050781 0.078125-0.125 0.078125-0.21875s-0.027344-0.16016-0.078125-0.20312c-0.054688-0.050781-0.13281-0.078125-0.23438-0.078125z"/>
  </symbol>
  <symbol id="m" overflow="visible">
   <path d="m0.23438-1.5h0.46875v1.4688c0 0.20703-0.046875 0.36328-0.14062 0.46875-0.09375 0.10156-0.23438 0.15625-0.42188 0.15625h-0.23438v-0.3125h0.078125c0.09375 0 0.15625-0.023438 0.1875-0.0625 0.039063-0.042969 0.0625-0.125 0.0625-0.25zm0-0.57812h0.46875v0.39062h-0.46875z"/>
  </symbol>
  <symbol id="l" overflow="visible">
   <path d="m1.4375-1.4531v0.39062c-0.0625-0.039062-0.13281-0.070312-0.20312-0.09375-0.0625-0.019531-0.13281-0.03125-0.20312-0.03125-0.125 0-0.23047 0.042969-0.3125 0.125-0.074219 0.074219-0.10938 0.17969-0.10938 0.3125 0 0.14844 0.035156 0.26172 0.10938 0.34375 0.082031 0.074219 0.1875 0.10938 0.3125 0.10938 0.082031 0 0.15625-0.007813 0.21875-0.03125 0.070312-0.03125 0.13281-0.066406 0.1875-0.10938v0.39062c-0.074219 0.03125-0.15234 0.050781-0.23438 0.0625-0.074219 0.0078125-0.14844 0.015625-0.21875 0.015625-0.27344 0-0.48438-0.066406-0.64062-0.20312-0.14844-0.13281-0.21875-0.32812-0.21875-0.57812 0-0.23828 0.070312-0.42578 0.21875-0.5625 0.15625-0.14453 0.36719-0.21875 0.64062-0.21875 0.070313 0 0.14453 0.011719 0.21875 0.03125 0.082031 0.011719 0.16016 0.027344 0.23438 0.046875z"/>
  </symbol>
 </defs>
 <g>
  <path d="m289.68 301.82v37.133 59.5 13.617l8.2031-8.2031c2.7344 2.7344 5.4688 5.4688 8.2031 8.2031v-37.133-59.5-13.617l-8.2031 8.2031c4.2656 0 8.4219-3.7734 8.2031-8.2031-0.21875-4.4297-3.6094-8.2031-8.2031-8.2031-4.4844 0-8.2578 3.7188-8.2031 8.2031v37.133 59.5 13.617c0 4.4297 3.7734 8.2031 8.2031 8.2031 4.4297 0 8.2031-3.7734 8.2031-8.2031v-37.133-59.5-13.617c0-4.2656-3.7734-8.4219-8.2031-8.2031-4.4297 0.16406-8.2031 3.6094-8.2031 8.2031z"/>
  <path d="m459.81 327.03c2.2969 1.8594 4.4844 3.8828 6.2891 6.2344-0.92969-1.2031 0.60156 0.92969 0.65625 0.92969 0.38281 0.54688 0.71094 1.1484 1.0938 1.6953 0.32813 0.60156 0.65625 1.1484 0.98438 1.75 0.10937 0.27344 1.3672 3.0078 0.875 1.75 0.98437 2.3516 1.9141 6.0703 2.1328 7.7656 0.27344 1.8594 0.27344 5.8516-0.054688 8.5859 0.21875-1.9141-0.10937 0.54687-0.16406 0.76562-0.10938 0.60156-0.27344 1.2031-0.38281 1.8047-0.32813 1.3125-0.76563 2.5703-1.2031 3.8281-0.71094 2.2422 0.71094-1.3672-0.27344 0.71094-0.21875 0.4375-0.38281 0.875-0.60156 1.3125-0.71094 1.3672-1.4766 2.7344-2.3516 4.0469-0.32812 0.49219-0.65625 0.98437-1.0391 1.4766 1.0391-1.4766-0.32813 0.38281-0.49219 0.54688-0.76562 0.875-1.5859 1.75-2.4609 2.5703-0.49219 0.49219-1.0391 0.98437-1.5859 1.4219-0.16406 0.16406-2.0234 1.5859-0.54688 0.49219-1.1484 0.82031-2.3516 1.6406-3.6094 2.3516-3.9922 2.2969-8.5859 3.6641-12.578 3.8828-1.5312 0.10938-3.0625 0.10938-4.5938 0-0.49219-0.054687-0.98438-0.054687-1.5312-0.10938-2.4062-0.21875 1.5312 0.38281-0.76562-0.10938-1.2031-0.27344-2.4062-0.49219-3.6094-0.82031-0.71094-0.21875-1.4219-0.4375-2.0781-0.65625-0.4375-0.16406-0.92969-0.32812-1.3672-0.49219 0.82031 0.38281 0.82031 0.38281-0.054688 0-2.1875-1.0391-4.2109-2.2422-6.2344-3.6094-1.9141-1.2578 1.0938 1.0391-0.60156-0.4375-0.54687-0.49219-1.0938-0.92969-1.5859-1.4219-1.0391-0.98438-2.0234-2.0234-2.9531-3.0625-0.16406-0.16406-1.5859-2.0234-0.49219-0.54688-0.27344-0.38281-0.54687-0.76562-0.82031-1.1484-0.82031-1.2031-1.5312-2.4062-2.2422-3.6641-0.27344-0.49219-1.5312-3.5547-0.98437-1.9688-0.49219-1.3672-0.98438-2.7344-1.3672-4.1562-0.16406-0.71094-0.32812-1.4219-0.49219-2.1328-0.10937-0.49219-0.16406-0.98438-0.27344-1.4766 0.10938 0.92969 0.10938 0.92969 0-0.054687-0.10938-1.5312-0.21875-3.1172-0.16406-4.6484 0.054688-3.5 0.27344-4.8125 1.5312-8.5859 0.76563-2.3516 0.54688-1.9141 1.6953-4.1016 0.76562-1.4219 1.6406-2.7891 2.5156-4.1562 1.3672-2.0781-0.92969 0.98438 0.71094-0.92969 0.54687-0.60156 1.0391-1.2031 1.6406-1.8047 1.3125-1.3672 2.7344-2.625 4.2109-3.7734 3.4453-2.7891 2.8984-8.6953 0-11.594-3.4453-3.4453-8.1484-2.7891-11.594 0-12.141 9.6797-18.703 25.758-16.734 41.125 1.8594 14.328 9.8984 27.18 22.477 34.617 12.961 7.6562 28.766 8.2031 42.438 2.2422 12.688-5.5234 22.531-17.281 25.867-30.68 4.3203-17.227-1.6953-36.203-15.641-47.305-3.4453-2.7344-8.2031-3.3906-11.594 0-2.8984 2.7891-3.5 8.75 0 11.539z"/>
  <path d="m434 313.2v38.062c0 4.2656 3.7734 8.4219 8.2031 8.2031s8.2031-3.6094 8.2031-8.2031v-38.062c0-4.2656-3.7734-8.4219-8.2031-8.2031s-8.2031 3.6094-8.2031 8.2031z"/>
  <path d="m456.91 220.45c1.1484-1.1484 2.3516-2.1875 3.5547-3.2266 1.3672-1.2031-0.54688 0.32812 0.82031-0.65625 0.76563-0.54688 1.4766-1.0391 2.2422-1.5312 1.3125-0.82031 2.625-1.6406 3.9922-2.3516 0.65625-0.38281 1.3672-0.71094 2.0781-1.0391 0.32813-0.16406 0.71094-0.32812 1.0391-0.49219-0.65625 0.27344-0.76562 0.32812-0.21875 0.10937 2.9531-1.1484 5.9609-2.0234 9.0781-2.625 0.76562-0.16406 1.4766-0.27344 2.2422-0.38281-1.4766 0.21875 0.27344 0 0.82031-0.054688 1.4766-0.10937 3.0078-0.21875 4.4844-0.21875s3.0078 0.054688 4.4844 0.21875c0.16406 0 2.625 0.32813 0.82031 0.054688 0.76563 0.10938 1.4766 0.21875 2.2422 0.38281 3.0078 0.60156 5.8516 1.4766 8.6953 2.5156 1.75 0.65625-0.71094-0.38281 0.875 0.38281 0.71094 0.32812 1.3672 0.65625 2.0781 0.98438 1.3672 0.71094 2.7344 1.4766 3.9922 2.2969 0.76562 0.49219 1.5312 0.98438 2.2422 1.5312 0.32813 0.21875 0.65625 0.4375 0.92969 0.71094-0.49219-0.38281-0.54688-0.4375-0.10938-0.054688 1.3672 1.0938 2.625 2.2422 3.8828 3.5 3.1719 3.1172 8.4766 3.1719 11.594 0 3.1172-3.1172 3.1719-8.4766 0-11.594-11.102-10.938-26.141-17.281-41.727-17.281-15.641 0-30.625 6.3438-41.727 17.281-3.1719 3.1172-3.1172 8.4766 0 11.594 3.1719 3.0625 8.4219 3.0625 11.594-0.054688z"/>
  <path d="m425.25 188.73c1.6953-1.6953 3.4453-3.3359 5.3047-4.9219 0.875-0.76563 1.8047-1.5312 2.7344-2.2969 1.1484-0.92969-1.4766 1.0938 0.49219-0.38281 0.60156-0.49219 1.2578-0.92969 1.9141-1.3672 3.7734-2.6797 7.7656-5.1406 11.867-7.2188 1.1484-0.60156 2.2969-1.1484 3.4453-1.6953 0.4375-0.21875 2.8438-1.2578 1.5312-0.71094 2.3516-0.98437 4.7031-1.8594 7.1094-2.625 4.3203-1.3672 8.6953-2.4609 13.18-3.2812 0.60156-0.10937 1.2578-0.21875 1.8594-0.32812 0.21875-0.054688 1.8047-0.27344 0.76562-0.10938-1.2578 0.16406 1.2031-0.10937 1.1484-0.10937 0.49219-0.054688 0.98438-0.10938 1.4766-0.16406 2.4609-0.21875 4.9766-0.38281 7.4922-0.38281 4.4844-0.054687 8.9688 0.16406 13.453 0.71094-1.6953-0.21875 1.4219 0.21875 1.9141 0.32812 1.0938 0.16406 2.2422 0.38281 3.3359 0.60156 2.3516 0.49219 4.6484 1.0391 6.9453 1.6953 2.1875 0.60156 4.3203 1.3125 6.4531 2.0781 1.0938 0.38281 2.1328 0.82031 3.1719 1.2031 1.4766 0.60156 0.4375 0.21875 0.16406 0.054688 0.71094 0.32812 1.4219 0.60156 2.0781 0.92969 4.9219 2.2422 9.625 4.9766 14.055 8.0391 1.0938 0.76562 2.1328 1.5312 3.1719 2.2969 1.3125 0.98438 0.49219 0.38281 0.21875 0.16406 0.60156 0.49219 1.2578 0.98438 1.8594 1.4766 2.2422 1.8594 4.4297 3.8828 6.5078 5.9609 3.1719 3.1172 8.4766 3.1172 11.594 0 3.1172-3.1172 3.1719-8.4766 0-11.594-15.039-14.93-34.617-25.375-55.562-28.82-21.109-3.5-42.383-0.71094-61.797 8.2031-10.938 5.0312-20.891 12.141-29.422 20.617-3.1719 3.1172-3.1172 8.4766 0 11.594 3.1172 3.2266 8.3672 3.2266 11.539 0.054687z"/>
  <path d="m390.2 153.67c2.6797-2.625 5.4141-5.1953 8.2578-7.6562 1.4219-1.2031 2.8438-2.3516 4.2656-3.5547 0.16406-0.10938 1.2031-0.98438 0.21875-0.16406 0.32812-0.21875 0.60156-0.49219 0.92969-0.71094 0.82031-0.65625 1.6953-1.2578 2.5156-1.8594 5.9609-4.3203 12.305-8.1484 18.867-11.539 1.4766-0.76562 2.9531-1.4766 4.4844-2.1875 0.82031-0.38281 1.6406-0.76562 2.4609-1.0938 0.38281-0.16406 2.9531-1.2578 1.5312-0.65625 3.2812-1.3672 6.6172-2.5703 9.9531-3.7188 6.8359-2.2422 13.781-3.9922 20.891-5.1953 0.875-0.16406 1.75-0.27344 2.625-0.4375 0.38281-0.054688 2.6797-0.38281 1.9141-0.27344s1.5859-0.16406 1.9141-0.21875c0.875-0.10938 1.75-0.16406 2.625-0.27344 3.6094-0.32812 7.2188-0.54687 10.883-0.60156 7-0.10938 14 0.27344 21 1.1484-1.6953-0.21875 0.76562 0.10937 1.1484 0.16406 0.875 0.10938 1.75 0.27344 2.625 0.4375 1.8594 0.32812 3.7188 0.65625 5.5234 1.0391 3.4453 0.71094 6.8906 1.5859 10.281 2.5156 3.5 0.98437 7 2.1328 10.445 3.4453 1.5312 0.54688 3.0625 1.2031 4.5938 1.8047 1.2031 0.49219-1.0391-0.4375 0.16406 0.054687 0.32812 0.16406 0.71094 0.32812 1.0391 0.4375 0.92969 0.38281 1.8594 0.82031 2.7891 1.2578 7.4922 3.4453 14.656 7.6016 21.438 12.305 1.5859 1.0938 3.2266 2.2422 4.7578 3.4453 0.16406 0.10937 1.4219 1.0938 0.71094 0.54687-0.54688-0.4375 0.60156 0.49219 0.71094 0.60156 0.82031 0.65625 1.6406 1.3125 2.4609 2.0234 3.3906 2.8438 6.6172 5.7969 9.7891 8.9141 3.1172 3.1172 8.4766 3.1172 11.594 0 3.1172-3.1172 3.1719-8.4766 0-11.594-22.203-22.094-51.023-37.352-81.977-42.602-31.062-5.25-62.781-1.0938-91.383 12.086-16.188 7.4375-30.953 17.992-43.531 30.516-3.1172 3.1172-3.1172 8.4766 0 11.594 3.0625 3.1719 8.3672 3.1719 11.484 0z"/>
  <path d="m578.32 269.45v31.008 65.133 58.133 13.617 0.92969c0 0.60156-0.27344 2.3516 0 0.875-0.21875 0.98438-0.4375 1.9141-0.82031 2.8438 0.54688-1.4766-0.54688 0.82031-0.82031 1.2578-0.82031 1.3125-0.27344 0.27344 0 0.054687-0.32813 0.32812-0.71094 0.65625-0.98438 1.0391-0.16406 0.21875-1.2031 1.0391 0 0.10937-0.38281 0.27344-0.76562 0.54688-1.2031 0.82031s-0.82031 0.49219-1.2578 0.71094c0.10938-0.054687 1.2031-0.4375 0.27344-0.10937-0.49219 0.16406-3.3906 0.71094-1.8047 0.60156-0.60156 0.054688-1.2031 0.054688-1.8047 0.054688-8.75 0.10937-17.555 0-26.305 0h-56.164-68.414-62.344-38.062-3.6641-0.76562-0.10938c-0.54687 0-2.2422-0.27344-0.82031 0-0.49219-0.10938-0.98438-0.21875-1.4219-0.32813-0.32812-0.10937-2.2422-0.98437-0.76562-0.21875-0.76562-0.38281-1.4766-0.82031-2.1875-1.2578-1.0391-0.71094 0.82031 0.82031 0-0.054688-0.32812-0.32812-0.65625-0.65625-0.98438-0.98437-0.65625-0.65625 0.054687 0.16406 0.16406 0.27344-0.27344-0.38281-0.54688-0.76562-0.82031-1.2031s-0.49219-0.82031-0.71094-1.2578c0.54687 1.0391 0.10937 0.27344-0.10938-0.38281-0.16406-0.49219-0.27344-0.92969-0.38281-1.4219-0.32812-1.2578 0.054688 1.2578 0-0.054688 0-0.38281-0.054688-0.82031-0.054688-1.2031v-1.4219-14.602-10.227l-8.2031 8.2031c4.4297 0 8.2031-3.7734 8.2031-8.2031v-37.133-59.5-13.617c0-4.4297-3.7734-8.2031-8.2031-8.2031 2.7344 2.7344 5.4688 5.4688 8.2031 8.2031 0-10.664-0.054687-21.273 0-31.938v-0.38281c0-0.60156 0-0.92969 0.054688-1.5312-0.054688 0.4375-0.38281 1.3672 0.054688-0.054687 0.21875-0.71094 0.38281-1.4219 0.65625-2.0781-0.16406 0.4375-0.71094 1.1484 0.10937 0 0.38281-0.60156 0.71094-1.2578 1.1484-1.8047-0.875 1.1484 0.27344-0.10938 0.60156-0.49219 1.3672-1.5859-0.71094 0.38281 0.27344-0.27344 0.49219-0.32812 1.0391-0.60156 1.5312-0.92969 1.75-1.2031-0.82031 0.21875 0.32812-0.21875 0.60156-0.21875 1.1484-0.32812 1.75-0.54687 2.0781-0.65625-0.875 0 0.38281-0.10938 0.76562-0.054687 0 0 1.1484-0.054687h0.054687 3.3359 53.32 86.844 79.898 24.719 6.2891 1.4219 0.21875c0.32812 0 2.625 0.38281 0.82031 0 0.49219 0.10938 0.98438 0.21875 1.4219 0.32812 0.49219 0.10938 0.92969 0.27344 1.3672 0.4375-0.82031-0.38281-0.82031-0.32812 0 0.10938 0.38281 0.27344 0.82031 0.49219 1.2031 0.76562 1.8594 1.1484-0.60156-0.65625 0.32812 0.27344 0.4375 0.4375 0.82031 0.82031 1.2578 1.2578-1.0391-1.0938 0-0.054688 0.21875 0.32812 0.27344 0.54688 0.60156 1.0391 0.875 1.5859-0.71094-1.3672-0.054687-0.054687 0.10938 0.38281 0.16406 0.60156 0.32812 1.2031 0.4375 1.8047-0.16406-1.9688 0.16406 0.38281 0.16406 0.65625 0.10938 4.2656 3.7188 8.4219 8.2031 8.2031 4.375-0.21875 8.3125-3.6094 8.2031-8.2031-0.32812-13.508-10.938-24.227-24.5-24.5h-3.0078-20.016-77.109-90.727-59.719-4.9766c-8.1484 0.054688-15.422 3.6094-20.344 10.172-4.6484 6.1797-4.7031 13.234-4.7031 20.562v21.547 4.5391c0 4.4297 3.7734 8.2031 8.2031 8.2031l-8.2031-8.2031v37.133 59.5 13.617l8.2031-8.2031c-4.4297 0-8.2031 3.7734-8.2031 8.2031 0 8.4219-0.054688 16.898 0 25.32 0.054688 14 10.609 25.375 24.828 25.484 9.1875 0.054688 18.32 0 27.508 0h58.023 69.617 62.344 35.602c7.7656 0 15.312-1.9141 20.727-7.9297 4.2109-4.7031 6.3984-10.609 6.4531-16.898v-4.1562-49.164-68.578-44.406-2.2422c0-4.2656-3.7734-8.4219-8.2031-8.2031-4.4297 0.21875-8.2031 3.6094-8.2031 8.2031z"/>
  <path d="m408.95 245h-59.555-31.336c-3.3359 0-6.5625-0.054688-9.8438 0.71094-10.992 2.5703-18.375 12.852-18.539 23.844-0.16406 10.719 0 21.492 0 32.211 2.7344-2.7344 5.4688-5.4688 8.2031-8.2031h-66.664-9.4609c-4.4297 0-8.2031 3.7734-8.2031 8.2031v37.133 59.5 13.617c2.7344-2.7344 5.4688-5.4688 8.2031-8.2031h-63.273-9.0234c2.7344 2.7344 5.4688 5.4688 8.2031 8.2031v-53.703-85.258-19.578c0-4.4297-3.7734-8.2031-8.2031-8.2031h-39.156c1.9141 4.6484 3.8828 9.3516 5.7969 14 4.9766-4.9219 9.9531-9.8438 14.93-14.766 11.867-11.758 23.734-23.516 35.602-35.273 14.438-14.273 28.82-28.602 43.258-42.875 12.414-12.305 24.828-24.609 37.242-36.914 6.0156-5.9609 12.523-11.703 18.211-18.047 0.054688-0.10938 0.16406-0.16406 0.27344-0.27344h-11.594c4.9219 4.9219 9.8984 9.7891 14.82 14.711 11.867 11.758 23.789 23.57 35.656 35.328 14.328 14.164 28.602 28.383 42.93 42.547 12.414 12.305 24.883 24.664 37.297 36.969 6.0703 6.0156 11.922 12.195 18.156 17.992 0.10938 0.10938 0.16406 0.16406 0.27344 0.27344 3.1719 3.1172 8.4766 3.1172 11.594 0 3.1172-3.1172 3.1719-8.4766 0-11.594-4.9219-4.9219-9.8984-9.7891-14.82-14.711-11.867-11.758-23.789-23.57-35.656-35.328-14.328-14.164-28.602-28.383-42.93-42.547-12.414-12.305-24.883-24.664-37.297-36.969-6.0703-6.0156-11.922-12.195-18.156-17.992-0.10938-0.10938-0.16406-0.16406-0.27344-0.27344-3.1719-3.1172-8.4219-3.1172-11.594 0-4.9766 4.9219-9.9531 9.8438-14.93 14.766-11.867 11.758-23.734 23.516-35.602 35.273-14.438 14.273-28.82 28.602-43.258 42.875-12.414 12.305-24.828 24.609-37.242 36.914-6.0703 6.0156-12.414 11.812-18.211 18.047l-0.27344 0.27344c-5.0312 5.0312-1.3125 14 5.7969 14h39.156l-8.2031-8.2031v53.703 85.258 19.578c0 4.4297 3.7734 8.2031 8.2031 8.2031h63.273 9.0234c4.4297 0 8.2031-3.7734 8.2031-8.2031v-37.133-59.5-13.617c-2.7344 2.7344-5.4688 5.4688-8.2031 8.2031h66.664 9.4609c4.4297 0 8.2031-3.7734 8.2031-8.2031v-29.914-2.0234-0.38281-0.82031c0-1.5312-0.16406 0.4375 0.054687-0.4375 0.16406-0.60156 0.32812-1.2031 0.49219-1.75 0.10938-0.38281 0.65625-1.3125 0-0.054688 0.21875-0.4375 0.4375-0.875 0.71094-1.2578 0 0 1.3125-1.8047 0.60156-0.92969-0.71094 0.82031 2.4062-2.0781 0.76563-0.875 0.38281-0.27344 0.76562-0.54687 1.2031-0.82031 0.21875-0.10938 2.2422-1.0391 0.65625-0.4375 0.4375-0.16406 0.92969-0.32812 1.3672-0.4375-0.054688 0 2.2969-0.49219 1.0938-0.27344-1.2031 0.16406 1.2578-0.054687 1.2031 0h0.54688 2.9531 68.688 22.695c4.2656 0 8.4219-3.7734 8.2031-8.2031-0.38281-4.4297-3.7734-8.1484-8.3672-8.1484z"/>
  <path d="m289.68 301.82v37.133 59.5 13.617l8.2031-8.2031h-66.719-9.4609c2.7344 2.7344 5.4688 5.4688 8.2031 8.2031v-37.133-59.5-13.617c-2.7344 2.7344-5.4688 5.4688-8.2031 8.2031h66.719 9.4609c4.2656 0 8.4219-3.7734 8.2031-8.2031-0.21875-4.4297-3.6094-8.2031-8.2031-8.2031h-66.719-9.4609c-4.4297 0-8.2031 3.7734-8.2031 8.2031v37.133 59.5 13.617c0 4.4297 3.7734 8.2031 8.2031 8.2031h66.719 9.4609c4.4297 0 8.2031-3.7734 8.2031-8.2031v-37.133-59.5-13.617c0-4.2656-3.7734-8.4219-8.2031-8.2031-4.4297 0.16406-8.2031 3.6094-8.2031 8.2031z"/>
  <use x="70" y="568.203125" xlink:href="#v"/>
  <use x="72.007812" y="568.203125" xlink:href="#f"/>
  <use x="73.355469" y="568.203125" xlink:href="#a"/>
  <use x="75.210937" y="568.203125" xlink:href="#e"/>
  <use x="77.054688" y="568.203125" xlink:href="#d"/>
  <use x="78.363281" y="568.203125" xlink:href="#a"/>
  <use x="80.214844" y="568.203125" xlink:href="#k"/>
  <use x="83.125" y="568.203125" xlink:href="#j"/>
  <use x="85.082031" y="568.203125" xlink:href="#i"/>
  <use x="87.816406" y="568.203125" xlink:href="#c"/>
  <use x="89.445312" y="568.203125" xlink:href="#b"/>
  <use x="91.390625" y="568.203125" xlink:href="#e"/>
  <use x="93.238281" y="568.203125" xlink:href="#c"/>
  <use x="94.863281" y="568.203125" xlink:href="#b"/>
  <use x="96.8125" y="568.203125" xlink:href="#e"/>
  <use x="98.65625" y="568.203125" xlink:href="#h"/>
  <use x="100.601562" y="568.203125" xlink:href="#u"/>
  <use x="103.375" y="568.203125" xlink:href="#c"/>
  <use x="105" y="568.203125" xlink:href="#t"/>
  <use x="105.9375" y="568.203125" xlink:href="#h"/>
  <use x="107.882812" y="568.203125" xlink:href="#s"/>
  <use x="109.84375" y="568.203125" xlink:href="#b"/>
  <use x="70" y="570.9375" xlink:href="#r"/>
  <use x="71.191406" y="570.9375" xlink:href="#f"/>
  <use x="72.539062" y="570.9375" xlink:href="#g"/>
  <use x="74.417969" y="570.9375" xlink:href="#q"/>
  <use x="78.21875" y="570.9375" xlink:href="#d"/>
  <use x="79.523438" y="570.9375" xlink:href="#b"/>
  <use x="81.472656" y="570.9375" xlink:href="#a"/>
  <use x="84.277344" y="570.9375" xlink:href="#p"/>
  <use x="86.566406" y="570.9375" xlink:href="#g"/>
  <use x="88.445312" y="570.9375" xlink:href="#o"/>
  <use x="90.390625" y="570.9375" xlink:href="#h"/>
  <use x="93.289062" y="570.9375" xlink:href="#n"/>
  <use x="95.292969" y="570.9375" xlink:href="#f"/>
  <use x="96.644531" y="570.9375" xlink:href="#g"/>
  <use x="98.519531" y="570.9375" xlink:href="#m"/>
  <use x="99.457031" y="570.9375" xlink:href="#a"/>
  <use x="101.3125" y="570.9375" xlink:href="#l"/>
  <use x="102.933594" y="570.9375" xlink:href="#d"/>
 </g>
</svg>
