<?xml version="1.0" encoding="UTF-8"?>
<svg width="700pt" height="700pt" version="1.1" viewBox="0 0 700 700" xmlns="http://www.w3.org/2000/svg" xmlns:xlink="http://www.w3.org/1999/xlink">
 <defs>
  <symbol id="v" overflow="visible">
   <path d="m1.8281-0.10938c-0.09375 0.054688-0.19531 0.089844-0.29688 0.10938-0.09375 0.019531-0.19922 0.03125-0.3125 0.03125-0.33594 0-0.60156-0.085938-0.79688-0.26562-0.1875-0.1875-0.28125-0.44141-0.28125-0.76562 0-0.3125 0.09375-0.5625 0.28125-0.75 0.19531-0.1875 0.46094-0.28125 0.79688-0.28125 0.11328 0 0.21875 0.015625 0.3125 0.046875 0.10156 0.023437 0.20312 0.058594 0.29688 0.10938v0.40625c-0.09375-0.0625-0.1875-0.10938-0.28125-0.14062s-0.19531-0.046875-0.29688-0.046875c-0.17969 0-0.32031 0.0625-0.42188 0.1875-0.10547 0.11719-0.15625 0.27344-0.15625 0.46875 0 0.21094 0.050781 0.375 0.15625 0.5 0.10156 0.11719 0.24219 0.17188 0.42188 0.17188 0.10156 0 0.20312-0.015625 0.29688-0.046875s0.1875-0.078125 0.28125-0.14062z"/>
  </symbol>
  <symbol id="f" overflow="visible">
   <path d="m1.3438-1.0938c-0.042969-0.019531-0.085938-0.03125-0.125-0.03125-0.042969-0.007812-0.085938-0.015625-0.125-0.015625-0.125 0-0.22656 0.042969-0.29688 0.125-0.0625 0.074219-0.09375 0.18359-0.09375 0.32812v0.6875h-0.46875v-1.5h0.46875v0.25c0.0625-0.09375 0.12891-0.16016 0.20312-0.20312 0.082031-0.050781 0.17969-0.078125 0.29688-0.078125h0.046875c0.019531 0 0.050781 0.007812 0.09375 0.015625z"/>
  </symbol>
  <symbol id="a" overflow="visible">
   <path d="m1.7188-0.75v0.14062h-1.1094c0.007813 0.10547 0.046875 0.1875 0.10938 0.25 0.070312 0.054687 0.17188 0.078125 0.29688 0.078125 0.10156 0 0.20703-0.015625 0.3125-0.046875 0.10156-0.03125 0.21094-0.070313 0.32812-0.125v0.35938c-0.11719 0.042969-0.23047 0.074219-0.34375 0.09375-0.11719 0.019531-0.23047 0.03125-0.34375 0.03125-0.27344 0-0.48047-0.066406-0.625-0.20312-0.14844-0.13281-0.21875-0.32812-0.21875-0.57812 0-0.23828 0.070312-0.42578 0.21875-0.5625 0.14453-0.14453 0.34766-0.21875 0.60938-0.21875 0.22656 0 0.41016 0.074219 0.54688 0.21875 0.14453 0.13672 0.21875 0.32422 0.21875 0.5625zm-0.48438-0.15625c0-0.09375-0.027344-0.16406-0.078125-0.21875-0.054688-0.0625-0.125-0.09375-0.21875-0.09375-0.085938 0-0.15625 0.027344-0.21875 0.078125-0.0625 0.054687-0.10156 0.13281-0.10938 0.23438z"/>
  </symbol>
  <symbol id="e" overflow="visible">
   <path d="m0.90625-0.67188c-0.10547 0-0.18359 0.015625-0.23438 0.046875-0.054687 0.03125-0.078125 0.085938-0.078125 0.15625 0 0.0625 0.019531 0.10938 0.0625 0.14062 0.039062 0.03125 0.097656 0.046875 0.17188 0.046875 0.09375 0 0.16406-0.03125 0.21875-0.09375 0.0625-0.0625 0.09375-0.14453 0.09375-0.25v-0.046875zm0.71875-0.1875v0.85938h-0.48438v-0.21875c-0.0625 0.09375-0.13672 0.16406-0.21875 0.20312-0.074219 0.03125-0.16797 0.046875-0.28125 0.046875-0.15625 0-0.28125-0.039062-0.375-0.125-0.09375-0.09375-0.14062-0.21094-0.14062-0.35938 0-0.17578 0.054688-0.30078 0.17188-0.375 0.125-0.082031 0.3125-0.125 0.5625-0.125h0.28125v-0.046875c0-0.070312-0.03125-0.125-0.09375-0.15625-0.054687-0.039062-0.14062-0.0625-0.26562-0.0625-0.10547 0-0.20312 0.011719-0.29688 0.03125-0.085937 0.023438-0.16406 0.054688-0.23438 0.09375v-0.35938c0.10156-0.03125 0.20703-0.050781 0.3125-0.0625 0.10156-0.007813 0.20312-0.015625 0.29688-0.015625 0.26953 0 0.46094 0.054688 0.57812 0.15625 0.125 0.10547 0.1875 0.27734 0.1875 0.51562z"/>
  </symbol>
  <symbol id="d" overflow="visible">
   <path d="m0.75-1.9219v0.42188h0.5v0.34375h-0.5v0.64062c0 0.0625 0.007812 0.10938 0.03125 0.14062 0.03125 0.023438 0.085938 0.03125 0.17188 0.03125h0.25v0.34375h-0.40625c-0.1875 0-0.32422-0.035156-0.40625-0.10938-0.074219-0.082031-0.10938-0.21875-0.10938-0.40625v-0.64062h-0.25v-0.34375h0.25v-0.42188z"/>
  </symbol>
  <symbol id="k" overflow="visible">
   <path d="m1.25-1.2812v-0.79688h0.48438v2.0781h-0.48438v-0.21875c-0.074219 0.09375-0.15234 0.16406-0.23438 0.20312-0.074219 0.03125-0.16406 0.046875-0.26562 0.046875-0.17969 0-0.32812-0.070312-0.45312-0.21875-0.11719-0.14453-0.17188-0.33203-0.17188-0.5625 0-0.22656 0.054688-0.41406 0.17188-0.5625 0.125-0.14453 0.27344-0.21875 0.45312-0.21875 0.10156 0 0.19141 0.023438 0.26562 0.0625 0.082031 0.042969 0.16016 0.10547 0.23438 0.1875zm-0.3125 0.96875c0.09375 0 0.16406-0.035156 0.21875-0.10938 0.0625-0.070313 0.09375-0.17969 0.09375-0.32812 0-0.13281-0.03125-0.23828-0.09375-0.3125-0.054688-0.082031-0.125-0.125-0.21875-0.125-0.10547 0-0.18359 0.042969-0.23438 0.125-0.054687 0.074219-0.078125 0.17969-0.078125 0.3125 0 0.14844 0.023438 0.25781 0.078125 0.32812 0.050781 0.074219 0.12891 0.10938 0.23438 0.10938z"/>
  </symbol>
  <symbol id="j" overflow="visible">
   <path d="m1.0312-0.3125c0.09375 0 0.16406-0.035156 0.21875-0.10938 0.0625-0.070313 0.09375-0.17969 0.09375-0.32812 0-0.13281-0.03125-0.23828-0.09375-0.3125-0.054688-0.082031-0.125-0.125-0.21875-0.125-0.10547 0-0.1875 0.042969-0.25 0.125-0.054688 0.074219-0.078125 0.17969-0.078125 0.3125 0 0.14844 0.023437 0.25781 0.078125 0.32812 0.0625 0.074219 0.14453 0.10938 0.25 0.10938zm-0.32812-0.96875c0.070313-0.082031 0.14453-0.14453 0.21875-0.1875 0.082031-0.039062 0.17578-0.0625 0.28125-0.0625 0.1875 0 0.33594 0.074219 0.45312 0.21875 0.11328 0.14844 0.17188 0.33594 0.17188 0.5625 0 0.23047-0.058594 0.41797-0.17188 0.5625-0.11719 0.14844-0.26562 0.21875-0.45312 0.21875-0.10547 0-0.19922-0.015625-0.28125-0.046875-0.074219-0.039062-0.14844-0.10938-0.21875-0.20312v0.21875h-0.46875v-2.0781h0.46875z"/>
  </symbol>
  <symbol id="i" overflow="visible">
   <path d="m0.03125-1.5h0.48438l0.39062 1.0156 0.34375-1.0156h0.48438l-0.625 1.6406c-0.0625 0.16406-0.14062 0.28125-0.23438 0.34375-0.085938 0.070313-0.19531 0.10938-0.32812 0.10938h-0.26562v-0.3125h0.14062c0.082031 0 0.14062-0.015625 0.17188-0.046875 0.039062-0.023437 0.070312-0.070313 0.09375-0.14062l0.015625-0.03125z"/>
  </symbol>
  <symbol id="c" overflow="visible">
   <path d="m1.3906-1.4531v0.375c-0.09375-0.050781-0.19531-0.085937-0.29688-0.10938-0.09375-0.019531-0.18359-0.03125-0.26562-0.03125-0.085937 0-0.15234 0.015625-0.20312 0.046875-0.042969 0.023437-0.0625 0.054687-0.0625 0.09375 0 0.042969 0.015625 0.074219 0.046875 0.09375 0.03125 0.023437 0.09375 0.039063 0.1875 0.046875l0.078125 0.015625c0.25 0.03125 0.41406 0.085937 0.5 0.15625 0.082031 0.0625 0.125 0.17188 0.125 0.32812s-0.0625 0.27734-0.1875 0.35938c-0.11719 0.074219-0.28906 0.10938-0.51562 0.10938-0.10547 0-0.21094-0.011719-0.3125-0.03125-0.10547-0.0078125-0.21094-0.03125-0.3125-0.0625v-0.35938c0.09375 0.054687 0.1875 0.089844 0.28125 0.10938 0.10156 0.023438 0.20703 0.03125 0.3125 0.03125 0.09375 0 0.16016-0.007812 0.20312-0.03125 0.050781-0.03125 0.078125-0.070312 0.078125-0.125 0-0.039062-0.015625-0.070312-0.046875-0.09375-0.03125-0.019531-0.10156-0.035156-0.20312-0.046875l-0.078125-0.015625c-0.21875-0.019531-0.37109-0.066406-0.45312-0.14062-0.085937-0.070313-0.125-0.17969-0.125-0.32812 0-0.15625 0.050781-0.26953 0.15625-0.34375 0.11328-0.082031 0.28125-0.125 0.5-0.125 0.09375 0 0.1875 0.011719 0.28125 0.03125 0.10156 0.011719 0.20703 0.027344 0.3125 0.046875z"/>
  </symbol>
  <symbol id="b" overflow="visible">
   <path d="m1.7344-0.90625v0.90625h-0.48438v-0.6875c0-0.13281-0.007812-0.22266-0.015625-0.26562 0-0.050781-0.007813-0.09375-0.015625-0.125-0.023438-0.03125-0.046875-0.050781-0.078125-0.0625-0.03125-0.019531-0.070313-0.03125-0.10938-0.03125-0.10547 0-0.1875 0.042969-0.25 0.125-0.054688 0.074219-0.078125 0.17969-0.078125 0.3125v0.73438h-0.46875v-2.0781h0.46875v0.79688c0.070313-0.082031 0.14844-0.14453 0.23438-0.1875 0.082031-0.039062 0.17188-0.0625 0.26562-0.0625 0.17578 0 0.30469 0.054688 0.39062 0.15625 0.09375 0.10547 0.14062 0.26172 0.14062 0.46875z"/>
  </symbol>
  <symbol id="h" overflow="visible">
   <path d="m1.7344-0.90625v0.90625h-0.48438v-0.70312c0-0.125-0.007812-0.20703-0.015625-0.25 0-0.050781-0.007813-0.09375-0.015625-0.125-0.023438-0.03125-0.046875-0.050781-0.078125-0.0625-0.03125-0.019531-0.070313-0.03125-0.10938-0.03125-0.10547 0-0.1875 0.042969-0.25 0.125-0.054688 0.074219-0.078125 0.17969-0.078125 0.3125v0.73438h-0.46875v-1.5h0.46875v0.21875c0.070313-0.082031 0.14844-0.14453 0.23438-0.1875 0.082031-0.039062 0.17188-0.0625 0.26562-0.0625 0.17578 0 0.30469 0.054688 0.39062 0.15625 0.09375 0.10547 0.14062 0.26172 0.14062 0.46875z"/>
  </symbol>
  <symbol id="u" overflow="visible">
   <path d="m0.23438-2.0781h0.46875v1.125l0.54688-0.54688h0.5625l-0.73438 0.6875 0.79688 0.8125h-0.57812l-0.59375-0.625v0.625h-0.46875z"/>
  </symbol>
  <symbol id="t" overflow="visible">
   <path d="m0.23438-1.5h0.46875v1.5h-0.46875zm0-0.57812h0.46875v0.39062h-0.46875z"/>
  </symbol>
  <symbol id="s" overflow="visible">
   <path d="m1.25-0.25c-0.074219 0.085938-0.15234 0.14844-0.23438 0.1875-0.074219 0.042969-0.16406 0.0625-0.26562 0.0625-0.17969 0-0.32812-0.070312-0.45312-0.21875-0.11719-0.14453-0.17188-0.32812-0.17188-0.54688s0.054688-0.39844 0.17188-0.54688c0.125-0.14453 0.27344-0.21875 0.45312-0.21875 0.10156 0 0.19141 0.023438 0.26562 0.0625 0.082031 0.042969 0.16016 0.10547 0.23438 0.1875v-0.21875h0.48438v1.3438c0 0.23828-0.078125 0.42188-0.23438 0.54688-0.15625 0.13281-0.375 0.20312-0.65625 0.20312-0.09375 0-0.1875-0.011719-0.28125-0.03125-0.085938-0.011719-0.16797-0.03125-0.25-0.0625v-0.375c0.082031 0.050781 0.16016 0.085938 0.23438 0.10938 0.082031 0.03125 0.16406 0.046875 0.25 0.046875 0.15625 0 0.26953-0.039062 0.34375-0.10938 0.070313-0.074219 0.10938-0.17969 0.10938-0.32812zm-0.3125-0.9375c-0.10547 0-0.18359 0.039062-0.23438 0.10938-0.054687 0.074219-0.078125 0.17969-0.078125 0.3125 0 0.13672 0.023438 0.24219 0.078125 0.3125 0.050781 0.074219 0.12891 0.10938 0.23438 0.10938 0.09375 0 0.16406-0.035156 0.21875-0.10938 0.0625-0.070313 0.09375-0.17578 0.09375-0.3125 0-0.13281-0.03125-0.23828-0.09375-0.3125-0.054688-0.070313-0.125-0.10938-0.21875-0.10938z"/>
  </symbol>
  <symbol id="r" overflow="visible">
   <path d="m1.2188-2.0781v0.3125h-0.26562c-0.074219 0-0.125 0.015625-0.15625 0.046875-0.023437 0.023438-0.03125 0.0625-0.03125 0.125v0.09375h0.40625v0.34375h-0.40625v1.1562h-0.46875v-1.1562h-0.25v-0.34375h0.25v-0.09375c0-0.16406 0.039063-0.28516 0.125-0.35938 0.09375-0.082031 0.23438-0.125 0.42188-0.125z"/>
  </symbol>
  <symbol id="g" overflow="visible">
   <path d="m0.9375-1.1875c-0.10547 0-0.1875 0.039062-0.25 0.10938-0.054688 0.074219-0.078125 0.18359-0.078125 0.32812 0 0.14844 0.023437 0.26172 0.078125 0.34375 0.0625 0.074219 0.14453 0.10938 0.25 0.10938 0.10156 0 0.17969-0.035156 0.23438-0.10938 0.0625-0.082031 0.09375-0.19531 0.09375-0.34375 0-0.14453-0.03125-0.25391-0.09375-0.32812-0.054687-0.070313-0.13281-0.10938-0.23438-0.10938zm0-0.34375c0.25781 0 0.46094 0.074219 0.60938 0.21875 0.14453 0.13672 0.21875 0.32422 0.21875 0.5625 0 0.25-0.074219 0.44531-0.21875 0.57812-0.14844 0.13672-0.35156 0.20312-0.60938 0.20312-0.26172 0-0.46484-0.066406-0.60938-0.20312-0.13672-0.13281-0.20312-0.32812-0.20312-0.57812 0-0.23828 0.066406-0.42578 0.20312-0.5625 0.14453-0.14453 0.34766-0.21875 0.60938-0.21875z"/>
  </symbol>
  <symbol id="q" overflow="visible">
   <path d="m1.6094-1.25c0.0625-0.09375 0.13281-0.16016 0.21875-0.20312 0.082031-0.050781 0.17578-0.078125 0.28125-0.078125 0.16406 0 0.29688 0.054688 0.39062 0.15625 0.09375 0.10547 0.14062 0.26172 0.14062 0.46875v0.90625h-0.48438v-0.78125-0.03125-0.0625c0-0.10156-0.015625-0.17578-0.046875-0.21875-0.03125-0.050781-0.085937-0.078125-0.15625-0.078125-0.085937 0-0.15234 0.039063-0.20312 0.10938-0.054688 0.074219-0.078125 0.18359-0.078125 0.32812v0.73438h-0.48438v-0.78125c0-0.16406-0.015625-0.26953-0.046875-0.3125-0.023437-0.050781-0.070313-0.078125-0.14062-0.078125-0.09375 0-0.16797 0.042969-0.21875 0.125-0.054688 0.074219-0.078125 0.17969-0.078125 0.3125v0.73438h-0.46875v-1.5h0.46875v0.21875c0.0625-0.082031 0.12891-0.14453 0.20312-0.1875 0.082031-0.039062 0.16406-0.0625 0.25-0.0625 0.10156 0 0.19141 0.027344 0.26562 0.078125 0.082031 0.054687 0.14453 0.12109 0.1875 0.20312z"/>
  </symbol>
  <symbol id="p" overflow="visible">
   <path d="m0.25-2h0.57812l0.71875 1.375v-1.375h0.48438v2h-0.5625l-0.73438-1.375v1.375h-0.48438z"/>
  </symbol>
  <symbol id="o" overflow="visible">
   <path d="m0.21875-0.57812v-0.92188h0.46875v0.15625 0.3125 0.23438 0.26562c0.007812 0.054688 0.023438 0.089844 0.046875 0.10938 0.019531 0.03125 0.046875 0.058594 0.078125 0.078125 0.03125 0.011719 0.066406 0.015625 0.10938 0.015625 0.09375 0 0.16406-0.035156 0.21875-0.10938 0.0625-0.070312 0.09375-0.17578 0.09375-0.3125v-0.75h0.48438v1.5h-0.48438v-0.21875c-0.074219 0.09375-0.15234 0.16406-0.23438 0.20312-0.074219 0.03125-0.15625 0.046875-0.25 0.046875-0.17969 0-0.3125-0.050781-0.40625-0.15625-0.085938-0.10156-0.125-0.25391-0.125-0.45312z"/>
  </symbol>
  <symbol id="n" overflow="visible">
   <path d="m0.25-2h0.85938c0.25 0 0.44141 0.058594 0.57812 0.17188 0.13281 0.11719 0.20312 0.27734 0.20312 0.48438 0 0.21094-0.070313 0.37109-0.20312 0.48438-0.13672 0.11719-0.32812 0.17188-0.57812 0.17188h-0.34375v0.6875h-0.51562zm0.51562 0.375v0.5625h0.28125c0.10156 0 0.17969-0.019531 0.23438-0.0625 0.050781-0.050781 0.078125-0.125 0.078125-0.21875s-0.027344-0.16016-0.078125-0.20312c-0.054688-0.050781-0.13281-0.078125-0.23438-0.078125z"/>
  </symbol>
  <symbol id="m" overflow="visible">
   <path d="m0.23438-1.5h0.46875v1.4688c0 0.20703-0.046875 0.36328-0.14062 0.46875-0.09375 0.10156-0.23438 0.15625-0.42188 0.15625h-0.23438v-0.3125h0.078125c0.09375 0 0.15625-0.023438 0.1875-0.0625 0.039063-0.042969 0.0625-0.125 0.0625-0.25zm0-0.57812h0.46875v0.39062h-0.46875z"/>
  </symbol>
  <symbol id="l" overflow="visible">
   <path d="m1.4375-1.4531v0.39062c-0.0625-0.039062-0.13281-0.070312-0.20312-0.09375-0.0625-0.019531-0.13281-0.03125-0.20312-0.03125-0.125 0-0.23047 0.042969-0.3125 0.125-0.074219 0.074219-0.10938 0.17969-0.10938 0.3125 0 0.14844 0.035156 0.26172 0.10938 0.34375 0.082031 0.074219 0.1875 0.10938 0.3125 0.10938 0.082031 0 0.15625-0.007813 0.21875-0.03125 0.070312-0.03125 0.13281-0.066406 0.1875-0.10938v0.39062c-0.074219 0.03125-0.15234 0.050781-0.23438 0.0625-0.074219 0.0078125-0.14844 0.015625-0.21875 0.015625-0.27344 0-0.48438-0.066406-0.64062-0.20312-0.14844-0.13281-0.21875-0.32812-0.21875-0.57812 0-0.23828 0.070312-0.42578 0.21875-0.5625 0.15625-0.14453 0.36719-0.21875 0.64062-0.21875 0.070313 0 0.14453 0.011719 0.21875 0.03125 0.082031 0.011719 0.16016 0.027344 0.23438 0.046875z"/>
  </symbol>
 </defs>
 <g>
  <path d="m337.64 420c0 0.54688-0.16406 2.2969 0.054687 0.82031-0.10937 0.875-0.32812 1.6953-0.60156 2.5156-0.10938 0.32812-0.21875 0.71094-0.32812 1.0391 0.054687-0.10938 0.54688-1.0938 0.10938-0.27344-0.38281 0.76563-0.82031 1.4766-1.2578 2.1875-0.82031 1.3125-0.27344 0.32813 0 0.054688-0.21875 0.27344-0.49219 0.54688-0.71094 0.76562s-1.5859 1.5312-1.0391 1.0391c0.54687-0.4375-1.2578 0.82031-1.5312 0.98437-0.32813 0.16406-0.65625 0.32813-0.98438 0.49219-1.0938 0.60156 1.1484-0.38281-0.054687 0-0.71094 0.21875-1.4219 0.4375-2.1328 0.60156-0.38281 0.054688-0.71094 0.16406-1.0938 0.21875 1.5312-0.21875 0.21875-0.054687-0.054687-0.054687-0.76562 0-1.5312 0-2.2969-0.054687 1.4766 0.054687-0.54688-0.10938-1.1484-0.27344-0.49219-0.10938-2.4609-0.92969-1.1484-0.27344-0.65625-0.32812-1.3125-0.65625-1.9141-1.0391-0.4375-0.27344-1.6406-1.3125-0.65625-0.4375-0.71094-0.65625-1.3672-1.3125-2.0234-2.0234 0.875 0.98438-0.10938-0.16406-0.4375-0.65625-0.21875-0.32812-1.2031-2.2969-0.875-1.5859 0.27344 0.71094-0.32812-1.0938-0.4375-1.4219-0.16406-0.54688-0.38281-2.625-0.27344-1.1484-0.054688-0.875-0.054688-1.8047 0-2.6797 0-0.98438-0.054688 0.16406-0.10938 0.32812 0.054688-0.38281 0.10938-0.71094 0.21875-1.0938 0.16406-0.71094 0.38281-1.4219 0.60156-2.1328 0.38281-1.2031-0.54688 1.0391 0-0.054688 0.21875-0.4375 0.4375-0.875 0.71094-1.2578 0.16406-0.27344 1.2578-1.8047 0.76563-1.2031-0.49219 0.54688 1.0938-1.0391 1.3125-1.2578 0.92969-1.0391-0.60156 0.21875 0.60156-0.49219 0.71094-0.4375 1.4219-0.875 2.1875-1.2578 0.82031-0.4375-0.16406 0.054688-0.27344 0.10938 0.4375-0.16406 0.92969-0.32812 1.3672-0.4375 0.71094-0.21875 1.4219-0.38281 2.1875-0.49219-1.4219 0.21875 0.32812 0.054687 0.82031 0.054687 0.49219 0 1.0391 0.054687 1.5312 0.054687-0.82031-0.054687-0.71094-0.16406 0.054688 0 0.82031 0.21875 1.6406 0.4375 2.4609 0.71094 0.875 0.27344-0.16406-0.054688-0.27344-0.16406 0.54688 0.27344 1.0938 0.54687 1.5859 0.875 0.4375 0.27344 2.0234 1.5312 0.98437 0.60156 0.60156 0.54688 1.2031 1.1484 1.8047 1.75 0.875 0.875-0.65625-0.98438 0.054688 0 0.27344 0.38281 0.54687 0.76562 0.76562 1.2031 0.27344 0.4375 1.0938 2.3516 0.60156 0.98438 0.32812 0.92969 0.54688 1.8594 0.82031 2.8438 0.054687 0.10938 0.16406 1.3125 0.054687 0.38281-0.10938-1.0938 0 1.2031 0 1.1484 0.10938 4.2656 3.7188 8.4219 8.2031 8.2031 4.375-0.21875 8.3125-3.6094 8.2031-8.2031-0.21875-11.539-7.2734-21.383-18.102-25.375-10.062-3.7188-22.367-0.32812-29.148 7.9844-7.1641 8.75-8.5312 21.164-2.6797 31.008 5.9062 10.008 17.445 14.656 28.656 12.578 12.414-2.2969 21-13.945 21.273-26.25 0.10938-4.2656-3.8281-8.4219-8.2031-8.2031-4.4844 0.27344-8.0938 3.6641-8.2031 8.2578z"/>
  <path d="m337.64 420c0 0.54688-0.16406 2.2969 0.054687 0.82031-0.10937 0.875-0.32812 1.6953-0.60156 2.5156-0.10938 0.32812-0.21875 0.71094-0.32812 1.0391 0.054687-0.10938 0.54688-1.0938 0.10938-0.27344-0.38281 0.76563-0.82031 1.4766-1.2578 2.1875-0.82031 1.3125-0.27344 0.32813 0 0.054688-0.21875 0.27344-0.49219 0.54688-0.71094 0.76562s-1.5859 1.5312-1.0391 1.0391c0.54687-0.4375-1.2578 0.82031-1.5312 0.98437-0.32813 0.16406-0.65625 0.32813-0.98438 0.49219-1.0938 0.60156 1.1484-0.38281-0.054687 0-0.71094 0.21875-1.4219 0.4375-2.1328 0.60156-0.38281 0.054688-0.71094 0.16406-1.0938 0.21875 1.5312-0.21875 0.21875-0.054687-0.054687-0.054687-0.76562 0-1.5312 0-2.2969-0.054687 1.4766 0.054687-0.54688-0.10938-1.1484-0.27344-0.49219-0.10938-2.4609-0.92969-1.1484-0.27344-0.65625-0.32812-1.3125-0.65625-1.9141-1.0391-0.4375-0.27344-1.6406-1.3125-0.65625-0.4375-0.71094-0.65625-1.3672-1.3125-2.0234-2.0234 0.875 0.98438-0.10938-0.16406-0.4375-0.65625-0.21875-0.32812-1.2031-2.2969-0.875-1.5859 0.27344 0.71094-0.32812-1.0938-0.4375-1.4219-0.16406-0.54688-0.38281-2.625-0.27344-1.1484-0.054688-0.875-0.054688-1.8047 0-2.6797 0-0.98438-0.054688 0.16406-0.10938 0.32812 0.054688-0.38281 0.10938-0.71094 0.21875-1.0938 0.16406-0.71094 0.38281-1.4219 0.60156-2.1328 0.38281-1.2031-0.54688 1.0391 0-0.054688 0.21875-0.4375 0.4375-0.875 0.71094-1.2578 0.16406-0.27344 1.2578-1.8047 0.76563-1.2031-0.49219 0.54688 1.0938-1.0391 1.3125-1.2578 0.92969-1.0391-0.60156 0.21875 0.60156-0.49219 0.71094-0.4375 1.4219-0.875 2.1875-1.2578 0.82031-0.4375-0.16406 0.054688-0.27344 0.10938 0.4375-0.16406 0.92969-0.32812 1.3672-0.4375 0.71094-0.21875 1.4219-0.38281 2.1875-0.49219-1.4219 0.21875 0.32812 0.054687 0.82031 0.054687 0.49219 0 1.0391 0.054687 1.5312 0.054687-0.82031-0.054687-0.71094-0.16406 0.054688 0 0.82031 0.21875 1.6406 0.4375 2.4609 0.71094 0.875 0.27344-0.16406-0.054688-0.27344-0.16406 0.54688 0.27344 1.0938 0.54687 1.5859 0.875 0.4375 0.27344 2.0234 1.5312 0.98437 0.60156 0.60156 0.54688 1.2031 1.1484 1.8047 1.75 0.875 0.875-0.65625-0.98438 0.054688 0 0.27344 0.38281 0.54687 0.76562 0.76562 1.2031 0.27344 0.4375 1.0938 2.3516 0.60156 0.98438 0.32812 0.92969 0.54688 1.8594 0.82031 2.8438 0.054687 0.10938 0.16406 1.3125 0.054687 0.38281-0.10938-1.0938 0 1.2031 0 1.1484 0.10938 4.2656 3.7188 8.4219 8.2031 8.2031 4.375-0.21875 8.3125-3.6094 8.2031-8.2031-0.21875-11.539-7.2734-21.383-18.102-25.375-10.062-3.7188-22.367-0.32812-29.148 7.9844-7.1641 8.75-8.5312 21.164-2.6797 31.008 5.9062 10.008 17.445 14.656 28.656 12.578 12.414-2.2969 21-13.945 21.273-26.25 0.10938-4.2656-3.8281-8.4219-8.2031-8.2031-4.4844 0.27344-8.0938 3.6641-8.2031 8.2578z"/>
  <path d="m358.64 334.25c-36.258-13.398-78.641-1.6953-102.65 28.656-11.32 14.328-18.156 31.281-19.797 49.492-1.6406 17.938 2.4609 36.312 11.156 52.062 17.828 32.047 54.523 50.805 90.945 46.156 20.289-2.5703 39.266-11.703 53.703-26.25 12.906-13.016 21.984-30.078 25.047-48.18 3.2812-19.359 0.60156-38.992-8.0391-56.656-7.9844-16.406-21.383-30.352-37.352-39.266-4.1016-2.3516-8.5312-4.3203-13.016-6.0156-3.9922-1.5312-9.1875 1.6953-10.117 5.7422-1.0391 4.7031 1.4219 8.4766 5.7422 10.117 0.27344 0.10938 3.0625 1.2031 1.5859 0.60156 0.92969 0.38281 1.8594 0.82031 2.7891 1.2578 1.8594 0.875 3.6641 1.8047 5.4141 2.8438 1.75 0.98438 3.5 2.0781 5.1953 3.1719 0.71094 0.49219 1.4766 0.98438 2.1875 1.5312 0.4375 0.27344 0.82031 0.60156 1.2031 0.875 0.71094 0.54688-0.71094-0.60156 0.4375 0.32812 3.1719 2.5156 6.125 5.25 8.9141 8.2031 1.3672 1.4766 2.7344 3.0078 3.9922 4.5391 0.32812 0.38281 0.65625 0.76562 0.92969 1.2031-0.10937-0.10937-0.71094-0.92969-0.10937-0.16406 0.65625 0.92969 1.3672 1.8594 1.9688 2.7891 2.2969 3.3359 4.3203 6.8906 6.125 10.5 0.4375 0.92969 0.875 1.8594 1.3125 2.7891 0.10937 0.21875 0.60156 1.4219 0.054687 0.16406 0.21875 0.49219 0.38281 0.92969 0.54688 1.4219 0.76562 1.9141 1.4219 3.8828 2.0234 5.8516 1.2031 3.9922 2.1328 8.0938 2.7344 12.195-0.21875-1.4219 0.10938 1.2578 0.16406 1.75 0.10938 1.0391 0.16406 2.1328 0.21875 3.1719 0.10938 2.1328 0.16406 4.3203 0.10938 6.5078-0.054688 2.1328-0.16406 4.2656-0.38281 6.4531-0.054688 0.54688-0.10938 1.0391-0.16406 1.5859 0 0.054687-0.16406 1.3672-0.054687 0.49219 0.10937-0.98438-0.10938 0.65625-0.16406 0.875l-0.32812 1.9688c-0.76562 4.1016-1.8047 8.0938-3.1719 12.031-0.32812 0.98438-0.71094 1.9141-1.0391 2.8984-0.16406 0.49219-0.38281 0.92969-0.54687 1.4219 0.10937-0.32813 0.60156-1.3125-0.054688 0.16406-0.82031 1.8594-1.6953 3.7188-2.6797 5.4688-1.9141 3.6094-4.1562 6.9453-6.5078 10.281-0.92969 1.3125-0.32812 0.4375-0.10938 0.16406-0.32812 0.38281-0.60156 0.76563-0.92969 1.2031-0.65625 0.76562-1.3125 1.5312-1.9688 2.2969-1.3125 1.5312-2.7344 3.0078-4.1562 4.4297-1.4219 1.4219-2.8984 2.7891-4.4297 4.1016-0.65625 0.54688-1.3672 1.1484-2.0234 1.6953-0.16406 0.10938-1.4219 1.0938-0.65625 0.54688 0.76563-0.54688-0.82031 0.60156-0.98437 0.71094-3.2812 2.3516-6.7266 4.5391-10.336 6.3984-1.8047 0.92969-3.6641 1.8047-5.5234 2.625 1.3672-0.60156-0.875 0.32812-1.2578 0.49219-1.3125 0.49219-2.6797 0.98438-4.0469 1.4219-9.625 3.1172-18.594 4.2109-28.766 3.5547-0.98438-0.054687-2.0234-0.16406-3.0078-0.21875-0.54688-0.054687-3.1719-0.4375-1.5312-0.16406-1.9688-0.27344-3.9375-0.65625-5.8516-1.0938-3.8281-0.82031-7.5469-1.9688-11.211-3.3359-0.92969-0.32812-1.8047-0.71094-2.6797-1.0391 1.5859 0.65625-0.98438-0.49219-1.3672-0.65625-1.75-0.82031-3.4453-1.6953-5.1406-2.625-3.3359-1.8594-6.5078-3.9375-9.625-6.2344-1.2578-0.92969-0.27344-0.21875-0.054688 0-0.38281-0.27344-0.76562-0.60156-1.0938-0.875-0.71094-0.60156-1.4766-1.2031-2.1875-1.8594-1.4219-1.2578-2.7891-2.5703-4.1562-3.9375-1.3125-1.3672-2.625-2.7344-3.8828-4.2109-0.54688-0.65625-1.0938-1.2578-1.5859-1.9141-0.16406-0.16406-1.0938-1.3672-0.49219-0.54687 0.65625 0.82031-0.54687-0.71094-0.65625-0.875-2.2422-3.0625-4.3203-6.2891-6.1797-9.6797-0.92969-1.6953-1.8047-3.3906-2.5703-5.1406-0.21875-0.4375-0.38281-0.875-0.60156-1.3125 0.054688 0.10938 0.49219 1.1484 0.10938 0.27344-0.4375-0.98437-0.82031-2.0234-1.2031-3.0625-1.3125-3.6641-2.4062-7.4375-3.2266-11.266-0.21875-0.98438-0.38281-1.9141-0.54688-2.8984-0.10937-0.49219-0.49219-3.1719-0.27344-1.5312-0.27344-1.9688-0.4375-3.9922-0.54688-6.0156-0.21875-4.0469-0.16406-8.1484 0.21875-12.195 0.10938-0.98437 0.21875-2.0234 0.32812-3.0078-0.21875 1.75 0.21875-1.0938 0.27344-1.5312 0.32813-1.9688 0.76563-3.8828 1.2031-5.7969 0.92969-3.7734 2.1875-7.4922 3.6094-11.102 0.60156-1.4766 0.16406-0.32812 0-0.054687 0.21875-0.4375 0.38281-0.875 0.60156-1.3125 0.38281-0.875 0.82031-1.75 1.2578-2.625 0.875-1.6953 1.75-3.3906 2.7344-5.0312 0.98438-1.6406 2.0234-3.2812 3.0625-4.8125 0.49219-0.71094 0.92969-1.3672 1.4219-2.0234 0.27344-0.38281 0.54687-0.76563 0.875-1.1484 0.54687-0.76562-0.71094 0.875 0.27344-0.32812 2.4609-2.8984 4.9766-5.7422 7.7656-8.3672 1.3672-1.3125 2.7891-2.5703 4.2656-3.7734 0.38281-0.32812 0.76562-0.60156 1.0938-0.875-0.10938 0.054688-0.98438 0.76562-0.27344 0.16406 0.875-0.65625 1.6953-1.2578 2.625-1.9141 3.1172-2.1875 6.3984-4.1562 9.8438-5.9062 0.875-0.4375 1.6953-0.875 2.5703-1.2578 0.4375-0.21875 2.8438-1.2578 1.3672-0.65625 1.8047-0.76563 3.6094-1.4219 5.4688-2.0234 3.7188-1.2578 7.5469-2.2422 11.375-2.9531 0.98437-0.16406 1.9688-0.32812 2.9531-0.49219-1.75 0.27344 1.1484-0.10938 1.5312-0.16406 2.0234-0.21875 4.0469-0.32812 6.0703-0.38281 4.8125-0.10937 10.062 0.16406 14.219 0.875 5.1953 0.875 10.227 2.2969 15.148 4.1016 4.0469 1.4766 9.1875-1.6406 10.117-5.7422 1.2578-4.6484-1.2578-8.5312-5.5781-10.117z"/>
  <path d="m327.25 430.45c-0.54688 0-2.2969-0.16406-0.82031 0.054688-0.875-0.10938-1.6953-0.32812-2.5156-0.60156-0.32812-0.10938-0.71094-0.21875-1.0391-0.32813 0.10938 0.054688 1.0938 0.54688 0.27344 0.10938-0.76563-0.38281-1.4766-0.82031-2.1875-1.2578-1.3125-0.82031-0.32813-0.27344-0.054688 0-0.27344-0.21875-0.54688-0.49219-0.76562-0.71094s-1.5312-1.5859-1.0391-1.0391c0.4375 0.54688-0.82031-1.2578-0.98437-1.5312-0.16406-0.32812-0.32813-0.65625-0.49219-0.98438-0.60156-1.0938 0.38281 1.1484 0-0.054688-0.21875-0.71094-0.4375-1.4219-0.60156-2.1328-0.054688-0.38281-0.16406-0.71094-0.21875-1.0938 0.21875 1.5312 0.054687 0.21875 0.054687-0.054688 0-0.76562 0-1.5312 0.054687-2.2969-0.054687 1.4766 0.10938-0.54688 0.27344-1.1484 0.10938-0.49219 0.92969-2.4609 0.27344-1.1484 0.32812-0.65625 0.65625-1.3125 1.0391-1.9141 0.27344-0.4375 1.3125-1.6406 0.4375-0.65625 0.65625-0.71094 1.3125-1.3672 2.0234-2.0234-0.98438 0.875 0.16406-0.10937 0.65625-0.4375 0.32812-0.21875 2.2969-1.2031 1.5859-0.875-0.71094 0.27344 1.0938-0.32812 1.4219-0.4375 0.54688-0.16406 2.625-0.38281 1.1484-0.27344 0.875-0.054687 1.8047-0.054687 2.6797 0 0.98438 0-0.16406-0.054687-0.32812-0.10938 0.38281 0.054688 0.71094 0.10938 1.0938 0.21875 0.71094 0.16406 1.4219 0.38281 2.1328 0.60156 1.2031 0.38281-1.0391-0.54687 0.054688 0 0.4375 0.21875 0.875 0.4375 1.2578 0.71094 0.27344 0.16406 1.8047 1.2578 1.2031 0.76562-0.54688-0.49219 1.0391 1.0938 1.2578 1.3125 1.0391 0.92969-0.21875-0.60156 0.49219 0.60156 0.4375 0.71094 0.875 1.4219 1.2578 2.1875 0.4375 0.82031-0.054688-0.16406-0.10938-0.27344 0.16406 0.4375 0.32812 0.92969 0.4375 1.3672 0.21875 0.71094 0.38281 1.4219 0.49219 2.1875-0.21875-1.4219-0.054687 0.32812-0.054687 0.82031s-0.054687 1.0391-0.054687 1.5312c0.054687-0.82031 0.16406-0.71094 0 0.054688-0.21875 0.82031-0.4375 1.6406-0.71094 2.4609-0.27344 0.875 0.054688-0.16406 0.16406-0.27344-0.27344 0.54687-0.54687 1.0938-0.875 1.5859-0.27344 0.4375-1.5312 2.0234-0.60156 0.98438-0.54688 0.60156-1.1484 1.2031-1.75 1.8047-0.875 0.875 0.98438-0.65625 0 0.054687-0.38281 0.27344-0.76562 0.54688-1.2031 0.76562-0.4375 0.27344-2.3516 1.0938-0.98438 0.60156-0.92969 0.32813-1.8594 0.54688-2.8438 0.82031-0.10938 0.054687-1.3125 0.16406-0.38281 0.054687 1.0391-0.10937-1.2031 0-1.1484 0-4.2656 0.10938-8.4219 3.7188-8.2031 8.2031 0.21875 4.375 3.6094 8.3125 8.2031 8.2031 11.539-0.21875 21.383-7.2734 25.375-18.102 3.7188-10.062 0.32812-22.367-7.9844-29.148-8.75-7.1641-21.164-8.5312-31.008-2.6797-10.008 5.9062-14.656 17.445-12.578 28.656 2.2969 12.414 13.945 21 26.25 21.273 4.2656 0.10938 8.4219-3.8281 8.2031-8.2031-0.27344-4.5391-3.6641-8.0938-8.2578-8.2031z"/>
  <path d="m327.25 409.55c0.54688 0 2.2969 0.16406 0.82031-0.054688 0.875 0.10938 1.6953 0.32812 2.5156 0.60156 0.32812 0.10938 0.71094 0.21875 1.0391 0.32813-0.10938-0.054688-1.0938-0.54688-0.27344-0.10938 0.76563 0.38281 1.4766 0.82031 2.1875 1.2578 1.3125 0.82031 0.32813 0.27344 0.054688 0 0.27344 0.21875 0.54688 0.49219 0.76562 0.71094s1.5312 1.5859 1.0391 1.0391c-0.4375-0.54688 0.82031 1.2578 0.98437 1.5312 0.16406 0.32812 0.32813 0.65625 0.49219 0.98438 0.60156 1.0938-0.38281-1.1484 0 0.054688 0.21875 0.71094 0.4375 1.4219 0.60156 2.1328 0.054688 0.38281 0.16406 0.71094 0.21875 1.0938-0.21875-1.5312-0.054687-0.21875-0.054687 0.054688 0 0.76562 0 1.5312-0.054687 2.2969 0.054687-1.4766-0.10938 0.54688-0.27344 1.1484-0.10938 0.49219-0.92969 2.4609-0.27344 1.1484-0.32812 0.65625-0.65625 1.3125-1.0391 1.9141-0.27344 0.4375-1.3125 1.6406-0.4375 0.65625-0.65625 0.71094-1.3125 1.3672-2.0234 2.0234 0.98438-0.875-0.16406 0.10937-0.65625 0.4375-0.32812 0.21875-2.2969 1.2031-1.5859 0.875 0.71094-0.27344-1.0938 0.32812-1.4219 0.4375-0.54688 0.16406-2.625 0.38281-1.1484 0.27344-0.875 0.054687-1.8047 0.054687-2.6797 0-0.98438 0 0.16406 0.054687 0.32812 0.10938-0.38281-0.054688-0.71094-0.10938-1.0938-0.21875-0.71094-0.16406-1.4219-0.38281-2.1328-0.60156-1.2031-0.38281 1.0391 0.54687-0.054688 0-0.4375-0.21875-0.875-0.4375-1.2578-0.71094-0.27344-0.16406-1.8047-1.2578-1.2031-0.76562 0.54688 0.49219-1.0391-1.0938-1.2578-1.3125-1.0391-0.92969 0.21875 0.60156-0.49219-0.60156-0.4375-0.71094-0.875-1.4219-1.2578-2.1875-0.4375-0.82031 0.054688 0.16406 0.10938 0.27344-0.16406-0.4375-0.32812-0.92969-0.4375-1.3672-0.21875-0.71094-0.38281-1.4219-0.49219-2.1875 0.21875 1.4219 0.054687-0.32812 0.054687-0.82031s0.054687-1.0391 0.054687-1.5312c-0.054687 0.82031-0.16406 0.71094 0-0.054688 0.21875-0.82031 0.4375-1.6406 0.71094-2.4609 0.27344-0.875-0.054688 0.16406-0.16406 0.27344 0.27344-0.54687 0.54687-1.0938 0.875-1.5859 0.27344-0.4375 1.5312-2.0234 0.60156-0.98438 0.54688-0.60156 1.1484-1.2031 1.75-1.8047 0.875-0.875-0.98438 0.65625 0-0.054687 0.38281-0.27344 0.76562-0.54688 1.2031-0.76562 0.4375-0.27344 2.3516-1.0938 0.98438-0.60156 0.92969-0.32813 1.8594-0.54688 2.8438-0.82031 0.10938-0.054687 1.3125-0.16406 0.38281-0.054687-1.0938 0.10937 1.1484 0 1.1484 0 4.2656-0.10938 8.4219-3.7188 8.2031-8.2031-0.21875-4.375-3.6094-8.3125-8.2031-8.2031-11.539 0.21875-21.383 7.2734-25.375 18.102-3.7188 10.062-0.32812 22.367 7.9844 29.148 8.75 7.1641 21.164 8.5312 31.008 2.6797 10.008-5.9062 14.656-17.445 12.578-28.656-2.2969-12.414-13.945-21-26.25-21.273-4.2656-0.10938-8.4219 3.8281-8.2031 8.2031 0.21875 4.5391 3.6641 8.0938 8.2578 8.2031z"/>
  <path d="m358.64 334.25c-22.148-8.2031-46.703-7.1094-68.25 2.2422-18.047 7.8203-33.414 21.984-42.93 39.156-20.18 36.203-12.906 83.07 17.609 111.23 16.898 15.586 39.156 24.336 62.18 24.445v-16.406h-36.914-74.211-58.789-5.8516-1.0391c-1.0391 0-2.0234-0.054687-3.0625-0.16406 1.75 0.21875-0.98437-0.27344-1.4219-0.38281-0.49219-0.10938-0.92969-0.27344-1.3672-0.38281-0.21875-0.054688-2.3516-0.98438-0.71094-0.21875-0.875-0.38281-1.6953-0.82031-2.5156-1.3125-0.49219-0.32813-0.98438-0.65625-1.4766-0.98438-1.0391-0.65625 0.92969 0.82031 0 0-0.82031-0.71094-1.5859-1.3672-2.2969-2.1875-0.32812-0.32812-0.60156-0.71094-0.92969-1.0391-1.4219-1.5312 0.65625 1.2031-0.4375-0.60156-0.49219-0.82031-1.0391-1.5859-1.4766-2.4062-0.21875-0.4375-0.4375-0.875-0.60156-1.2578 0.71094 1.4766 0 0.054687-0.10938-0.38281-0.27344-0.92969-0.54687-1.8594-0.76562-2.7891-0.10938-0.4375-0.32813-2.0234-0.10938-0.38281-0.054687-0.60156-0.10937-1.2578-0.16406-1.8594-0.10938-2.4062 0-4.8125 0-7.2734 0-19.742-0.054688-39.484 0-59.227 0.054688-18.977 4.5938-38.172 13.344-54.906 6.6172-12.742 14.383-22.203 24.281-32.32 8.1484-8.3125 16.297-16.57 24.391-24.883 6.2891-6.3984 12.414-13.07 19.031-19.141 7.3828-6.7266 15.039-12.086 24.336-17.062 8.9688-4.7578 17.281-7.9297 27.617-10.5 2.4062-0.60156 4.8125-1.0938 7.2734-1.5312 1.3125-0.21875 2.5703-0.4375 3.8828-0.65625 0.60156-0.10937 1.1484-0.16406 1.75-0.27344-1.3125 0.16406 1.3125-0.16406 1.3125-0.16406 4.7031-0.54687 9.4062-0.76562 14.109-0.76562h11.102 18.594 5.9062 0.98437c0.65625 0 1.2578 0 1.9141 0.054687 0.4375 0.054687 2.0234 0.32812 0.38281 0 0.60156 0.10938 1.2031 0.21875 1.8047 0.38281 1.0391 0.27344 2.0781 0.60156 3.1172 0.98437-1.5312-0.60156 0.76563 0.4375 1.2578 0.71094 0.4375 0.21875 0.82031 0.49219 1.2031 0.71094-0.054688 0 1.8594 1.3125 0.92969 0.60156-0.82031-0.60156 0.38281 0.32812 0.54687 0.49219 0.4375 0.38281 0.875 0.76562 1.3125 1.2031s0.82031 0.875 1.2031 1.3125c0.16406 0.16406 1.0391 1.3672 0.49219 0.54688-0.71094-0.92969 0.60156 0.92969 0.60156 0.92969 0.27344 0.38281 0.49219 0.82031 0.71094 1.2031 0.27344 0.49219 1.2578 2.7891 0.71094 1.2578 0.4375 1.1484 0.82031 2.2969 1.0938 3.4453 0.10938 0.49219 0.21875 0.92969 0.27344 1.4219-0.32812-1.6406 0-0.054688 0 0.38281 0.054688 0.65625 0.054688 1.2578 0.054688 1.9141v0.60156 3.3906 64.969 5.7422c0 4.2656 3.7734 8.4219 8.2031 8.2031 4.4297-0.21875 8.2031-3.6094 8.2031-8.2031v-59.391c0-8.3672 1.0938-18.156-1.8047-26.195-3.6641-10.227-11.594-18.102-21.93-21.492-5.0312-1.6406-10.227-1.5312-15.367-1.5312h-31.227c-21.109 0.054687-41.891 4.9766-60.867 14.328-14.492 7.1641-27.18 17.117-38.5 28.602-7.9844 8.1484-15.969 16.297-24.008 24.445-6.2344 6.3438-12.633 12.578-18.648 19.141-14.93 16.297-25.922 36.203-31.5 57.641-3.5 13.398-4.4297 27.07-4.4297 40.797v35.93c0 8.0391-0.32813 16.133 0 24.172 0.82031 18.32 15.914 32.703 34.234 32.758 14.602 0.054687 29.203 0 43.805 0h77.164 52.883 2.6797c4.2656 0 8.4219-3.7734 8.2031-8.2031-0.21875-4.4844-3.6094-8.2031-8.2031-8.2031-2.2969 0-4.5938-0.10938-6.8906-0.27344-0.98438-0.10938-2.0234-0.21875-3.0078-0.32813-2.4062-0.27344 1.0391 0.16406-0.4375-0.054687-0.76562-0.10938-1.4766-0.21875-2.1875-0.38281-4.375-0.76562-8.6406-1.9141-12.852-3.3906-1.0391-0.38281-2.0781-0.76563-3.0625-1.1484-0.4375-0.16406-0.875-0.38281-1.3672-0.54688 1.4219 0.60156 0.21875 0.10938-0.054687-0.054687-2.1875-1.0391-4.375-2.0781-6.4531-3.2266-1.8047-0.98438-3.5-2.0781-5.25-3.1719-0.875-0.60156-1.8047-1.2031-2.6797-1.8047-0.38281-0.27344-0.76562-0.54687-1.1484-0.82031-1.9141-1.3672 1.2031 1.0391-0.60156-0.4375-3.3359-2.7344-6.5078-5.5781-9.4062-8.75-1.4766-1.5859-2.8438-3.2266-4.1562-4.9219 0.98438 1.2578-0.54688-0.76562-0.875-1.2031-0.71094-0.98438-1.3672-1.9688-2.0234-2.9531-2.4609-3.7188-4.5391-7.6562-6.3984-11.703-0.16406-0.38281-0.76562-1.8594-0.16406-0.38281-0.16406-0.4375-0.38281-0.875-0.54688-1.3672-0.32812-0.92969-0.71094-1.8047-1.0391-2.7344-0.82031-2.2969-1.5312-4.6484-2.1328-7.0547-0.49219-2.0234-0.92969-4.1016-1.3125-6.1797-0.054688-0.38281-0.49219-3.6641-0.32813-1.9141-0.16406-1.2578-0.27344-2.5156-0.38281-3.7734-0.32812-4.5938-0.32812-9.1875 0.054688-13.727 0.054687-0.49219 0.10937-0.98438 0.16406-1.5312 0 0.054687 0.27344-2.4062 0.10938-1.1484-0.16406 1.0391 0.10938-0.54688 0.10938-0.76562 0.10938-0.60156 0.21875-1.2031 0.32812-1.8594 0.38281-2.1875 0.875-4.375 1.4766-6.5078 0.54687-2.1328 1.2031-4.2656 1.9688-6.3438 0.32812-0.92969 0.65625-1.8594 1.0391-2.7344 0 0.054688 0.875-2.1328 0.4375-1.0391-0.4375 0.92969 0.38281-0.82031 0.49219-1.0391 1.8594-4.0469 4.0469-7.9844 6.5625-11.703 0.60156-0.875 1.2031-1.8047 1.8594-2.6797 0.27344-0.38281 0.54688-0.76562 0.875-1.1484-0.875 1.2031-0.16406 0.16406 0.054688-0.054688 1.5312-1.8594 3.0625-3.7188 4.7031-5.4141 1.4219-1.4766 2.8438-2.8984 4.375-4.2656 0.82031-0.71094 1.5859-1.4219 2.4609-2.1328 0.38281-0.32812 0.71094-0.60156 1.0938-0.92969 0.10938-0.10937 1.9688-1.5859 0.60156-0.49219 3.4453-2.625 7.1094-4.9766 10.938-7.0547 2.1328-1.1484 4.3203-2.1875 6.5625-3.1719-1.4766 0.65625 0.054687 0 0.38281-0.16406 0.54687-0.21875 1.1484-0.4375 1.6953-0.65625 1.2578-0.49219 2.5156-0.875 3.8281-1.3125 2.3516-0.76562 4.7578-1.3672 7.1641-1.9141 1.3125-0.27344 2.6797-0.54688 4.0469-0.76563 0.49219-0.10937 0.98438-0.16406 1.4766-0.21875-1.4766 0.21875 0.32812-0.054687 0.82031-0.10937 12.688-1.4219 24.281 0.10937 36.203 4.4844 4.0469 1.4766 9.1875-1.6406 10.117-5.7422 0.82031-4.4844-1.6953-8.3672-6.0156-9.9531z"/>
  <path d="m305.65 241.72v-62.562c0-3.5-0.054688-7.0547 0.10937-10.555 0.10938-2.2969 0.27344-4.5391 0.49219-6.8359 0.054688-0.76562 0.16406-1.4766 0.27344-2.2422 0.054687-0.32813 0.21875-1.5859 0-0.054688 0.16406-1.2578 0.38281-2.4609 0.60156-3.7188 0.82031-4.7578 1.9688-9.4062 3.3906-14.055 0.65625-2.2422 1.4219-4.4297 2.2422-6.5625 0.38281-1.0391 0.76563-2.0234 1.2031-3.0625 0.16406-0.38281 0.82031-1.8594 0.16406-0.38281 0.27344-0.65625 0.60156-1.3125 0.875-1.9688 1.9141-4.1562 4.0469-8.2031 6.3984-12.141 1.2031-1.9688 2.4062-3.8828 3.7188-5.7422 0.60156-0.875 1.2578-1.75 1.8594-2.625 0.27344-0.38281 0.54688-0.76563 0.875-1.1484 0.27344-0.38281 0.60156-0.76562 0.875-1.1484-0.49219 0.60156-0.54687 0.71094-0.16406 0.21875 2.8984-3.6641 6.0156-7.1094 9.2969-10.391 3.2266-3.2266 6.6172-6.1797 10.172-9.0234-1.1484 0.92969-0.21875 0.16406 0.054688-0.054688 0.60156-0.4375 1.1484-0.875 1.75-1.2578 0.76562-0.54688 1.5312-1.0938 2.3516-1.6406 1.9688-1.3672 3.9922-2.6797 6.0156-3.9375 4.0469-2.4062 8.2031-4.6484 12.469-6.5625 0.54688-0.27344 1.0938-0.49219 1.6406-0.71094-1.3672 0.60156-0.21875 0.10937 0.054688 0 1.1484-0.4375 2.2422-0.92969 3.3906-1.3125 2.2969-0.875 4.5938-1.6406 6.9453-2.3516 4.4844-1.3672 9.0781-2.4609 13.672-3.2812 1.2031-0.21875 2.4609-0.38281 3.7188-0.60156-1.6406 0.21875 0.98438-0.10937 1.5312-0.16406 2.5156-0.27344 5.0312-0.49219 7.6016-0.60156 4.8672-0.21875 9.7344-0.16406 14.547 0.21875 0.98437 0.054687 2.0234 0.16406 3.0078 0.27344 0.60156 0.054687 1.2578 0.10938 1.8594 0.21875 0.4375 0.054687 2.0781 0.27344 0.4375 0.054687 2.4609 0.38281 4.9219 0.76563 7.3828 1.3125 4.5938 0.92969 9.0781 2.1875 13.508 3.6641 2.1875 0.76562 4.375 1.5859 6.5078 2.4062 0.38281 0.16406 1.8594 0.82031 0.38281 0.16406 0.4375 0.21875 0.875 0.38281 1.3125 0.60156 1.2031 0.54688 2.4062 1.0938 3.6094 1.6953 4.2109 2.0781 8.3125 4.375 12.25 6.9453 1.8047 1.1484 3.6094 2.4062 5.3047 3.6641 0.4375 0.32812 3.0625 2.3516 1.75 1.3125 0.92969 0.76562 1.8594 1.4766 2.7891 2.2422 3.5 2.8984 6.7812 6.0156 9.8984 9.3516 1.5859 1.6406 3.0625 3.3359 4.5391 5.0859 0.71094 0.82031 1.3672 1.6406 2.0234 2.5156 1.4766 1.8047-0.60156-0.76562 0.27344 0.32812 0.4375 0.54688 0.875 1.1484 1.3125 1.75 2.7891 3.7734 5.3047 7.7109 7.6016 11.758 1.0391 1.9141 2.0781 3.8281 3.0625 5.7422 0.54687 1.0938 1.0391 2.1875 1.5312 3.2812 0.21875 0.4375 0.38281 0.875 0.60156 1.3125 0.82031 1.75-0.32812-0.92969 0.32812 0.71094 3.6094 8.9141 6.125 18.156 7.5469 27.727-0.21875-1.6406 0.10938 0.98438 0.16406 1.5312 0.16406 1.2578 0.27344 2.5156 0.32813 3.7734 0.21875 2.5703 0.32812 5.0859 0.32812 7.6562v1.9141 9.625 51.078 77.109 83.07 69.617 36.641 1.6406c0 4.2656 3.7734 8.4219 8.2031 8.2031 4.4297-0.21875 8.2031-3.6094 8.2031-8.2031v-26.414-65.078-83.234-80.773-57.805c0-15.203 0.10938-30.078-3.3906-45.008-9.1328-38.828-37.297-71.258-73.992-86.625-37.133-15.641-81.102-11.812-115.06 9.8438-33.906 21.656-55.617 58.734-57.969 98.93-0.54688 9.4609-0.21875 19.031-0.21875 28.492v38.828 7.3281c0 4.2656 3.7734 8.4219 8.2031 8.2031 4.4844-0.21875 8.2578-3.6094 8.2578-8.2031z"/>
  <path d="m487.87 511.33h76.562 10.938c4.2656 0 8.4219-3.7734 8.2031-8.2031s-3.6094-8.2031-8.2031-8.2031h-76.562-10.938c-4.2656 0-8.4219 3.7734-8.2031 8.2031s3.6094 8.2031 8.2031 8.2031z"/>
  <use x="70" y="568.203125" xlink:href="#v"/>
  <use x="72.007812" y="568.203125" xlink:href="#f"/>
  <use x="73.355469" y="568.203125" xlink:href="#a"/>
  <use x="75.210937" y="568.203125" xlink:href="#e"/>
  <use x="77.054688" y="568.203125" xlink:href="#d"/>
  <use x="78.363281" y="568.203125" xlink:href="#a"/>
  <use x="80.214844" y="568.203125" xlink:href="#k"/>
  <use x="83.125" y="568.203125" xlink:href="#j"/>
  <use x="85.082031" y="568.203125" xlink:href="#i"/>
  <use x="87.816406" y="568.203125" xlink:href="#c"/>
  <use x="89.445312" y="568.203125" xlink:href="#b"/>
  <use x="91.390625" y="568.203125" xlink:href="#e"/>
  <use x="93.238281" y="568.203125" xlink:href="#c"/>
  <use x="94.863281" y="568.203125" xlink:href="#b"/>
  <use x="96.8125" y="568.203125" xlink:href="#e"/>
  <use x="98.65625" y="568.203125" xlink:href="#h"/>
  <use x="100.601562" y="568.203125" xlink:href="#u"/>
  <use x="103.375" y="568.203125" xlink:href="#c"/>
  <use x="105" y="568.203125" xlink:href="#t"/>
  <use x="105.9375" y="568.203125" xlink:href="#h"/>
  <use x="107.882812" y="568.203125" xlink:href="#s"/>
  <use x="109.84375" y="568.203125" xlink:href="#b"/>
  <use x="70" y="570.9375" xlink:href="#r"/>
  <use x="71.191406" y="570.9375" xlink:href="#f"/>
  <use x="72.539062" y="570.9375" xlink:href="#g"/>
  <use x="74.417969" y="570.9375" xlink:href="#q"/>
  <use x="78.21875" y="570.9375" xlink:href="#d"/>
  <use x="79.523438" y="570.9375" xlink:href="#b"/>
  <use x="81.472656" y="570.9375" xlink:href="#a"/>
  <use x="84.277344" y="570.9375" xlink:href="#p"/>
  <use x="86.566406" y="570.9375" xlink:href="#g"/>
  <use x="88.445312" y="570.9375" xlink:href="#o"/>
  <use x="90.390625" y="570.9375" xlink:href="#h"/>
  <use x="93.289062" y="570.9375" xlink:href="#n"/>
  <use x="95.292969" y="570.9375" xlink:href="#f"/>
  <use x="96.644531" y="570.9375" xlink:href="#g"/>
  <use x="98.519531" y="570.9375" xlink:href="#m"/>
  <use x="99.457031" y="570.9375" xlink:href="#a"/>
  <use x="101.3125" y="570.9375" xlink:href="#l"/>
  <use x="102.933594" y="570.9375" xlink:href="#d"/>
 </g>
</svg>
