<?xml version="1.0" encoding="UTF-8"?>
<svg width="700pt" height="700pt" version="1.1" viewBox="0 0 700 700" xmlns="http://www.w3.org/2000/svg" xmlns:xlink="http://www.w3.org/1999/xlink">
 <defs>
  <symbol id="v" overflow="visible">
   <path d="m1.8281-0.10938c-0.09375 0.054688-0.19531 0.089844-0.29688 0.10938-0.09375 0.019531-0.19922 0.03125-0.3125 0.03125-0.33594 0-0.60156-0.085938-0.79688-0.26562-0.1875-0.1875-0.28125-0.44141-0.28125-0.76562 0-0.3125 0.09375-0.5625 0.28125-0.75 0.19531-0.1875 0.46094-0.28125 0.79688-0.28125 0.11328 0 0.21875 0.015625 0.3125 0.046875 0.10156 0.023437 0.20312 0.058594 0.29688 0.10938v0.40625c-0.09375-0.0625-0.1875-0.10938-0.28125-0.14062s-0.19531-0.046875-0.29688-0.046875c-0.17969 0-0.32031 0.0625-0.42188 0.1875-0.10547 0.11719-0.15625 0.27344-0.15625 0.46875 0 0.21094 0.050781 0.375 0.15625 0.5 0.10156 0.11719 0.24219 0.17188 0.42188 0.17188 0.10156 0 0.20312-0.015625 0.29688-0.046875s0.1875-0.078125 0.28125-0.14062z"/>
  </symbol>
  <symbol id="f" overflow="visible">
   <path d="m1.3438-1.0938c-0.042969-0.019531-0.085938-0.03125-0.125-0.03125-0.042969-0.007812-0.085938-0.015625-0.125-0.015625-0.125 0-0.22656 0.042969-0.29688 0.125-0.0625 0.074219-0.09375 0.18359-0.09375 0.32812v0.6875h-0.46875v-1.5h0.46875v0.25c0.0625-0.09375 0.12891-0.16016 0.20312-0.20312 0.082031-0.050781 0.17969-0.078125 0.29688-0.078125h0.046875c0.019531 0 0.050781 0.007812 0.09375 0.015625z"/>
  </symbol>
  <symbol id="a" overflow="visible">
   <path d="m1.7188-0.75v0.14062h-1.1094c0.007813 0.10547 0.046875 0.1875 0.10938 0.25 0.070312 0.054687 0.17188 0.078125 0.29688 0.078125 0.10156 0 0.20703-0.015625 0.3125-0.046875 0.10156-0.03125 0.21094-0.070313 0.32812-0.125v0.35938c-0.11719 0.042969-0.23047 0.074219-0.34375 0.09375-0.11719 0.019531-0.23047 0.03125-0.34375 0.03125-0.27344 0-0.48047-0.066406-0.625-0.20312-0.14844-0.13281-0.21875-0.32812-0.21875-0.57812 0-0.23828 0.070312-0.42578 0.21875-0.5625 0.14453-0.14453 0.34766-0.21875 0.60938-0.21875 0.22656 0 0.41016 0.074219 0.54688 0.21875 0.14453 0.13672 0.21875 0.32422 0.21875 0.5625zm-0.48438-0.15625c0-0.09375-0.027344-0.16406-0.078125-0.21875-0.054688-0.0625-0.125-0.09375-0.21875-0.09375-0.085938 0-0.15625 0.027344-0.21875 0.078125-0.0625 0.054687-0.10156 0.13281-0.10938 0.23438z"/>
  </symbol>
  <symbol id="e" overflow="visible">
   <path d="m0.90625-0.67188c-0.10547 0-0.18359 0.015625-0.23438 0.046875-0.054687 0.03125-0.078125 0.085938-0.078125 0.15625 0 0.0625 0.019531 0.10938 0.0625 0.14062 0.039062 0.03125 0.097656 0.046875 0.17188 0.046875 0.09375 0 0.16406-0.03125 0.21875-0.09375 0.0625-0.0625 0.09375-0.14453 0.09375-0.25v-0.046875zm0.71875-0.1875v0.85938h-0.48438v-0.21875c-0.0625 0.09375-0.13672 0.16406-0.21875 0.20312-0.074219 0.03125-0.16797 0.046875-0.28125 0.046875-0.15625 0-0.28125-0.039062-0.375-0.125-0.09375-0.09375-0.14062-0.21094-0.14062-0.35938 0-0.17578 0.054688-0.30078 0.17188-0.375 0.125-0.082031 0.3125-0.125 0.5625-0.125h0.28125v-0.046875c0-0.070312-0.03125-0.125-0.09375-0.15625-0.054687-0.039062-0.14062-0.0625-0.26562-0.0625-0.10547 0-0.20312 0.011719-0.29688 0.03125-0.085937 0.023438-0.16406 0.054688-0.23438 0.09375v-0.35938c0.10156-0.03125 0.20703-0.050781 0.3125-0.0625 0.10156-0.007813 0.20312-0.015625 0.29688-0.015625 0.26953 0 0.46094 0.054688 0.57812 0.15625 0.125 0.10547 0.1875 0.27734 0.1875 0.51562z"/>
  </symbol>
  <symbol id="d" overflow="visible">
   <path d="m0.75-1.9219v0.42188h0.5v0.34375h-0.5v0.64062c0 0.0625 0.007812 0.10938 0.03125 0.14062 0.03125 0.023438 0.085938 0.03125 0.17188 0.03125h0.25v0.34375h-0.40625c-0.1875 0-0.32422-0.035156-0.40625-0.10938-0.074219-0.082031-0.10938-0.21875-0.10938-0.40625v-0.64062h-0.25v-0.34375h0.25v-0.42188z"/>
  </symbol>
  <symbol id="k" overflow="visible">
   <path d="m1.25-1.2812v-0.79688h0.48438v2.0781h-0.48438v-0.21875c-0.074219 0.09375-0.15234 0.16406-0.23438 0.20312-0.074219 0.03125-0.16406 0.046875-0.26562 0.046875-0.17969 0-0.32812-0.070312-0.45312-0.21875-0.11719-0.14453-0.17188-0.33203-0.17188-0.5625 0-0.22656 0.054688-0.41406 0.17188-0.5625 0.125-0.14453 0.27344-0.21875 0.45312-0.21875 0.10156 0 0.19141 0.023438 0.26562 0.0625 0.082031 0.042969 0.16016 0.10547 0.23438 0.1875zm-0.3125 0.96875c0.09375 0 0.16406-0.035156 0.21875-0.10938 0.0625-0.070313 0.09375-0.17969 0.09375-0.32812 0-0.13281-0.03125-0.23828-0.09375-0.3125-0.054688-0.082031-0.125-0.125-0.21875-0.125-0.10547 0-0.18359 0.042969-0.23438 0.125-0.054687 0.074219-0.078125 0.17969-0.078125 0.3125 0 0.14844 0.023438 0.25781 0.078125 0.32812 0.050781 0.074219 0.12891 0.10938 0.23438 0.10938z"/>
  </symbol>
  <symbol id="j" overflow="visible">
   <path d="m1.0312-0.3125c0.09375 0 0.16406-0.035156 0.21875-0.10938 0.0625-0.070313 0.09375-0.17969 0.09375-0.32812 0-0.13281-0.03125-0.23828-0.09375-0.3125-0.054688-0.082031-0.125-0.125-0.21875-0.125-0.10547 0-0.1875 0.042969-0.25 0.125-0.054688 0.074219-0.078125 0.17969-0.078125 0.3125 0 0.14844 0.023437 0.25781 0.078125 0.32812 0.0625 0.074219 0.14453 0.10938 0.25 0.10938zm-0.32812-0.96875c0.070313-0.082031 0.14453-0.14453 0.21875-0.1875 0.082031-0.039062 0.17578-0.0625 0.28125-0.0625 0.1875 0 0.33594 0.074219 0.45312 0.21875 0.11328 0.14844 0.17188 0.33594 0.17188 0.5625 0 0.23047-0.058594 0.41797-0.17188 0.5625-0.11719 0.14844-0.26562 0.21875-0.45312 0.21875-0.10547 0-0.19922-0.015625-0.28125-0.046875-0.074219-0.039062-0.14844-0.10938-0.21875-0.20312v0.21875h-0.46875v-2.0781h0.46875z"/>
  </symbol>
  <symbol id="i" overflow="visible">
   <path d="m0.03125-1.5h0.48438l0.39062 1.0156 0.34375-1.0156h0.48438l-0.625 1.6406c-0.0625 0.16406-0.14062 0.28125-0.23438 0.34375-0.085938 0.070313-0.19531 0.10938-0.32812 0.10938h-0.26562v-0.3125h0.14062c0.082031 0 0.14062-0.015625 0.17188-0.046875 0.039062-0.023437 0.070312-0.070313 0.09375-0.14062l0.015625-0.03125z"/>
  </symbol>
  <symbol id="c" overflow="visible">
   <path d="m1.3906-1.4531v0.375c-0.09375-0.050781-0.19531-0.085937-0.29688-0.10938-0.09375-0.019531-0.18359-0.03125-0.26562-0.03125-0.085937 0-0.15234 0.015625-0.20312 0.046875-0.042969 0.023437-0.0625 0.054687-0.0625 0.09375 0 0.042969 0.015625 0.074219 0.046875 0.09375 0.03125 0.023437 0.09375 0.039063 0.1875 0.046875l0.078125 0.015625c0.25 0.03125 0.41406 0.085937 0.5 0.15625 0.082031 0.0625 0.125 0.17188 0.125 0.32812s-0.0625 0.27734-0.1875 0.35938c-0.11719 0.074219-0.28906 0.10938-0.51562 0.10938-0.10547 0-0.21094-0.011719-0.3125-0.03125-0.10547-0.0078125-0.21094-0.03125-0.3125-0.0625v-0.35938c0.09375 0.054687 0.1875 0.089844 0.28125 0.10938 0.10156 0.023438 0.20703 0.03125 0.3125 0.03125 0.09375 0 0.16016-0.007812 0.20312-0.03125 0.050781-0.03125 0.078125-0.070312 0.078125-0.125 0-0.039062-0.015625-0.070312-0.046875-0.09375-0.03125-0.019531-0.10156-0.035156-0.20312-0.046875l-0.078125-0.015625c-0.21875-0.019531-0.37109-0.066406-0.45312-0.14062-0.085937-0.070313-0.125-0.17969-0.125-0.32812 0-0.15625 0.050781-0.26953 0.15625-0.34375 0.11328-0.082031 0.28125-0.125 0.5-0.125 0.09375 0 0.1875 0.011719 0.28125 0.03125 0.10156 0.011719 0.20703 0.027344 0.3125 0.046875z"/>
  </symbol>
  <symbol id="b" overflow="visible">
   <path d="m1.7344-0.90625v0.90625h-0.48438v-0.6875c0-0.13281-0.007812-0.22266-0.015625-0.26562 0-0.050781-0.007813-0.09375-0.015625-0.125-0.023438-0.03125-0.046875-0.050781-0.078125-0.0625-0.03125-0.019531-0.070313-0.03125-0.10938-0.03125-0.10547 0-0.1875 0.042969-0.25 0.125-0.054688 0.074219-0.078125 0.17969-0.078125 0.3125v0.73438h-0.46875v-2.0781h0.46875v0.79688c0.070313-0.082031 0.14844-0.14453 0.23438-0.1875 0.082031-0.039062 0.17188-0.0625 0.26562-0.0625 0.17578 0 0.30469 0.054688 0.39062 0.15625 0.09375 0.10547 0.14062 0.26172 0.14062 0.46875z"/>
  </symbol>
  <symbol id="h" overflow="visible">
   <path d="m1.7344-0.90625v0.90625h-0.48438v-0.70312c0-0.125-0.007812-0.20703-0.015625-0.25 0-0.050781-0.007813-0.09375-0.015625-0.125-0.023438-0.03125-0.046875-0.050781-0.078125-0.0625-0.03125-0.019531-0.070313-0.03125-0.10938-0.03125-0.10547 0-0.1875 0.042969-0.25 0.125-0.054688 0.074219-0.078125 0.17969-0.078125 0.3125v0.73438h-0.46875v-1.5h0.46875v0.21875c0.070313-0.082031 0.14844-0.14453 0.23438-0.1875 0.082031-0.039062 0.17188-0.0625 0.26562-0.0625 0.17578 0 0.30469 0.054688 0.39062 0.15625 0.09375 0.10547 0.14062 0.26172 0.14062 0.46875z"/>
  </symbol>
  <symbol id="u" overflow="visible">
   <path d="m0.23438-2.0781h0.46875v1.125l0.54688-0.54688h0.5625l-0.73438 0.6875 0.79688 0.8125h-0.57812l-0.59375-0.625v0.625h-0.46875z"/>
  </symbol>
  <symbol id="t" overflow="visible">
   <path d="m0.23438-1.5h0.46875v1.5h-0.46875zm0-0.57812h0.46875v0.39062h-0.46875z"/>
  </symbol>
  <symbol id="s" overflow="visible">
   <path d="m1.25-0.25c-0.074219 0.085938-0.15234 0.14844-0.23438 0.1875-0.074219 0.042969-0.16406 0.0625-0.26562 0.0625-0.17969 0-0.32812-0.070312-0.45312-0.21875-0.11719-0.14453-0.17188-0.32812-0.17188-0.54688s0.054688-0.39844 0.17188-0.54688c0.125-0.14453 0.27344-0.21875 0.45312-0.21875 0.10156 0 0.19141 0.023438 0.26562 0.0625 0.082031 0.042969 0.16016 0.10547 0.23438 0.1875v-0.21875h0.48438v1.3438c0 0.23828-0.078125 0.42188-0.23438 0.54688-0.15625 0.13281-0.375 0.20312-0.65625 0.20312-0.09375 0-0.1875-0.011719-0.28125-0.03125-0.085938-0.011719-0.16797-0.03125-0.25-0.0625v-0.375c0.082031 0.050781 0.16016 0.085938 0.23438 0.10938 0.082031 0.03125 0.16406 0.046875 0.25 0.046875 0.15625 0 0.26953-0.039062 0.34375-0.10938 0.070313-0.074219 0.10938-0.17969 0.10938-0.32812zm-0.3125-0.9375c-0.10547 0-0.18359 0.039062-0.23438 0.10938-0.054687 0.074219-0.078125 0.17969-0.078125 0.3125 0 0.13672 0.023438 0.24219 0.078125 0.3125 0.050781 0.074219 0.12891 0.10938 0.23438 0.10938 0.09375 0 0.16406-0.035156 0.21875-0.10938 0.0625-0.070313 0.09375-0.17578 0.09375-0.3125 0-0.13281-0.03125-0.23828-0.09375-0.3125-0.054688-0.070313-0.125-0.10938-0.21875-0.10938z"/>
  </symbol>
  <symbol id="r" overflow="visible">
   <path d="m1.2188-2.0781v0.3125h-0.26562c-0.074219 0-0.125 0.015625-0.15625 0.046875-0.023437 0.023438-0.03125 0.0625-0.03125 0.125v0.09375h0.40625v0.34375h-0.40625v1.1562h-0.46875v-1.1562h-0.25v-0.34375h0.25v-0.09375c0-0.16406 0.039063-0.28516 0.125-0.35938 0.09375-0.082031 0.23438-0.125 0.42188-0.125z"/>
  </symbol>
  <symbol id="g" overflow="visible">
   <path d="m0.9375-1.1875c-0.10547 0-0.1875 0.039062-0.25 0.10938-0.054688 0.074219-0.078125 0.18359-0.078125 0.32812 0 0.14844 0.023437 0.26172 0.078125 0.34375 0.0625 0.074219 0.14453 0.10938 0.25 0.10938 0.10156 0 0.17969-0.035156 0.23438-0.10938 0.0625-0.082031 0.09375-0.19531 0.09375-0.34375 0-0.14453-0.03125-0.25391-0.09375-0.32812-0.054687-0.070313-0.13281-0.10938-0.23438-0.10938zm0-0.34375c0.25781 0 0.46094 0.074219 0.60938 0.21875 0.14453 0.13672 0.21875 0.32422 0.21875 0.5625 0 0.25-0.074219 0.44531-0.21875 0.57812-0.14844 0.13672-0.35156 0.20312-0.60938 0.20312-0.26172 0-0.46484-0.066406-0.60938-0.20312-0.13672-0.13281-0.20312-0.32812-0.20312-0.57812 0-0.23828 0.066406-0.42578 0.20312-0.5625 0.14453-0.14453 0.34766-0.21875 0.60938-0.21875z"/>
  </symbol>
  <symbol id="q" overflow="visible">
   <path d="m1.6094-1.25c0.0625-0.09375 0.13281-0.16016 0.21875-0.20312 0.082031-0.050781 0.17578-0.078125 0.28125-0.078125 0.16406 0 0.29688 0.054688 0.39062 0.15625 0.09375 0.10547 0.14062 0.26172 0.14062 0.46875v0.90625h-0.48438v-0.78125-0.03125-0.0625c0-0.10156-0.015625-0.17578-0.046875-0.21875-0.03125-0.050781-0.085937-0.078125-0.15625-0.078125-0.085937 0-0.15234 0.039063-0.20312 0.10938-0.054688 0.074219-0.078125 0.18359-0.078125 0.32812v0.73438h-0.48438v-0.78125c0-0.16406-0.015625-0.26953-0.046875-0.3125-0.023437-0.050781-0.070313-0.078125-0.14062-0.078125-0.09375 0-0.16797 0.042969-0.21875 0.125-0.054688 0.074219-0.078125 0.17969-0.078125 0.3125v0.73438h-0.46875v-1.5h0.46875v0.21875c0.0625-0.082031 0.12891-0.14453 0.20312-0.1875 0.082031-0.039062 0.16406-0.0625 0.25-0.0625 0.10156 0 0.19141 0.027344 0.26562 0.078125 0.082031 0.054687 0.14453 0.12109 0.1875 0.20312z"/>
  </symbol>
  <symbol id="p" overflow="visible">
   <path d="m0.25-2h0.57812l0.71875 1.375v-1.375h0.48438v2h-0.5625l-0.73438-1.375v1.375h-0.48438z"/>
  </symbol>
  <symbol id="o" overflow="visible">
   <path d="m0.21875-0.57812v-0.92188h0.46875v0.15625 0.3125 0.23438 0.26562c0.007812 0.054688 0.023438 0.089844 0.046875 0.10938 0.019531 0.03125 0.046875 0.058594 0.078125 0.078125 0.03125 0.011719 0.066406 0.015625 0.10938 0.015625 0.09375 0 0.16406-0.035156 0.21875-0.10938 0.0625-0.070312 0.09375-0.17578 0.09375-0.3125v-0.75h0.48438v1.5h-0.48438v-0.21875c-0.074219 0.09375-0.15234 0.16406-0.23438 0.20312-0.074219 0.03125-0.15625 0.046875-0.25 0.046875-0.17969 0-0.3125-0.050781-0.40625-0.15625-0.085938-0.10156-0.125-0.25391-0.125-0.45312z"/>
  </symbol>
  <symbol id="n" overflow="visible">
   <path d="m0.25-2h0.85938c0.25 0 0.44141 0.058594 0.57812 0.17188 0.13281 0.11719 0.20312 0.27734 0.20312 0.48438 0 0.21094-0.070313 0.37109-0.20312 0.48438-0.13672 0.11719-0.32812 0.17188-0.57812 0.17188h-0.34375v0.6875h-0.51562zm0.51562 0.375v0.5625h0.28125c0.10156 0 0.17969-0.019531 0.23438-0.0625 0.050781-0.050781 0.078125-0.125 0.078125-0.21875s-0.027344-0.16016-0.078125-0.20312c-0.054688-0.050781-0.13281-0.078125-0.23438-0.078125z"/>
  </symbol>
  <symbol id="m" overflow="visible">
   <path d="m0.23438-1.5h0.46875v1.4688c0 0.20703-0.046875 0.36328-0.14062 0.46875-0.09375 0.10156-0.23438 0.15625-0.42188 0.15625h-0.23438v-0.3125h0.078125c0.09375 0 0.15625-0.023438 0.1875-0.0625 0.039063-0.042969 0.0625-0.125 0.0625-0.25zm0-0.57812h0.46875v0.39062h-0.46875z"/>
  </symbol>
  <symbol id="l" overflow="visible">
   <path d="m1.4375-1.4531v0.39062c-0.0625-0.039062-0.13281-0.070312-0.20312-0.09375-0.0625-0.019531-0.13281-0.03125-0.20312-0.03125-0.125 0-0.23047 0.042969-0.3125 0.125-0.074219 0.074219-0.10938 0.17969-0.10938 0.3125 0 0.14844 0.035156 0.26172 0.10938 0.34375 0.082031 0.074219 0.1875 0.10938 0.3125 0.10938 0.082031 0 0.15625-0.007813 0.21875-0.03125 0.070312-0.03125 0.13281-0.066406 0.1875-0.10938v0.39062c-0.074219 0.03125-0.15234 0.050781-0.23438 0.0625-0.074219 0.0078125-0.14844 0.015625-0.21875 0.015625-0.27344 0-0.48438-0.066406-0.64062-0.20312-0.14844-0.13281-0.21875-0.32812-0.21875-0.57812 0-0.23828 0.070312-0.42578 0.21875-0.5625 0.15625-0.14453 0.36719-0.21875 0.64062-0.21875 0.070313 0 0.14453 0.011719 0.21875 0.03125 0.082031 0.011719 0.16016 0.027344 0.23438 0.046875z"/>
  </symbol>
 </defs>
 <g>
  <path d="m291.43 298.7c4.4844-4.7031 9.2422-9.1328 14.164-13.398 1.4219-1.2031 2.8438-2.4062 4.2656-3.6094 0.71094-0.54687 1.3672-1.0938 2.0781-1.6406 0.4375-0.32813 0.875-0.65625 1.2578-0.98438 0.27344-0.21875 0.60156-0.4375 0.875-0.65625-0.92969 0.71094-1.0391 0.82031-0.32812 0.27344 3.4453-2.5703 6.8906-5.0859 10.445-7.4922 8.4219-5.6875 17.172-10.719 26.305-15.203 2.3516-1.1484 4.7578-2.2969 7.1641-3.3359 0.65625-0.27344 1.3672-0.60156 2.0234-0.875 0.27344-0.10938 1.4219-0.60156 0.10937-0.054688 1.6406-0.65625 3.2266-1.3125 4.8672-1.9688 5.4688-2.1328 10.992-4.0469 16.625-5.6875 5.9609-1.8047 11.977-3.2812 18.047-4.5391 6.6172-1.3672 12.852-2.3516 18.648-3.0078 7-0.76563 14.219-1.4766 21.273-1.3125-1.5859-0.054688-0.10938 0 0.38281 0.10937 0.10938 0.054688 0.21875 0.054688 0.32813 0.10938-0.82031-0.38281-0.82031-0.38281 0.054687 0.054687 0.21875 0.10938 0.4375 0.27344 0.60156 0.38281-0.65625-0.60156-0.65625-0.54688 0.054687 0.054687l0.49219 0.49219c-0.49219-0.71094-0.49219-0.71094 0.054688 0.054688 0.60156 0.38281 0.49219 0.875 0.16406 0.054688 0.10938 0.27344 0.16406 0.49219 0.27344 0.76562 0.054688 0.16406 0.10938 0.38281 0.16406 0.54688 3.8281 12.688 7.4375 25.375 11.102 38.062 0.27344 0.92969 0.54688 1.8047 0.82031 2.7344 0.054687 0.16406 0.10937 0.32813 0.16406 0.54688 0.054688 0.10937 0.16406 0.65625 0.21875 0.82031-0.38281-1.8047-0.4375 2.2422 0 0.32812-0.054688 0.16406-0.49219 2.5703-0.21875 0.98438-0.54688 0.82031-0.54688 0.875-0.054688 0.27344-0.16406 0.21875-0.38281 0.38281-0.54687 0.60156-0.054688 0.16406-1.8047 1.9141 0.38281-0.16406-0.10938 0.10937-0.27344 0.16406-0.38281 0.27344-1.0391 0.82031-2.0234 1.5859-3.0625 2.3516-5.5781 4.3203-11.156 8.5859-16.68 12.906 1.3672-0.38281 2.7344-0.76563 4.1562-1.0938h-53.539-80.117-11.211-2.0234-0.054687c0.27344 0.054687 0.60156 0.10937 0.875 0.16406-0.875-0.27344-0.82031-0.16406 0.21875 0.27344-0.16406-0.10938-0.32813-0.16406-0.54688-0.27344 0.875 0.71094 0.92969 0.82031 0.27344 0.21875 1.2031 1.0391 0.49219 0.71094 0.10938 0.054688-0.27344-0.54688-0.16406-0.32813 0.27344 0.65625-0.21875-0.875-0.21875-0.76563 0 0.49219 0.10938-0.71094 0.32813-0.98438-0.10937 0.4375 0.27344-0.875 0.21875-0.76562-0.21875 0.27344 0.38281-0.92969 0.32812-0.875-0.21875-0.054687 2.8984-3.3359 3.2812-8.3125 0-11.594-2.9531-2.9531-8.6953-3.3359-11.594 0-5.25 6.0156-5.8516 14.656-0.32813 20.836 2.9531 3.2812 7.0547 4.7578 11.375 4.8672 2.4609 0.054688 4.9766 0 7.4375 0h36.531 89.469 11.156c0.71094 0 1.3672 0.054688 2.0781 0 3.0078-0.10938 4.375-1.2031 6.4531-2.8438 5.6328-4.3203 11.211-8.6406 16.844-12.961 4.2656-3.2812 7.7109-6.8906 9.0234-12.305 0.92969-3.8828 0.4375-7.6562-0.65625-11.43-3.7734-12.852-7.4922-25.703-11.266-38.555-0.98438-3.3906-2.2969-6.6172-4.7031-9.3516-5.4141-6.2891-12.852-6.7266-20.508-6.3984-13.836 0.60156-27.617 2.4062-41.125 5.4141-39.484 8.8594-76.508 28.766-105.71 56.711-2.0234 1.9688-4.0469 3.9375-6.0156 6.0156-3.0625 3.1719-3.1719 8.4219 0 11.594 3.0078 3.0625 8.4766 3.2266 11.539 0z"/>
  <path d="m566.07 332.61c-7.9844 4.2109-16.516 8.0391-23.734 13.508-13.891 10.5-23.898 25.977-26.523 43.367-0.98438 6.3438-0.92969 12.633-0.92969 19.031 2.7344-2.7344 5.4688-5.4688 8.2031-8.2031h-14.602-38.938-55.727-65.734-68.195-63.109-51.297-31.883c-2.0781 0-4.3203-0.21875-6.3984 0-0.054687 0-0.4375-0.054688-0.4375 0-0.10938 0.16406-3.6094-2.9531 0.65625 0.10938 0.38281 0.27344 0.82031 0.54688 1.2031 0.76562 0.054688 0.054688 0.71094 1.1484 0.21875 0.32812s0.16406 0.49219 0.21875 0.76562c0.10938 0.82031-0.32812 1.5312 0.16406 0.4375 0.71094-1.5312 1.2578-3.1719 1.9141-4.7578 0.16406-0.4375 0.38281-0.875 0.54688-1.2578-0.10938 0.21875-0.98438 2.3516-0.49219 1.1484 0.10938-0.27344 0.21875-0.54687 0.32813-0.82031 0.4375-1.0391 0.875-2.0234 1.3125-3.0625 0.98437-2.1875 1.9688-4.375 2.9531-6.5625 2.4609-5.3047 5.0859-10.5 7.8203-15.641 6.9453-13.18 14.656-25.922 23.078-38.227 2.4609-3.6094 4.9766-7.1641 7.5469-10.664 1.3125-1.8047 2.625-3.6094 3.9922-5.3594 0.65625-0.875 1.3125-1.75 1.9688-2.625 1.1484-1.5312-1.0938 1.4219 0.054688-0.10938 0.4375-0.54688 0.82031-1.0391 1.2578-1.5859 6.0156-7.6562 12.25-15.039 18.758-22.258 14.602-16.078 30.516-31.008 47.578-44.461 0.49219-0.38281 1.0391-0.82031 1.5312-1.2031 0.21875-0.16406 2.1328-1.6406 1.1484-0.875-0.92969 0.71094 0.65625-0.49219 0.92969-0.71094 0.65625-0.49219 1.3672-1.0391 2.0234-1.5312 2.3516-1.75 4.7031-3.5 7.0547-5.1953 4.9219-3.5547 9.9531-7 15.094-10.336 10.609-6.8906 21.547-13.289 32.758-19.141 5.9062-3.0625 11.922-6.0156 17.992-8.8047 3.0625-1.4219 6.125-2.7891 9.2422-4.1016 0.38281-0.16406 0.82031-0.32812 1.2031-0.49219-0.27344 0.10937-1.5312 0.65625-0.16406 0.054687 0.82031-0.32812 1.6406-0.65625 2.4609-1.0391 1.6406-0.65625 3.2812-1.3672 4.9219-1.9688 13.398-5.3047 27.07-9.8984 40.961-13.836 14.875-4.2109 30.023-7.6016 45.281-10.281 4.1016-0.71094 8.2031-1.3672 12.305-1.9688 1.9688-0.27344 3.9375-0.54688 5.8516-0.82031 0.98438-0.10937-0.054688 0-0.21875 0.054688 0.54688-0.054688 1.0391-0.16406 1.5859-0.21875 1.2031-0.16406 2.4062-0.32812 3.5547-0.4375 8.5312-1.0391 17.117-1.8594 25.703-2.4609 8.8047-0.65625 17.609-1.0391 26.469-1.2578 2.3516-0.054688 4.7031-0.10938 7-0.10938h1.3125c0.54688 0 1.6406 0.4375 0.92969-0.054687-0.10938-0.054688-1.6406-0.82031-0.76563-0.27344 0.76563 0.49219-0.71094-0.71094-0.76562-0.76562-0.38281-0.32812-0.32813-0.98438-0.10938-0.10938 0.16406 0.65625 0.38281 1.2578 0.54688 1.8594 2.4609 8.4219 4.9219 16.844 7.4375 25.211 4.0469 13.727 8.0391 27.398 12.086 41.125 4.0469 13.727 8.0391 27.398 12.086 41.125 5.6875 19.414 11.43 38.828 17.117 58.297 0.65625 2.2969 1.3672 4.6484 2.0234 6.9453 0.16406 0.49219 0.21875 1.2031 0.49219 1.6406 0 0.054687 0.054687 0.27344 0.10938 0.27344-0.21875-0.10937 0.10938-1.4219 0.10938-1.4219 0.054687 1.2031 0-0.49219 0.92969-1.0391-3.7734 2.2969-5.1953 7.3281-2.9531 11.211 2.1875 3.7734 7.4375 5.25 11.211 2.9531 6.0156-3.7188 8.3125-10.336 6.4531-17.008-0.60156-2.0781-1.2031-4.1016-1.8047-6.125-2.4609-8.3125-4.9219-16.625-7.3281-24.992-6.0703-20.617-12.141-41.289-18.211-61.906-3.2812-11.211-6.6172-22.422-9.8984-33.633-4.6484-15.75-9.2969-31.5-13.891-47.25-0.49219-1.6406-0.92969-3.3359-1.75-4.8672-2.8438-5.5781-8.4219-7.7109-14.383-7.6562-9.2422 0.10937-18.43 0.4375-27.672 0.98437-17.609 1.0391-35.219 2.9531-52.664 5.7422-30.406 4.8672-60.32 12.633-89.086 23.625-25.648 9.8438-50.367 22.039-73.555 36.75-20.344 12.961-39.539 27.781-57.258 44.133-15.258 14.109-29.422 29.422-42.328 45.719-11.047 13.945-21.328 28.547-30.516 43.805-6.7812 11.266-13.07 22.805-18.648 34.727-2.2422 4.7578-4.3203 9.5156-6.3438 14.383-0.65625 1.6406-1.3672 3.2812-2.0234 4.9219-3.3906 9.1875 3.8828 18.266 13.234 18.648 5.4688 0.21875 11.047 0 16.516 0h40.906 58.297 67.102 69.344 62.836 49.602 28 3.7188c4.4297 0 8.2031-3.7734 8.2031-8.2031 0-4.2656-0.16406-8.5859 0.21875-12.906 0.054687-0.54687 0.10937-1.0938 0.16406-1.5859 0-0.054687 0.16406-1.3672 0.054688-0.49219-0.10938 0.875 0.054687-0.4375 0.10937-0.49219 0.10938-0.54688 0.16406-1.0391 0.27344-1.5859 0.38281-1.9688 0.82031-3.8828 1.4219-5.7969 0.54688-1.75 1.1484-3.5 1.8047-5.1953 0.32813-0.875 0 0-0.054687 0.16406 0.21875-0.49219 0.4375-0.92969 0.65625-1.4219 0.4375-0.92969 0.92969-1.8594 1.4219-2.7891 0.875-1.5859 1.8047-3.1719 2.8438-4.7031 0.49219-0.76562 1.0391-1.5312 1.5859-2.2422 0.54687-0.76563 0-0.054688-0.10938 0.10937 0.38281-0.49219 0.82031-1.0391 1.2578-1.5312 2.4609-2.9531 5.1953-5.5781 8.2031-8.0391 0.16406-0.10938 1.2578-0.92969 0.21875-0.16406 0.32812-0.21875 0.65625-0.49219 0.98438-0.71094 0.76562-0.54688 1.5312-1.0938 2.3516-1.5859 1.3672-0.875 2.7891-1.6953 4.2656-2.4609 1.2578-0.71094 2.5703-1.3672 3.8281-2.0234 3.8828-2.0781 7.8203-4.1562 11.703-6.2344 3.8828-2.0781 5.1406-7.4922 2.9531-11.211-2.3516-4.1016-7.3281-5.1406-11.266-3.0625z"/>
  <path d="m572.74 206.17c-11.211 3.4453-22.477 6.9453-33.688 10.391 3.3906 1.9141 6.7266 3.8281 10.117 5.7422-3.9922-13.617-8.0391-27.289-12.031-40.906-1.9141 3.3906-3.8281 6.7266-5.7422 10.117 9.7891-3.0078 19.633-6.0703 29.422-9.0781 1.2031-0.38281 2.5156-0.65625 3.7188-1.1484 0.10938-0.054687-1.4219 0.054688-0.38281 0.054688s-0.875-0.16406-1.0938-0.27344c-0.32812-0.21875-1.4219-1.1484-1.1484-1.5859-0.10937 0.16406 0.38281 1.1484 0.4375 1.3125 1.6953 5.5781 3.4453 11.156 5.1406 16.68 0.92969 2.9531 1.8594 5.9609 2.7344 8.9141 0.21875 0.76562 0.49219 1.4766 0.71094 2.2422 0.16406 0.54688-0.054688-0.49219 0-0.54687v0.71094c-0.054688-0.38281 0-0.76562 0.16406-1.1484 0.27344-0.82031 0.82031-1.2031 1.6406-1.4766-4.1562 1.5859-7 5.5234-5.7422 10.117 1.0938 3.9922 5.9062 7.3281 10.117 5.7422 7.3828-2.7891 11.703-9.7344 9.625-17.609-0.49219-1.8594-1.1484-3.7188-1.75-5.5781-2.0781-6.7266-4.1562-13.398-6.1797-20.125-0.71094-2.2969-1.3125-4.8125-2.5156-6.8906-3.3359-5.6875-10.172-7.9844-16.352-6.2891-5.4688 1.4766-10.883 3.3359-16.297 5.0312-5.5234 1.6953-11.047 3.3906-16.57 5.0859-4.1562 1.3125-7 5.7422-5.7422 10.117 3.9922 13.617 8.0391 27.289 12.031 40.906 1.2031 4.1562 5.7969 7.0547 10.117 5.7422 11.211-3.4453 22.477-6.9453 33.688-10.391 4.2109-1.3125 6.9453-5.7422 5.7422-10.117-1.2031-4.2109-5.9062-7.0547-10.172-5.7422z"/>
  <path d="m354.65 290.39h49.766 7.1094c4.2656 0 8.4219-3.7734 8.2031-8.2031s-3.6094-8.2031-8.2031-8.2031h-49.766-7.1094c-4.2656 0-8.4219 3.7734-8.2031 8.2031 0.16406 4.4297 3.6094 8.2031 8.2031 8.2031z"/>
  <use x="70" y="568.203125" xlink:href="#v"/>
  <use x="72.007812" y="568.203125" xlink:href="#f"/>
  <use x="73.355469" y="568.203125" xlink:href="#a"/>
  <use x="75.210937" y="568.203125" xlink:href="#e"/>
  <use x="77.054688" y="568.203125" xlink:href="#d"/>
  <use x="78.363281" y="568.203125" xlink:href="#a"/>
  <use x="80.214844" y="568.203125" xlink:href="#k"/>
  <use x="83.125" y="568.203125" xlink:href="#j"/>
  <use x="85.082031" y="568.203125" xlink:href="#i"/>
  <use x="87.816406" y="568.203125" xlink:href="#c"/>
  <use x="89.445312" y="568.203125" xlink:href="#b"/>
  <use x="91.390625" y="568.203125" xlink:href="#e"/>
  <use x="93.238281" y="568.203125" xlink:href="#c"/>
  <use x="94.863281" y="568.203125" xlink:href="#b"/>
  <use x="96.8125" y="568.203125" xlink:href="#e"/>
  <use x="98.65625" y="568.203125" xlink:href="#h"/>
  <use x="100.601562" y="568.203125" xlink:href="#u"/>
  <use x="103.375" y="568.203125" xlink:href="#c"/>
  <use x="105" y="568.203125" xlink:href="#t"/>
  <use x="105.9375" y="568.203125" xlink:href="#h"/>
  <use x="107.882812" y="568.203125" xlink:href="#s"/>
  <use x="109.84375" y="568.203125" xlink:href="#b"/>
  <use x="70" y="570.9375" xlink:href="#r"/>
  <use x="71.191406" y="570.9375" xlink:href="#f"/>
  <use x="72.539062" y="570.9375" xlink:href="#g"/>
  <use x="74.417969" y="570.9375" xlink:href="#q"/>
  <use x="78.21875" y="570.9375" xlink:href="#d"/>
  <use x="79.523438" y="570.9375" xlink:href="#b"/>
  <use x="81.472656" y="570.9375" xlink:href="#a"/>
  <use x="84.277344" y="570.9375" xlink:href="#p"/>
  <use x="86.566406" y="570.9375" xlink:href="#g"/>
  <use x="88.445312" y="570.9375" xlink:href="#o"/>
  <use x="90.390625" y="570.9375" xlink:href="#h"/>
  <use x="93.289062" y="570.9375" xlink:href="#n"/>
  <use x="95.292969" y="570.9375" xlink:href="#f"/>
  <use x="96.644531" y="570.9375" xlink:href="#g"/>
  <use x="98.519531" y="570.9375" xlink:href="#m"/>
  <use x="99.457031" y="570.9375" xlink:href="#a"/>
  <use x="101.3125" y="570.9375" xlink:href="#l"/>
  <use x="102.933594" y="570.9375" xlink:href="#d"/>
 </g>
</svg>
