<?xml version="1.0" encoding="UTF-8"?>
<svg width="700pt" height="700pt" version="1.1" viewBox="0 0 700 700" xmlns="http://www.w3.org/2000/svg" xmlns:xlink="http://www.w3.org/1999/xlink">
 <defs>
  <symbol id="v" overflow="visible">
   <path d="m1.8281-0.10938c-0.09375 0.054688-0.19531 0.089844-0.29688 0.10938-0.09375 0.019531-0.19922 0.03125-0.3125 0.03125-0.33594 0-0.60156-0.085938-0.79688-0.26562-0.1875-0.1875-0.28125-0.44141-0.28125-0.76562 0-0.3125 0.09375-0.5625 0.28125-0.75 0.19531-0.1875 0.46094-0.28125 0.79688-0.28125 0.11328 0 0.21875 0.015625 0.3125 0.046875 0.10156 0.023437 0.20312 0.058594 0.29688 0.10938v0.40625c-0.09375-0.0625-0.1875-0.10938-0.28125-0.14062s-0.19531-0.046875-0.29688-0.046875c-0.17969 0-0.32031 0.0625-0.42188 0.1875-0.10547 0.11719-0.15625 0.27344-0.15625 0.46875 0 0.21094 0.050781 0.375 0.15625 0.5 0.10156 0.11719 0.24219 0.17188 0.42188 0.17188 0.10156 0 0.20312-0.015625 0.29688-0.046875s0.1875-0.078125 0.28125-0.14062z"/>
  </symbol>
  <symbol id="f" overflow="visible">
   <path d="m1.3438-1.0938c-0.042969-0.019531-0.085938-0.03125-0.125-0.03125-0.042969-0.007812-0.085938-0.015625-0.125-0.015625-0.125 0-0.22656 0.042969-0.29688 0.125-0.0625 0.074219-0.09375 0.18359-0.09375 0.32812v0.6875h-0.46875v-1.5h0.46875v0.25c0.0625-0.09375 0.12891-0.16016 0.20312-0.20312 0.082031-0.050781 0.17969-0.078125 0.29688-0.078125h0.046875c0.019531 0 0.050781 0.007812 0.09375 0.015625z"/>
  </symbol>
  <symbol id="a" overflow="visible">
   <path d="m1.7188-0.75v0.14062h-1.1094c0.007813 0.10547 0.046875 0.1875 0.10938 0.25 0.070312 0.054687 0.17188 0.078125 0.29688 0.078125 0.10156 0 0.20703-0.015625 0.3125-0.046875 0.10156-0.03125 0.21094-0.070313 0.32812-0.125v0.35938c-0.11719 0.042969-0.23047 0.074219-0.34375 0.09375-0.11719 0.019531-0.23047 0.03125-0.34375 0.03125-0.27344 0-0.48047-0.066406-0.625-0.20312-0.14844-0.13281-0.21875-0.32812-0.21875-0.57812 0-0.23828 0.070312-0.42578 0.21875-0.5625 0.14453-0.14453 0.34766-0.21875 0.60938-0.21875 0.22656 0 0.41016 0.074219 0.54688 0.21875 0.14453 0.13672 0.21875 0.32422 0.21875 0.5625zm-0.48438-0.15625c0-0.09375-0.027344-0.16406-0.078125-0.21875-0.054688-0.0625-0.125-0.09375-0.21875-0.09375-0.085938 0-0.15625 0.027344-0.21875 0.078125-0.0625 0.054687-0.10156 0.13281-0.10938 0.23438z"/>
  </symbol>
  <symbol id="e" overflow="visible">
   <path d="m0.90625-0.67188c-0.10547 0-0.18359 0.015625-0.23438 0.046875-0.054687 0.03125-0.078125 0.085938-0.078125 0.15625 0 0.0625 0.019531 0.10938 0.0625 0.14062 0.039062 0.03125 0.097656 0.046875 0.17188 0.046875 0.09375 0 0.16406-0.03125 0.21875-0.09375 0.0625-0.0625 0.09375-0.14453 0.09375-0.25v-0.046875zm0.71875-0.1875v0.85938h-0.48438v-0.21875c-0.0625 0.09375-0.13672 0.16406-0.21875 0.20312-0.074219 0.03125-0.16797 0.046875-0.28125 0.046875-0.15625 0-0.28125-0.039062-0.375-0.125-0.09375-0.09375-0.14062-0.21094-0.14062-0.35938 0-0.17578 0.054688-0.30078 0.17188-0.375 0.125-0.082031 0.3125-0.125 0.5625-0.125h0.28125v-0.046875c0-0.070312-0.03125-0.125-0.09375-0.15625-0.054687-0.039062-0.14062-0.0625-0.26562-0.0625-0.10547 0-0.20312 0.011719-0.29688 0.03125-0.085937 0.023438-0.16406 0.054688-0.23438 0.09375v-0.35938c0.10156-0.03125 0.20703-0.050781 0.3125-0.0625 0.10156-0.007813 0.20312-0.015625 0.29688-0.015625 0.26953 0 0.46094 0.054688 0.57812 0.15625 0.125 0.10547 0.1875 0.27734 0.1875 0.51562z"/>
  </symbol>
  <symbol id="d" overflow="visible">
   <path d="m0.75-1.9219v0.42188h0.5v0.34375h-0.5v0.64062c0 0.0625 0.007812 0.10938 0.03125 0.14062 0.03125 0.023438 0.085938 0.03125 0.17188 0.03125h0.25v0.34375h-0.40625c-0.1875 0-0.32422-0.035156-0.40625-0.10938-0.074219-0.082031-0.10938-0.21875-0.10938-0.40625v-0.64062h-0.25v-0.34375h0.25v-0.42188z"/>
  </symbol>
  <symbol id="k" overflow="visible">
   <path d="m1.25-1.2812v-0.79688h0.48438v2.0781h-0.48438v-0.21875c-0.074219 0.09375-0.15234 0.16406-0.23438 0.20312-0.074219 0.03125-0.16406 0.046875-0.26562 0.046875-0.17969 0-0.32812-0.070312-0.45312-0.21875-0.11719-0.14453-0.17188-0.33203-0.17188-0.5625 0-0.22656 0.054688-0.41406 0.17188-0.5625 0.125-0.14453 0.27344-0.21875 0.45312-0.21875 0.10156 0 0.19141 0.023438 0.26562 0.0625 0.082031 0.042969 0.16016 0.10547 0.23438 0.1875zm-0.3125 0.96875c0.09375 0 0.16406-0.035156 0.21875-0.10938 0.0625-0.070313 0.09375-0.17969 0.09375-0.32812 0-0.13281-0.03125-0.23828-0.09375-0.3125-0.054688-0.082031-0.125-0.125-0.21875-0.125-0.10547 0-0.18359 0.042969-0.23438 0.125-0.054687 0.074219-0.078125 0.17969-0.078125 0.3125 0 0.14844 0.023438 0.25781 0.078125 0.32812 0.050781 0.074219 0.12891 0.10938 0.23438 0.10938z"/>
  </symbol>
  <symbol id="j" overflow="visible">
   <path d="m1.0312-0.3125c0.09375 0 0.16406-0.035156 0.21875-0.10938 0.0625-0.070313 0.09375-0.17969 0.09375-0.32812 0-0.13281-0.03125-0.23828-0.09375-0.3125-0.054688-0.082031-0.125-0.125-0.21875-0.125-0.10547 0-0.1875 0.042969-0.25 0.125-0.054688 0.074219-0.078125 0.17969-0.078125 0.3125 0 0.14844 0.023437 0.25781 0.078125 0.32812 0.0625 0.074219 0.14453 0.10938 0.25 0.10938zm-0.32812-0.96875c0.070313-0.082031 0.14453-0.14453 0.21875-0.1875 0.082031-0.039062 0.17578-0.0625 0.28125-0.0625 0.1875 0 0.33594 0.074219 0.45312 0.21875 0.11328 0.14844 0.17188 0.33594 0.17188 0.5625 0 0.23047-0.058594 0.41797-0.17188 0.5625-0.11719 0.14844-0.26562 0.21875-0.45312 0.21875-0.10547 0-0.19922-0.015625-0.28125-0.046875-0.074219-0.039062-0.14844-0.10938-0.21875-0.20312v0.21875h-0.46875v-2.0781h0.46875z"/>
  </symbol>
  <symbol id="i" overflow="visible">
   <path d="m0.03125-1.5h0.48438l0.39062 1.0156 0.34375-1.0156h0.48438l-0.625 1.6406c-0.0625 0.16406-0.14062 0.28125-0.23438 0.34375-0.085938 0.070313-0.19531 0.10938-0.32812 0.10938h-0.26562v-0.3125h0.14062c0.082031 0 0.14062-0.015625 0.17188-0.046875 0.039062-0.023437 0.070312-0.070313 0.09375-0.14062l0.015625-0.03125z"/>
  </symbol>
  <symbol id="c" overflow="visible">
   <path d="m1.3906-1.4531v0.375c-0.09375-0.050781-0.19531-0.085937-0.29688-0.10938-0.09375-0.019531-0.18359-0.03125-0.26562-0.03125-0.085937 0-0.15234 0.015625-0.20312 0.046875-0.042969 0.023437-0.0625 0.054687-0.0625 0.09375 0 0.042969 0.015625 0.074219 0.046875 0.09375 0.03125 0.023437 0.09375 0.039063 0.1875 0.046875l0.078125 0.015625c0.25 0.03125 0.41406 0.085937 0.5 0.15625 0.082031 0.0625 0.125 0.17188 0.125 0.32812s-0.0625 0.27734-0.1875 0.35938c-0.11719 0.074219-0.28906 0.10938-0.51562 0.10938-0.10547 0-0.21094-0.011719-0.3125-0.03125-0.10547-0.0078125-0.21094-0.03125-0.3125-0.0625v-0.35938c0.09375 0.054687 0.1875 0.089844 0.28125 0.10938 0.10156 0.023438 0.20703 0.03125 0.3125 0.03125 0.09375 0 0.16016-0.007812 0.20312-0.03125 0.050781-0.03125 0.078125-0.070312 0.078125-0.125 0-0.039062-0.015625-0.070312-0.046875-0.09375-0.03125-0.019531-0.10156-0.035156-0.20312-0.046875l-0.078125-0.015625c-0.21875-0.019531-0.37109-0.066406-0.45312-0.14062-0.085937-0.070313-0.125-0.17969-0.125-0.32812 0-0.15625 0.050781-0.26953 0.15625-0.34375 0.11328-0.082031 0.28125-0.125 0.5-0.125 0.09375 0 0.1875 0.011719 0.28125 0.03125 0.10156 0.011719 0.20703 0.027344 0.3125 0.046875z"/>
  </symbol>
  <symbol id="b" overflow="visible">
   <path d="m1.7344-0.90625v0.90625h-0.48438v-0.6875c0-0.13281-0.007812-0.22266-0.015625-0.26562 0-0.050781-0.007813-0.09375-0.015625-0.125-0.023438-0.03125-0.046875-0.050781-0.078125-0.0625-0.03125-0.019531-0.070313-0.03125-0.10938-0.03125-0.10547 0-0.1875 0.042969-0.25 0.125-0.054688 0.074219-0.078125 0.17969-0.078125 0.3125v0.73438h-0.46875v-2.0781h0.46875v0.79688c0.070313-0.082031 0.14844-0.14453 0.23438-0.1875 0.082031-0.039062 0.17188-0.0625 0.26562-0.0625 0.17578 0 0.30469 0.054688 0.39062 0.15625 0.09375 0.10547 0.14062 0.26172 0.14062 0.46875z"/>
  </symbol>
  <symbol id="h" overflow="visible">
   <path d="m1.7344-0.90625v0.90625h-0.48438v-0.70312c0-0.125-0.007812-0.20703-0.015625-0.25 0-0.050781-0.007813-0.09375-0.015625-0.125-0.023438-0.03125-0.046875-0.050781-0.078125-0.0625-0.03125-0.019531-0.070313-0.03125-0.10938-0.03125-0.10547 0-0.1875 0.042969-0.25 0.125-0.054688 0.074219-0.078125 0.17969-0.078125 0.3125v0.73438h-0.46875v-1.5h0.46875v0.21875c0.070313-0.082031 0.14844-0.14453 0.23438-0.1875 0.082031-0.039062 0.17188-0.0625 0.26562-0.0625 0.17578 0 0.30469 0.054688 0.39062 0.15625 0.09375 0.10547 0.14062 0.26172 0.14062 0.46875z"/>
  </symbol>
  <symbol id="u" overflow="visible">
   <path d="m0.23438-2.0781h0.46875v1.125l0.54688-0.54688h0.5625l-0.73438 0.6875 0.79688 0.8125h-0.57812l-0.59375-0.625v0.625h-0.46875z"/>
  </symbol>
  <symbol id="t" overflow="visible">
   <path d="m0.23438-1.5h0.46875v1.5h-0.46875zm0-0.57812h0.46875v0.39062h-0.46875z"/>
  </symbol>
  <symbol id="s" overflow="visible">
   <path d="m1.25-0.25c-0.074219 0.085938-0.15234 0.14844-0.23438 0.1875-0.074219 0.042969-0.16406 0.0625-0.26562 0.0625-0.17969 0-0.32812-0.070312-0.45312-0.21875-0.11719-0.14453-0.17188-0.32812-0.17188-0.54688s0.054688-0.39844 0.17188-0.54688c0.125-0.14453 0.27344-0.21875 0.45312-0.21875 0.10156 0 0.19141 0.023438 0.26562 0.0625 0.082031 0.042969 0.16016 0.10547 0.23438 0.1875v-0.21875h0.48438v1.3438c0 0.23828-0.078125 0.42188-0.23438 0.54688-0.15625 0.13281-0.375 0.20312-0.65625 0.20312-0.09375 0-0.1875-0.011719-0.28125-0.03125-0.085938-0.011719-0.16797-0.03125-0.25-0.0625v-0.375c0.082031 0.050781 0.16016 0.085938 0.23438 0.10938 0.082031 0.03125 0.16406 0.046875 0.25 0.046875 0.15625 0 0.26953-0.039062 0.34375-0.10938 0.070313-0.074219 0.10938-0.17969 0.10938-0.32812zm-0.3125-0.9375c-0.10547 0-0.18359 0.039062-0.23438 0.10938-0.054687 0.074219-0.078125 0.17969-0.078125 0.3125 0 0.13672 0.023438 0.24219 0.078125 0.3125 0.050781 0.074219 0.12891 0.10938 0.23438 0.10938 0.09375 0 0.16406-0.035156 0.21875-0.10938 0.0625-0.070313 0.09375-0.17578 0.09375-0.3125 0-0.13281-0.03125-0.23828-0.09375-0.3125-0.054688-0.070313-0.125-0.10938-0.21875-0.10938z"/>
  </symbol>
  <symbol id="r" overflow="visible">
   <path d="m1.2188-2.0781v0.3125h-0.26562c-0.074219 0-0.125 0.015625-0.15625 0.046875-0.023437 0.023438-0.03125 0.0625-0.03125 0.125v0.09375h0.40625v0.34375h-0.40625v1.1562h-0.46875v-1.1562h-0.25v-0.34375h0.25v-0.09375c0-0.16406 0.039063-0.28516 0.125-0.35938 0.09375-0.082031 0.23438-0.125 0.42188-0.125z"/>
  </symbol>
  <symbol id="g" overflow="visible">
   <path d="m0.9375-1.1875c-0.10547 0-0.1875 0.039062-0.25 0.10938-0.054688 0.074219-0.078125 0.18359-0.078125 0.32812 0 0.14844 0.023437 0.26172 0.078125 0.34375 0.0625 0.074219 0.14453 0.10938 0.25 0.10938 0.10156 0 0.17969-0.035156 0.23438-0.10938 0.0625-0.082031 0.09375-0.19531 0.09375-0.34375 0-0.14453-0.03125-0.25391-0.09375-0.32812-0.054687-0.070313-0.13281-0.10938-0.23438-0.10938zm0-0.34375c0.25781 0 0.46094 0.074219 0.60938 0.21875 0.14453 0.13672 0.21875 0.32422 0.21875 0.5625 0 0.25-0.074219 0.44531-0.21875 0.57812-0.14844 0.13672-0.35156 0.20312-0.60938 0.20312-0.26172 0-0.46484-0.066406-0.60938-0.20312-0.13672-0.13281-0.20312-0.32812-0.20312-0.57812 0-0.23828 0.066406-0.42578 0.20312-0.5625 0.14453-0.14453 0.34766-0.21875 0.60938-0.21875z"/>
  </symbol>
  <symbol id="q" overflow="visible">
   <path d="m1.6094-1.25c0.0625-0.09375 0.13281-0.16016 0.21875-0.20312 0.082031-0.050781 0.17578-0.078125 0.28125-0.078125 0.16406 0 0.29688 0.054688 0.39062 0.15625 0.09375 0.10547 0.14062 0.26172 0.14062 0.46875v0.90625h-0.48438v-0.78125-0.03125-0.0625c0-0.10156-0.015625-0.17578-0.046875-0.21875-0.03125-0.050781-0.085937-0.078125-0.15625-0.078125-0.085937 0-0.15234 0.039063-0.20312 0.10938-0.054688 0.074219-0.078125 0.18359-0.078125 0.32812v0.73438h-0.48438v-0.78125c0-0.16406-0.015625-0.26953-0.046875-0.3125-0.023437-0.050781-0.070313-0.078125-0.14062-0.078125-0.09375 0-0.16797 0.042969-0.21875 0.125-0.054688 0.074219-0.078125 0.17969-0.078125 0.3125v0.73438h-0.46875v-1.5h0.46875v0.21875c0.0625-0.082031 0.12891-0.14453 0.20312-0.1875 0.082031-0.039062 0.16406-0.0625 0.25-0.0625 0.10156 0 0.19141 0.027344 0.26562 0.078125 0.082031 0.054687 0.14453 0.12109 0.1875 0.20312z"/>
  </symbol>
  <symbol id="p" overflow="visible">
   <path d="m0.25-2h0.57812l0.71875 1.375v-1.375h0.48438v2h-0.5625l-0.73438-1.375v1.375h-0.48438z"/>
  </symbol>
  <symbol id="o" overflow="visible">
   <path d="m0.21875-0.57812v-0.92188h0.46875v0.15625 0.3125 0.23438 0.26562c0.007812 0.054688 0.023438 0.089844 0.046875 0.10938 0.019531 0.03125 0.046875 0.058594 0.078125 0.078125 0.03125 0.011719 0.066406 0.015625 0.10938 0.015625 0.09375 0 0.16406-0.035156 0.21875-0.10938 0.0625-0.070312 0.09375-0.17578 0.09375-0.3125v-0.75h0.48438v1.5h-0.48438v-0.21875c-0.074219 0.09375-0.15234 0.16406-0.23438 0.20312-0.074219 0.03125-0.15625 0.046875-0.25 0.046875-0.17969 0-0.3125-0.050781-0.40625-0.15625-0.085938-0.10156-0.125-0.25391-0.125-0.45312z"/>
  </symbol>
  <symbol id="n" overflow="visible">
   <path d="m0.25-2h0.85938c0.25 0 0.44141 0.058594 0.57812 0.17188 0.13281 0.11719 0.20312 0.27734 0.20312 0.48438 0 0.21094-0.070313 0.37109-0.20312 0.48438-0.13672 0.11719-0.32812 0.17188-0.57812 0.17188h-0.34375v0.6875h-0.51562zm0.51562 0.375v0.5625h0.28125c0.10156 0 0.17969-0.019531 0.23438-0.0625 0.050781-0.050781 0.078125-0.125 0.078125-0.21875s-0.027344-0.16016-0.078125-0.20312c-0.054688-0.050781-0.13281-0.078125-0.23438-0.078125z"/>
  </symbol>
  <symbol id="m" overflow="visible">
   <path d="m0.23438-1.5h0.46875v1.4688c0 0.20703-0.046875 0.36328-0.14062 0.46875-0.09375 0.10156-0.23438 0.15625-0.42188 0.15625h-0.23438v-0.3125h0.078125c0.09375 0 0.15625-0.023438 0.1875-0.0625 0.039063-0.042969 0.0625-0.125 0.0625-0.25zm0-0.57812h0.46875v0.39062h-0.46875z"/>
  </symbol>
  <symbol id="l" overflow="visible">
   <path d="m1.4375-1.4531v0.39062c-0.0625-0.039062-0.13281-0.070312-0.20312-0.09375-0.0625-0.019531-0.13281-0.03125-0.20312-0.03125-0.125 0-0.23047 0.042969-0.3125 0.125-0.074219 0.074219-0.10938 0.17969-0.10938 0.3125 0 0.14844 0.035156 0.26172 0.10938 0.34375 0.082031 0.074219 0.1875 0.10938 0.3125 0.10938 0.082031 0 0.15625-0.007813 0.21875-0.03125 0.070312-0.03125 0.13281-0.066406 0.1875-0.10938v0.39062c-0.074219 0.03125-0.15234 0.050781-0.23438 0.0625-0.074219 0.0078125-0.14844 0.015625-0.21875 0.015625-0.27344 0-0.48438-0.066406-0.64062-0.20312-0.14844-0.13281-0.21875-0.32812-0.21875-0.57812 0-0.23828 0.070312-0.42578 0.21875-0.5625 0.15625-0.14453 0.36719-0.21875 0.64062-0.21875 0.070313 0 0.14453 0.011719 0.21875 0.03125 0.082031 0.011719 0.16016 0.027344 0.23438 0.046875z"/>
  </symbol>
 </defs>
 <g>
  <path d="m327.91 448.98h-43.203-83.727-57.586-1.9688-0.38281-0.054687c-0.49219 0-0.98438 0-1.4766-0.054687 1.8594 0.21875-0.60156-0.27344-0.98437-0.38281-1.1484-0.38281 1.4219 0.98438-0.27344-0.16406-0.38281-0.27344-0.82031-0.49219-1.2031-0.71094 1.4766 0.92969-0.21875-0.21875-0.49219-0.49219-0.32813-0.32813-0.65625-0.65625-0.92969-1.0391 1.3125 1.6406-1.0391-2.625-0.32812-0.60156-0.16406-0.4375-0.27344-0.92969-0.4375-1.3672-0.60156-1.6406-0.10938 0.92969-0.16406-0.71094v-1.0938-9.0234-47.961-74.867-85.914-82.195-61.961c0-8.9688-0.16406-17.938 0-26.906v-0.16406c0-0.54688 0-0.98438 0.054688-1.4766-0.16406 1.6406-0.054688 0.32812 0.10938 0.054687 0.10938-0.4375 0.27344-0.92969 0.4375-1.3672-0.32812 0.76562-0.38281 0.875-0.10938 0.32812 0.27344-0.49219 0.60156-0.98437 0.875-1.5312-0.76562 1.2031-0.27344 0.32813 0 0 0.49219-0.49219 0.98438-0.98437 1.5312-1.4219-0.38281 0.27344-1.1484 0.65625 0.054688 0.054687 0 0 2.0234-0.98438 0.875-0.54688-1.1484 0.49219 1.0938-0.27344 1.0391-0.27344 1.2578-0.49219 0.4375-0.16406-0.054688-0.10937 0.54688-0.054688 0.92969-0.054688 1.4766-0.054688h3.3906 22.914 80.281 70.109 8.0391 1.8594 0.32812 0.76562c1.8594 0-0.4375-0.4375 0.32812 0.054688 0.21875 0.16406 2.7891 1.0938 1.0391 0.21875 0.4375 0.21875 0.82031 0.49219 1.2578 0.65625 1.8594 0.875-0.60156-0.60156 0.32812 0.16406 0.49219 0.4375 2.0781 2.5703 1.2578 1.2031 0.38281 0.60156 0.71094 1.2031 1.0391 1.8047-0.21875-0.38281-0.38281-1.3672-0.054687 0 0.10937 0.4375 0.21875 0.92969 0.38281 1.3672-0.4375-1.8047 0 0.32812 0 0.76562v0.4375 3.1172 39.211 69.508 85.094 84.109 68.414 36.805 2.4062 0.16406c0 0.32812-0.054688 0.76562-0.054688 1.1484 0 1.1484 0.60156-1.5859-0.10937 0.32812-0.16406 0.4375-0.27344 0.92969-0.4375 1.3672 0.71094-2.0781-1.6406 2.2422-0.32813 0.60156-0.38281 0.4375-0.76562 0.82031-1.2031 1.2578-0.32813 0.38281-1.5312 1.0938-0.21875 0.21875-0.38281 0.21875-0.82031 0.49219-1.2031 0.71094-1.5859 1.0391 1.2578-0.16406-0.65625 0.27344-0.4375 0.10938-0.92969 0.21875-1.3672 0.38281 1.75-0.27344-0.38281 0.16406-0.76562 0.16406-4.2656 0.10938-8.4219 3.7188-8.2031 8.2031 0.21875 4.375 3.6094 8.3125 8.2031 8.2031 12.523-0.32812 22.422-10.117 22.695-22.695v-1.8594-12.688-54.25-79.242-87.609-80.062-56.492-14.219-2.6797c-0.16406-8.4219-4.5938-16.516-12.25-20.344-6.2891-3.1719-13.125-2.5703-19.906-2.5703h-29.312-84.492-60.539c-1.3672 0-2.7891-0.054688-4.2109 0.054687-12.086 0.92969-21.328 10.445-21.547 22.641-0.054688 2.3516 0 4.6484 0 7v45.828 74.484 87.008 83.672 63.711c0 9.1328-0.16406 18.32 0 27.453 0.16406 8.6406 4.9219 16.898 12.906 20.562 3.7188 1.6953 7.6562 2.2422 11.703 2.2422h20.562 80.008 72.844 11.648c4.2656 0 8.4219-3.7734 8.2031-8.2031-0.32812-4.375-3.7188-8.1484-8.3125-8.1484z"/>
  <path d="m296.95 152.36c0 1.8047-0.054687 3.5547-0.21875 5.3594-0.054687 0.875-0.16406 1.75-0.27344 2.625-0.054688 0.38281-0.10938 0.76562-0.10938 1.0938 0.16406-1.2031 0-0.27344-0.10937 0.4375-0.54688 3.3906-1.3672 6.7812-2.4609 10.062-0.54688 1.6406-1.0938 3.2266-1.75 4.8125-0.32812 0.875 0.054688-0.16406 0.10938-0.27344-0.21875 0.4375-0.38281 0.875-0.60156 1.3125-0.38281 0.875-0.82031 1.75-1.2578 2.625-1.5312 3.0078-3.2812 5.8516-5.1953 8.5859-0.27344 0.38281-0.54688 0.76562-0.82031 1.1484-0.054687 0.10937-0.76562 1.0391-0.21875 0.32812 0.54688-0.71094-0.16406 0.21875-0.21875 0.27344-0.32812 0.38281-0.60156 0.76562-0.92969 1.0938-1.1484 1.3672-2.3516 2.6797-3.6094 3.9922-1.0938 1.0938-2.1875 2.1875-3.3359 3.2266-0.60156 0.54688-1.2578 1.0938-1.8594 1.6406-0.27344 0.21875-0.54688 0.4375-0.82031 0.71094 0 0-1.6406 1.3125-0.875 0.71094 0.71094-0.54688-0.21875 0.16406-0.32813 0.21875-0.38281 0.27344-0.76562 0.54688-1.1484 0.82031-0.71094 0.49219-1.3672 0.92969-2.0781 1.4219-1.5312 0.98437-3.0625 1.9141-4.5938 2.7891-1.3672 0.76562-2.7891 1.4766-4.2109 2.1328-0.4375 0.21875-2.4062 1.0391-1.0391 0.49219-0.875 0.38281-1.8047 0.71094-2.7344 1.0391-3.2266 1.1484-6.5625 2.1328-9.8984 2.7891-0.875 0.16406-1.6953 0.32812-2.5703 0.49219-0.21875 0.054688-1.8047 0.27344-0.76562 0.10938 0.92969-0.16406-0.27344 0.054687-0.38281 0.054687-1.8594 0.21875-3.7734 0.38281-5.6875 0.4375-3.6641 0.16406-7.3828 0-11.047-0.4375-1.6406-0.16406 0.82031 0.16406-0.76562-0.10938-0.875-0.16406-1.6953-0.27344-2.5703-0.4375-1.8047-0.38281-3.6094-0.76562-5.3594-1.3125-1.6406-0.4375-3.2812-0.98438-4.8672-1.5859-0.71094-0.27344-1.3672-0.49219-2.0234-0.76562-1.4766-0.54688-0.32812-0.16406-0.054687 0-0.4375-0.21875-0.875-0.38281-1.3125-0.60156-3.1719-1.4766-6.2344-3.1719-9.1328-5.0312-0.71094-0.4375-1.3672-0.92969-2.0781-1.4219-0.32812-0.21875-2.0781-1.5312-1.4766-1.0391 0.60156 0.4375-1.1484-0.92969-1.4219-1.1484-0.71094-0.60156-1.4766-1.2578-2.1328-1.8594-2.4609-2.2422-4.8125-4.6484-6.9453-7.2188-0.27344-0.27344-1.5859-2.0234-1.1484-1.4219s-0.875-1.2031-1.0391-1.4766c-0.98438-1.3672-1.8594-2.7891-2.7344-4.2109s-1.6953-2.8984-2.4609-4.4297c-0.38281-0.76562-0.76562-1.5312-1.0938-2.2969-0.16406-0.32813-0.27344-0.65625-0.4375-0.98438-0.98438-2.0781 0.32812 0.875-0.16406-0.38281-1.2578-3.1719-2.3516-6.3984-3.1172-9.7344-0.38281-1.6953-0.76562-3.3906-1.0391-5.0859-0.054687-0.38281-0.10937-0.76563-0.16406-1.0938 0.27344 1.5312 0.054688 0.27344 0-0.054688-0.10938-0.98438-0.21875-2.0234-0.27344-3.0078-0.27344-3.5547-0.27344-7.1641 0-10.719 0.054688-0.875 0.16406-1.75 0.27344-2.625 0-0.21875 0.27344-1.8047 0.10938-0.76563-0.16406 0.92969 0.054687-0.27344 0.054687-0.38281 0.32813-1.8047 0.65625-3.6641 1.0938-5.4688 0.82031-3.3359 1.8594-6.5625 3.1172-9.7344 0.49219-1.2031-0.49219 1.0938 0-0.054687 0.16406-0.32813 0.27344-0.65625 0.4375-0.98438 0.32812-0.76562 0.71094-1.5312 1.0938-2.2969 0.82031-1.5859 1.6953-3.1719 2.625-4.7031 0.875-1.4219 1.8047-2.8438 2.7344-4.2109 0.4375-0.60156 0.82031-1.1484 1.2578-1.75-0.92969 1.2578 0.65625-0.76562 0.92969-1.1484 2.1875-2.6797 4.5938-5.1406 7.2188-7.4375 1.1484-1.0391 2.3516-2.0234 3.5547-3.0078-1.2578 0.98438 0.60156-0.4375 0.92969-0.65625 0.76562-0.54688 1.5859-1.0938 2.3516-1.6406 2.8984-1.9141 5.9609-3.6094 9.1328-5.0312 0.32812-0.16406 0.65625-0.27344 0.98438-0.4375 1.1484-0.54688-1.1484 0.4375 0.054688 0 0.76562-0.32812 1.5859-0.60156 2.3516-0.92969 1.5859-0.60156 3.2266-1.0938 4.8672-1.5859 1.6406-0.49219 3.3359-0.875 5.0312-1.2031 0.875-0.16406 1.6953-0.32812 2.5703-0.49219 0.38281-0.054687 0.76562-0.10937 1.0938-0.16406-1.2031 0.21875-0.27344 0.054688 0.4375-0.054688 3.5547-0.38281 7.1094-0.54687 10.664-0.38281 1.75 0.054688 3.5547 0.21875 5.3047 0.38281 0.38281 0.054688 0.76562 0.10938 1.0938 0.10938-1.5859-0.21875-0.27344 0 0.054688 0.054687 0.98437 0.16406 1.9688 0.32812 2.9531 0.54688 3.3359 0.71094 6.6719 1.6406 9.8984 2.7891 0.82031 0.27344 1.5859 0.60156 2.3516 0.92969 0.875 0.32812-0.16406-0.054688-0.27344-0.10938 0.4375 0.21875 0.875 0.38281 1.3125 0.60156 1.6406 0.76562 3.2266 1.5859 4.8125 2.4609 1.3672 0.76562 2.6797 1.5859 3.9922 2.4062 0.71094 0.4375 1.4219 0.92969 2.0781 1.4219 0.38281 0.27344 0.76562 0.54688 1.1484 0.82031 0.10938 0.10938 1.3125 0.98438 0.60156 0.4375-0.60156-0.4375 1.0938 0.875 1.4219 1.1484 0.65625 0.54688 1.2578 1.0938 1.9141 1.6406 1.3125 1.2031 2.625 2.4062 3.8828 3.7188 1.0938 1.0938 2.1328 2.2969 3.1172 3.4453 0.54688 0.65625 1.0938 1.2578 1.5859 1.9688-0.98437-1.2578 0.60156 0.82031 0.875 1.2031 2.0234 2.8438 3.7734 5.8516 5.3594 8.9141 0.38281 0.76562 0.76562 1.5312 1.0938 2.2969 0.21875 0.4375 0.875 1.9688 0.32812 0.71094 0.71094 1.6953 1.3125 3.3906 1.8594 5.1406 1.0938 3.3906 1.9141 6.8906 2.5156 10.391 0.27344 1.5859-0.054687-0.82031 0.10938 0.76562 0.10937 0.875 0.16406 1.75 0.27344 2.625 0.16406 1.8047 0.21875 3.7188 0.21875 5.6328 0 4.2656 3.7734 8.4219 8.2031 8.2031s8.2031-3.6094 8.2031-8.2031c-0.16406-33.195-21.219-62.836-52.281-74.32-30.516-11.266-66.719-1.4219-87.281 23.789-10.5 12.852-16.789 28.219-18.102 44.789-1.3125 16.078 2.7344 32.648 11.047 46.43 17.281 28.602 51.133 43.148 83.781 36.641 31.336-6.2344 57.039-32.867 61.797-64.531 0.65625-4.2656 1.0391-8.4766 1.0938-12.797 0-4.2656-3.7734-8.4219-8.2031-8.2031-4.4844 0.21875-8.2031 3.6094-8.2578 8.2031z"/>
  <path d="m204.7 162.48h7.9297c4.2656 0 8.4219-3.7734 8.2031-8.2031-0.21875-4.4297-3.6094-8.2031-8.2031-8.2031h-7.9297c-4.2656 0-8.4219 3.7734-8.2031 8.2031 0.21875 4.4297 3.6094 8.2031 8.2031 8.2031z"/>
  <path d="m256.16 162.48h7.9297c4.2656 0 8.4219-3.7734 8.2031-8.2031-0.21875-4.4297-3.6094-8.2031-8.2031-8.2031h-7.9297c-4.2656 0-8.4219 3.7734-8.2031 8.2031 0.21875 4.4297 3.6094 8.2031 8.2031 8.2031z"/>
  <path d="m296.95 341.03c0 1.8047-0.054687 3.5547-0.21875 5.3594-0.054687 0.875-0.16406 1.75-0.27344 2.625-0.054688 0.38281-0.10938 0.76562-0.10938 1.0938 0.16406-1.2031 0-0.27344-0.10937 0.4375-0.54688 3.3906-1.3672 6.7812-2.4609 10.062-0.54688 1.6406-1.0938 3.2266-1.75 4.8125-0.32812 0.875 0.054688-0.16406 0.10938-0.27344-0.21875 0.4375-0.38281 0.875-0.60156 1.3125-0.38281 0.875-0.82031 1.75-1.2578 2.625-1.5312 3.0078-3.2812 5.8516-5.1953 8.5859-0.27344 0.38281-0.54688 0.76562-0.82031 1.1484-0.054687 0.10938-0.76562 1.0391-0.21875 0.32813 0.54688-0.71094-0.16406 0.21875-0.21875 0.27344-0.32812 0.38281-0.60156 0.76562-0.92969 1.0938-1.1484 1.3672-2.3516 2.6797-3.6094 3.9922-1.0938 1.0938-2.1875 2.1875-3.3359 3.2266-0.60156 0.54688-1.2578 1.0938-1.8594 1.6406-0.27344 0.21875-0.54688 0.4375-0.82031 0.71094 0 0-1.6406 1.3125-0.875 0.71094 0.71094-0.54688-0.21875 0.16406-0.32813 0.21875-0.38281 0.27344-0.76562 0.54688-1.1484 0.82031-0.71094 0.49219-1.3672 0.92969-2.0781 1.4219-1.5312 0.98438-3.0625 1.9141-4.5938 2.7891-1.3672 0.76562-2.7891 1.4766-4.2109 2.1328-0.4375 0.21875-2.4062 1.0391-1.0391 0.49219-0.875 0.38281-1.8047 0.71094-2.7344 1.0391-3.2266 1.1484-6.5625 2.1328-9.8984 2.7891-0.875 0.16406-1.6953 0.32812-2.5703 0.49219-0.21875 0.054687-1.8047 0.27344-0.76562 0.10937 0.92969-0.16406-0.27344 0.054688-0.38281 0.054688-1.8594 0.21875-3.7734 0.38281-5.6875 0.4375-3.6641 0.16406-7.3828 0-11.047-0.4375-1.6406-0.16406 0.82031 0.16406-0.76562-0.10938-0.875-0.16406-1.6953-0.27344-2.5703-0.4375-1.8047-0.38281-3.6094-0.76562-5.3594-1.3125-1.6406-0.4375-3.2812-0.98438-4.8672-1.5859-0.71094-0.27344-1.3672-0.49219-2.0234-0.76563-1.4766-0.54687-0.32812-0.16406-0.054687 0-0.4375-0.21875-0.875-0.38281-1.3125-0.60156-3.1719-1.4766-6.2344-3.1719-9.1328-5.0312-0.71094-0.4375-1.3672-0.92969-2.0781-1.4219-0.32812-0.21875-2.0781-1.5312-1.4766-1.0391 0.60156 0.4375-1.1484-0.92969-1.4219-1.1484-0.71094-0.60156-1.4766-1.2578-2.1328-1.8594-2.4609-2.2422-4.8125-4.6484-6.9453-7.2188-0.27344-0.27344-1.5859-2.0234-1.1484-1.4219s-0.875-1.2031-1.0391-1.4766c-0.98438-1.3672-1.8594-2.7891-2.7344-4.2109s-1.6953-2.8984-2.4609-4.4297c-0.38281-0.76563-0.76562-1.5312-1.0938-2.2969-0.16406-0.32812-0.27344-0.65625-0.4375-0.98437-0.98438-2.0781 0.32812 0.875-0.16406-0.38281-1.2578-3.1719-2.3516-6.3984-3.1172-9.7344-0.38281-1.6953-0.76562-3.3906-1.0391-5.0859-0.054687-0.38281-0.10937-0.76562-0.16406-1.0938 0.27344 1.5312 0.054688 0.27344 0-0.054687-0.10938-0.98438-0.21875-2.0234-0.27344-3.0078-0.27344-3.5547-0.27344-7.1641 0-10.719 0.054688-0.875 0.16406-1.75 0.27344-2.625 0-0.21875 0.27344-1.8047 0.10938-0.76562-0.16406 0.92969 0.054687-0.27344 0.054687-0.38281 0.32813-1.8047 0.65625-3.6641 1.0938-5.4688 0.82031-3.3359 1.8594-6.5625 3.1172-9.7344 0.49219-1.2031-0.49219 1.0938 0-0.054688 0.16406-0.32812 0.27344-0.65625 0.4375-0.98437 0.32812-0.76563 0.71094-1.5312 1.0938-2.2969 0.82031-1.5859 1.6953-3.1719 2.625-4.7031 0.875-1.4219 1.8047-2.8438 2.7344-4.2109 0.4375-0.60156 0.82031-1.1484 1.2578-1.75-0.92969 1.2578 0.65625-0.76562 0.92969-1.1484 2.1875-2.6797 4.5938-5.1406 7.2188-7.4375 1.1484-1.0391 2.3516-2.0234 3.5547-3.0078-1.2578 0.98438 0.60156-0.4375 0.92969-0.65625 0.76562-0.54688 1.5859-1.0938 2.3516-1.6406 2.8984-1.9141 5.9609-3.6094 9.1328-5.0312 0.32812-0.16406 0.65625-0.27344 0.98438-0.4375 1.1484-0.54688-1.1484 0.4375 0.054688 0 0.76562-0.32812 1.5859-0.60156 2.3516-0.92969 1.5859-0.60156 3.2266-1.0938 4.8672-1.5859 1.6406-0.49219 3.3359-0.875 5.0312-1.2031 0.875-0.16406 1.6953-0.32812 2.5703-0.49219 0.38281-0.054688 0.76562-0.10938 1.0938-0.16406-1.2031 0.21875-0.27344 0.054687 0.4375-0.054687 3.5547-0.38281 7.1094-0.54688 10.664-0.38281 1.75 0.054687 3.5547 0.21875 5.3047 0.38281 0.38281 0.054687 0.76562 0.10937 1.0938 0.10937-1.5859-0.21875-0.27344 0 0.054688 0.054688 0.98437 0.16406 1.9688 0.32812 2.9531 0.54688 3.3359 0.71094 6.6719 1.6406 9.8984 2.7891 0.82031 0.27344 1.5859 0.60156 2.3516 0.92969 0.875 0.32812-0.16406-0.054687-0.27344-0.10938 0.4375 0.21875 0.875 0.38281 1.3125 0.60156 1.6406 0.76563 3.2266 1.5859 4.8125 2.4609 1.3672 0.76562 2.6797 1.5859 3.9922 2.4062 0.71094 0.4375 1.4219 0.92969 2.0781 1.4219 0.38281 0.27344 0.76562 0.54688 1.1484 0.82031 0.10938 0.10937 1.3125 0.98437 0.60156 0.4375-0.60156-0.4375 1.0938 0.875 1.4219 1.1484 0.65625 0.54688 1.2578 1.0938 1.9141 1.6406 1.3125 1.2031 2.625 2.4062 3.8828 3.7188 1.0938 1.0938 2.1328 2.2969 3.1172 3.4453 0.54688 0.65625 1.0938 1.2578 1.5859 1.9688-0.98437-1.2578 0.60156 0.82031 0.875 1.2031 2.0234 2.8438 3.7734 5.8516 5.3594 8.9141 0.38281 0.76562 0.76562 1.5312 1.0938 2.2969 0.21875 0.4375 0.875 1.9688 0.32812 0.71094 0.71094 1.6953 1.3125 3.3906 1.8594 5.1406 1.0938 3.3906 1.9141 6.8906 2.5156 10.391 0.27344 1.5859-0.054687-0.82031 0.10938 0.76563 0.10937 0.875 0.16406 1.75 0.27344 2.625 0.16406 1.8047 0.21875 3.7188 0.21875 5.6328 0 4.2656 3.7734 8.4219 8.2031 8.2031s8.2031-3.6094 8.2031-8.2031c-0.16406-33.195-21.219-62.836-52.281-74.32-30.516-11.266-66.719-1.4219-87.281 23.789-10.5 12.852-16.789 28.219-18.102 44.789-1.3125 16.078 2.7344 32.648 11.047 46.43 17.281 28.602 51.133 43.148 83.781 36.641 31.336-6.2344 57.039-32.867 61.797-64.531 0.65625-4.2656 1.0391-8.4766 1.0938-12.797 0-4.2656-3.7734-8.4219-8.2031-8.2031-4.4844 0.21875-8.2031 3.6094-8.2578 8.2031z"/>
  <path d="m204.7 351.15h7.9297c4.2656 0 8.4219-3.7734 8.2031-8.2031-0.21875-4.4297-3.6094-8.2031-8.2031-8.2031h-7.9297c-4.2656 0-8.4219 3.7734-8.2031 8.2031 0.21875 4.4297 3.6094 8.2031 8.2031 8.2031z"/>
  <path d="m256.16 351.15h7.9297c4.2656 0 8.4219-3.7734 8.2031-8.2031-0.21875-4.4297-3.6094-8.2031-8.2031-8.2031h-7.9297c-4.2656 0-8.4219 3.7734-8.2031 8.2031 0.21875 4.4297 3.6094 8.2031 8.2031 8.2031z"/>
  <path d="m511.82 210.05c-7.875 0-15.75 0.054687-23.625 0-1.0938 0-2.1875 0-3.2812-0.10938-0.98437-0.054687-2.0234-0.16406-3.0078-0.27344 1.5859 0.16406-0.92969-0.16406-1.5312-0.27344-1.8047-0.38281-3.6094-0.82031-5.3594-1.3672-0.92969-0.27344-1.8594-0.60156-2.7344-0.98438-0.32812-0.10938-0.65625-0.27344-1.0391-0.38281 1.6406 0.65625-0.54688-0.27344-0.71094-0.32812-1.5312-0.71094-3.0078-1.5312-4.4297-2.4062-0.82031-0.49219-1.6406-1.0391-2.4062-1.5312-0.4375-0.32813-2.4062-1.8047-1.2031-0.82031-2.9531-2.4062-5.6875-5.0859-8.0391-8.0391 0.98438 1.2031-0.38281-0.54687-0.65625-0.92969-0.54688-0.76562-1.0938-1.5859-1.5859-2.4062-0.98438-1.6406-1.9141-3.3359-2.7344-5.0859-0.10937-0.21875-0.71094-1.5859-0.32812-0.65625 0.38281 0.875-0.10938-0.27344-0.16406-0.38281-0.32812-0.92969-0.65625-1.8047-0.98438-2.7344-0.60156-1.8594-1.0938-3.7734-1.4766-5.6875-0.054688-0.38281-0.49219-3.2266-0.27344-1.5312-0.10938-0.875-0.16406-1.75-0.21875-2.625-0.054688-1.1484-0.10938-2.3516-0.10938-3.5v-2.2969-28.273-24.664l-8.2031 8.2031h41.945 66.883 15.367c-2.7344-2.7344-5.4688-5.4688-8.2031-8.2031v39.867c0 5.1406 0.054687 10.281 0 15.422 0 0.76562 0 1.5859-0.054688 2.3516s-0.10938 1.5312-0.16406 2.2969c0 0.21875-0.38281 2.6797-0.054688 0.82031-0.4375 2.8984-1.1484 5.7969-2.0781 8.5859-0.21875 0.71094-0.49219 1.3672-0.76562 2.0781-0.82031 2.2422 0.71094-1.4219-0.32812 0.71094-0.65625 1.3125-1.2578 2.5703-1.9688 3.8281-0.71094 1.2578-1.4766 2.4609-2.2969 3.6641-0.38281 0.60156-0.82031 1.1484-1.2578 1.75 1.0938-1.4219-0.76563 0.875-0.98438 1.0938-1.0938 1.2578-2.2422 2.4609-3.4453 3.6094-0.49219 0.49219-1.0391 0.98438-1.5859 1.4219-0.21875 0.21875-2.5703 2.0234-1.0938 0.98438-2.6797 2.0234-5.5781 3.7734-8.5859 5.1953-0.21875 0.10938-2.4062 1.0391-0.71094 0.32813-0.875 0.38281-1.8047 0.71094-2.7344 1.0391-1.6406 0.54688-3.2812 1.0391-4.9219 1.4219-0.71094 0.16406-1.4219 0.32812-2.1875 0.4375-0.49219 0.10938-0.98438 0.16406-1.4766 0.21875 0.92969-0.10938 0.92969-0.10938-0.054687 0-1.6406 0.054687-3.3906 0.16406-5.1406 0.16406-4.2656 0.054687-8.4219 3.7734-8.2031 8.2031 0.21875 4.4297 3.6094 8.2578 8.2031 8.2031 28.055-0.21875 53.43-20.945 57.586-49.055 0.98438-6.5078 0.82031-12.961 0.82031-19.469v-26.961-18.266c0-4.4297-3.7734-8.2031-8.2031-8.2031h-41.945-66.883-15.367c-4.4297 0-8.2031 3.7734-8.2031 8.2031v52.062c0 12.469 2.4609 24.609 9.5156 35.164 9.9531 14.93 25.758 24.336 43.586 26.195 9.5703 0.98438 19.523 0.27344 29.148 0.27344 4.2656 0 8.4219-3.7734 8.2031-8.2031-0.27344-4.375-3.6641-8.1484-8.2578-8.1484z"/>
  <path d="m459.87 55.125v50.367 7.2188c0 4.4297 3.7734 8.2031 8.2031 8.2031h55.781 7.875c4.4297 0 8.2031-3.7734 8.2031-8.2031v-50.367-7.2188c0-4.2656-3.7734-8.4219-8.2031-8.2031-4.4297 0.21875-8.2031 3.6094-8.2031 8.2031v50.367 7.2188c2.7344-2.7344 5.4688-5.4688 8.2031-8.2031h-55.781-7.875l8.2031 8.2031v-50.367-7.2188c0-4.2656-3.7734-8.4219-8.2031-8.2031-4.4844 0.21875-8.2031 3.6094-8.2031 8.2031z"/>
  <path d="m426.18 120.91h49.766 79.352 18.211c4.2656 0 8.4219-3.7734 8.2031-8.2031-0.21875-4.4297-3.6094-8.2031-8.2031-8.2031h-49.766-79.352-18.211c-4.2656 0-8.4219 3.7734-8.2031 8.2031 0.21875 4.4844 3.6094 8.2031 8.2031 8.2031z"/>
  <path d="m491.7 218.26v26.742 64.312 77.055 65.68c0 10.008 0.054688 20.016 0 30.023-0.054687 5.7969-1.3672 10.883-4.375 15.859-0.54687 0.92969-1.1484 1.8047-1.75 2.6797-0.16406 0.27344-0.92969 1.2031 0 0.054687-0.27344 0.38281-0.60156 0.71094-0.92969 1.0938-1.4219 1.6406-2.9531 3.0625-4.5391 4.4844-1.6953 1.4766 0.82031-0.54688-0.27344 0.21875-0.38281 0.27344-0.76562 0.54687-1.1484 0.82031-0.875 0.60156-1.8047 1.1484-2.7344 1.6953-0.82031 0.49219-1.6953 0.875-2.5703 1.3125-2.0234 1.0391 0.92969-0.32812-0.38281 0.16406-0.54688 0.21875-1.1484 0.4375-1.6953 0.60156-2.0781 0.71094-4.2109 1.2031-6.3984 1.5859 1.6406-0.27344-0.98438 0.054687-1.5312 0.10938-0.76563 0.054688-1.5312 0.054688-2.2969 0.054688h-0.82031-5.3594-56.109-75.906-47.742c-1.9141 0-3.8281-0.054688-5.7422-0.16406-0.32812 0-1.5859-0.27344-0.054687 0-0.49219-0.054687-0.98438-0.16406-1.4766-0.27344-1.0938-0.21875-2.1328-0.49219-3.2266-0.76563-1.0391-0.27344-2.0781-0.65625-3.1172-1.0391-0.27344-0.10938-1.4219-0.60156-0.054687 0-0.65625-0.27344-1.3125-0.60156-1.9141-0.92969-1.6953-0.875-3.2812-1.9141-4.8672-2.9531-1.8594-1.2578 0.71094 0.65625-0.32813-0.21875-0.38281-0.32813-0.71094-0.60156-1.0938-0.92969-0.875-0.76562-1.75-1.5859-2.5703-2.4609-0.71094-0.76562-1.4219-1.5859-2.0781-2.4062 0.98438 1.2578-0.49219-0.76562-0.82031-1.2031-0.60156-0.875-1.1484-1.8047-1.6406-2.7344-0.21875-0.4375-0.4375-0.82031-0.65625-1.2578-0.10938-0.21875-0.98438-2.1875-0.65625-1.3125 0.49219 1.0938-0.38281-1.0938-0.38281-1.0391-0.16406-0.4375-0.32812-0.92969-0.4375-1.3672-0.27344-0.92969-0.54688-1.8594-0.76562-2.7891-0.10938-0.49219-0.21875-0.92969-0.32812-1.4219 0 0.054688-0.38281-2.3516-0.21875-1.0938 0.16406 1.0391-0.054687-0.54687-0.054687-0.76562-0.054688-0.76563-0.10938-1.5312-0.10938-2.2422-0.10937-4.4844 0-8.9141 0-13.398v-12.797c0-4.2656-3.7734-8.4219-8.2031-8.2031-4.4297 0.21875-8.2031 3.6094-8.2031 8.2031 0 9.2969-0.60156 18.812 0.10938 28.109 1.5859 20.18 15.859 37.953 35.82 42.656 6.0156 1.4219 11.922 1.3125 17.992 1.3125h23.68 73.992 67.211 15.258c14.875 0 28.82-6.5078 37.953-18.32 6.8359-8.8594 9.8438-19.359 9.8438-30.461v-14.055-58.188-77.875-70.984-39.32-1.8594c0-4.2656-3.7734-8.4219-8.2031-8.2031-4.375 0.21875-8.0938 3.6094-8.0938 8.2031z"/>
  <path d="m505.75 155.31v-0.27344c-0.10938 0.71094-0.21875 1.4766-0.27344 2.1875 0.054688-0.27344 0.10938-0.49219 0.21875-0.71094-0.27344 0.65625-0.54687 1.3125-0.82031 1.9688 0.054688-0.16406 0.16406-0.27344 0.21875-0.4375-0.4375 0.54688-0.875 1.0938-1.2578 1.6406 0.16406-0.21875 0.32812-0.32812 0.49219-0.49219-0.54688 0.4375-1.0938 0.875-1.6406 1.2578 0.10938-0.10938 0.27344-0.16406 0.4375-0.21875-0.65625 0.27344-1.3125 0.54688-1.9688 0.82031 0.21875-0.10938 0.4375-0.16406 0.71094-0.21875-0.71094 0.10937-1.4766 0.21875-2.1875 0.27344h0.49219c-0.71094-0.10938-1.4766-0.21875-2.1875-0.27344 0.27344 0.054687 0.49219 0.10937 0.71094 0.21875-0.65625-0.27344-1.3125-0.54688-1.9688-0.82031 0.16406 0.054687 0.27344 0.16406 0.4375 0.21875-0.54687-0.4375-1.0938-0.875-1.6406-1.2578 0.21875 0.16406 0.32812 0.32813 0.49219 0.49219-0.4375-0.54688-0.875-1.0938-1.2578-1.6406 0.10938 0.10938 0.16406 0.27344 0.21875 0.4375-0.27344-0.65625-0.54687-1.3125-0.82031-1.9688 0.10938 0.21875 0.16406 0.4375 0.21875 0.71094-0.10938-0.71094-0.21875-1.4766-0.27344-2.1875v0.49219c0.10938-0.71094 0.21875-1.4766 0.27344-2.1875-0.054688 0.27344-0.10938 0.49219-0.21875 0.71094 0.27344-0.65625 0.54688-1.3125 0.82031-1.9688-0.054687 0.16406-0.16406 0.27344-0.21875 0.4375 0.4375-0.54688 0.875-1.0938 1.2578-1.6406-0.16406 0.21875-0.32812 0.32813-0.49219 0.49219 0.54687-0.4375 1.0938-0.875 1.6406-1.2578-0.10937 0.10937-0.27344 0.16406-0.4375 0.21875 0.65625-0.27344 1.3125-0.54688 1.9688-0.82031-0.21875 0.10938-0.4375 0.16406-0.71094 0.21875 0.71094-0.10938 1.4766-0.21875 2.1875-0.27344h-0.49219c0.71094 0.10937 1.4766 0.21875 2.1875 0.27344-0.27344-0.054687-0.49219-0.10938-0.71094-0.21875 0.65625 0.27344 1.3125 0.54688 1.9688 0.82031-0.16406-0.054688-0.27344-0.16406-0.4375-0.21875 0.54688 0.4375 1.0938 0.875 1.6406 1.2578-0.21875-0.16406-0.32812-0.32812-0.49219-0.49219 0.4375 0.54688 0.875 1.0938 1.2578 1.6406-0.10938-0.10938-0.16406-0.27344-0.21875-0.4375 0.27344 0.65625 0.54688 1.3125 0.82031 1.9688-0.10937-0.21875-0.16406-0.4375-0.21875-0.71094 0.10938 0.71094 0.21875 1.4766 0.27344 2.1875v-0.21875c-0.10938-2.1875-0.82031-4.2109-2.4062-5.7969-1.4219-1.4219-3.7734-2.5156-5.7969-2.4062-2.1328 0.10938-4.3203 0.76562-5.7969 2.4062-1.4219 1.5312-2.5156 3.6094-2.4062 5.7969 0.16406 2.7891 1.0391 5.4141 3.0625 7.4375 1.9688 1.9688 4.7031 3.0625 7.4375 3.0625s5.5234-1.1484 7.4375-3.0625c1.9688-1.9688 3.0078-4.6484 3.0625-7.4375 0.16406-5.6875-4.8672-10.445-10.391-10.5-2.7344-0.054688-5.5781 1.0391-7.4922 3.0078-2.0781 2.0781-3.0078 4.6484-3.1719 7.5469-0.10937 2.0234 0.98438 4.375 2.4062 5.7969 1.4219 1.4219 3.7734 2.5156 5.7969 2.4062 4.7031-0.27344 7.9844-3.6641 8.2578-8.2578z"/>
  <use x="70" y="568.203125" xlink:href="#v"/>
  <use x="72.007812" y="568.203125" xlink:href="#f"/>
  <use x="73.355469" y="568.203125" xlink:href="#a"/>
  <use x="75.210937" y="568.203125" xlink:href="#e"/>
  <use x="77.054688" y="568.203125" xlink:href="#d"/>
  <use x="78.363281" y="568.203125" xlink:href="#a"/>
  <use x="80.214844" y="568.203125" xlink:href="#k"/>
  <use x="83.125" y="568.203125" xlink:href="#j"/>
  <use x="85.082031" y="568.203125" xlink:href="#i"/>
  <use x="87.816406" y="568.203125" xlink:href="#c"/>
  <use x="89.445312" y="568.203125" xlink:href="#b"/>
  <use x="91.390625" y="568.203125" xlink:href="#e"/>
  <use x="93.238281" y="568.203125" xlink:href="#c"/>
  <use x="94.863281" y="568.203125" xlink:href="#b"/>
  <use x="96.8125" y="568.203125" xlink:href="#e"/>
  <use x="98.65625" y="568.203125" xlink:href="#h"/>
  <use x="100.601562" y="568.203125" xlink:href="#u"/>
  <use x="103.375" y="568.203125" xlink:href="#c"/>
  <use x="105" y="568.203125" xlink:href="#t"/>
  <use x="105.9375" y="568.203125" xlink:href="#h"/>
  <use x="107.882812" y="568.203125" xlink:href="#s"/>
  <use x="109.84375" y="568.203125" xlink:href="#b"/>
  <use x="70" y="570.9375" xlink:href="#r"/>
  <use x="71.191406" y="570.9375" xlink:href="#f"/>
  <use x="72.539062" y="570.9375" xlink:href="#g"/>
  <use x="74.417969" y="570.9375" xlink:href="#q"/>
  <use x="78.21875" y="570.9375" xlink:href="#d"/>
  <use x="79.523438" y="570.9375" xlink:href="#b"/>
  <use x="81.472656" y="570.9375" xlink:href="#a"/>
  <use x="84.277344" y="570.9375" xlink:href="#p"/>
  <use x="86.566406" y="570.9375" xlink:href="#g"/>
  <use x="88.445312" y="570.9375" xlink:href="#o"/>
  <use x="90.390625" y="570.9375" xlink:href="#h"/>
  <use x="93.289062" y="570.9375" xlink:href="#n"/>
  <use x="95.292969" y="570.9375" xlink:href="#f"/>
  <use x="96.644531" y="570.9375" xlink:href="#g"/>
  <use x="98.519531" y="570.9375" xlink:href="#m"/>
  <use x="99.457031" y="570.9375" xlink:href="#a"/>
  <use x="101.3125" y="570.9375" xlink:href="#l"/>
  <use x="102.933594" y="570.9375" xlink:href="#d"/>
 </g>
</svg>
