<?xml version="1.0" encoding="UTF-8"?>
<svg width="700pt" height="700pt" version="1.1" viewBox="0 0 700 700" xmlns="http://www.w3.org/2000/svg" xmlns:xlink="http://www.w3.org/1999/xlink">
 <defs>
  <symbol id="v" overflow="visible">
   <path d="m1.8281-0.10938c-0.09375 0.054688-0.19531 0.089844-0.29688 0.10938-0.09375 0.019531-0.19922 0.03125-0.3125 0.03125-0.33594 0-0.60156-0.085938-0.79688-0.26562-0.1875-0.1875-0.28125-0.44141-0.28125-0.76562 0-0.3125 0.09375-0.5625 0.28125-0.75 0.19531-0.1875 0.46094-0.28125 0.79688-0.28125 0.11328 0 0.21875 0.015625 0.3125 0.046875 0.10156 0.023437 0.20312 0.058594 0.29688 0.10938v0.40625c-0.09375-0.0625-0.1875-0.10938-0.28125-0.14062s-0.19531-0.046875-0.29688-0.046875c-0.17969 0-0.32031 0.0625-0.42188 0.1875-0.10547 0.11719-0.15625 0.27344-0.15625 0.46875 0 0.21094 0.050781 0.375 0.15625 0.5 0.10156 0.11719 0.24219 0.17188 0.42188 0.17188 0.10156 0 0.20312-0.015625 0.29688-0.046875s0.1875-0.078125 0.28125-0.14062z"/>
  </symbol>
  <symbol id="f" overflow="visible">
   <path d="m1.3438-1.0938c-0.042969-0.019531-0.085938-0.03125-0.125-0.03125-0.042969-0.007812-0.085938-0.015625-0.125-0.015625-0.125 0-0.22656 0.042969-0.29688 0.125-0.0625 0.074219-0.09375 0.18359-0.09375 0.32812v0.6875h-0.46875v-1.5h0.46875v0.25c0.0625-0.09375 0.12891-0.16016 0.20312-0.20312 0.082031-0.050781 0.17969-0.078125 0.29688-0.078125h0.046875c0.019531 0 0.050781 0.007812 0.09375 0.015625z"/>
  </symbol>
  <symbol id="a" overflow="visible">
   <path d="m1.7188-0.75v0.14062h-1.1094c0.007813 0.10547 0.046875 0.1875 0.10938 0.25 0.070312 0.054687 0.17188 0.078125 0.29688 0.078125 0.10156 0 0.20703-0.015625 0.3125-0.046875 0.10156-0.03125 0.21094-0.070313 0.32812-0.125v0.35938c-0.11719 0.042969-0.23047 0.074219-0.34375 0.09375-0.11719 0.019531-0.23047 0.03125-0.34375 0.03125-0.27344 0-0.48047-0.066406-0.625-0.20312-0.14844-0.13281-0.21875-0.32812-0.21875-0.57812 0-0.23828 0.070312-0.42578 0.21875-0.5625 0.14453-0.14453 0.34766-0.21875 0.60938-0.21875 0.22656 0 0.41016 0.074219 0.54688 0.21875 0.14453 0.13672 0.21875 0.32422 0.21875 0.5625zm-0.48438-0.15625c0-0.09375-0.027344-0.16406-0.078125-0.21875-0.054688-0.0625-0.125-0.09375-0.21875-0.09375-0.085938 0-0.15625 0.027344-0.21875 0.078125-0.0625 0.054687-0.10156 0.13281-0.10938 0.23438z"/>
  </symbol>
  <symbol id="e" overflow="visible">
   <path d="m0.90625-0.67188c-0.10547 0-0.18359 0.015625-0.23438 0.046875-0.054687 0.03125-0.078125 0.085938-0.078125 0.15625 0 0.0625 0.019531 0.10938 0.0625 0.14062 0.039062 0.03125 0.097656 0.046875 0.17188 0.046875 0.09375 0 0.16406-0.03125 0.21875-0.09375 0.0625-0.0625 0.09375-0.14453 0.09375-0.25v-0.046875zm0.71875-0.1875v0.85938h-0.48438v-0.21875c-0.0625 0.09375-0.13672 0.16406-0.21875 0.20312-0.074219 0.03125-0.16797 0.046875-0.28125 0.046875-0.15625 0-0.28125-0.039062-0.375-0.125-0.09375-0.09375-0.14062-0.21094-0.14062-0.35938 0-0.17578 0.054688-0.30078 0.17188-0.375 0.125-0.082031 0.3125-0.125 0.5625-0.125h0.28125v-0.046875c0-0.070312-0.03125-0.125-0.09375-0.15625-0.054687-0.039062-0.14062-0.0625-0.26562-0.0625-0.10547 0-0.20312 0.011719-0.29688 0.03125-0.085937 0.023438-0.16406 0.054688-0.23438 0.09375v-0.35938c0.10156-0.03125 0.20703-0.050781 0.3125-0.0625 0.10156-0.007813 0.20312-0.015625 0.29688-0.015625 0.26953 0 0.46094 0.054688 0.57812 0.15625 0.125 0.10547 0.1875 0.27734 0.1875 0.51562z"/>
  </symbol>
  <symbol id="d" overflow="visible">
   <path d="m0.75-1.9219v0.42188h0.5v0.34375h-0.5v0.64062c0 0.0625 0.007812 0.10938 0.03125 0.14062 0.03125 0.023438 0.085938 0.03125 0.17188 0.03125h0.25v0.34375h-0.40625c-0.1875 0-0.32422-0.035156-0.40625-0.10938-0.074219-0.082031-0.10938-0.21875-0.10938-0.40625v-0.64062h-0.25v-0.34375h0.25v-0.42188z"/>
  </symbol>
  <symbol id="k" overflow="visible">
   <path d="m1.25-1.2812v-0.79688h0.48438v2.0781h-0.48438v-0.21875c-0.074219 0.09375-0.15234 0.16406-0.23438 0.20312-0.074219 0.03125-0.16406 0.046875-0.26562 0.046875-0.17969 0-0.32812-0.070312-0.45312-0.21875-0.11719-0.14453-0.17188-0.33203-0.17188-0.5625 0-0.22656 0.054688-0.41406 0.17188-0.5625 0.125-0.14453 0.27344-0.21875 0.45312-0.21875 0.10156 0 0.19141 0.023438 0.26562 0.0625 0.082031 0.042969 0.16016 0.10547 0.23438 0.1875zm-0.3125 0.96875c0.09375 0 0.16406-0.035156 0.21875-0.10938 0.0625-0.070313 0.09375-0.17969 0.09375-0.32812 0-0.13281-0.03125-0.23828-0.09375-0.3125-0.054688-0.082031-0.125-0.125-0.21875-0.125-0.10547 0-0.18359 0.042969-0.23438 0.125-0.054687 0.074219-0.078125 0.17969-0.078125 0.3125 0 0.14844 0.023438 0.25781 0.078125 0.32812 0.050781 0.074219 0.12891 0.10938 0.23438 0.10938z"/>
  </symbol>
  <symbol id="j" overflow="visible">
   <path d="m1.0312-0.3125c0.09375 0 0.16406-0.035156 0.21875-0.10938 0.0625-0.070313 0.09375-0.17969 0.09375-0.32812 0-0.13281-0.03125-0.23828-0.09375-0.3125-0.054688-0.082031-0.125-0.125-0.21875-0.125-0.10547 0-0.1875 0.042969-0.25 0.125-0.054688 0.074219-0.078125 0.17969-0.078125 0.3125 0 0.14844 0.023437 0.25781 0.078125 0.32812 0.0625 0.074219 0.14453 0.10938 0.25 0.10938zm-0.32812-0.96875c0.070313-0.082031 0.14453-0.14453 0.21875-0.1875 0.082031-0.039062 0.17578-0.0625 0.28125-0.0625 0.1875 0 0.33594 0.074219 0.45312 0.21875 0.11328 0.14844 0.17188 0.33594 0.17188 0.5625 0 0.23047-0.058594 0.41797-0.17188 0.5625-0.11719 0.14844-0.26562 0.21875-0.45312 0.21875-0.10547 0-0.19922-0.015625-0.28125-0.046875-0.074219-0.039062-0.14844-0.10938-0.21875-0.20312v0.21875h-0.46875v-2.0781h0.46875z"/>
  </symbol>
  <symbol id="i" overflow="visible">
   <path d="m0.03125-1.5h0.48438l0.39062 1.0156 0.34375-1.0156h0.48438l-0.625 1.6406c-0.0625 0.16406-0.14062 0.28125-0.23438 0.34375-0.085938 0.070313-0.19531 0.10938-0.32812 0.10938h-0.26562v-0.3125h0.14062c0.082031 0 0.14062-0.015625 0.17188-0.046875 0.039062-0.023437 0.070312-0.070313 0.09375-0.14062l0.015625-0.03125z"/>
  </symbol>
  <symbol id="c" overflow="visible">
   <path d="m1.3906-1.4531v0.375c-0.09375-0.050781-0.19531-0.085937-0.29688-0.10938-0.09375-0.019531-0.18359-0.03125-0.26562-0.03125-0.085937 0-0.15234 0.015625-0.20312 0.046875-0.042969 0.023437-0.0625 0.054687-0.0625 0.09375 0 0.042969 0.015625 0.074219 0.046875 0.09375 0.03125 0.023437 0.09375 0.039063 0.1875 0.046875l0.078125 0.015625c0.25 0.03125 0.41406 0.085937 0.5 0.15625 0.082031 0.0625 0.125 0.17188 0.125 0.32812s-0.0625 0.27734-0.1875 0.35938c-0.11719 0.074219-0.28906 0.10938-0.51562 0.10938-0.10547 0-0.21094-0.011719-0.3125-0.03125-0.10547-0.0078125-0.21094-0.03125-0.3125-0.0625v-0.35938c0.09375 0.054687 0.1875 0.089844 0.28125 0.10938 0.10156 0.023438 0.20703 0.03125 0.3125 0.03125 0.09375 0 0.16016-0.007812 0.20312-0.03125 0.050781-0.03125 0.078125-0.070312 0.078125-0.125 0-0.039062-0.015625-0.070312-0.046875-0.09375-0.03125-0.019531-0.10156-0.035156-0.20312-0.046875l-0.078125-0.015625c-0.21875-0.019531-0.37109-0.066406-0.45312-0.14062-0.085937-0.070313-0.125-0.17969-0.125-0.32812 0-0.15625 0.050781-0.26953 0.15625-0.34375 0.11328-0.082031 0.28125-0.125 0.5-0.125 0.09375 0 0.1875 0.011719 0.28125 0.03125 0.10156 0.011719 0.20703 0.027344 0.3125 0.046875z"/>
  </symbol>
  <symbol id="b" overflow="visible">
   <path d="m1.7344-0.90625v0.90625h-0.48438v-0.6875c0-0.13281-0.007812-0.22266-0.015625-0.26562 0-0.050781-0.007813-0.09375-0.015625-0.125-0.023438-0.03125-0.046875-0.050781-0.078125-0.0625-0.03125-0.019531-0.070313-0.03125-0.10938-0.03125-0.10547 0-0.1875 0.042969-0.25 0.125-0.054688 0.074219-0.078125 0.17969-0.078125 0.3125v0.73438h-0.46875v-2.0781h0.46875v0.79688c0.070313-0.082031 0.14844-0.14453 0.23438-0.1875 0.082031-0.039062 0.17188-0.0625 0.26562-0.0625 0.17578 0 0.30469 0.054688 0.39062 0.15625 0.09375 0.10547 0.14062 0.26172 0.14062 0.46875z"/>
  </symbol>
  <symbol id="h" overflow="visible">
   <path d="m1.7344-0.90625v0.90625h-0.48438v-0.70312c0-0.125-0.007812-0.20703-0.015625-0.25 0-0.050781-0.007813-0.09375-0.015625-0.125-0.023438-0.03125-0.046875-0.050781-0.078125-0.0625-0.03125-0.019531-0.070313-0.03125-0.10938-0.03125-0.10547 0-0.1875 0.042969-0.25 0.125-0.054688 0.074219-0.078125 0.17969-0.078125 0.3125v0.73438h-0.46875v-1.5h0.46875v0.21875c0.070313-0.082031 0.14844-0.14453 0.23438-0.1875 0.082031-0.039062 0.17188-0.0625 0.26562-0.0625 0.17578 0 0.30469 0.054688 0.39062 0.15625 0.09375 0.10547 0.14062 0.26172 0.14062 0.46875z"/>
  </symbol>
  <symbol id="u" overflow="visible">
   <path d="m0.23438-2.0781h0.46875v1.125l0.54688-0.54688h0.5625l-0.73438 0.6875 0.79688 0.8125h-0.57812l-0.59375-0.625v0.625h-0.46875z"/>
  </symbol>
  <symbol id="t" overflow="visible">
   <path d="m0.23438-1.5h0.46875v1.5h-0.46875zm0-0.57812h0.46875v0.39062h-0.46875z"/>
  </symbol>
  <symbol id="s" overflow="visible">
   <path d="m1.25-0.25c-0.074219 0.085938-0.15234 0.14844-0.23438 0.1875-0.074219 0.042969-0.16406 0.0625-0.26562 0.0625-0.17969 0-0.32812-0.070312-0.45312-0.21875-0.11719-0.14453-0.17188-0.32812-0.17188-0.54688s0.054688-0.39844 0.17188-0.54688c0.125-0.14453 0.27344-0.21875 0.45312-0.21875 0.10156 0 0.19141 0.023438 0.26562 0.0625 0.082031 0.042969 0.16016 0.10547 0.23438 0.1875v-0.21875h0.48438v1.3438c0 0.23828-0.078125 0.42188-0.23438 0.54688-0.15625 0.13281-0.375 0.20312-0.65625 0.20312-0.09375 0-0.1875-0.011719-0.28125-0.03125-0.085938-0.011719-0.16797-0.03125-0.25-0.0625v-0.375c0.082031 0.050781 0.16016 0.085938 0.23438 0.10938 0.082031 0.03125 0.16406 0.046875 0.25 0.046875 0.15625 0 0.26953-0.039062 0.34375-0.10938 0.070313-0.074219 0.10938-0.17969 0.10938-0.32812zm-0.3125-0.9375c-0.10547 0-0.18359 0.039062-0.23438 0.10938-0.054687 0.074219-0.078125 0.17969-0.078125 0.3125 0 0.13672 0.023438 0.24219 0.078125 0.3125 0.050781 0.074219 0.12891 0.10938 0.23438 0.10938 0.09375 0 0.16406-0.035156 0.21875-0.10938 0.0625-0.070313 0.09375-0.17578 0.09375-0.3125 0-0.13281-0.03125-0.23828-0.09375-0.3125-0.054688-0.070313-0.125-0.10938-0.21875-0.10938z"/>
  </symbol>
  <symbol id="r" overflow="visible">
   <path d="m1.2188-2.0781v0.3125h-0.26562c-0.074219 0-0.125 0.015625-0.15625 0.046875-0.023437 0.023438-0.03125 0.0625-0.03125 0.125v0.09375h0.40625v0.34375h-0.40625v1.1562h-0.46875v-1.1562h-0.25v-0.34375h0.25v-0.09375c0-0.16406 0.039063-0.28516 0.125-0.35938 0.09375-0.082031 0.23438-0.125 0.42188-0.125z"/>
  </symbol>
  <symbol id="g" overflow="visible">
   <path d="m0.9375-1.1875c-0.10547 0-0.1875 0.039062-0.25 0.10938-0.054688 0.074219-0.078125 0.18359-0.078125 0.32812 0 0.14844 0.023437 0.26172 0.078125 0.34375 0.0625 0.074219 0.14453 0.10938 0.25 0.10938 0.10156 0 0.17969-0.035156 0.23438-0.10938 0.0625-0.082031 0.09375-0.19531 0.09375-0.34375 0-0.14453-0.03125-0.25391-0.09375-0.32812-0.054687-0.070313-0.13281-0.10938-0.23438-0.10938zm0-0.34375c0.25781 0 0.46094 0.074219 0.60938 0.21875 0.14453 0.13672 0.21875 0.32422 0.21875 0.5625 0 0.25-0.074219 0.44531-0.21875 0.57812-0.14844 0.13672-0.35156 0.20312-0.60938 0.20312-0.26172 0-0.46484-0.066406-0.60938-0.20312-0.13672-0.13281-0.20312-0.32812-0.20312-0.57812 0-0.23828 0.066406-0.42578 0.20312-0.5625 0.14453-0.14453 0.34766-0.21875 0.60938-0.21875z"/>
  </symbol>
  <symbol id="q" overflow="visible">
   <path d="m1.6094-1.25c0.0625-0.09375 0.13281-0.16016 0.21875-0.20312 0.082031-0.050781 0.17578-0.078125 0.28125-0.078125 0.16406 0 0.29688 0.054688 0.39062 0.15625 0.09375 0.10547 0.14062 0.26172 0.14062 0.46875v0.90625h-0.48438v-0.78125-0.03125-0.0625c0-0.10156-0.015625-0.17578-0.046875-0.21875-0.03125-0.050781-0.085937-0.078125-0.15625-0.078125-0.085937 0-0.15234 0.039063-0.20312 0.10938-0.054688 0.074219-0.078125 0.18359-0.078125 0.32812v0.73438h-0.48438v-0.78125c0-0.16406-0.015625-0.26953-0.046875-0.3125-0.023437-0.050781-0.070313-0.078125-0.14062-0.078125-0.09375 0-0.16797 0.042969-0.21875 0.125-0.054688 0.074219-0.078125 0.17969-0.078125 0.3125v0.73438h-0.46875v-1.5h0.46875v0.21875c0.0625-0.082031 0.12891-0.14453 0.20312-0.1875 0.082031-0.039062 0.16406-0.0625 0.25-0.0625 0.10156 0 0.19141 0.027344 0.26562 0.078125 0.082031 0.054687 0.14453 0.12109 0.1875 0.20312z"/>
  </symbol>
  <symbol id="p" overflow="visible">
   <path d="m0.25-2h0.57812l0.71875 1.375v-1.375h0.48438v2h-0.5625l-0.73438-1.375v1.375h-0.48438z"/>
  </symbol>
  <symbol id="o" overflow="visible">
   <path d="m0.21875-0.57812v-0.92188h0.46875v0.15625 0.3125 0.23438 0.26562c0.007812 0.054688 0.023438 0.089844 0.046875 0.10938 0.019531 0.03125 0.046875 0.058594 0.078125 0.078125 0.03125 0.011719 0.066406 0.015625 0.10938 0.015625 0.09375 0 0.16406-0.035156 0.21875-0.10938 0.0625-0.070312 0.09375-0.17578 0.09375-0.3125v-0.75h0.48438v1.5h-0.48438v-0.21875c-0.074219 0.09375-0.15234 0.16406-0.23438 0.20312-0.074219 0.03125-0.15625 0.046875-0.25 0.046875-0.17969 0-0.3125-0.050781-0.40625-0.15625-0.085938-0.10156-0.125-0.25391-0.125-0.45312z"/>
  </symbol>
  <symbol id="n" overflow="visible">
   <path d="m0.25-2h0.85938c0.25 0 0.44141 0.058594 0.57812 0.17188 0.13281 0.11719 0.20312 0.27734 0.20312 0.48438 0 0.21094-0.070313 0.37109-0.20312 0.48438-0.13672 0.11719-0.32812 0.17188-0.57812 0.17188h-0.34375v0.6875h-0.51562zm0.51562 0.375v0.5625h0.28125c0.10156 0 0.17969-0.019531 0.23438-0.0625 0.050781-0.050781 0.078125-0.125 0.078125-0.21875s-0.027344-0.16016-0.078125-0.20312c-0.054688-0.050781-0.13281-0.078125-0.23438-0.078125z"/>
  </symbol>
  <symbol id="m" overflow="visible">
   <path d="m0.23438-1.5h0.46875v1.4688c0 0.20703-0.046875 0.36328-0.14062 0.46875-0.09375 0.10156-0.23438 0.15625-0.42188 0.15625h-0.23438v-0.3125h0.078125c0.09375 0 0.15625-0.023438 0.1875-0.0625 0.039063-0.042969 0.0625-0.125 0.0625-0.25zm0-0.57812h0.46875v0.39062h-0.46875z"/>
  </symbol>
  <symbol id="l" overflow="visible">
   <path d="m1.4375-1.4531v0.39062c-0.0625-0.039062-0.13281-0.070312-0.20312-0.09375-0.0625-0.019531-0.13281-0.03125-0.20312-0.03125-0.125 0-0.23047 0.042969-0.3125 0.125-0.074219 0.074219-0.10938 0.17969-0.10938 0.3125 0 0.14844 0.035156 0.26172 0.10938 0.34375 0.082031 0.074219 0.1875 0.10938 0.3125 0.10938 0.082031 0 0.15625-0.007813 0.21875-0.03125 0.070312-0.03125 0.13281-0.066406 0.1875-0.10938v0.39062c-0.074219 0.03125-0.15234 0.050781-0.23438 0.0625-0.074219 0.0078125-0.14844 0.015625-0.21875 0.015625-0.27344 0-0.48438-0.066406-0.64062-0.20312-0.14844-0.13281-0.21875-0.32812-0.21875-0.57812 0-0.23828 0.070312-0.42578 0.21875-0.5625 0.15625-0.14453 0.36719-0.21875 0.64062-0.21875 0.070313 0 0.14453 0.011719 0.21875 0.03125 0.082031 0.011719 0.16016 0.027344 0.23438 0.046875z"/>
  </symbol>
 </defs>
 <g>
  <path d="m561.37 508.59h-12.414-33.633-49.383-59.664-64.422-63.766-57.586-45.938-28.82-6.2891-0.82031c-2.0781 0 0-0.054688 0 0.054688 0 0.10937-1.8594-0.76563-0.054687 0.10937-0.27344-0.10937-0.71094-0.32812-0.92969-0.54687-0.71094-0.71094 0.16406 0.32812 0.27344 0.21875-0.10938 0.054687-0.82031-0.98438-0.10938 0.054687-0.27344-0.38281-0.49219-0.82031-0.71094-1.2031 0.21875 0.4375 0.10938 0.92969 0.21875 0.27344 0.10938-0.875-0.10937 1.2031-0.054687-0.38281v-0.21875c0.054687-4.8125 0-9.625 0-14.438v-33.906-48.672-58.68-63.984-64.477-60.32-51.352-37.68-19.195-1.4219-0.10938c-0.054687-1.5859 0.054687 0.49219 0.054687-0.38281 0-0.76563-0.054687 0-0.21875 0.27344 0.21875-0.4375 0.4375-0.82031 0.71094-1.2031-0.054688 0.10938-0.65625 1.0938-0.16406 0.32812 0.60156-0.98438-0.875 0.76562 0-0.054687 0.21875-0.21875 0.65625-0.38281 0.92969-0.54688-1.8047 0.875 0.054687 0 0.054687 0.10938 0 0.10937-2.0781 0.054687 0 0.054687h3.4453 24.062 42.492 55.398 62.836 64.75 61.25 52.227 37.789c5.9609 0 11.867-0.054687 17.828 0h0.54687c0.65625 0 0.98438 0.4375 0.16406-0.054687 1.3125 0.71094 0.38281 0.054687 0.054687-0.10938 0.4375 0.21875 0.82031 0.4375 1.2031 0.71094-0.10938-0.054688-1.0938-0.65625-0.32813-0.16406 0.98438 0.60156-0.76562-0.875 0.054688 0 0.21875 0.21875 0.38281 0.65625 0.54688 0.92969-0.875-1.8047 0 0.054687-0.10938 0.054687s-0.054688-2.0781-0.054688 0v0.27344 4.6484 25.102 42.109 54.414 62.016 64.859 62.945 56.273 44.898 28.656 6.7266 1.3672 0.16406c0 2.0781-0.054687 0 0.054688 0s-0.76562 1.8594 0.10938 0.054687c-0.16406 0.27344-0.32812 0.65625-0.54688 0.92969-0.76562 0.875 0.98438-0.65625-0.054688 0-0.76562 0.49219 0.21875-0.054687 0.32813-0.16406-0.38281 0.27344-0.82031 0.49219-1.2031 0.71094 1.1484-0.49219-0.054687 0.054687-0.10937-0.054688 0 0 2.0781-0.054688 0 0-4.2656 0.16406-8.4219 3.6641-8.2031 8.2031 0.21875 4.3203 3.6094 8.3672 8.2031 8.2031 10.391-0.38281 17.719-8.4766 17.773-18.703v-6.2891-28.219-44.734-56.711-63.383-65.352-62.508-55.016-42.164-24.719c0-1.4219 0.054687-2.8438 0-4.3203-0.27344-10.117-8.0938-17.773-18.211-17.883-5.5781-0.054688-11.211 0-16.789 0h-37.352-52.281-61.852-65.297-63.328-56-42.547-23.734c-1.5312 0-3.0078-0.054688-4.5391 0.10938-9.8984 0.98438-16.297 9.0781-16.352 18.703-0.054687 6.125 0 12.25 0 18.375v37.297 51.625 60.648 65.023 64.531 59.391 48.891 33.742c0 4.5938-0.16406 9.1875 0 13.781 0.32812 10.117 8.1484 17.773 18.266 17.883h5.6875 28.109 45.773 58.078 64.203 65.242 60.102 49.656 33.523 11.812c4.2656 0 8.4219-3.7734 8.2031-8.2031-0.16406-4.4297-3.5547-8.2031-8.1484-8.2031z"/>
  <path d="m129.06 119.22h11.867 32.047 47.633 58.133 63.383 64.258 59.664 50.641 36.422c5.7422 0 11.43 0.10938 17.172 0h0.76562c4.2656 0 8.4219-3.7734 8.2031-8.2031s-3.6094-8.2031-8.2031-8.2031h-11.867-32.047-47.633-58.133-63.383-64.258-59.664-50.641-36.422c-5.7422 0-11.43-0.10938-17.172 0h-0.76562c-4.2656 0-8.4219 3.7734-8.2031 8.2031s3.6094 8.2031 8.2031 8.2031z"/>
  <path d="m501.48 315.05c-0.054687 4.1562-0.16406 8.3672-0.49219 12.523-0.16406 2.0234-0.32813 3.9922-0.60156 6.0156-0.054687 0.49219-0.10938 0.98438-0.16406 1.4766-0.16406 1.3125 0.16406-1.2578 0 0.054688-0.16406 1.0938-0.32812 2.2422-0.49219 3.3359-1.3125 8.0391-3.2266 15.969-5.6875 23.68-1.2031 3.7188-2.5156 7.3828-3.9922 10.938-0.16406 0.4375-0.38281 0.875-0.54688 1.3672 0.60156-1.4219 0.10938-0.21875 0 0.054688-0.38281 0.875-0.76562 1.75-1.2031 2.625-0.875 1.8594-1.75 3.7188-2.6797 5.5234-3.5547 7.0547-7.6562 13.891-12.195 20.344-1.0391 1.4766-2.0781 2.8984-3.1719 4.3203-0.92969 1.2578-0.21875 0.27344-0.054687 0.054688-0.27344 0.38281-0.60156 0.76562-0.875 1.1484-0.76562 0.92969-1.4766 1.8594-2.2422 2.7891-2.4609 2.9531-4.9766 5.7969-7.6016 8.5312-2.7344 2.8438-5.5781 5.5781-8.4766 8.2031-1.4219 1.2578-2.8438 2.5156-4.3203 3.7734-0.71094 0.60156-1.4766 1.2031-2.1875 1.8047-0.4375 0.38281-2.6797 2.0781-1.4219 1.1484-6.2891 4.8125-12.906 9.1328-19.797 12.961-3.3906 1.8594-6.7812 3.6094-10.281 5.25-0.875 0.38281-1.75 0.82031-2.625 1.2031-0.4375 0.21875-0.875 0.38281-1.3125 0.60156 1.4219-0.60156 0.21875-0.10938-0.054688 0-1.9141 0.76562-3.8281 1.5312-5.7422 2.2422-7.4922 2.7344-15.148 4.9219-22.969 6.5625-1.9688 0.38281-3.8828 0.76562-5.8516 1.0938-0.98437 0.16406-1.9688 0.32812-2.9531 0.4375-0.49219 0.054687-0.98438 0.16406-1.4766 0.21875 1.8047-0.27344-0.65625 0.054687-0.82031 0.10937-3.9922 0.49219-8.0391 0.82031-12.086 0.98438-8.4219 0.38281-16.898 0.054687-25.266-0.875-0.49219-0.054688-3.1719-0.38281-1.5859-0.16406-0.98437-0.16406-1.9688-0.27344-3.0078-0.4375-1.9688-0.32812-3.9375-0.65625-5.9062-1.0391-4.1562-0.82031-8.2578-1.8047-12.305-2.9531-3.7734-1.0391-7.5469-2.2422-11.211-3.6094-1.8594-0.65625-3.6641-1.3672-5.4688-2.0781-0.4375-0.16406-0.875-0.38281-1.3672-0.54688 0.32812 0.10938 1.4219 0.60156-0.054688-0.054687-0.98438-0.4375-2.0234-0.875-3.0078-1.3125-7.1641-3.2812-14.055-7.0547-20.617-11.375-3.4453-2.2422-6.7812-4.5938-10.008-7.0547 1.2031 0.92969-0.54688-0.4375-0.875-0.71094-0.76563-0.60156-1.4766-1.2031-2.2422-1.8047-1.5859-1.3125-3.1172-2.625-4.6484-3.9922-5.9062-5.25-11.43-10.992-16.461-17.062-0.60156-0.76562-1.2031-1.4766-1.8047-2.2422-0.32813-0.38281-1.8594-2.4062-0.92969-1.1484-1.1484-1.5312-2.2969-3.0625-3.4453-4.6484-2.3516-3.3359-4.5938-6.7812-6.7266-10.281-1.9688-3.3359-3.8828-6.7266-5.5781-10.172-0.875-1.75-1.6953-3.5-2.5156-5.25-0.38281-0.875-0.82031-1.75-1.2031-2.6797-0.21875-0.4375-0.38281-0.875-0.60156-1.3125 0.4375 1.0938 0.10937 0.16406-0.16406-0.38281-3.0078-7.3828-5.4688-14.984-7.3281-22.75-0.98438-4.1016-1.8047-8.2578-2.4609-12.469-0.10937-0.875-0.27344-1.75-0.38281-2.625-0.16406-1.3125 0.16406 1.2578 0-0.054688-0.054688-0.49219-0.10938-0.98438-0.16406-1.4766-0.27344-2.1328-0.4375-4.2656-0.60156-6.4531-0.65625-8.6406-0.60156-17.336 0.10938-25.977 0.16406-2.0234 0.38281-3.9922 0.60156-6.0156 0.054688-0.32812 0.21875-1.6406 0-0.054687 0.054688-0.49219 0.16406-0.98438 0.21875-1.4766 0.16406-0.98438 0.27344-1.9688 0.4375-2.9531 0.71094-4.1562 1.5312-8.2578 2.5703-12.359 1.9141-7.7109 4.4297-15.203 7.4375-22.531 0.49219-1.2031-0.49219 1.1484 0-0.054687 0.21875-0.4375 0.38281-0.875 0.60156-1.3125 0.38281-0.875 0.76562-1.75 1.2031-2.625 0.875-1.8594 1.75-3.7188 2.6797-5.5234 1.75-3.3906 3.6094-6.7812 5.6328-10.062 2.0781-3.3906 4.2109-6.6719 6.5078-9.8984 0.54688-0.76562 1.0938-1.5312 1.6953-2.2969 0.27344-0.38281 0.54687-0.76563 0.875-1.1484 0.10937-0.16406 1.0391-1.3672 0.4375-0.60156-0.60156 0.76562 0.32812-0.38281 0.4375-0.60156 0.27344-0.38281 0.60156-0.76562 0.875-1.0938 0.65625-0.82031 1.3672-1.6406 2.0234-2.4609 5.0312-6.0156 10.555-11.648 16.461-16.898 1.4219-1.2578 2.8984-2.5156 4.375-3.7188 0.65625-0.54688 1.3125-1.0391 1.9688-1.5859 0.38281-0.27344 0.76563-0.60156 1.1484-0.875 0.71094-0.60156-0.875 0.65625 0.32812-0.27344 3.1719-2.3516 6.3438-4.6484 9.6797-6.7812 6.5078-4.4844 13.453-8.3125 20.672-11.594 0.875-0.38281 1.75-0.76562 2.625-1.1484 1.1484-0.49219-1.1484 0.49219 0.054687 0 0.4375-0.16406 0.875-0.38281 1.3672-0.54688 1.9141-0.76562 3.8281-1.5312 5.7969-2.1875 3.6641-1.3125 7.3828-2.5156 11.156-3.5547 3.9375-1.0938 7.875-2.0234 11.867-2.8438 1.9688-0.38281 3.8828-0.71094 5.8516-1.0391 0.98437-0.16406 1.9688-0.32812 2.9531-0.4375 1.3125-0.16406-1.2578 0.16406 0.054688 0 0.60156-0.054687 1.2578-0.16406 1.8594-0.21875 8.3672-0.92969 16.789-1.2578 25.156-0.875 4.0469 0.16406 8.0938 0.49219 12.141 0.98438 0.49219 0.054687 0.98438 0.10937 1.4766 0.16406-1.5312-0.21875-0.27344-0.054688 0.054688 0 0.98438 0.16406 1.9688 0.27344 2.9531 0.4375 2.0781 0.32812 4.1562 0.71094 6.2344 1.1484 7.9297 1.6406 15.75 3.8281 23.352 6.6719 1.6953 0.65625 3.3906 1.3125 5.0859 1.9688 1.4766 0.60156 0.38281 0.16406 0.054688 0 0.4375 0.16406 0.875 0.38281 1.3125 0.60156 1.0938 0.49219 2.1875 0.98438 3.3359 1.4766 3.5 1.6406 6.9453 3.3906 10.336 5.25 3.4453 1.9141 6.8359 3.9922 10.172 6.1797 1.5859 1.0391 3.1719 2.1328 4.7578 3.2266 0.76562 0.54687 1.5312 1.0938 2.3516 1.6953 0.32813 0.21875 2.7891 2.1328 1.4766 1.0938 6.2344 4.8125 12.086 10.117 17.555 15.859 2.625 2.7891 5.1953 5.6328 7.6016 8.5859 0.60156 0.71094 1.2031 1.4766 1.8047 2.2422 0.21875 0.27344 1.9141 2.5156 0.92969 1.1484 1.2031 1.6406 2.4609 3.2812 3.6094 4.9219 4.5938 6.5078 8.6406 13.344 12.195 20.398 0.82031 1.6406 1.5859 3.2812 2.3516 4.9219 0.38281 0.875 0.82031 1.75 1.2031 2.6797 0.21875 0.4375 0.38281 0.875 0.60156 1.3125-0.71094-1.6406 0.21875 0.60156 0.27344 0.71094 1.4766 3.6094 2.7891 7.2734 3.9922 10.992 2.5156 7.7656 4.375 15.75 5.6328 23.789 0.16406 0.98438 0.32812 1.9688 0.4375 2.9531-0.21875-1.75 0.10938 1.2031 0.16406 1.5859 0.21875 2.0234 0.4375 4.0469 0.54687 6.0156 0.4375 4.0469 0.54688 8.1484 0.60156 12.25 0.054687 4.2656 3.7734 8.4219 8.2031 8.2031s8.2578-3.6094 8.2031-8.2031c-0.27344-34.508-10.664-68.633-30.734-96.797-19.906-27.891-47.742-49.219-79.898-61.031-32.758-12.031-69.562-13.18-103.14-3.6641-32.266 9.1875-61.742 28.273-83.125 54.195-22.039 26.742-35.438 59.445-38.281 94.008-2.8984 34.891 5.5781 70.547 23.789 100.46 17.391 28.602 43.477 52.008 74.102 65.734 32.539 14.602 68.961 18.703 103.96 11.484 33.031-6.7812 63.82-24.062 87.008-48.453 23.297-24.5 39.211-56.055 44.297-89.578 1.3125-8.75 2.0234-17.445 2.1328-26.305 0.054688-4.2656-3.7734-8.4219-8.2031-8.2031-4.5938 0.10938-8.2578 3.5-8.3125 8.1484z"/>
  <path d="m275.95 238.98c-3.4453 3.1172-6.0703 7.6016-7.9297 11.758-5.0312 11.156-6.2891 23.406-4.7031 35.492 1.2031 9.0781 3.5547 17.883 7 26.414 3.8828 9.625 8.4219 18.211 11.266 28.273 1.0391 3.7188 1.75 7.4922 2.4609 11.32 0.21875 1.2578-0.10938-1.3672 0-0.10938 0.054687 0.4375 0.10938 0.875 0.16406 1.3672 0.054687 0.76562 0.16406 1.5312 0.16406 2.2969 0.10938 1.6406 0.16406 3.2812 0.10938 4.8672 0 1.4219-0.10938 2.7891-0.21875 4.2109-0.054687 0.54688 0 1.3125-0.21875 1.8047 0.54688-1.2578 0.21875-1.4766 0.054687-0.65625-0.054687 0.38281-0.10937 0.82031-0.21875 1.2031-0.4375 2.2422-0.98437 4.4297-1.75 6.6172-0.16406 0.49219-0.38281 0.98438-0.54687 1.4766-0.4375 1.1484 0.98437-2.0234 0-0.10937-0.4375 0.875-0.82031 1.6953-1.3125 2.5156-0.4375 0.71094-0.875 1.4219-1.3125 2.1328l-0.65625 0.98438c-0.875 1.2578 1.2578-1.5312 0.54687-0.71094-0.71094 0.76563-1.3125 1.5859-2.0781 2.2422-0.71094 0.65625-2.3516 1.8594 0.76562-0.49219-3.5547 2.6797-5.3594 7.0547-2.9531 11.211 2.0234 3.5 7.6562 5.6328 11.211 2.9531 14.109-10.664 16.352-30.789 14.109-47.031-1.1484-8.4219-3.6094-16.57-6.7812-24.391-3.8828-9.6797-8.4766-18.32-11.266-28.438-0.54688-1.9688-1.0391-3.9922-1.4766-6.0156-0.16406-0.875-0.38281-1.75-0.49219-2.6797-0.054687-0.4375-0.54688-3.6641-0.32812-1.8594-0.4375-3.3906-0.65625-6.8359-0.60156-10.227 0-1.4766 0.10937-2.9531 0.21875-4.375 0.054687-0.65625 0.16406-1.2578 0.21875-1.9141 0.10937-1.1484-0.32813 1.6953-0.054688 0.60156 0.10938-0.4375 0.10938-0.875 0.21875-1.2578 0.4375-2.2969 0.98438-4.5938 1.6953-6.8906 0.21875-0.60156 0.38281-1.2031 0.60156-1.8047 0.10938-0.27344 0.21875-0.49219 0.27344-0.76562 0.49219-1.2578-0.10937 0.38281-0.32812 0.71094 0.54687-0.82031 0.875-1.8594 1.3125-2.7344 0.76562-1.5312 1.6406-2.9531 2.625-4.3203 0.16406-0.27344 0.38281-0.49219 0.54687-0.76562 0.4375-0.65625-1.5859 1.9141-0.60156 0.76562 0.27344-0.32812 0.60156-0.71094 0.875-1.0391 0.27344-0.27344 0.54688-0.60156 0.875-0.875 3.2812-2.9531 3.0078-8.5859 0-11.594-3.1172-3.4453-8.1484-3.1172-11.484-0.16406z"/>
  <path d="m344.2 236.47c-3.4453 3.1172-6.0703 7.6016-7.9297 11.758-5.0312 11.156-6.2891 23.406-4.7031 35.492 1.2031 9.0781 3.5547 17.883 7 26.414 3.8828 9.625 8.4219 18.211 11.266 28.273 1.0391 3.7188 1.75 7.4922 2.4609 11.32 0.21875 1.2578-0.10938-1.3672 0-0.10937 0.054687 0.4375 0.10938 0.875 0.16406 1.3672 0.054687 0.76562 0.16406 1.5312 0.16406 2.2969 0.10938 1.6406 0.16406 3.2812 0.10938 4.8672 0 1.4219-0.10938 2.7891-0.21875 4.2109-0.054687 0.54688 0 1.3125-0.21875 1.8047 0.54688-1.2578 0.21875-1.4766 0.054687-0.65625-0.054687 0.38281-0.10937 0.82031-0.21875 1.2031-0.4375 2.2422-0.98437 4.4297-1.75 6.6172-0.16406 0.49219-0.38281 0.98438-0.54687 1.4766-0.4375 1.1484 0.98437-2.0234 0-0.10938-0.4375 0.875-0.82031 1.6953-1.3125 2.5156-0.4375 0.71094-0.875 1.4219-1.3125 2.1328l-0.65625 0.98438c-0.875 1.2578 1.2578-1.5312 0.54687-0.71094-0.71094 0.76562-1.3125 1.5859-2.0781 2.2422-0.71094 0.65625-2.3516 1.8594 0.76562-0.49219-3.5547 2.6797-5.3594 7.0547-2.9531 11.211 2.0234 3.5 7.6562 5.6328 11.211 2.9531 14.109-10.664 16.352-30.789 14.109-47.031-1.1484-8.4219-3.6094-16.57-6.7812-24.391-3.8828-9.6797-8.4766-18.32-11.266-28.438-0.54688-1.9688-1.0391-3.9922-1.4766-6.0156-0.16406-0.875-0.38281-1.75-0.49219-2.6797-0.054687-0.4375-0.54688-3.6641-0.32812-1.8594-0.4375-3.3906-0.65625-6.8359-0.60156-10.227 0-1.4766 0.10937-2.9531 0.21875-4.375 0.054687-0.65625 0.16406-1.2578 0.21875-1.9141 0.10937-1.1484-0.32813 1.6953-0.054688 0.60156 0.10938-0.4375 0.10938-0.875 0.21875-1.2578 0.4375-2.2969 0.98438-4.5938 1.6953-6.8906 0.21875-0.60156 0.38281-1.2031 0.60156-1.8047 0.10938-0.27344 0.21875-0.49219 0.27344-0.76562 0.49219-1.2578-0.10937 0.38281-0.32812 0.71094 0.54687-0.82031 0.875-1.8594 1.3125-2.7344 0.76562-1.5312 1.6406-2.9531 2.625-4.3203 0.16406-0.27344 0.38281-0.49219 0.54687-0.76562 0.4375-0.65625-1.5859 1.9141-0.60156 0.76562 0.27344-0.32812 0.60156-0.71094 0.875-1.0391 0.27344-0.27344 0.54688-0.60156 0.875-0.875 3.2812-2.9531 3.0078-8.5859 0-11.594-3.1719-3.4453-8.2031-3.1172-11.484-0.16406z"/>
  <path d="m412.45 235.48c-3.4453 3.1172-6.0703 7.6016-7.9297 11.758-5.0312 11.156-6.2891 23.406-4.7031 35.492 1.2031 9.0781 3.5547 17.883 7 26.414 3.8828 9.625 8.4219 18.211 11.266 28.273 1.0391 3.7188 1.75 7.4922 2.4609 11.32 0.21875 1.2578-0.10938-1.3672 0-0.10938 0.054687 0.4375 0.10938 0.875 0.16406 1.3672 0.054687 0.76562 0.16406 1.5312 0.16406 2.2969 0.10938 1.6406 0.16406 3.2812 0.10938 4.8672 0 1.4219-0.10938 2.7891-0.21875 4.2109-0.054687 0.54688 0 1.3125-0.21875 1.8047 0.54688-1.2578 0.21875-1.4766 0.054687-0.65625-0.054687 0.38281-0.10937 0.82031-0.21875 1.2031-0.4375 2.2422-0.98437 4.4297-1.75 6.6172-0.16406 0.49219-0.38281 0.98438-0.54687 1.4766-0.4375 1.1484 0.98437-2.0234 0-0.10937-0.4375 0.875-0.82031 1.6953-1.3125 2.5156-0.4375 0.71094-0.875 1.4219-1.3125 2.1328l-0.65625 0.98438c-0.875 1.2578 1.2578-1.5312 0.54687-0.71094-0.71094 0.76563-1.3125 1.5859-2.0781 2.2422-0.71094 0.65625-2.3516 1.8594 0.76562-0.49219-3.5547 2.6797-5.3594 7.0547-2.9531 11.211 2.0234 3.5 7.6562 5.6328 11.211 2.9531 14.109-10.664 16.352-30.789 14.109-47.031-1.1484-8.4219-3.6094-16.57-6.7812-24.391-3.8828-9.6797-8.4766-18.32-11.266-28.438-0.54688-1.9688-1.0391-3.9922-1.4766-6.0156-0.16406-0.875-0.38281-1.75-0.49219-2.6797-0.054687-0.4375-0.54688-3.6641-0.32812-1.8594-0.4375-3.3906-0.65625-6.8359-0.60156-10.227 0-1.4766 0.10937-2.9531 0.21875-4.375 0.054687-0.65625 0.16406-1.2578 0.21875-1.9141 0.10937-1.1484-0.32813 1.6953-0.054688 0.60156 0.10938-0.4375 0.10938-0.875 0.21875-1.2578 0.4375-2.2969 0.98438-4.5938 1.6953-6.8906 0.21875-0.60156 0.38281-1.2031 0.60156-1.8047 0.10938-0.27344 0.21875-0.49219 0.27344-0.76562 0.49219-1.2578-0.10937 0.38281-0.32812 0.71094 0.54687-0.82031 0.875-1.8594 1.3125-2.7344 0.76562-1.5312 1.6406-2.9531 2.625-4.3203 0.16406-0.27344 0.38281-0.49219 0.54687-0.76562 0.4375-0.65625-1.5859 1.9141-0.60156 0.76562 0.27344-0.32812 0.60156-0.71094 0.875-1.0391 0.27344-0.27344 0.54688-0.60156 0.875-0.875 3.2812-2.9531 3.0078-8.5859 0-11.594-3.1719-3.4453-8.2031-3.1719-11.484-0.16406z"/>
  <use x="70" y="568.203125" xlink:href="#v"/>
  <use x="72.007812" y="568.203125" xlink:href="#f"/>
  <use x="73.355469" y="568.203125" xlink:href="#a"/>
  <use x="75.210937" y="568.203125" xlink:href="#e"/>
  <use x="77.054688" y="568.203125" xlink:href="#d"/>
  <use x="78.363281" y="568.203125" xlink:href="#a"/>
  <use x="80.214844" y="568.203125" xlink:href="#k"/>
  <use x="83.125" y="568.203125" xlink:href="#j"/>
  <use x="85.082031" y="568.203125" xlink:href="#i"/>
  <use x="87.816406" y="568.203125" xlink:href="#c"/>
  <use x="89.445312" y="568.203125" xlink:href="#b"/>
  <use x="91.390625" y="568.203125" xlink:href="#e"/>
  <use x="93.238281" y="568.203125" xlink:href="#c"/>
  <use x="94.863281" y="568.203125" xlink:href="#b"/>
  <use x="96.8125" y="568.203125" xlink:href="#e"/>
  <use x="98.65625" y="568.203125" xlink:href="#h"/>
  <use x="100.601562" y="568.203125" xlink:href="#u"/>
  <use x="103.375" y="568.203125" xlink:href="#c"/>
  <use x="105" y="568.203125" xlink:href="#t"/>
  <use x="105.9375" y="568.203125" xlink:href="#h"/>
  <use x="107.882812" y="568.203125" xlink:href="#s"/>
  <use x="109.84375" y="568.203125" xlink:href="#b"/>
  <use x="70" y="570.9375" xlink:href="#r"/>
  <use x="71.191406" y="570.9375" xlink:href="#f"/>
  <use x="72.539062" y="570.9375" xlink:href="#g"/>
  <use x="74.417969" y="570.9375" xlink:href="#q"/>
  <use x="78.21875" y="570.9375" xlink:href="#d"/>
  <use x="79.523438" y="570.9375" xlink:href="#b"/>
  <use x="81.472656" y="570.9375" xlink:href="#a"/>
  <use x="84.277344" y="570.9375" xlink:href="#p"/>
  <use x="86.566406" y="570.9375" xlink:href="#g"/>
  <use x="88.445312" y="570.9375" xlink:href="#o"/>
  <use x="90.390625" y="570.9375" xlink:href="#h"/>
  <use x="93.289062" y="570.9375" xlink:href="#n"/>
  <use x="95.292969" y="570.9375" xlink:href="#f"/>
  <use x="96.644531" y="570.9375" xlink:href="#g"/>
  <use x="98.519531" y="570.9375" xlink:href="#m"/>
  <use x="99.457031" y="570.9375" xlink:href="#a"/>
  <use x="101.3125" y="570.9375" xlink:href="#l"/>
  <use x="102.933594" y="570.9375" xlink:href="#d"/>
 </g>
</svg>
