<?xml version="1.0" encoding="UTF-8"?>
<svg width="700pt" height="700pt" version="1.1" viewBox="0 0 700 700" xmlns="http://www.w3.org/2000/svg" xmlns:xlink="http://www.w3.org/1999/xlink">
 <defs>
  <symbol id="v" overflow="visible">
   <path d="m1.8281-0.10938c-0.09375 0.054688-0.19531 0.089844-0.29688 0.10938-0.09375 0.019531-0.19922 0.03125-0.3125 0.03125-0.33594 0-0.60156-0.085938-0.79688-0.26562-0.1875-0.1875-0.28125-0.44141-0.28125-0.76562 0-0.3125 0.09375-0.5625 0.28125-0.75 0.19531-0.1875 0.46094-0.28125 0.79688-0.28125 0.11328 0 0.21875 0.015625 0.3125 0.046875 0.10156 0.023437 0.20312 0.058594 0.29688 0.10938v0.40625c-0.09375-0.0625-0.1875-0.10938-0.28125-0.14062s-0.19531-0.046875-0.29688-0.046875c-0.17969 0-0.32031 0.0625-0.42188 0.1875-0.10547 0.11719-0.15625 0.27344-0.15625 0.46875 0 0.21094 0.050781 0.375 0.15625 0.5 0.10156 0.11719 0.24219 0.17188 0.42188 0.17188 0.10156 0 0.20312-0.015625 0.29688-0.046875s0.1875-0.078125 0.28125-0.14062z"/>
  </symbol>
  <symbol id="f" overflow="visible">
   <path d="m1.3438-1.0938c-0.042969-0.019531-0.085938-0.03125-0.125-0.03125-0.042969-0.007812-0.085938-0.015625-0.125-0.015625-0.125 0-0.22656 0.042969-0.29688 0.125-0.0625 0.074219-0.09375 0.18359-0.09375 0.32812v0.6875h-0.46875v-1.5h0.46875v0.25c0.0625-0.09375 0.12891-0.16016 0.20312-0.20312 0.082031-0.050781 0.17969-0.078125 0.29688-0.078125h0.046875c0.019531 0 0.050781 0.007812 0.09375 0.015625z"/>
  </symbol>
  <symbol id="a" overflow="visible">
   <path d="m1.7188-0.75v0.14062h-1.1094c0.007813 0.10547 0.046875 0.1875 0.10938 0.25 0.070312 0.054687 0.17188 0.078125 0.29688 0.078125 0.10156 0 0.20703-0.015625 0.3125-0.046875 0.10156-0.03125 0.21094-0.070313 0.32812-0.125v0.35938c-0.11719 0.042969-0.23047 0.074219-0.34375 0.09375-0.11719 0.019531-0.23047 0.03125-0.34375 0.03125-0.27344 0-0.48047-0.066406-0.625-0.20312-0.14844-0.13281-0.21875-0.32812-0.21875-0.57812 0-0.23828 0.070312-0.42578 0.21875-0.5625 0.14453-0.14453 0.34766-0.21875 0.60938-0.21875 0.22656 0 0.41016 0.074219 0.54688 0.21875 0.14453 0.13672 0.21875 0.32422 0.21875 0.5625zm-0.48438-0.15625c0-0.09375-0.027344-0.16406-0.078125-0.21875-0.054688-0.0625-0.125-0.09375-0.21875-0.09375-0.085938 0-0.15625 0.027344-0.21875 0.078125-0.0625 0.054687-0.10156 0.13281-0.10938 0.23438z"/>
  </symbol>
  <symbol id="e" overflow="visible">
   <path d="m0.90625-0.67188c-0.10547 0-0.18359 0.015625-0.23438 0.046875-0.054687 0.03125-0.078125 0.085938-0.078125 0.15625 0 0.0625 0.019531 0.10938 0.0625 0.14062 0.039062 0.03125 0.097656 0.046875 0.17188 0.046875 0.09375 0 0.16406-0.03125 0.21875-0.09375 0.0625-0.0625 0.09375-0.14453 0.09375-0.25v-0.046875zm0.71875-0.1875v0.85938h-0.48438v-0.21875c-0.0625 0.09375-0.13672 0.16406-0.21875 0.20312-0.074219 0.03125-0.16797 0.046875-0.28125 0.046875-0.15625 0-0.28125-0.039062-0.375-0.125-0.09375-0.09375-0.14062-0.21094-0.14062-0.35938 0-0.17578 0.054688-0.30078 0.17188-0.375 0.125-0.082031 0.3125-0.125 0.5625-0.125h0.28125v-0.046875c0-0.070312-0.03125-0.125-0.09375-0.15625-0.054687-0.039062-0.14062-0.0625-0.26562-0.0625-0.10547 0-0.20312 0.011719-0.29688 0.03125-0.085937 0.023438-0.16406 0.054688-0.23438 0.09375v-0.35938c0.10156-0.03125 0.20703-0.050781 0.3125-0.0625 0.10156-0.007813 0.20312-0.015625 0.29688-0.015625 0.26953 0 0.46094 0.054688 0.57812 0.15625 0.125 0.10547 0.1875 0.27734 0.1875 0.51562z"/>
  </symbol>
  <symbol id="d" overflow="visible">
   <path d="m0.75-1.9219v0.42188h0.5v0.34375h-0.5v0.64062c0 0.0625 0.007812 0.10938 0.03125 0.14062 0.03125 0.023438 0.085938 0.03125 0.17188 0.03125h0.25v0.34375h-0.40625c-0.1875 0-0.32422-0.035156-0.40625-0.10938-0.074219-0.082031-0.10938-0.21875-0.10938-0.40625v-0.64062h-0.25v-0.34375h0.25v-0.42188z"/>
  </symbol>
  <symbol id="k" overflow="visible">
   <path d="m1.25-1.2812v-0.79688h0.48438v2.0781h-0.48438v-0.21875c-0.074219 0.09375-0.15234 0.16406-0.23438 0.20312-0.074219 0.03125-0.16406 0.046875-0.26562 0.046875-0.17969 0-0.32812-0.070312-0.45312-0.21875-0.11719-0.14453-0.17188-0.33203-0.17188-0.5625 0-0.22656 0.054688-0.41406 0.17188-0.5625 0.125-0.14453 0.27344-0.21875 0.45312-0.21875 0.10156 0 0.19141 0.023438 0.26562 0.0625 0.082031 0.042969 0.16016 0.10547 0.23438 0.1875zm-0.3125 0.96875c0.09375 0 0.16406-0.035156 0.21875-0.10938 0.0625-0.070313 0.09375-0.17969 0.09375-0.32812 0-0.13281-0.03125-0.23828-0.09375-0.3125-0.054688-0.082031-0.125-0.125-0.21875-0.125-0.10547 0-0.18359 0.042969-0.23438 0.125-0.054687 0.074219-0.078125 0.17969-0.078125 0.3125 0 0.14844 0.023438 0.25781 0.078125 0.32812 0.050781 0.074219 0.12891 0.10938 0.23438 0.10938z"/>
  </symbol>
  <symbol id="j" overflow="visible">
   <path d="m1.0312-0.3125c0.09375 0 0.16406-0.035156 0.21875-0.10938 0.0625-0.070313 0.09375-0.17969 0.09375-0.32812 0-0.13281-0.03125-0.23828-0.09375-0.3125-0.054688-0.082031-0.125-0.125-0.21875-0.125-0.10547 0-0.1875 0.042969-0.25 0.125-0.054688 0.074219-0.078125 0.17969-0.078125 0.3125 0 0.14844 0.023437 0.25781 0.078125 0.32812 0.0625 0.074219 0.14453 0.10938 0.25 0.10938zm-0.32812-0.96875c0.070313-0.082031 0.14453-0.14453 0.21875-0.1875 0.082031-0.039062 0.17578-0.0625 0.28125-0.0625 0.1875 0 0.33594 0.074219 0.45312 0.21875 0.11328 0.14844 0.17188 0.33594 0.17188 0.5625 0 0.23047-0.058594 0.41797-0.17188 0.5625-0.11719 0.14844-0.26562 0.21875-0.45312 0.21875-0.10547 0-0.19922-0.015625-0.28125-0.046875-0.074219-0.039062-0.14844-0.10938-0.21875-0.20312v0.21875h-0.46875v-2.0781h0.46875z"/>
  </symbol>
  <symbol id="i" overflow="visible">
   <path d="m0.03125-1.5h0.48438l0.39062 1.0156 0.34375-1.0156h0.48438l-0.625 1.6406c-0.0625 0.16406-0.14062 0.28125-0.23438 0.34375-0.085938 0.070313-0.19531 0.10938-0.32812 0.10938h-0.26562v-0.3125h0.14062c0.082031 0 0.14062-0.015625 0.17188-0.046875 0.039062-0.023437 0.070312-0.070313 0.09375-0.14062l0.015625-0.03125z"/>
  </symbol>
  <symbol id="c" overflow="visible">
   <path d="m1.3906-1.4531v0.375c-0.09375-0.050781-0.19531-0.085937-0.29688-0.10938-0.09375-0.019531-0.18359-0.03125-0.26562-0.03125-0.085937 0-0.15234 0.015625-0.20312 0.046875-0.042969 0.023437-0.0625 0.054687-0.0625 0.09375 0 0.042969 0.015625 0.074219 0.046875 0.09375 0.03125 0.023437 0.09375 0.039063 0.1875 0.046875l0.078125 0.015625c0.25 0.03125 0.41406 0.085937 0.5 0.15625 0.082031 0.0625 0.125 0.17188 0.125 0.32812s-0.0625 0.27734-0.1875 0.35938c-0.11719 0.074219-0.28906 0.10938-0.51562 0.10938-0.10547 0-0.21094-0.011719-0.3125-0.03125-0.10547-0.0078125-0.21094-0.03125-0.3125-0.0625v-0.35938c0.09375 0.054687 0.1875 0.089844 0.28125 0.10938 0.10156 0.023438 0.20703 0.03125 0.3125 0.03125 0.09375 0 0.16016-0.007812 0.20312-0.03125 0.050781-0.03125 0.078125-0.070312 0.078125-0.125 0-0.039062-0.015625-0.070312-0.046875-0.09375-0.03125-0.019531-0.10156-0.035156-0.20312-0.046875l-0.078125-0.015625c-0.21875-0.019531-0.37109-0.066406-0.45312-0.14062-0.085937-0.070313-0.125-0.17969-0.125-0.32812 0-0.15625 0.050781-0.26953 0.15625-0.34375 0.11328-0.082031 0.28125-0.125 0.5-0.125 0.09375 0 0.1875 0.011719 0.28125 0.03125 0.10156 0.011719 0.20703 0.027344 0.3125 0.046875z"/>
  </symbol>
  <symbol id="b" overflow="visible">
   <path d="m1.7344-0.90625v0.90625h-0.48438v-0.6875c0-0.13281-0.007812-0.22266-0.015625-0.26562 0-0.050781-0.007813-0.09375-0.015625-0.125-0.023438-0.03125-0.046875-0.050781-0.078125-0.0625-0.03125-0.019531-0.070313-0.03125-0.10938-0.03125-0.10547 0-0.1875 0.042969-0.25 0.125-0.054688 0.074219-0.078125 0.17969-0.078125 0.3125v0.73438h-0.46875v-2.0781h0.46875v0.79688c0.070313-0.082031 0.14844-0.14453 0.23438-0.1875 0.082031-0.039062 0.17188-0.0625 0.26562-0.0625 0.17578 0 0.30469 0.054688 0.39062 0.15625 0.09375 0.10547 0.14062 0.26172 0.14062 0.46875z"/>
  </symbol>
  <symbol id="h" overflow="visible">
   <path d="m1.7344-0.90625v0.90625h-0.48438v-0.70312c0-0.125-0.007812-0.20703-0.015625-0.25 0-0.050781-0.007813-0.09375-0.015625-0.125-0.023438-0.03125-0.046875-0.050781-0.078125-0.0625-0.03125-0.019531-0.070313-0.03125-0.10938-0.03125-0.10547 0-0.1875 0.042969-0.25 0.125-0.054688 0.074219-0.078125 0.17969-0.078125 0.3125v0.73438h-0.46875v-1.5h0.46875v0.21875c0.070313-0.082031 0.14844-0.14453 0.23438-0.1875 0.082031-0.039062 0.17188-0.0625 0.26562-0.0625 0.17578 0 0.30469 0.054688 0.39062 0.15625 0.09375 0.10547 0.14062 0.26172 0.14062 0.46875z"/>
  </symbol>
  <symbol id="u" overflow="visible">
   <path d="m0.23438-2.0781h0.46875v1.125l0.54688-0.54688h0.5625l-0.73438 0.6875 0.79688 0.8125h-0.57812l-0.59375-0.625v0.625h-0.46875z"/>
  </symbol>
  <symbol id="t" overflow="visible">
   <path d="m0.23438-1.5h0.46875v1.5h-0.46875zm0-0.57812h0.46875v0.39062h-0.46875z"/>
  </symbol>
  <symbol id="s" overflow="visible">
   <path d="m1.25-0.25c-0.074219 0.085938-0.15234 0.14844-0.23438 0.1875-0.074219 0.042969-0.16406 0.0625-0.26562 0.0625-0.17969 0-0.32812-0.070312-0.45312-0.21875-0.11719-0.14453-0.17188-0.32812-0.17188-0.54688s0.054688-0.39844 0.17188-0.54688c0.125-0.14453 0.27344-0.21875 0.45312-0.21875 0.10156 0 0.19141 0.023438 0.26562 0.0625 0.082031 0.042969 0.16016 0.10547 0.23438 0.1875v-0.21875h0.48438v1.3438c0 0.23828-0.078125 0.42188-0.23438 0.54688-0.15625 0.13281-0.375 0.20312-0.65625 0.20312-0.09375 0-0.1875-0.011719-0.28125-0.03125-0.085938-0.011719-0.16797-0.03125-0.25-0.0625v-0.375c0.082031 0.050781 0.16016 0.085938 0.23438 0.10938 0.082031 0.03125 0.16406 0.046875 0.25 0.046875 0.15625 0 0.26953-0.039062 0.34375-0.10938 0.070313-0.074219 0.10938-0.17969 0.10938-0.32812zm-0.3125-0.9375c-0.10547 0-0.18359 0.039062-0.23438 0.10938-0.054687 0.074219-0.078125 0.17969-0.078125 0.3125 0 0.13672 0.023438 0.24219 0.078125 0.3125 0.050781 0.074219 0.12891 0.10938 0.23438 0.10938 0.09375 0 0.16406-0.035156 0.21875-0.10938 0.0625-0.070313 0.09375-0.17578 0.09375-0.3125 0-0.13281-0.03125-0.23828-0.09375-0.3125-0.054688-0.070313-0.125-0.10938-0.21875-0.10938z"/>
  </symbol>
  <symbol id="r" overflow="visible">
   <path d="m1.2188-2.0781v0.3125h-0.26562c-0.074219 0-0.125 0.015625-0.15625 0.046875-0.023437 0.023438-0.03125 0.0625-0.03125 0.125v0.09375h0.40625v0.34375h-0.40625v1.1562h-0.46875v-1.1562h-0.25v-0.34375h0.25v-0.09375c0-0.16406 0.039063-0.28516 0.125-0.35938 0.09375-0.082031 0.23438-0.125 0.42188-0.125z"/>
  </symbol>
  <symbol id="g" overflow="visible">
   <path d="m0.9375-1.1875c-0.10547 0-0.1875 0.039062-0.25 0.10938-0.054688 0.074219-0.078125 0.18359-0.078125 0.32812 0 0.14844 0.023437 0.26172 0.078125 0.34375 0.0625 0.074219 0.14453 0.10938 0.25 0.10938 0.10156 0 0.17969-0.035156 0.23438-0.10938 0.0625-0.082031 0.09375-0.19531 0.09375-0.34375 0-0.14453-0.03125-0.25391-0.09375-0.32812-0.054687-0.070313-0.13281-0.10938-0.23438-0.10938zm0-0.34375c0.25781 0 0.46094 0.074219 0.60938 0.21875 0.14453 0.13672 0.21875 0.32422 0.21875 0.5625 0 0.25-0.074219 0.44531-0.21875 0.57812-0.14844 0.13672-0.35156 0.20312-0.60938 0.20312-0.26172 0-0.46484-0.066406-0.60938-0.20312-0.13672-0.13281-0.20312-0.32812-0.20312-0.57812 0-0.23828 0.066406-0.42578 0.20312-0.5625 0.14453-0.14453 0.34766-0.21875 0.60938-0.21875z"/>
  </symbol>
  <symbol id="q" overflow="visible">
   <path d="m1.6094-1.25c0.0625-0.09375 0.13281-0.16016 0.21875-0.20312 0.082031-0.050781 0.17578-0.078125 0.28125-0.078125 0.16406 0 0.29688 0.054688 0.39062 0.15625 0.09375 0.10547 0.14062 0.26172 0.14062 0.46875v0.90625h-0.48438v-0.78125-0.03125-0.0625c0-0.10156-0.015625-0.17578-0.046875-0.21875-0.03125-0.050781-0.085937-0.078125-0.15625-0.078125-0.085937 0-0.15234 0.039063-0.20312 0.10938-0.054688 0.074219-0.078125 0.18359-0.078125 0.32812v0.73438h-0.48438v-0.78125c0-0.16406-0.015625-0.26953-0.046875-0.3125-0.023437-0.050781-0.070313-0.078125-0.14062-0.078125-0.09375 0-0.16797 0.042969-0.21875 0.125-0.054688 0.074219-0.078125 0.17969-0.078125 0.3125v0.73438h-0.46875v-1.5h0.46875v0.21875c0.0625-0.082031 0.12891-0.14453 0.20312-0.1875 0.082031-0.039062 0.16406-0.0625 0.25-0.0625 0.10156 0 0.19141 0.027344 0.26562 0.078125 0.082031 0.054687 0.14453 0.12109 0.1875 0.20312z"/>
  </symbol>
  <symbol id="p" overflow="visible">
   <path d="m0.25-2h0.57812l0.71875 1.375v-1.375h0.48438v2h-0.5625l-0.73438-1.375v1.375h-0.48438z"/>
  </symbol>
  <symbol id="o" overflow="visible">
   <path d="m0.21875-0.57812v-0.92188h0.46875v0.15625 0.3125 0.23438 0.26562c0.007812 0.054688 0.023438 0.089844 0.046875 0.10938 0.019531 0.03125 0.046875 0.058594 0.078125 0.078125 0.03125 0.011719 0.066406 0.015625 0.10938 0.015625 0.09375 0 0.16406-0.035156 0.21875-0.10938 0.0625-0.070312 0.09375-0.17578 0.09375-0.3125v-0.75h0.48438v1.5h-0.48438v-0.21875c-0.074219 0.09375-0.15234 0.16406-0.23438 0.20312-0.074219 0.03125-0.15625 0.046875-0.25 0.046875-0.17969 0-0.3125-0.050781-0.40625-0.15625-0.085938-0.10156-0.125-0.25391-0.125-0.45312z"/>
  </symbol>
  <symbol id="n" overflow="visible">
   <path d="m0.25-2h0.85938c0.25 0 0.44141 0.058594 0.57812 0.17188 0.13281 0.11719 0.20312 0.27734 0.20312 0.48438 0 0.21094-0.070313 0.37109-0.20312 0.48438-0.13672 0.11719-0.32812 0.17188-0.57812 0.17188h-0.34375v0.6875h-0.51562zm0.51562 0.375v0.5625h0.28125c0.10156 0 0.17969-0.019531 0.23438-0.0625 0.050781-0.050781 0.078125-0.125 0.078125-0.21875s-0.027344-0.16016-0.078125-0.20312c-0.054688-0.050781-0.13281-0.078125-0.23438-0.078125z"/>
  </symbol>
  <symbol id="m" overflow="visible">
   <path d="m0.23438-1.5h0.46875v1.4688c0 0.20703-0.046875 0.36328-0.14062 0.46875-0.09375 0.10156-0.23438 0.15625-0.42188 0.15625h-0.23438v-0.3125h0.078125c0.09375 0 0.15625-0.023438 0.1875-0.0625 0.039063-0.042969 0.0625-0.125 0.0625-0.25zm0-0.57812h0.46875v0.39062h-0.46875z"/>
  </symbol>
  <symbol id="l" overflow="visible">
   <path d="m1.4375-1.4531v0.39062c-0.0625-0.039062-0.13281-0.070312-0.20312-0.09375-0.0625-0.019531-0.13281-0.03125-0.20312-0.03125-0.125 0-0.23047 0.042969-0.3125 0.125-0.074219 0.074219-0.10938 0.17969-0.10938 0.3125 0 0.14844 0.035156 0.26172 0.10938 0.34375 0.082031 0.074219 0.1875 0.10938 0.3125 0.10938 0.082031 0 0.15625-0.007813 0.21875-0.03125 0.070312-0.03125 0.13281-0.066406 0.1875-0.10938v0.39062c-0.074219 0.03125-0.15234 0.050781-0.23438 0.0625-0.074219 0.0078125-0.14844 0.015625-0.21875 0.015625-0.27344 0-0.48438-0.066406-0.64062-0.20312-0.14844-0.13281-0.21875-0.32812-0.21875-0.57812 0-0.23828 0.070312-0.42578 0.21875-0.5625 0.15625-0.14453 0.36719-0.21875 0.64062-0.21875 0.070313 0 0.14453 0.011719 0.21875 0.03125 0.082031 0.011719 0.16016 0.027344 0.23438 0.046875z"/>
  </symbol>
 </defs>
 <g>
  <path d="m551.96 493.5h-11.539-31.281-46.266-55.836-60.539-60.266-55.18-44.57-29.258-7.3281-1.5312-0.21875c-0.21875 0-2.1875-0.27344-1.1484-0.054688 0.82031 0.16406-1.4219-0.4375-1.6953-0.54687 1.3125 0.4375-0.054688-0.16406-0.60156-0.38281-0.27344-0.10938-1.2578-0.92969-0.054687 0.054687-0.38281-0.27344-0.71094-0.60156-1.0391-0.92969-0.27344-0.27344-0.49219-0.49219-0.71094-0.76562-0.82031-0.875 0.60156 1.0391 0 0-0.21875-0.4375-1.1484-2.4062-0.60156-0.875-0.21875-0.71094-0.4375-1.3672-0.60156-2.0781 0.32813 1.4219 0-0.10938 0-0.76562v-0.21875-1.5312-7.1641-28.656-44.078-54.305-59.938-60.812-56.93-48.453-34.781-16.57-0.76562c0-0.38281 0.054688-0.76562 0.054688-1.1484 0-1.1484-0.49219 0.98437 0.054688 0 0.16406-0.32813 0.98437-2.625 0.21875-1.0938 0.32812-0.65625 0.65625-1.2578 1.0391-1.8594-0.82031 1.3125 0.60156-0.60156 0.98438-0.98437 0.10938-0.10938 0.98438-0.76563 0.27344-0.21875-0.82031 0.60156 0.4375-0.21875 0.65625-0.32813 0.32813-0.16406 0.60156-0.32812 0.92969-0.49219-0.38281 0.21875-1.3672 0.32812 0.054688 0.054687 0.54687-0.10937 2.1328-0.4375 0.65625-0.27344 0.49219-0.054687 0.98437-0.054687 1.4766-0.054687h3.2266 22.422 39.539 51.953 58.898 61.031 58.133 50.422 37.297 19.359 1.4766 0.92969c0.16406 0 1.3125 0.21875 0.38281 0-1.0391-0.21875 0.4375 0.16406 0.71094 0.21875 0.32812 0.10937 0.71094 0.21875 1.0391 0.32812-0.16406-0.054687-1.1484-0.54687-0.32812-0.10937 0.4375 0.27344 2.1328 1.4219 0.98437 0.4375 0.71094 0.60156 1.4219 1.2578 1.9688 1.9688-0.92969-1.1484 0.16406 0.54687 0.4375 0.98437 0.4375 0.82031-0.054687-0.21875-0.10937-0.32812 0.10937 0.32812 0.21875 0.65625 0.32812 1.0391 0.054688 0.21875 0.4375 1.6953 0.21875 0.71094-0.16406-0.92969 0 0.21875 0 0.38281v0.76562 0.27344 1.6406 19.633 37.133 50.094 57.805 60.977 59.391 53.047 42.055 25.922 5.4141 0.76562c0 0.49219 0 0.98438-0.054687 1.4766 0.16406-1.5859-0.27344 0.49219-0.38281 0.98438-0.27344 0.875 0.10938-0.16406 0.16406-0.32812-0.16406 0.32812-0.32812 0.60156-0.49219 0.92969-0.10938 0.21875-0.92969 1.4766-0.32813 0.65625 0.54688-0.76562-0.16406 0.16406-0.21875 0.27344-0.32812 0.32812-0.65625 0.65625-0.98437 0.98438-0.10938 0.10938-0.98438 0.76562-0.27344 0.21875 0.65625-0.4375-1.3125 0.71094-1.5859 0.82031 1.2578-0.60156-0.21875-0.054688-0.71094 0.16406-0.32812 0.10938-1.5859 0.27344 0 0.10938-0.60156 0.054687-1.0938 0.10938-1.5859 0.10938-4.2656 0.10938-8.4219 3.7188-8.2031 8.2031 0.21875 4.375 3.6094 8.3125 8.2031 8.2031 12.797-0.32812 22.641-10.391 22.805-23.133v-4.9219-25.156-41.836-53.211-60.102-61.523-58.625-50.258-37.352-19.305c0-5.5234-1.2578-10.828-4.6484-15.312-4.7031-6.125-11.648-9.0781-19.25-9.0781h-18.32-37.023-50.531-58.516-61.797-59.445-52.391-39.703-22.203c-1.4219 0-2.8984-0.054688-4.3203 0.054688-12.195 1.0391-21.219 10.938-21.328 23.133-0.054687 5.1953 0 10.336 0 15.531v34.289 48.453 57.477 61.305 60.758 54.742 44.297 28.547c0 8.6406-0.32812 16.57 5.9609 23.734 6.7812 7.6562 15.75 7.4375 24.828 7.4375h28.711 44.461 55.398 60.703 61.359 56.328 46.594 31.391 10.938c4.2656 0 8.4219-3.7734 8.2031-8.2031-0.21875-4.375-3.6094-8.1484-8.2031-8.1484z"/>
  <path d="m566.56 154.98h-11.594-31.5-46.594-56.875-62.289-62.891-58.625-49.547-35.602c-5.5781 0-11.211-0.10938-16.789 0h-0.71094c-4.2656 0-8.4219 3.7734-8.2031 8.2031s3.6094 8.2031 8.2031 8.2031h11.594 31.5 46.594 56.875 62.289 62.891 58.625 49.547 35.602c5.5781 0 11.211 0.10938 16.789 0h0.71094c4.2656 0 8.4219-3.7734 8.2031-8.2031-0.21875-4.4844-3.6094-8.2031-8.2031-8.2031z"/>
  <path d="m504.22 111.45c0 0.49219-0.054688 1.0391-0.054688 1.5312 0 0.10938-0.21875 1.3125-0.054687 0.38281 0.16406-0.76563-0.38281 1.4219-0.49219 1.8047-0.16406 0.49219-0.27344 0.92969-0.49219 1.3672 0.16406-0.38281 0.71094-1.2578-0.054688 0.054688-0.49219 0.82031-0.92969 1.6406-1.4766 2.4609 0.82031-1.2031-0.38281 0.4375-0.76562 0.82031-0.60156 0.60156-1.2031 1.2031-1.8594 1.6953 1.2031-0.92969-0.60156 0.32813-0.98438 0.54688-0.4375 0.21875-0.875 0.4375-1.2578 0.65625-1.0938 0.60156 1.1484-0.38281-0.054687 0-0.82031 0.27344-1.6406 0.49219-2.4609 0.71094-1.4766 0.38281-0.4375 0.10938-0.054688 0.054687-0.49219 0.054688-1.0391 0.10938-1.5312 0.10938-0.875 0.054687-1.8047 0-2.6797-0.054688-0.98437-0.054688 0.16406 0 0.32813 0.054688-0.60156-0.10938-1.2031-0.27344-1.8047-0.4375-0.49219-0.10938-2.5156-0.98438-1.0938-0.32813-0.76562-0.38281-1.4766-0.76562-2.2422-1.2031-0.21875-0.10938-1.4219-0.98438-0.65625-0.38281 0.71094 0.54688-0.21875-0.16406-0.27344-0.27344-0.71094-0.65625-1.3672-1.3125-2.0234-2.0234-1.0391-1.0938-0.21875-0.32812-0.054688-0.054688-0.27344-0.38281-0.54688-0.76562-0.76562-1.2031-0.21875-0.32813-1.2031-2.2969-0.875-1.5859 0.27344 0.65625-0.4375-1.4766-0.54688-1.8047-0.10938-0.38281-0.16406-0.71094-0.27344-1.0938-0.21875-0.875 0 1.1484-0.054687-0.4375-0.054687-0.875-0.054687-1.8047 0-2.6797 0-0.21875 0.21875-1.8047 0.054687-0.76562-0.16406 0.92969 0.10938-0.27344 0.10938-0.38281 0.21875-0.82031 0.4375-1.6406 0.71094-2.4609 0.38281-1.2031-0.54688 1.0391 0-0.054688 0.27344-0.54687 0.54688-1.0938 0.875-1.5859 0.16406-0.32812 0.38281-0.60156 0.60156-0.92969 0.65625-1.0391-0.82031 0.875 0-0.054688 0.54687-0.65625 1.0938-1.2578 1.6953-1.8047 0.27344-0.21875 0.54688-0.49219 0.82031-0.71094 0.92969-0.82031-0.98437 0.60156 0.054688 0 0.82031-0.49219 1.6406-0.98438 2.5156-1.4219 1.0938-0.60156-1.1484 0.38281 0.054687 0 0.32813-0.10938 0.71094-0.21875 1.0391-0.32812s2.5703-0.65625 1.8047-0.49219c-1.0391 0.16406 0.54688-0.054688 0.76563-0.054688 0.38281 0 0.76562-0.054688 1.1484-0.054688 0.49219 0 1.0391 0.054688 1.5312 0.054688 1.5859 0.054688-0.49219-0.16406 0.4375 0.054688 0.98438 0.21875 1.9141 0.49219 2.8438 0.82031 0.875 0.32812-0.16406-0.054688-0.27344-0.16406 0.54687 0.27344 1.0938 0.54687 1.5859 0.82031 0.4375 0.21875 0.82031 0.49219 1.2031 0.76562 1.0391 0.65625-1.2578-1.2578 0.32812 0.21875 0.71094 0.65625 1.3672 1.3125 2.0234 2.0234 0.21875 0.27344 0.82031 1.2031 0.054688 0.054688 0.27344 0.38281 0.54688 0.82031 0.76562 1.2031 0.27344 0.49219 1.2578 2.7344 0.76562 1.3125 0.38281 1.0391 0.65625 2.0781 0.92969 3.1719 0.21875 0.92969 0-0.16406 0-0.32812 0.10937 0.875 0.16406 1.6406 0.16406 2.4062 0.054688 4.2656 3.7188 8.4219 8.2031 8.2031 4.375-0.21875 8.3125-3.6094 8.2031-8.2031-0.21875-12.25-7.7656-22.859-19.25-27.07-10.828-3.9922-23.844-0.49219-31.227 8.3672-7.8203 9.3516-9.2969 22.859-2.9531 33.414 6.3438 10.555 18.648 15.695 30.625 13.398 13.289-2.5703 22.531-14.82 22.75-28.055 0.054688-4.2656-3.8281-8.4219-8.2031-8.2031-4.4844 0.16406-8.0391 3.5547-8.1484 8.1484z"/>
  <path d="m410.92 103.25h-62.125-8.8047c-4.2656 0-8.4219 3.7734-8.2031 8.2031s3.6094 8.2031 8.2031 8.2031h62.125 8.8047c4.2656 0 8.4219-3.7734 8.2031-8.2031-0.16406-4.4297-3.5547-8.2031-8.2031-8.2031z"/>
  <path d="m409.5 341.8c0 2.6797-0.10938 5.3594-0.32812 8.0938-0.10938 1.3125-0.27344 2.625-0.38281 3.9922 0.16406-1.4219 0-0.10937 0 0.16406-0.16406 0.92969-0.27344 1.8047-0.4375 2.7344-0.92969 5.25-2.2969 10.391-4.0469 15.422-0.4375 1.2031-0.875 2.4062-1.3672 3.6094-0.10938 0.21875-0.60156 1.4766-0.054688 0.16406-0.27344 0.60156-0.49219 1.1484-0.76562 1.75-1.0938 2.4609-2.2969 4.8125-3.6094 7.1641-1.2031 2.1875-2.5156 4.375-3.9375 6.5078-0.71094 1.0391-1.4219 2.0781-2.1328 3.1172-0.27344 0.38281-0.60156 0.82031-0.875 1.2031-1.0938 1.5312 0.54688-0.60156-0.54688 0.76562-3.3359 4.1562-6.8906 8.0391-10.828 11.594-1.75 1.5859-3.6094 3.1719-5.4688 4.6484-1.1484 0.875 1.5312-1.0938-0.4375 0.32813-0.38281 0.27344-0.82031 0.60156-1.2031 0.875-1.2578 0.875-2.4609 1.75-3.7734 2.5703-4.2656 2.7891-8.75 5.1953-13.344 7.2734-0.10938 0.054687-2.4609 1.0391-0.875 0.38281-0.49219 0.21875-0.92969 0.38281-1.4219 0.54688-1.4219 0.54688-2.8984 1.0938-4.375 1.5859-3.2266 1.0938-6.5078 2.0234-9.8438 2.7344-6.4531 1.4219-12.25 2.0234-19.141 2.0234-2.4062 0-4.8672-0.10938-7.2734-0.27344-1.1484-0.10938-2.2422-0.16406-3.3906-0.32813-0.21875 0-2.6797-0.32812-0.82031-0.054687-0.76562-0.10938-1.4766-0.21875-2.2422-0.32812-4.8672-0.82031-9.6797-1.9688-14.383-3.5-2.2969-0.76562-4.5938-1.5859-6.8359-2.5156 1.4766 0.60156 0 0-0.38281-0.16406-0.54687-0.27344-1.0938-0.49219-1.6406-0.76562-1.2031-0.54688-2.4062-1.1484-3.5547-1.75-4.375-2.2422-8.5859-4.8672-12.523-7.7109-0.38281-0.27344-0.76562-0.54688-1.1484-0.875-1.9141-1.4219 1.2031 1.0391-0.60156-0.49219-0.82031-0.65625-1.6953-1.3672-2.5156-2.0234-1.9141-1.6406-3.7734-3.3359-5.5234-5.0859-1.6953-1.6953-3.3359-3.4453-4.8672-5.25-0.76562-0.875-1.5312-1.8047-2.2969-2.7344-0.27344-0.38281-0.60156-0.76562-0.875-1.1484 1.0391 1.3672-0.21875-0.32812-0.4375-0.60156-3.0078-4.0469-5.6875-8.3672-7.9844-12.797-0.54687-1.0938-1.0938-2.1328-1.5859-3.2266-0.32812-0.65625-0.60156-1.3125-0.92969-1.9688-0.054688-0.16406-0.98438-2.3516-0.32813-0.71094-1.0391-2.4609-1.9141-4.9766-2.7344-7.5469-0.875-2.7891-1.6406-5.6875-2.2969-8.5312-0.27344-1.3125-0.54687-2.6797-0.76562-3.9922-0.10938-0.60156-0.21875-1.2031-0.32813-1.8594 0-0.16406-0.32812-2.625-0.10937-0.82031-1.6953-14.109-0.49219-27.289 3.8828-40.633-3.9922 1.6406-8.0391 3.2812-12.031 4.9219 13.781 9.2969 32.648 9.6797 46.703 0.71094 12.688-8.1484 20.453-22.531 19.961-37.68-0.32812-10.445-3.8281-20.398-8.9141-29.531-0.98438 3.7188-1.9688 7.4922-2.9531 11.211 11.867-6.2891 25.43-9.9531 38.883-10.336 7.6562-0.21875 14.492 0.32812 21.602 1.9141 3.5 0.76563 6.9453 1.6953 10.336 2.8438 1.4766 0.49219 2.8984 1.0391 4.375 1.5859 0.10937 0.054688 2.4609 0.98438 0.875 0.32812 0.71094 0.27344 1.4219 0.60156 2.0781 0.92969 5.3047 2.4062 10.391 5.3047 15.203 8.6406 1.0391 0.71094 2.0781 1.4766 3.0625 2.2422-1.3672-1.0391 0.60156 0.49219 0.71094 0.60156 0.49219 0.38281 0.98438 0.82031 1.4766 1.2031 2.2422 1.8594 4.375 3.8281 6.3984 5.8516 8.0391 8.0391 13.508 15.859 18.484 26.852 0.32812 0.71094 0.65625 1.4219 0.92969 2.0781-0.60156-1.4766 0.38281 0.92969 0.49219 1.2578 0.60156 1.5312 1.1484 3.1172 1.6953 4.7031 0.98437 2.9531 1.8047 5.9609 2.4609 8.9688 0.38281 1.8047 0.76562 3.6094 1.0391 5.4141 0.10937 0.54688 0.16406 1.0391 0.21875 1.5859 0.16406 0.98438 0.16406 1.0391 0 0.16406 0.054687 0.54688 0.10937 1.0391 0.16406 1.5859 0.21875 3.4453 0.38281 6.8906 0.4375 10.391 0 4.2656 3.7734 8.4219 8.2031 8.2031s8.2031-3.6094 8.2031-8.2031c-0.10938-26.633-10.227-52.391-28.328-71.969-19.305-20.836-46.922-33.086-75.305-33.688-18.156-0.38281-36.148 4.1016-52.172 12.633-3.9922 2.1328-5.0312 7.4922-2.9531 11.211 4.2109 7.5469 7.0547 15.641 6.6719 24.172-0.054687 0.76562-0.10937 1.4766-0.16406 2.2422 0.16406-1.8594-0.21875 1.1484-0.32812 1.4766-0.38281 1.6406-0.875 3.2812-1.4766 4.8672-0.32812 0.875-0.32812 0.875 0 0.054687-0.21875 0.4375-0.38281 0.875-0.60156 1.3125-0.4375 0.875-0.875 1.6953-1.3672 2.5156-0.38281 0.60156-0.76562 1.2031-1.1484 1.8047-0.54688 0.76562-0.54688 0.76562 0 0.054687-0.27344 0.38281-0.60156 0.71094-0.92969 1.0938-1.0938 1.2578-2.2422 2.4062-3.5 3.5-0.38281 0.32812-0.71094 0.60156-1.0938 0.92969 0.71094-0.54687 0.71094-0.54687-0.054688 0-0.82031 0.49219-1.5859 1.0391-2.4062 1.5312-0.60156 0.38281-1.2578 0.71094-1.8594 1.0391-0.4375 0.21875-0.875 0.4375-1.3125 0.60156 0.875-0.32813 0.875-0.32813-0.054687 0-1.5859 0.54687-3.2266 1.0938-4.8672 1.4766-0.32812 0.054688-3.3359 0.49219-1.4766 0.32812-0.98438 0.10938-2.0234 0.16406-3.0078 0.21875-0.875 0-1.75 0-2.6797-0.054687-0.60156-0.054688-1.2578-0.10938-1.8594-0.16406 0.65625 0.10938 0.4375 0.054687-0.54687-0.10938-4.7031-0.98438-7.2734-2.0234-11.211-4.7031-4.5938-3.1172-10.5 0.16406-12.031 4.9219-8.0391 24.609-6.5625 51.406 3.6094 75.086 8.5859 19.906 23.57 36.859 42.055 48.125 19.797 12.086 43.805 17.336 66.828 14.547 24.883-3.0625 48.234-14.492 65.297-32.977 18.102-19.578 28.219-45.336 28.328-71.969 0-4.2656-3.7734-8.4219-8.2031-8.2031-4.5391 0.10938-8.2578 3.5-8.2578 8.0938z"/>
  <path d="m273.82 282.68c0 0.76562 0 1.5312-0.054687 2.2969 0 0.21875-0.32812 2.6797-0.054687 0.76563-0.21875 1.4766-0.54688 2.8984-0.92969 4.3203-0.21875 0.71094-0.4375 1.3672-0.65625 2.0781-0.054688 0.21875-1.0391 2.3516-0.27344 0.71094-0.71094 1.5312-1.4766 3.0078-2.4062 4.375-0.38281 0.60156-0.76562 1.2031-1.2031 1.75 1.0391-1.4766-0.32813 0.38281-0.49219 0.54688-0.92969 1.0938-1.9141 2.0781-2.9531 3.0625-0.54688 0.49219-1.0391 0.92969-1.6406 1.3672 1.2031-0.92969 0.21875-0.16406-0.054688 0-1.4219 0.875-2.7891 1.8047-4.2656 2.5703-0.21875 0.10937-2.3516 1.0391-0.65625 0.38281-0.65625 0.27344-1.3672 0.54688-2.0234 0.76562-1.3672 0.4375-2.7891 0.82031-4.2109 1.0938-0.27344 0.054687-2.625 0.32812-0.76562 0.16406-0.76563 0.054687-1.4766 0.16406-2.2422 0.16406-0.82031 0.054688-1.6406 0.054688-2.4609 0-0.65625 0-1.2578-0.054688-1.8594-0.10938-1.0391-0.10938-1.2578-0.10938-0.60156-0.054687-1.8047-0.27344-3.6094-0.71094-5.3047-1.3125 0.16406 0.054687-2.5703-0.98438-1.4219-0.49219-0.54687-0.21875-1.0938-0.49219-1.5859-0.76562-1.5312-0.82031-3.0625-1.75-4.4844-2.7891 1.2578 0.92969-0.82031-0.65625-0.82031-0.71094-0.82031-0.71094-1.5859-1.4219-2.2969-2.2422-0.54687-0.60156-1.0938-1.2031-1.5859-1.8047 0.98438 1.2031-0.60156-0.875-0.65625-0.92969-0.92969-1.3672-1.6406-2.7344-2.4062-4.1562-1.2031-2.1328 0.38281 1.3125-0.4375-1.0391-0.27344-0.76562-0.54688-1.5312-0.76562-2.2969s-0.4375-1.5859-0.60156-2.4062c-0.054688-0.32812-0.49219-3.3359-0.38281-1.9688-0.27344-2.7891-0.16406-5.6328 0.10938-8.4219-0.21875 1.9688 0.054688-0.38281 0.10938-0.65625 0.10938-0.71094 0.27344-1.4219 0.4375-2.0781 0.38281-1.6406 0.82031-3.2266 1.3125-4.8125 0.4375-1.3672 0.92969-2.6797 1.4766-3.9922-0.71094 1.75 0.21875-0.4375 0.32812-0.65625 0.27344-0.65625 0.60156-1.2578 0.92969-1.9141 1.2578-2.5156 2.6797-4.9219 4.1562-7.3281 1.4766-2.2969 3.0078-4.4844 4.7031-6.6719-1.2031 1.5859 0.16406-0.16406 0.32812-0.38281 0.38281-0.49219 0.82031-0.98437 1.2031-1.4766 0.92969-1.0938 1.8594-2.1875 2.8438-3.2812 3.0078-3.3359 6.1797-6.5625 9.5703-9.5703 1.0391-0.92969 2.1328-1.8594 3.2266-2.7891 0.76562-0.60156 3.0078-2.3516-0.32812 0.21875h-8.2578c-2.5156-1.9141-1.0391-0.82031 0 0.054687 1.2578 1.0391 2.5156 2.1328 3.7188 3.2266 4.0469 3.6641 7.8203 7.5469 11.32 11.703 0.54688 0.65625 1.0391 1.2578 1.5859 1.9141 0.98438 1.2031-0.21875-0.32812 0.82031 1.0391 0.98438 1.3125 1.9141 2.625 2.7891 3.9375 1.9688 2.8984 3.7734 5.9062 5.3047 9.0234 2.8984 6.125 4.8125 13.016 4.8672 19.578 0.054688 4.2656 3.7188 8.4219 8.2031 8.2031 4.4297-0.21875 8.2578-3.6094 8.2031-8.2031-0.21875-17.227-8.5859-32.648-19.25-45.664-5.7422-7-12.25-13.398-19.469-18.812-2.0781-1.5312-6.2344-1.5859-8.2578 0-15.695 12.141-29.859 28.875-35.984 47.961-5.0312 15.695-2.6797 32.703 8.3672 45.227 11.32 12.797 30.625 17.609 46.594 11.484 16.68-6.4531 27.781-22.148 28-40.141 0.054688-4.2656-3.8281-8.4219-8.2031-8.2031-4.4844 0.16406-8.1484 3.5547-8.2031 8.1484z"/>
  <path d="m479.01 341.8c0 3.0625-0.16406 6.125-0.4375 9.1875-0.054687 0.49219-0.10937 0.98438-0.16406 1.5312 0 0.21875-0.32812 2.6797-0.054688 0.82031-0.21875 1.75-0.54687 3.4453-0.875 5.1406-1.0938 5.5234-2.625 10.992-4.7031 16.242-0.21875 0.54688-0.4375 1.1484-0.65625 1.6953-0.54688 1.3125 0.82031-1.75-0.16406 0.38281-0.60156 1.3125-1.2031 2.625-1.8594 3.9375-1.2578 2.5703-2.6797 5.1406-4.1562 7.6016-1.3672 2.2422-2.8438 4.4297-4.375 6.5625-0.4375 0.60156-0.875 1.1484-1.2578 1.75 1.0938-1.4219-0.38281 0.4375-0.49219 0.60156-0.875 1.0938-1.8047 2.1875-2.7891 3.2812-3.6094 4.1016-7.6016 7.9297-11.867 11.375-0.16406 0.10938-2.0234 1.5859-0.60156 0.49219-0.54688 0.4375-1.1484 0.875-1.75 1.2578-0.98438 0.71094-1.9688 1.3672-2.9531 2.0781-2.4062 1.5859-4.8672 3.1172-7.3828 4.4844-2.3516 1.2578-4.7031 2.4609-7.1094 3.5547-0.16406 0.10937-2.4062 1.0391-0.71094 0.32812-0.65625 0.27344-1.3672 0.54688-2.0234 0.82031-1.4766 0.54688-2.9531 1.0938-4.4844 1.5859-5.5234 1.8047-11.211 3.1719-16.953 3.9375 1.5859-0.21875 0.27344-0.054687-0.054688 0-0.98437 0.10938-2.0234 0.21875-3.0078 0.32813-1.75 0.16406-3.5547 0.27344-5.3047 0.32812-4.0469 0.10938-8.0938 0-12.141-0.38281-7.4375-0.71094-15.914-2.8438-23.516-5.6875v15.805c31.281-12.086 55.781-38.008 64.859-70.492 9.2422-33.141 1.3672-68.906-20.234-95.539-11.703-14.438-27.344-25.156-44.625-31.883v15.805c13.727-5.1406 27.125-7.0547 41.727-5.6875 0.60156 0.054688 1.2578 0.10938 1.8594 0.21875 0.4375 0.054688 2.0781 0.27344 0.4375 0.054688 1.4766 0.21875 2.9531 0.4375 4.4297 0.71094 2.8984 0.54687 5.7969 1.2031 8.6406 2.0234 2.5703 0.71094 5.1406 1.5859 7.6562 2.5156 0.65625 0.27344 1.3672 0.54688 2.0234 0.82031 2.2422 0.875-1.4766-0.71094 0.71094 0.27344 1.3125 0.60156 2.625 1.2031 3.9375 1.8594 4.9766 2.4609 9.6797 5.3047 14.164 8.5312 0.60156 0.4375 1.1484 0.875 1.75 1.2578-1.4219-1.0938 0.4375 0.38281 0.60156 0.49219 0.92969 0.76562 1.8594 1.5312 2.7344 2.2969 2.1875 1.8594 4.2656 3.8281 6.2344 5.9062 1.8047 1.9141 3.5547 3.8281 5.25 5.9062 0.4375 0.54688 0.92969 1.0938 1.3672 1.6953-1.0938-1.4219 0.32812 0.4375 0.4375 0.60156 0.92969 1.2578 1.8047 2.5156 2.6797 3.8281 3.1719 4.7031 5.7969 9.6797 8.1484 14.875 0.65625 1.4219 0.16406 0.32812 0 0.054688 0.38281 0.875 0.71094 1.8047 1.0938 2.7344 0.60156 1.5859 1.1484 3.2266 1.6953 4.8125 0.98437 3.0625 1.8047 6.125 2.4609 9.2969 0.32812 1.4766 0.60156 2.8984 0.82031 4.375 0.10937 0.76562 0.21875 1.4766 0.32812 2.2422-0.27344-1.8047 0.054688 0.82031 0.10938 1.2031 0.38281 3.3359 0.54687 6.7266 0.54687 10.172 0 4.2656 3.7734 8.4219 8.2031 8.2031 4.4297-0.21875 8.2031-3.6094 8.2031-8.2031-0.10937-25.922-9.625-50.859-26.797-70.273-16.297-18.484-39.375-30.844-63.766-34.234-17.5-2.4062-35.438-0.71094-52.062 5.5234-7.8203 2.9531-7.7109 12.852 0 15.805 0.49219 0.16406 0.92969 0.38281 1.4219 0.54687 0.054687 0 1.2578 0.49219 0.4375 0.16406-0.82031-0.32812 0.38281 0.16406 0.4375 0.16406 0.49219 0.21875 0.92969 0.4375 1.4219 0.60156 1.75 0.76562 3.4453 1.6406 5.1406 2.5156 3.2266 1.6953 6.3984 3.6094 9.4062 5.6875 0.71094 0.49219 1.4766 0.98438 2.1875 1.5312 0.32812 0.21875 2.1875 1.6406 1.0391 0.76562 1.4766 1.1484 2.9531 2.3516 4.375 3.6094 2.7344 2.4062 5.3594 4.9766 7.8203 7.6562 1.0938 1.2031 2.1875 2.4609 3.2266 3.7188 0.54688 0.65625 1.0938 1.3672 1.6406 2.0781-0.82031-1.0938 0.71094 0.98438 0.98438 1.3672 2.1328 2.9531 4.1016 6.0703 5.9062 9.2969 0.875 1.5312 1.6953 3.1172 2.4609 4.7031 0.38281 0.82031 0.76563 1.5859 1.1484 2.4062 0.21875 0.49219 1.2031 2.8438 0.71094 1.5312 1.4219 3.4453 2.625 7 3.6094 10.609 1.0391 3.6641 1.8047 7.3281 2.4062 11.102 0.054688 0.38281 0.10938 0.76562 0.16406 1.1484 0.21875 1.3672-0.10938-1.2031 0 0.16406 0.10938 0.92969 0.21875 1.8594 0.27344 2.7891 0.16406 2.0234 0.27344 3.9922 0.38281 6.0156 0.10938 3.8828 0 7.8203-0.38281 11.703-0.054687 0.82031-0.16406 1.5859-0.21875 2.4062-0.16406 1.6406-0.054687 0.54687 0 0.16406-0.054687 0.38281-0.10937 0.76562-0.16406 1.1484-0.27344 1.9688-0.65625 3.8828-1.0391 5.7969-0.76563 3.6641-1.8047 7.3281-3.0078 10.883-0.60156 1.6953-1.2031 3.3906-1.8594 5.0312-0.32812 0.875 0.054688-0.054687 0.10938-0.16406-0.21875 0.49219-0.38281 0.92969-0.60156 1.4219-0.4375 0.92969-0.82031 1.8594-1.3125 2.7891-1.5859 3.3359-3.3906 6.5078-5.3594 9.625-0.92969 1.4766-1.9141 2.9531-2.9531 4.4297-0.49219 0.71094-1.0391 1.4219-1.5859 2.1328 0.82031-1.0938-0.71094 0.92969-1.0391 1.3125-2.5703 3.1172-5.3047 6.0703-8.2031 8.8594-1.4766 1.3672-2.9531 2.7344-4.4844 4.0469-0.76562 0.65625-1.5312 1.2578-2.3516 1.9141-1.2578 0.98438-0.38281 0.32813-0.10938 0.10938-0.38281 0.32812-0.82031 0.60156-1.2031 0.92969-3.3906 2.4609-6.8906 4.7031-10.555 6.7266-1.8047 0.98437-3.6094 1.9141-5.4141 2.7891-0.92969 0.4375-1.8594 0.875-2.7891 1.2578-0.875 0.38281 0.054687 0 0.21875-0.10937-0.71094 0.27344-1.4219 0.54687-2.1328 0.875-7.7109 2.9531-7.8203 12.852 0 15.805 27.289 10.281 58.078 8.4219 84.109-4.4297 21.82-10.773 39.812-29.641 49.492-51.953 5.8516-13.508 8.9141-27.836 8.9688-42.547 0-4.2656-3.7734-8.4219-8.2031-8.2031-4.5938 0.27344-8.3125 3.6641-8.3125 8.2578z"/>
  <use x="70" y="568.203125" xlink:href="#v"/>
  <use x="72.007812" y="568.203125" xlink:href="#f"/>
  <use x="73.355469" y="568.203125" xlink:href="#a"/>
  <use x="75.210937" y="568.203125" xlink:href="#e"/>
  <use x="77.054688" y="568.203125" xlink:href="#d"/>
  <use x="78.363281" y="568.203125" xlink:href="#a"/>
  <use x="80.214844" y="568.203125" xlink:href="#k"/>
  <use x="83.125" y="568.203125" xlink:href="#j"/>
  <use x="85.082031" y="568.203125" xlink:href="#i"/>
  <use x="87.816406" y="568.203125" xlink:href="#c"/>
  <use x="89.445312" y="568.203125" xlink:href="#b"/>
  <use x="91.390625" y="568.203125" xlink:href="#e"/>
  <use x="93.238281" y="568.203125" xlink:href="#c"/>
  <use x="94.863281" y="568.203125" xlink:href="#b"/>
  <use x="96.8125" y="568.203125" xlink:href="#e"/>
  <use x="98.65625" y="568.203125" xlink:href="#h"/>
  <use x="100.601562" y="568.203125" xlink:href="#u"/>
  <use x="103.375" y="568.203125" xlink:href="#c"/>
  <use x="105" y="568.203125" xlink:href="#t"/>
  <use x="105.9375" y="568.203125" xlink:href="#h"/>
  <use x="107.882812" y="568.203125" xlink:href="#s"/>
  <use x="109.84375" y="568.203125" xlink:href="#b"/>
  <use x="70" y="570.9375" xlink:href="#r"/>
  <use x="71.191406" y="570.9375" xlink:href="#f"/>
  <use x="72.539062" y="570.9375" xlink:href="#g"/>
  <use x="74.417969" y="570.9375" xlink:href="#q"/>
  <use x="78.21875" y="570.9375" xlink:href="#d"/>
  <use x="79.523438" y="570.9375" xlink:href="#b"/>
  <use x="81.472656" y="570.9375" xlink:href="#a"/>
  <use x="84.277344" y="570.9375" xlink:href="#p"/>
  <use x="86.566406" y="570.9375" xlink:href="#g"/>
  <use x="88.445312" y="570.9375" xlink:href="#o"/>
  <use x="90.390625" y="570.9375" xlink:href="#h"/>
  <use x="93.289062" y="570.9375" xlink:href="#n"/>
  <use x="95.292969" y="570.9375" xlink:href="#f"/>
  <use x="96.644531" y="570.9375" xlink:href="#g"/>
  <use x="98.519531" y="570.9375" xlink:href="#m"/>
  <use x="99.457031" y="570.9375" xlink:href="#a"/>
  <use x="101.3125" y="570.9375" xlink:href="#l"/>
  <use x="102.933594" y="570.9375" xlink:href="#d"/>
 </g>
</svg>
