<?xml version="1.0" encoding="UTF-8"?>
<svg width="700pt" height="700pt" version="1.1" viewBox="0 0 700 700" xmlns="http://www.w3.org/2000/svg" xmlns:xlink="http://www.w3.org/1999/xlink">
 <defs>
  <symbol id="v" overflow="visible">
   <path d="m1.8281-0.10938c-0.09375 0.054688-0.19531 0.089844-0.29688 0.10938-0.09375 0.019531-0.19922 0.03125-0.3125 0.03125-0.33594 0-0.60156-0.085938-0.79688-0.26562-0.1875-0.1875-0.28125-0.44141-0.28125-0.76562 0-0.3125 0.09375-0.5625 0.28125-0.75 0.19531-0.1875 0.46094-0.28125 0.79688-0.28125 0.11328 0 0.21875 0.015625 0.3125 0.046875 0.10156 0.023437 0.20312 0.058594 0.29688 0.10938v0.40625c-0.09375-0.0625-0.1875-0.10938-0.28125-0.14062s-0.19531-0.046875-0.29688-0.046875c-0.17969 0-0.32031 0.0625-0.42188 0.1875-0.10547 0.11719-0.15625 0.27344-0.15625 0.46875 0 0.21094 0.050781 0.375 0.15625 0.5 0.10156 0.11719 0.24219 0.17188 0.42188 0.17188 0.10156 0 0.20312-0.015625 0.29688-0.046875s0.1875-0.078125 0.28125-0.14062z"/>
  </symbol>
  <symbol id="f" overflow="visible">
   <path d="m1.3438-1.0938c-0.042969-0.019531-0.085938-0.03125-0.125-0.03125-0.042969-0.007812-0.085938-0.015625-0.125-0.015625-0.125 0-0.22656 0.042969-0.29688 0.125-0.0625 0.074219-0.09375 0.18359-0.09375 0.32812v0.6875h-0.46875v-1.5h0.46875v0.25c0.0625-0.09375 0.12891-0.16016 0.20312-0.20312 0.082031-0.050781 0.17969-0.078125 0.29688-0.078125h0.046875c0.019531 0 0.050781 0.007812 0.09375 0.015625z"/>
  </symbol>
  <symbol id="a" overflow="visible">
   <path d="m1.7188-0.75v0.14062h-1.1094c0.007813 0.10547 0.046875 0.1875 0.10938 0.25 0.070312 0.054687 0.17188 0.078125 0.29688 0.078125 0.10156 0 0.20703-0.015625 0.3125-0.046875 0.10156-0.03125 0.21094-0.070313 0.32812-0.125v0.35938c-0.11719 0.042969-0.23047 0.074219-0.34375 0.09375-0.11719 0.019531-0.23047 0.03125-0.34375 0.03125-0.27344 0-0.48047-0.066406-0.625-0.20312-0.14844-0.13281-0.21875-0.32812-0.21875-0.57812 0-0.23828 0.070312-0.42578 0.21875-0.5625 0.14453-0.14453 0.34766-0.21875 0.60938-0.21875 0.22656 0 0.41016 0.074219 0.54688 0.21875 0.14453 0.13672 0.21875 0.32422 0.21875 0.5625zm-0.48438-0.15625c0-0.09375-0.027344-0.16406-0.078125-0.21875-0.054688-0.0625-0.125-0.09375-0.21875-0.09375-0.085938 0-0.15625 0.027344-0.21875 0.078125-0.0625 0.054687-0.10156 0.13281-0.10938 0.23438z"/>
  </symbol>
  <symbol id="e" overflow="visible">
   <path d="m0.90625-0.67188c-0.10547 0-0.18359 0.015625-0.23438 0.046875-0.054687 0.03125-0.078125 0.085938-0.078125 0.15625 0 0.0625 0.019531 0.10938 0.0625 0.14062 0.039062 0.03125 0.097656 0.046875 0.17188 0.046875 0.09375 0 0.16406-0.03125 0.21875-0.09375 0.0625-0.0625 0.09375-0.14453 0.09375-0.25v-0.046875zm0.71875-0.1875v0.85938h-0.48438v-0.21875c-0.0625 0.09375-0.13672 0.16406-0.21875 0.20312-0.074219 0.03125-0.16797 0.046875-0.28125 0.046875-0.15625 0-0.28125-0.039062-0.375-0.125-0.09375-0.09375-0.14062-0.21094-0.14062-0.35938 0-0.17578 0.054688-0.30078 0.17188-0.375 0.125-0.082031 0.3125-0.125 0.5625-0.125h0.28125v-0.046875c0-0.070312-0.03125-0.125-0.09375-0.15625-0.054687-0.039062-0.14062-0.0625-0.26562-0.0625-0.10547 0-0.20312 0.011719-0.29688 0.03125-0.085937 0.023438-0.16406 0.054688-0.23438 0.09375v-0.35938c0.10156-0.03125 0.20703-0.050781 0.3125-0.0625 0.10156-0.007813 0.20312-0.015625 0.29688-0.015625 0.26953 0 0.46094 0.054688 0.57812 0.15625 0.125 0.10547 0.1875 0.27734 0.1875 0.51562z"/>
  </symbol>
  <symbol id="d" overflow="visible">
   <path d="m0.75-1.9219v0.42188h0.5v0.34375h-0.5v0.64062c0 0.0625 0.007812 0.10938 0.03125 0.14062 0.03125 0.023438 0.085938 0.03125 0.17188 0.03125h0.25v0.34375h-0.40625c-0.1875 0-0.32422-0.035156-0.40625-0.10938-0.074219-0.082031-0.10938-0.21875-0.10938-0.40625v-0.64062h-0.25v-0.34375h0.25v-0.42188z"/>
  </symbol>
  <symbol id="k" overflow="visible">
   <path d="m1.25-1.2812v-0.79688h0.48438v2.0781h-0.48438v-0.21875c-0.074219 0.09375-0.15234 0.16406-0.23438 0.20312-0.074219 0.03125-0.16406 0.046875-0.26562 0.046875-0.17969 0-0.32812-0.070312-0.45312-0.21875-0.11719-0.14453-0.17188-0.33203-0.17188-0.5625 0-0.22656 0.054688-0.41406 0.17188-0.5625 0.125-0.14453 0.27344-0.21875 0.45312-0.21875 0.10156 0 0.19141 0.023438 0.26562 0.0625 0.082031 0.042969 0.16016 0.10547 0.23438 0.1875zm-0.3125 0.96875c0.09375 0 0.16406-0.035156 0.21875-0.10938 0.0625-0.070313 0.09375-0.17969 0.09375-0.32812 0-0.13281-0.03125-0.23828-0.09375-0.3125-0.054688-0.082031-0.125-0.125-0.21875-0.125-0.10547 0-0.18359 0.042969-0.23438 0.125-0.054687 0.074219-0.078125 0.17969-0.078125 0.3125 0 0.14844 0.023438 0.25781 0.078125 0.32812 0.050781 0.074219 0.12891 0.10938 0.23438 0.10938z"/>
  </symbol>
  <symbol id="j" overflow="visible">
   <path d="m1.0312-0.3125c0.09375 0 0.16406-0.035156 0.21875-0.10938 0.0625-0.070313 0.09375-0.17969 0.09375-0.32812 0-0.13281-0.03125-0.23828-0.09375-0.3125-0.054688-0.082031-0.125-0.125-0.21875-0.125-0.10547 0-0.1875 0.042969-0.25 0.125-0.054688 0.074219-0.078125 0.17969-0.078125 0.3125 0 0.14844 0.023437 0.25781 0.078125 0.32812 0.0625 0.074219 0.14453 0.10938 0.25 0.10938zm-0.32812-0.96875c0.070313-0.082031 0.14453-0.14453 0.21875-0.1875 0.082031-0.039062 0.17578-0.0625 0.28125-0.0625 0.1875 0 0.33594 0.074219 0.45312 0.21875 0.11328 0.14844 0.17188 0.33594 0.17188 0.5625 0 0.23047-0.058594 0.41797-0.17188 0.5625-0.11719 0.14844-0.26562 0.21875-0.45312 0.21875-0.10547 0-0.19922-0.015625-0.28125-0.046875-0.074219-0.039062-0.14844-0.10938-0.21875-0.20312v0.21875h-0.46875v-2.0781h0.46875z"/>
  </symbol>
  <symbol id="i" overflow="visible">
   <path d="m0.03125-1.5h0.48438l0.39062 1.0156 0.34375-1.0156h0.48438l-0.625 1.6406c-0.0625 0.16406-0.14062 0.28125-0.23438 0.34375-0.085938 0.070313-0.19531 0.10938-0.32812 0.10938h-0.26562v-0.3125h0.14062c0.082031 0 0.14062-0.015625 0.17188-0.046875 0.039062-0.023437 0.070312-0.070313 0.09375-0.14062l0.015625-0.03125z"/>
  </symbol>
  <symbol id="c" overflow="visible">
   <path d="m1.3906-1.4531v0.375c-0.09375-0.050781-0.19531-0.085937-0.29688-0.10938-0.09375-0.019531-0.18359-0.03125-0.26562-0.03125-0.085937 0-0.15234 0.015625-0.20312 0.046875-0.042969 0.023437-0.0625 0.054687-0.0625 0.09375 0 0.042969 0.015625 0.074219 0.046875 0.09375 0.03125 0.023437 0.09375 0.039063 0.1875 0.046875l0.078125 0.015625c0.25 0.03125 0.41406 0.085937 0.5 0.15625 0.082031 0.0625 0.125 0.17188 0.125 0.32812s-0.0625 0.27734-0.1875 0.35938c-0.11719 0.074219-0.28906 0.10938-0.51562 0.10938-0.10547 0-0.21094-0.011719-0.3125-0.03125-0.10547-0.0078125-0.21094-0.03125-0.3125-0.0625v-0.35938c0.09375 0.054687 0.1875 0.089844 0.28125 0.10938 0.10156 0.023438 0.20703 0.03125 0.3125 0.03125 0.09375 0 0.16016-0.007812 0.20312-0.03125 0.050781-0.03125 0.078125-0.070312 0.078125-0.125 0-0.039062-0.015625-0.070312-0.046875-0.09375-0.03125-0.019531-0.10156-0.035156-0.20312-0.046875l-0.078125-0.015625c-0.21875-0.019531-0.37109-0.066406-0.45312-0.14062-0.085937-0.070313-0.125-0.17969-0.125-0.32812 0-0.15625 0.050781-0.26953 0.15625-0.34375 0.11328-0.082031 0.28125-0.125 0.5-0.125 0.09375 0 0.1875 0.011719 0.28125 0.03125 0.10156 0.011719 0.20703 0.027344 0.3125 0.046875z"/>
  </symbol>
  <symbol id="b" overflow="visible">
   <path d="m1.7344-0.90625v0.90625h-0.48438v-0.6875c0-0.13281-0.007812-0.22266-0.015625-0.26562 0-0.050781-0.007813-0.09375-0.015625-0.125-0.023438-0.03125-0.046875-0.050781-0.078125-0.0625-0.03125-0.019531-0.070313-0.03125-0.10938-0.03125-0.10547 0-0.1875 0.042969-0.25 0.125-0.054688 0.074219-0.078125 0.17969-0.078125 0.3125v0.73438h-0.46875v-2.0781h0.46875v0.79688c0.070313-0.082031 0.14844-0.14453 0.23438-0.1875 0.082031-0.039062 0.17188-0.0625 0.26562-0.0625 0.17578 0 0.30469 0.054688 0.39062 0.15625 0.09375 0.10547 0.14062 0.26172 0.14062 0.46875z"/>
  </symbol>
  <symbol id="h" overflow="visible">
   <path d="m1.7344-0.90625v0.90625h-0.48438v-0.70312c0-0.125-0.007812-0.20703-0.015625-0.25 0-0.050781-0.007813-0.09375-0.015625-0.125-0.023438-0.03125-0.046875-0.050781-0.078125-0.0625-0.03125-0.019531-0.070313-0.03125-0.10938-0.03125-0.10547 0-0.1875 0.042969-0.25 0.125-0.054688 0.074219-0.078125 0.17969-0.078125 0.3125v0.73438h-0.46875v-1.5h0.46875v0.21875c0.070313-0.082031 0.14844-0.14453 0.23438-0.1875 0.082031-0.039062 0.17188-0.0625 0.26562-0.0625 0.17578 0 0.30469 0.054688 0.39062 0.15625 0.09375 0.10547 0.14062 0.26172 0.14062 0.46875z"/>
  </symbol>
  <symbol id="u" overflow="visible">
   <path d="m0.23438-2.0781h0.46875v1.125l0.54688-0.54688h0.5625l-0.73438 0.6875 0.79688 0.8125h-0.57812l-0.59375-0.625v0.625h-0.46875z"/>
  </symbol>
  <symbol id="t" overflow="visible">
   <path d="m0.23438-1.5h0.46875v1.5h-0.46875zm0-0.57812h0.46875v0.39062h-0.46875z"/>
  </symbol>
  <symbol id="s" overflow="visible">
   <path d="m1.25-0.25c-0.074219 0.085938-0.15234 0.14844-0.23438 0.1875-0.074219 0.042969-0.16406 0.0625-0.26562 0.0625-0.17969 0-0.32812-0.070312-0.45312-0.21875-0.11719-0.14453-0.17188-0.32812-0.17188-0.54688s0.054688-0.39844 0.17188-0.54688c0.125-0.14453 0.27344-0.21875 0.45312-0.21875 0.10156 0 0.19141 0.023438 0.26562 0.0625 0.082031 0.042969 0.16016 0.10547 0.23438 0.1875v-0.21875h0.48438v1.3438c0 0.23828-0.078125 0.42188-0.23438 0.54688-0.15625 0.13281-0.375 0.20312-0.65625 0.20312-0.09375 0-0.1875-0.011719-0.28125-0.03125-0.085938-0.011719-0.16797-0.03125-0.25-0.0625v-0.375c0.082031 0.050781 0.16016 0.085938 0.23438 0.10938 0.082031 0.03125 0.16406 0.046875 0.25 0.046875 0.15625 0 0.26953-0.039062 0.34375-0.10938 0.070313-0.074219 0.10938-0.17969 0.10938-0.32812zm-0.3125-0.9375c-0.10547 0-0.18359 0.039062-0.23438 0.10938-0.054687 0.074219-0.078125 0.17969-0.078125 0.3125 0 0.13672 0.023438 0.24219 0.078125 0.3125 0.050781 0.074219 0.12891 0.10938 0.23438 0.10938 0.09375 0 0.16406-0.035156 0.21875-0.10938 0.0625-0.070313 0.09375-0.17578 0.09375-0.3125 0-0.13281-0.03125-0.23828-0.09375-0.3125-0.054688-0.070313-0.125-0.10938-0.21875-0.10938z"/>
  </symbol>
  <symbol id="r" overflow="visible">
   <path d="m1.2188-2.0781v0.3125h-0.26562c-0.074219 0-0.125 0.015625-0.15625 0.046875-0.023437 0.023438-0.03125 0.0625-0.03125 0.125v0.09375h0.40625v0.34375h-0.40625v1.1562h-0.46875v-1.1562h-0.25v-0.34375h0.25v-0.09375c0-0.16406 0.039063-0.28516 0.125-0.35938 0.09375-0.082031 0.23438-0.125 0.42188-0.125z"/>
  </symbol>
  <symbol id="g" overflow="visible">
   <path d="m0.9375-1.1875c-0.10547 0-0.1875 0.039062-0.25 0.10938-0.054688 0.074219-0.078125 0.18359-0.078125 0.32812 0 0.14844 0.023437 0.26172 0.078125 0.34375 0.0625 0.074219 0.14453 0.10938 0.25 0.10938 0.10156 0 0.17969-0.035156 0.23438-0.10938 0.0625-0.082031 0.09375-0.19531 0.09375-0.34375 0-0.14453-0.03125-0.25391-0.09375-0.32812-0.054687-0.070313-0.13281-0.10938-0.23438-0.10938zm0-0.34375c0.25781 0 0.46094 0.074219 0.60938 0.21875 0.14453 0.13672 0.21875 0.32422 0.21875 0.5625 0 0.25-0.074219 0.44531-0.21875 0.57812-0.14844 0.13672-0.35156 0.20312-0.60938 0.20312-0.26172 0-0.46484-0.066406-0.60938-0.20312-0.13672-0.13281-0.20312-0.32812-0.20312-0.57812 0-0.23828 0.066406-0.42578 0.20312-0.5625 0.14453-0.14453 0.34766-0.21875 0.60938-0.21875z"/>
  </symbol>
  <symbol id="q" overflow="visible">
   <path d="m1.6094-1.25c0.0625-0.09375 0.13281-0.16016 0.21875-0.20312 0.082031-0.050781 0.17578-0.078125 0.28125-0.078125 0.16406 0 0.29688 0.054688 0.39062 0.15625 0.09375 0.10547 0.14062 0.26172 0.14062 0.46875v0.90625h-0.48438v-0.78125-0.03125-0.0625c0-0.10156-0.015625-0.17578-0.046875-0.21875-0.03125-0.050781-0.085937-0.078125-0.15625-0.078125-0.085937 0-0.15234 0.039063-0.20312 0.10938-0.054688 0.074219-0.078125 0.18359-0.078125 0.32812v0.73438h-0.48438v-0.78125c0-0.16406-0.015625-0.26953-0.046875-0.3125-0.023437-0.050781-0.070313-0.078125-0.14062-0.078125-0.09375 0-0.16797 0.042969-0.21875 0.125-0.054688 0.074219-0.078125 0.17969-0.078125 0.3125v0.73438h-0.46875v-1.5h0.46875v0.21875c0.0625-0.082031 0.12891-0.14453 0.20312-0.1875 0.082031-0.039062 0.16406-0.0625 0.25-0.0625 0.10156 0 0.19141 0.027344 0.26562 0.078125 0.082031 0.054687 0.14453 0.12109 0.1875 0.20312z"/>
  </symbol>
  <symbol id="p" overflow="visible">
   <path d="m0.25-2h0.57812l0.71875 1.375v-1.375h0.48438v2h-0.5625l-0.73438-1.375v1.375h-0.48438z"/>
  </symbol>
  <symbol id="o" overflow="visible">
   <path d="m0.21875-0.57812v-0.92188h0.46875v0.15625 0.3125 0.23438 0.26562c0.007812 0.054688 0.023438 0.089844 0.046875 0.10938 0.019531 0.03125 0.046875 0.058594 0.078125 0.078125 0.03125 0.011719 0.066406 0.015625 0.10938 0.015625 0.09375 0 0.16406-0.035156 0.21875-0.10938 0.0625-0.070312 0.09375-0.17578 0.09375-0.3125v-0.75h0.48438v1.5h-0.48438v-0.21875c-0.074219 0.09375-0.15234 0.16406-0.23438 0.20312-0.074219 0.03125-0.15625 0.046875-0.25 0.046875-0.17969 0-0.3125-0.050781-0.40625-0.15625-0.085938-0.10156-0.125-0.25391-0.125-0.45312z"/>
  </symbol>
  <symbol id="n" overflow="visible">
   <path d="m0.25-2h0.85938c0.25 0 0.44141 0.058594 0.57812 0.17188 0.13281 0.11719 0.20312 0.27734 0.20312 0.48438 0 0.21094-0.070313 0.37109-0.20312 0.48438-0.13672 0.11719-0.32812 0.17188-0.57812 0.17188h-0.34375v0.6875h-0.51562zm0.51562 0.375v0.5625h0.28125c0.10156 0 0.17969-0.019531 0.23438-0.0625 0.050781-0.050781 0.078125-0.125 0.078125-0.21875s-0.027344-0.16016-0.078125-0.20312c-0.054688-0.050781-0.13281-0.078125-0.23438-0.078125z"/>
  </symbol>
  <symbol id="m" overflow="visible">
   <path d="m0.23438-1.5h0.46875v1.4688c0 0.20703-0.046875 0.36328-0.14062 0.46875-0.09375 0.10156-0.23438 0.15625-0.42188 0.15625h-0.23438v-0.3125h0.078125c0.09375 0 0.15625-0.023438 0.1875-0.0625 0.039063-0.042969 0.0625-0.125 0.0625-0.25zm0-0.57812h0.46875v0.39062h-0.46875z"/>
  </symbol>
  <symbol id="l" overflow="visible">
   <path d="m1.4375-1.4531v0.39062c-0.0625-0.039062-0.13281-0.070312-0.20312-0.09375-0.0625-0.019531-0.13281-0.03125-0.20312-0.03125-0.125 0-0.23047 0.042969-0.3125 0.125-0.074219 0.074219-0.10938 0.17969-0.10938 0.3125 0 0.14844 0.035156 0.26172 0.10938 0.34375 0.082031 0.074219 0.1875 0.10938 0.3125 0.10938 0.082031 0 0.15625-0.007813 0.21875-0.03125 0.070312-0.03125 0.13281-0.066406 0.1875-0.10938v0.39062c-0.074219 0.03125-0.15234 0.050781-0.23438 0.0625-0.074219 0.0078125-0.14844 0.015625-0.21875 0.015625-0.27344 0-0.48438-0.066406-0.64062-0.20312-0.14844-0.13281-0.21875-0.32812-0.21875-0.57812 0-0.23828 0.070312-0.42578 0.21875-0.5625 0.15625-0.14453 0.36719-0.21875 0.64062-0.21875 0.070313 0 0.14453 0.011719 0.21875 0.03125 0.082031 0.011719 0.16016 0.027344 0.23438 0.046875z"/>
  </symbol>
 </defs>
 <g>
  <path d="m136.06 81.211h51.57 7.4375c-2.7344-2.7344-5.4688-5.4688-8.2031-8.2031v10.336 28.273 41.617 50.75 55.836 56.109 52.336 44.461 31.773c0 5.0312-0.21875 10.062 0 15.094v0.65625c2.7344-2.7344 5.4688-5.4688 8.2031-8.2031h-47.633-9.625-1.6953c-0.38281 0-0.76563 0-1.1484-0.054687-0.98438 0 0.16406 0.054687 0.32812 0.10937-0.49219-0.054687-0.98438-0.16406-1.4219-0.27344-0.38281-0.10938-2.4609-0.76562-1.75-0.49219 0.875 0.32812-0.21875-0.10938-0.32812-0.16406-0.49219-0.27344-1.0391-0.60156-1.5312-0.875-0.32812-0.16406-0.60156-0.38281-0.875-0.60156 1.2031 0.82031 0.21875 0.21875 0-0.054687-0.60156-0.60156-1.2031-1.1484-1.75-1.75-0.60156-0.71094 0.10938 0.16406 0.16406 0.27344-0.27344-0.38281-0.54688-0.76562-0.76563-1.2031-0.27344-0.49219-1.2578-2.7344-0.71094-1.2578-0.27344-0.82031-0.54688-1.6406-0.71094-2.4609-0.054688-0.38281-0.16406-0.71094-0.21875-1.0938 0.21875 1.5859 0.054687 0.27344 0.054687-0.054688v-0.82031-1.3672-22.148-43.039-56.82-62.672-61.578-52.555-36.422-9.7344-2.3516-0.49219-0.054688c0 0.054688 0.10938-2.2422 0-1.1484-0.054687 0.92969 0.054687-0.21875 0.054687-0.38281 0.16406-0.60156 0.27344-1.2031 0.4375-1.75 0.054688-0.21875 0.60156-1.6406 0.21875-0.71094-0.32812 0.875 0.10938-0.21875 0.16406-0.32812 0.4375-0.71094 0.82031-1.4219 1.2578-2.1328 0.65625-1.0391-0.82031 0.875 0-0.054688 0.21875-0.27344 0.49219-0.54688 0.71094-0.76562 0.32812-0.32812 0.71094-0.65625 1.0391-0.98438 0.054687-0.10938 0.98437-0.82031 0.27344-0.27344-0.60156 0.4375 1.2031-0.71094 1.5312-0.92969 0.4375-0.21875 0.82031-0.4375 1.2578-0.65625-0.10938 0.054687-1.2031 0.4375-0.27344 0.16406 0.82031-0.27344 1.6406-0.49219 2.4609-0.65625 0.38281-0.10938 1.5312-0.10938 0.054687 0 0.38281-0.16406 0.92969-0.21875 1.4219-0.21875 4.2656-0.10938 8.4219-3.7188 8.2031-8.2031-0.21875-4.375-3.6094-8.3125-8.2031-8.2031-15.039 0.27344-26.906 12.25-27.125 27.289v5.3594 30.188 49.711 60.922 64.422 59.938 47.633 27.398c0 1.6953-0.054688 3.3906 0.054688 5.0859 1.1484 15.148 13.508 25.648 28.438 25.648h52.664 4.9766c4.4297 0 8.2031-3.7734 8.2031-8.2031v-10.336-28.273-41.617-50.75-55.836-56.109-52.336-44.461-31.773c0-5.0312 0.10937-10.062 0-15.094v-0.65625c0-4.4297-3.7734-8.2031-8.2031-8.2031h-51.57-7.4375c-4.2656 0-8.4219 3.7734-8.2031 8.2031 0.16406 4.4844 3.6094 8.2578 8.2031 8.2578z"/>
  <path d="m257.96 460.2v-10.336-28.273-41.617-50.75-55.836-56.109-52.336-44.461-31.773c0-5.0312 0.10937-10.062 0-15.094v-0.65625c0-4.2656-3.7734-8.4219-8.2031-8.2031-4.4297 0.21875-8.2031 3.6094-8.2031 8.2031v10.336 28.273 41.617 50.75 55.836 56.109 52.336 44.461 31.773c0 5.0312-0.10938 10.062 0 15.094v0.65625c0 4.2656 3.7734 8.4219 8.2031 8.2031 4.4297-0.21875 8.2031-3.6094 8.2031-8.2031z"/>
  <path d="m298.7 73.008v10.336 28.273 41.617 50.75 55.836 56.109 52.336 44.461 31.773c0 5.0312-0.10938 10.062 0 15.094v0.65625c0 4.2656 3.7734 8.4219 8.2031 8.2031s8.2031-3.6094 8.2031-8.2031v-10.336-28.273-41.617-50.75-55.836-56.109-52.336-44.461-31.773c0-5.0312 0.10938-10.062 0-15.094v-0.65625c0-4.2656-3.7734-8.4219-8.2031-8.2031-4.4844 0.21875-8.2031 3.6094-8.2031 8.2031z"/>
  <path d="m369.8 460.2v-10.336-28.273-41.617-50.75-55.836-56.109-52.336-44.461-31.773c0-5.0312 0.10938-10.062 0-15.094v-0.65625c0-4.2656-3.7734-8.4219-8.2031-8.2031s-8.2031 3.6094-8.2031 8.2031v10.336 28.273 41.617 50.75 55.836 56.109 52.336 44.461 31.773c0 5.0312-0.10938 10.062 0 15.094v0.65625c0 4.2656 3.7734 8.4219 8.2031 8.2031s8.2031-3.6094 8.2031-8.2031z"/>
  <path d="m410.54 73.008v10.336 28.273 41.617 50.75 55.836 56.109 52.336 44.461 31.773c0 5.0312-0.10937 10.062 0 15.094v0.65625c0 4.2656 3.7734 8.4219 8.2031 8.2031 4.4297-0.21875 8.2031-3.6094 8.2031-8.2031v-10.336-28.273-41.617-50.75-55.836-56.109-52.336-44.461-31.773c0-5.0312 0.10938-10.062 0-15.094v-0.65625c0-4.2656-3.7734-8.4219-8.2031-8.2031-4.4844 0.21875-8.2031 3.6094-8.2031 8.2031z"/>
  <path d="m543.16 91.93v13.398 35.656 50.805 59.555 60.977 56.109 44.133 25.266 3.4453c0 0.49219-0.054688 0.98437-0.054688 1.5312 0-0.10938 0.21875-1.3125 0.054688-0.32813-0.16406 0.82031-0.4375 1.6406-0.60156 2.4609 0 0.10938-0.4375 1.2578-0.10938 0.38281 0.38281-0.92969-0.21875 0.4375-0.32812 0.65625-0.38281 0.71094-0.82031 1.4219-1.3125 2.1328 0.92969-1.3125-0.4375 0.4375-0.76563 0.76562-0.38281 0.38281-1.9688 1.6406-0.76562 0.76562-0.71094 0.49219-1.4219 0.875-2.1328 1.3125-0.32812 0.16406-0.65625 0.32812-0.98438 0.49219 1.0938-0.49219 0.21875-0.10937-0.38281 0.054688-0.82031 0.21875-1.6406 0.4375-2.5156 0.60156 1.4219-0.21875-0.27344-0.054687-0.82031-0.054687h-0.38281-2.4609-51.625-4.5391c2.7344 2.7344 5.4688 5.4688 8.2031 8.2031v-10.336-28.273-41.617-50.75-55.836-56.109-52.336-44.461-31.773c0-5.0312 0.21875-10.062 0-15.094v-0.65625c-2.7344 2.7344-5.4688 5.4688-8.2031 8.2031 19.523 0 38.992-0.10938 58.516 0 0.65625 0 1.3125 0 1.9688 0.054687-1.5859-0.054687-0.054687 0 0.38281 0.10938 0.82031 0.16406 1.6406 0.4375 2.4609 0.71094-0.32812-0.10938-1.3125-0.71094 0 0.054687 0.60156 0.32812 1.2578 0.71094 1.8594 1.0938 1.2578 0.71094 0.38281 0.21875 0.054687 0 0.65625 0.54688 1.2031 1.1484 1.8047 1.6953 0.32813 0.32812 1.2031 1.5312 0.27344 0.27344 0.38281 0.60156 0.76562 1.2031 1.1484 1.8047 0.21875 0.4375 0.4375 0.82031 0.65625 1.2578-0.71094-1.5859 0.10937 0.54688 0.16406 0.76562 0.16406 0.60156 0.27344 1.2031 0.38281 1.8047 0.10938 0.60156 0.10938 0.49219-0.054687-0.32813 0.054687 0.4375 0.10938 0.92969 0.10938 1.4219 0.10938 4.2656 3.7188 8.4219 8.2031 8.2031 4.375-0.21875 8.3125-3.6094 8.2031-8.2031-0.21875-12.359-8.8047-24.008-21.219-26.469-4.2656-0.875-8.6406-0.65625-12.961-0.65625h-40.359-11.594c-4.4297 0-8.2031 3.7734-8.2031 8.2031v10.336 28.273 41.617 50.75 55.836 56.109 52.336 44.461 31.773c0 5.0312-0.10937 10.062 0 15.094v0.65625c0 4.4297 3.7734 8.2031 8.2031 8.2031h46.539c6.5625 0 14.219 0.82031 20.508-1.2031 11.484-3.7188 19.031-14.328 19.086-26.305 0.054688-5.9609 0-11.922 0-17.883v-39.266-53.648-60.977-61.25-54.469-40.688c0-6.6172 0.10938-13.234 0-19.852v-0.875c0-4.2656-3.7734-8.4219-8.2031-8.2031-4.4844 0.10937-8.2031 3.5-8.2031 8.0938z"/>
  <path d="m574.66 119.77v32.102c0 5.0859 0.054688 10.117 0 15.203v0.76563c0 2.1875-0.10938-0.054688 0 0.054687-0.054688 0.21875-0.10938 0.49219-0.21875 0.71094 0.10938-0.21875 0.16406-0.4375 0.27344-0.60156-0.10938 0.21875-0.21875 0.4375-0.32813 0.60156 0.60156-0.65625 0.60156-0.65625-0.054687 0-0.16406 0.16406-0.32812 0.32813-0.54688 0.49219 0.71094-0.54688 0.65625-0.60156-0.10938-0.10938 0.21875-0.10938 0.4375-0.16406 0.60156-0.27344-0.21875 0.054687-0.49219 0.10937-0.71094 0.21875-0.10938-0.10938 2.1328 0-0.054688 0h-0.54687-3.1172-18.594c2.7344 2.7344 5.4688 5.4688 8.2031 8.2031v-58.352-8.3672c-2.7344 2.7344-5.4688 5.4688-8.2031 8.2031h14.82 6.9453 0.49219c1.2578 0 0.27344-0.21875 0.054688 0 0.21875 0.054687 0.49219 0.10937 0.71094 0.21875-0.21875-0.10938-0.4375-0.16406-0.60156-0.27344 0.21875 0.10938 0.4375 0.21875 0.60156 0.32812-0.60156-0.54688-0.65625-0.60156-0.21875-0.21875 0.16406 0.16406 0.32812 0.32812 0.49219 0.49219 0.38281 0.4375 0.32812 0.32813-0.21875-0.21875 0.10938 0.21875 0.21875 0.4375 0.32812 0.60156-0.10938-0.21875-0.16406-0.4375-0.27344-0.60156 0.16406 0.82031 0.27344 0.92969 0.16406 0.32813 0.10938-0.54688 0.10938-0.38281 0.10938 0.49219 0.16406 4.2656 3.6641 8.4219 8.2031 8.2031 4.3203-0.21875 8.3672-3.6094 8.2031-8.2031-0.32812-7.875-5.25-14.93-13.07-16.953-2.8984-0.76562-5.9609-0.54688-8.9688-0.54688h-17.719c-4.4297 0-8.2031 3.7734-8.2031 8.2031v58.352 8.3672c0 4.4297 3.7734 8.2031 8.2031 8.2031h17.281c2.5703 0 5.0312 0.054687 7.6016-0.27344 8.0391-1.0938 14-7.8203 14.766-15.75 0.4375-4.1562 0.10938-8.4219 0.10938-12.578v-22.367-14.711c0-4.2656-3.7734-8.4219-8.2031-8.2031-4.4297 0.27344-8.2031 3.6641-8.2031 8.2578z"/>
  <path d="m501.05 460.2v26.797c0 4.2656 3.7734 8.4219 8.2031 8.2031s8.2031-3.6094 8.2031-8.2031v-26.797c0-4.2656-3.7734-8.4219-8.2031-8.2031-4.4844 0.21875-8.2031 3.6094-8.2031 8.2031z"/>
  <path d="m151.05 460.2v26.797c0 4.2656 3.7734 8.4219 8.2031 8.2031s8.2031-3.6094 8.2031-8.2031v-26.797c0-4.2656-3.7734-8.4219-8.2031-8.2031-4.4844 0.21875-8.2031 3.6094-8.2031 8.2031z"/>
  <use x="70" y="568.203125" xlink:href="#v"/>
  <use x="72.007812" y="568.203125" xlink:href="#f"/>
  <use x="73.355469" y="568.203125" xlink:href="#a"/>
  <use x="75.210937" y="568.203125" xlink:href="#e"/>
  <use x="77.054688" y="568.203125" xlink:href="#d"/>
  <use x="78.363281" y="568.203125" xlink:href="#a"/>
  <use x="80.214844" y="568.203125" xlink:href="#k"/>
  <use x="83.125" y="568.203125" xlink:href="#j"/>
  <use x="85.082031" y="568.203125" xlink:href="#i"/>
  <use x="87.816406" y="568.203125" xlink:href="#c"/>
  <use x="89.445312" y="568.203125" xlink:href="#b"/>
  <use x="91.390625" y="568.203125" xlink:href="#e"/>
  <use x="93.238281" y="568.203125" xlink:href="#c"/>
  <use x="94.863281" y="568.203125" xlink:href="#b"/>
  <use x="96.8125" y="568.203125" xlink:href="#e"/>
  <use x="98.65625" y="568.203125" xlink:href="#h"/>
  <use x="100.601562" y="568.203125" xlink:href="#u"/>
  <use x="103.375" y="568.203125" xlink:href="#c"/>
  <use x="105" y="568.203125" xlink:href="#t"/>
  <use x="105.9375" y="568.203125" xlink:href="#h"/>
  <use x="107.882812" y="568.203125" xlink:href="#s"/>
  <use x="109.84375" y="568.203125" xlink:href="#b"/>
  <use x="70" y="570.9375" xlink:href="#r"/>
  <use x="71.191406" y="570.9375" xlink:href="#f"/>
  <use x="72.539062" y="570.9375" xlink:href="#g"/>
  <use x="74.417969" y="570.9375" xlink:href="#q"/>
  <use x="78.21875" y="570.9375" xlink:href="#d"/>
  <use x="79.523438" y="570.9375" xlink:href="#b"/>
  <use x="81.472656" y="570.9375" xlink:href="#a"/>
  <use x="84.277344" y="570.9375" xlink:href="#p"/>
  <use x="86.566406" y="570.9375" xlink:href="#g"/>
  <use x="88.445312" y="570.9375" xlink:href="#o"/>
  <use x="90.390625" y="570.9375" xlink:href="#h"/>
  <use x="93.289062" y="570.9375" xlink:href="#n"/>
  <use x="95.292969" y="570.9375" xlink:href="#f"/>
  <use x="96.644531" y="570.9375" xlink:href="#g"/>
  <use x="98.519531" y="570.9375" xlink:href="#m"/>
  <use x="99.457031" y="570.9375" xlink:href="#a"/>
  <use x="101.3125" y="570.9375" xlink:href="#l"/>
  <use x="102.933594" y="570.9375" xlink:href="#d"/>
 </g>
</svg>
