<svg width="104" height="104" viewBox="0 0 104 104" fill="none" xmlns="http://www.w3.org/2000/svg">
<circle cx="52" cy="52" r="52" fill="#D9D9D9"/>
<path d="M88.1271 50.7186L82.3613 44.7749L77.7774 38.8425C77.7134 38.7606 77.6289 38.6927 77.5341 38.6517L63.9474 32.5735C63.9371 32.5696 63.9257 32.5724 63.9165 32.5685C63.8309 32.5348 63.7361 32.5146 63.6391 32.5208C63.6379 32.5208 63.6351 32.5219 63.6339 32.5219H63.6288L45.4798 34.2197L38.4326 30.8666C38.3327 30.8189 38.223 30.8088 38.1117 30.8178C38.0786 30.82 38.05 30.8279 38.0169 30.8369C37.9798 30.8458 37.9404 30.843 37.9044 30.8593L30.0641 34.3084L21.9703 38.5727L18.6357 38.0262C18.4028 37.9858 18.1789 38.079 18.0356 38.2574C17.8923 38.4358 17.8563 38.6782 17.9437 38.892L19.3209 42.2681L16.5835 46.4483C16.5338 46.5223 16.5042 46.6054 16.4899 46.6907C16.4847 46.7198 16.4899 46.7485 16.4887 46.7776C16.4876 46.8343 16.4865 46.8882 16.5002 46.9437C16.5013 46.9538 16.499 46.9628 16.5013 46.9712C16.5104 47.0004 16.5293 47.0228 16.5424 47.0503C16.5578 47.0829 16.5641 47.1193 16.5847 47.1507L17.2995 48.2213L14.3527 50.6721C14.2196 50.7826 14.138 50.9436 14.1248 51.1159C14.1134 51.2893 14.1722 51.4576 14.2887 51.5872L19.1262 56.8995C19.2518 57.0365 19.4231 57.1083 19.5956 57.1083C19.7463 57.1083 19.8988 57.0544 20.0215 56.945L22.4745 54.7315L26.5764 51.8549L32.0465 53.426L32.3931 56.1837L26.0927 60.8004C25.9894 60.8745 25.91 60.9766 25.8666 61.0922C25.8666 61.0922 25.8666 61.0933 25.8655 61.0933C25.8375 61.1702 25.8221 61.2504 25.8244 61.3323V69.5786C25.8244 69.9293 26.1081 70.2132 26.4587 70.2132H30.004C30.2176 70.2132 30.4174 70.1066 30.5334 69.9282C30.651 69.7498 30.6704 69.5248 30.5882 69.3273L30.3643 68.8083L39.5757 62.8584L39.9902 66.3585L37.2392 70.0184C37.0947 70.2092 37.0702 70.4673 37.1775 70.6822C37.2883 70.8971 37.5081 71.0329 37.7485 71.0329H44.3012C44.5622 71.0329 44.7963 70.8746 44.8922 70.6317L47.6153 63.7314C47.645 63.6574 47.6598 63.5794 47.6598 63.4991V58.0694L61.8849 60.9377L65.5426 66.5285L61.8397 69.9331C61.6479 70.1093 61.5828 70.3854 61.6787 70.6306C61.7746 70.8735 62.0087 71.0329 62.2714 71.0329H70.484C70.7324 71.0329 70.9597 70.887 71.0636 70.6609L75.76 60.2779L81.1639 66.0606L79.0587 69.228C78.9297 69.4227 78.9194 69.6729 79.0291 69.8788C79.1404 70.0847 79.3551 70.2132 79.5892 70.2132H85.3191C85.451 70.2132 85.5726 70.1694 85.6771 70.0976C85.7079 70.0763 85.7216 70.0398 85.7485 70.0135C85.805 69.9579 85.8689 69.9091 85.9021 69.8322C85.9072 69.821 85.9021 69.807 85.9072 69.7958C85.9112 69.7857 85.9198 69.7806 85.9238 69.7705L87.5688 64.5568C87.5956 64.4727 87.6048 64.3835 87.5956 64.2954L86.1796 51.6781L87.6225 51.7948C87.6402 51.7959 87.6567 51.7971 87.675 51.7971C87.9183 51.7971 88.1432 51.6574 88.2483 51.4341C88.3596 51.1922 88.3122 50.9083 88.1278 50.7187L88.1271 50.7186ZM80.4364 49.9392L82.0785 46.3067L86.0384 50.3864L80.4364 49.9392ZM81.1479 45.2816L75.052 58.7562L66.9004 65.3799L65.9657 54.1816V54.1805L64.403 34.1687L76.8694 39.7453L81.1479 45.2816ZM47.6214 56.7677L46.0443 35.4402L63.1072 33.8439L64.6894 54.1071L61.9201 59.6495L47.6214 56.7677ZM44.7584 35.2822L46.026 52.4298L39.2495 32.6607L44.7584 35.2822ZM64.891 56.5436L65.5282 64.1851L63.001 60.3254L64.891 56.5436ZM21.0095 39.6991L20.1678 40.9783L19.5466 39.4589L21.0095 39.6991ZM20.563 42.6852C20.5641 42.6852 20.5653 42.6852 20.5653 42.6841L21.9145 40.6327L25.3337 49.9345L18.0444 46.532L20.563 42.6852ZM22.2451 53.3419L18.9071 48.3331L25.196 51.2703L22.2451 53.3419ZM19.6397 55.5789L15.6748 51.2238L18.009 49.2829L21.2449 54.1308L19.6397 55.5789ZM26.9433 50.6396L22.8658 39.5329L29.8439 35.8554L31.876 52.055L26.9433 50.6396ZM27.0952 68.9436V64.4066L29.0417 68.9436H27.0952ZM29.9297 67.5795L27.2461 61.5276L33.4441 56.9856C33.6297 56.8498 33.7268 56.6237 33.6977 56.3959L33.2563 52.8744C33.2552 52.8621 33.254 52.8492 33.2512 52.8368L31.046 35.2597L37.7814 32.3L46.2612 57.0332L39.7422 61.2414C39.7399 61.2426 39.7399 61.2454 39.7382 61.2465L29.9297 67.5795ZM40.2081 68.1844L40.3948 69.7656H39.0198L40.2081 68.1844ZM43.8699 69.7656H41.6739L41.2828 66.4624C41.2816 66.4512 41.2805 66.4383 41.2788 66.4288L40.766 62.0926L46.3886 58.4601V63.378L43.8699 69.7656ZM70.0731 69.7656H63.8978L66.7881 67.1088L73.8844 61.3436L70.0731 69.7656ZM80.7707 68.9436L82.052 67.0129L83.8552 68.9436H80.7707ZM86.3151 64.3023L85.0383 68.3516L82.442 65.5725C82.4357 65.5663 82.4294 65.5585 82.4226 65.5523L76.3243 59.0268L79.8787 51.1704L84.8846 51.5739L86.3151 64.3023Z" fill="black"/>
</svg>
