<svg width="104" height="104" viewBox="0 0 104 104" fill="none" xmlns="http://www.w3.org/2000/svg">
<circle cx="52" cy="52" r="52" fill="#D9D9D9"/>
<path d="M53.9638 25.0727C46.3753 24.5207 39.1414 27.1265 33.6002 32.4116C28.135 37.6247 25 44.9985 25 52.643C25 59.1549 27.2703 65.5497 31.3925 70.5128C32.1273 71.3978 32.8818 72.2708 33.7198 73.0556C34.3518 73.6478 35.4002 74.7642 36.3269 74.7642C36.8765 74.7642 37.322 74.3085 37.322 73.7454V57.5583C37.322 55.4806 38.9727 53.7895 41.0024 53.7895H43.9467C45.6507 53.7895 47.0972 54.9865 47.506 56.6336C46.4693 57.6785 45.824 59.13 45.824 60.734C45.824 62.4012 46.5243 63.901 47.6342 64.9534V65.0122C46.3565 65.9032 45.5842 67.3713 45.5842 68.9788V78.5728C45.5842 79.1355 46.0293 79.5916 46.5793 79.5916C47.1288 79.5916 47.5743 79.1359 47.5743 78.5728V78.4982L47.5735 68.9801C47.5735 67.9276 48.1488 66.9782 49.0789 66.4999C49.3225 66.3733 49.579 66.2957 49.8417 66.2505C50.3513 66.4065 50.8896 66.4931 51.4483 66.4931C52.0083 66.4931 52.5478 66.4061 53.0579 66.2497C54.3531 66.4696 55.3252 67.6334 55.3252 68.9801V78.9812C55.3252 79.5439 55.7703 80 56.3203 80C56.8698 80 57.3153 79.5443 57.3153 78.9812L57.3157 68.9801C57.3157 67.3449 56.4889 65.8635 55.2236 64.9901C56.356 63.9359 57.0722 62.4218 57.0722 60.735C57.0722 58.5669 55.8948 56.6759 54.1608 55.6938V53.0768C54.1608 50.52 56.1924 48.4389 58.6897 48.4389H62.1582C64.652 48.4389 66.6805 50.5161 66.6805 53.0701V71.1647C66.6805 72.0868 67.195 72.8899 68.0228 73.2608C68.8463 73.6299 69.7668 73.4722 70.4292 72.846C76.4069 67.1312 79.5061 59.0456 78.9324 50.6634C78.0081 37.0419 67.2744 26.0396 53.9644 25.0727L53.9638 25.0727ZM42.4743 51.4426C39.801 51.4426 37.6252 49.2153 37.6252 46.4777C37.6252 43.7405 39.8005 41.5136 42.4743 41.5136C45.1476 41.5136 47.3225 43.7405 47.3225 46.4777C47.3229 49.2157 45.148 51.4426 42.4743 51.4426ZM55.0819 60.736C55.0819 62.7877 53.4511 64.4571 51.4476 64.4571C49.4434 64.4571 47.8134 62.7873 47.8134 60.736C47.8134 58.6838 49.4442 57.0149 51.4476 57.0149C53.4511 57.0149 55.0819 58.6847 55.0819 60.736ZM60.4202 46.1553C57.1685 46.1553 54.5227 43.4463 54.5227 40.117C54.5227 36.7877 57.1685 34.0787 60.4202 34.0787C63.6718 34.0787 66.3176 36.7877 66.3176 40.117C66.3176 43.4463 63.6722 46.1553 60.4202 46.1553ZM69.0745 71.3553C69 71.4257 68.9151 71.4384 68.8189 71.3962C68.7502 71.3655 68.6686 71.3007 68.6686 71.1665V53.0718C68.6686 50.3022 67.0103 47.9231 64.6576 46.9172C66.848 45.481 68.3068 42.9731 68.3068 40.1171C68.3068 35.6646 64.7688 32.0416 60.4197 32.0416C56.0714 32.042 52.533 35.6641 52.533 40.1176C52.533 42.9733 53.9922 45.4819 56.1834 46.918C53.8286 47.9254 52.1696 50.3066 52.1696 53.0787V55.0311C51.9327 55 51.6929 54.9778 51.4472 54.9778C50.6587 54.9778 49.9084 55.1466 49.2269 55.4472C48.6861 54.0323 47.6257 52.9019 46.2963 52.2811C48.1145 51.0215 49.3123 48.8901 49.3123 46.4781C49.3123 42.6172 46.2452 39.4764 42.474 39.4764C38.7036 39.4764 35.6356 42.6168 35.6356 46.4781C35.6356 48.8908 36.8343 51.0231 38.6532 52.2824C36.6972 53.1989 35.3321 55.217 35.3321 57.5602V71.7339C30.0134 66.873 26.9903 59.9971 26.9903 52.644C26.9903 45.5621 29.8938 38.7312 34.9573 33.9033C40.0904 29.0075 46.7965 26.5955 53.8235 27.1058C66.1508 28.0022 76.0928 38.1922 76.9476 50.8085C77.4788 58.5763 74.6077 66.0669 69.0742 71.3575L69.0745 71.3553Z" fill="black"/>
</svg>
