<svg width="104" height="104" viewBox="0 0 104 104" fill="none" xmlns="http://www.w3.org/2000/svg">
<circle cx="52" cy="52" r="52" fill="#D9D9D9"/>
<path d="M84.582 58.2394H18.7005C18.3138 58.2394 18 57.9256 18 57.5384C18 57.1517 18.3138 56.8379 18.7005 56.8379H84.582C84.9688 56.8379 85.2826 57.1517 85.2826 57.5384C85.2826 57.9256 84.9688 58.2394 84.582 58.2394Z" fill="black"/>
<path d="M76.4095 58.2394C76.118 58.2416 75.8554 58.0628 75.7505 57.791L73.0034 50.6069L67.5437 48.6163H67.5433C67.4502 48.5822 67.3645 48.5298 67.2911 48.4625L64.3823 45.659L60.4085 50.3967C60.3006 50.5689 60.1231 50.686 59.9221 50.717C59.7211 50.748 59.5166 50.6904 59.3614 50.5593C59.2063 50.4277 59.1158 50.2354 59.1136 50.0318C59.1119 49.8286 59.198 49.6345 59.3501 49.4995L63.8076 44.1797V44.1801C63.9318 44.0307 64.1118 43.9393 64.3054 43.9275C64.5003 43.917 64.6908 43.9883 64.8311 44.1237L68.1603 47.334L73.7672 49.3806C73.9586 49.4514 74.1094 49.6026 74.1806 49.794L77.061 57.2862C77.1995 57.6463 77.0208 58.0501 76.6616 58.1904C76.5816 58.2236 76.4959 58.2402 76.4094 58.2393L76.4095 58.2394Z" fill="black"/>
<path d="M62.7987 58.2394C62.5098 58.2385 62.2507 58.0607 62.1467 57.791L57.9487 46.9766L54.7249 45.2312C54.5641 45.1446 54.4431 44.9991 54.3884 44.8247L51.9705 37.1922L45.5507 32.2089L36.2217 48.4556C36.1242 48.6264 35.9586 48.7488 35.7663 48.7916L32.7596 49.4367L28.9816 57.847C28.8229 58.201 28.4074 58.3597 28.0529 58.201C27.6989 58.0424 27.5403 57.6264 27.6994 57.2724L31.6313 48.5745C31.7217 48.3708 31.904 48.2227 32.1216 48.175L35.1842 47.4741L44.7374 30.8146C44.8366 30.6376 45.0079 30.5122 45.2067 30.4711C45.4065 30.4362 45.6114 30.4847 45.7749 30.6044L53.0009 36.2113H53.0005C53.1132 36.2987 53.1963 36.4184 53.2391 36.5548L55.6357 44.1449L58.8595 45.862L58.86 45.8624C59.0099 45.9402 59.127 46.0696 59.189 46.2269L63.4504 57.2864C63.5889 57.6465 63.4102 58.0503 63.051 58.1906C62.971 58.2238 62.8853 58.2404 62.7988 58.2395L62.7987 58.2394Z" fill="black"/>
<path d="M35.633 48.8127C35.2458 48.8455 34.9053 48.5584 34.8725 48.1712C34.8398 47.784 35.1269 47.4436 35.5141 47.4108L40.7984 46.4577L42.7187 43.1285C42.8074 42.9593 42.9612 42.8335 43.1443 42.7801C43.3279 42.7268 43.525 42.7509 43.6906 42.8466C43.8558 42.9423 43.9751 43.1009 44.0205 43.2866C44.066 43.4719 44.0337 43.6682 43.9314 43.8294L41.8289 47.4741L41.8285 47.4737C41.7262 47.6542 41.5492 47.78 41.3451 47.8172L35.7382 48.8262L35.633 48.8127Z" fill="black"/>
<path d="M71.0484 54.42C70.878 54.4195 70.7137 54.3575 70.586 54.2447L67.6283 51.6095C67.5002 51.4893 67.4181 51.328 67.3966 51.1537L67.0606 48.0347C67.0409 47.8489 67.0964 47.6628 67.2149 47.5177C67.3337 47.373 67.505 47.2817 67.6912 47.2638C68.0762 47.2275 68.4184 47.5098 68.4551 47.8948L68.7427 50.7472L71.4971 53.2072H71.4967C71.7109 53.4016 71.7834 53.708 71.6794 53.9776C71.5758 54.2477 71.3167 54.426 71.0274 54.4269L71.0484 54.42Z" fill="black"/>
<path d="M56.7082 55.9683C56.4385 55.9674 56.1933 55.8123 56.0775 55.5689L54.8648 53.0106L52.1243 51.0973H52.1247C51.807 50.8744 51.7301 50.437 51.953 50.1197C52.1754 49.802 52.6133 49.7251 52.9306 49.9479L55.8463 51.9661C55.9455 52.036 56.0255 52.1299 56.0775 52.2396L57.3741 54.9662C57.5384 55.3162 57.3877 55.7336 57.0376 55.8983C56.9358 55.9495 56.8222 55.9739 56.7081 55.9682L56.7082 55.9683Z" fill="black"/>
<path d="M59.7859 73.6167C59.5809 73.6167 59.3864 73.5267 59.2531 73.3711L55.2719 68.7104C55.0206 68.4163 55.0552 67.974 55.3493 67.7223C55.6434 67.4706 56.0856 67.5051 56.3374 67.7992L60.01 72.1025L65.6589 70.2527L67.0608 66.4401V66.4397C67.1193 66.2846 67.2312 66.1556 67.3759 66.0752L73.7606 62.4939L75.6879 57.2934H75.6884C75.8238 56.9294 76.2285 56.7445 76.5925 56.88C76.9561 57.0155 77.1414 57.4202 77.0059 57.7842L74.9804 63.2228C74.9232 63.3801 74.8113 63.5121 74.6649 63.5943L68.2802 67.1756L66.8153 71.0585C66.7414 71.2569 66.5819 71.4116 66.3809 71.4789L59.9397 73.5814H59.9401C59.8899 73.5985 59.8383 73.6103 59.7859 73.6168L59.7859 73.6167Z" fill="black"/>
<path d="M43.6656 82.6507C43.4537 82.6459 43.2553 82.5454 43.1259 82.3776L36.2573 73.3362C36.218 73.2881 36.187 73.2335 36.1664 73.1749L34.1829 68.1428L31.6106 66.8042H31.611C31.4646 66.7268 31.3501 66.6001 31.2885 66.4467L27.6932 57.8052C27.5459 57.4468 27.7168 57.0373 28.0751 56.8905C28.433 56.7432 28.8425 56.9145 28.9898 57.2725L32.4942 65.6828L35.0735 67.0284H35.0731C35.2269 67.1018 35.3453 67.2329 35.4026 67.3928L37.4351 72.5653L43.6871 80.8144L49.1257 74.2194L51.3825 69.1453C51.4646 68.96 51.6233 68.8192 51.8169 68.7598L57.9495 66.8391L62.1549 57.6439H62.1544C62.3153 57.2917 62.7309 57.1361 63.0831 57.2969C63.4353 57.4578 63.5909 57.8734 63.4301 58.2256L59.1199 67.7084C59.0359 67.8911 58.8777 68.0288 58.6855 68.0869L52.5389 70.0071L50.366 74.9131V74.9135C50.3376 74.9712 50.3022 75.0254 50.2612 75.0744L44.2054 82.3777C44.0761 82.5456 43.8777 82.6461 43.6657 82.6509L43.6656 82.6507Z" fill="black"/>
<path d="M41.8924 75.173C41.691 75.1725 41.4996 75.086 41.3667 74.9348L39.4325 72.7479C39.3481 72.6505 39.2922 72.5316 39.2712 72.4044L38.7175 69.3205L34.5755 68.3184H34.5751C34.2006 68.2284 33.969 67.8525 34.0568 67.4776C34.1001 67.2958 34.2137 67.1389 34.3728 67.0419C34.5318 66.9444 34.7233 66.9147 34.9046 66.9589L39.4885 68.0662C39.7595 68.1318 39.9662 68.3521 40.0142 68.6269L40.6169 71.9701L42.4183 74.0096C42.6748 74.298 42.6499 74.7399 42.3619 74.9977C42.2326 75.1118 42.0652 75.1743 41.8926 75.173H41.8924Z" fill="black"/>
<path d="M47.0711 70.6733C46.9698 70.6724 46.8697 70.651 46.777 70.6099C46.6075 70.5326 46.4759 70.3901 46.4117 70.2153C46.347 70.0405 46.3549 69.8469 46.4335 69.6778L47.5479 67.2458V64.2041C47.5484 63.9511 47.6852 63.7182 47.9054 63.5945L52.1807 61.1555C52.342 61.0528 52.5378 61.0205 52.7235 61.0659C52.9088 61.1114 53.0679 61.2307 53.1636 61.3963C53.2589 61.5615 53.2829 61.7586 53.23 61.9421C53.1767 62.1257 53.0508 62.2795 52.8817 62.3678L48.9569 64.6106V67.4141C48.9573 67.5159 48.9359 67.616 48.8935 67.7086L47.7162 70.2739C47.5983 70.5217 47.3461 70.6782 47.0712 70.6733L47.0711 70.6733Z" fill="black"/>
<path d="M72.8362 31.859C71.8616 31.8617 70.9212 31.4989 70.2009 30.8426C69.6796 31.0628 69.1198 31.1773 68.5538 31.1791C67.2904 31.1633 66.1013 30.5803 65.3151 29.5914C64.5285 28.6025 64.2287 27.3124 64.4979 26.0783C64.7671 24.8437 65.5769 23.7962 66.7035 23.2241C66.8062 22.6119 67.1222 22.056 67.5955 21.6544C68.0688 21.2528 68.6688 21.0321 69.2898 21.0308C69.5271 21.0334 69.7627 21.0683 69.9904 21.1356C70.7346 20.3958 71.745 19.9867 72.7939 20.0003C74.1215 20.003 75.3601 20.6681 76.0951 21.7738C76.8219 21.731 77.5417 21.9359 78.1373 22.3546C78.7329 22.7732 79.1691 23.3811 79.3753 24.0795C80.4412 24.2285 81.3506 24.9264 81.771 25.9176C82.191 26.9088 82.0594 28.0481 81.4253 28.9177C80.7908 29.7873 79.7463 30.2602 78.6743 30.1632C78.1853 30.8388 77.4056 31.2444 76.5718 31.2562C76.1435 31.2579 75.7218 31.1521 75.3451 30.9481C74.6424 31.538 73.7534 31.861 72.8362 31.8592L72.8362 31.859ZM70.3483 29.2797H70.3478C70.5576 29.2811 70.7556 29.3763 70.8876 29.5389C71.3587 30.1123 72.0583 30.4488 72.8 30.4579C73.542 30.4675 74.25 30.1494 74.7355 29.5878C74.8588 29.4432 75.0362 29.3545 75.2259 29.3427C75.416 29.3357 75.6013 29.4008 75.7446 29.5249C75.9684 29.7364 76.2642 29.854 76.5719 29.8544C77.05 29.8579 77.4865 29.5848 77.6932 29.1535C77.8291 28.8458 78.1643 28.6784 78.4921 28.754C78.9863 28.8637 79.5033 28.7453 79.9001 28.4311C80.2974 28.1173 80.5316 27.6409 80.5386 27.1349C80.5386 26.6926 80.3629 26.2683 80.05 25.9554C79.7371 25.6425 79.3128 25.4668 78.8705 25.4668H78.8146C78.4505 25.4685 78.1464 25.1915 78.1136 24.8292C78.0599 24.3152 77.7898 23.849 77.3707 23.5465C76.952 23.2441 76.4246 23.1348 75.9198 23.245C75.6016 23.3215 75.2725 23.1672 75.1279 22.8735C74.7416 22.0777 73.9707 21.5376 73.0905 21.4462C72.2104 21.3549 71.345 21.725 70.8037 22.4251C70.5786 22.714 70.1696 22.7809 69.8645 22.5794C69.6832 22.4824 69.4813 22.4317 69.2759 22.4321C68.5985 22.4321 68.0491 22.9814 68.0491 23.6588C68.0487 23.9639 67.8669 24.2392 67.5868 24.3594C66.7385 24.6526 66.0817 25.3339 65.8204 26.1922C65.559 27.051 65.7242 27.9827 66.2648 28.6985C66.8058 29.4147 67.6567 29.8286 68.5539 29.8124C69.0482 29.805 69.5315 29.6673 69.9554 29.4126C70.0712 29.3326 70.2071 29.2863 70.3478 29.2797L70.3483 29.2797Z" fill="black"/>
<path d="M26.4737 37.0948C25.4983 37.0948 24.5582 36.7299 23.8384 36.0714C23.3223 36.2929 22.7669 36.4074 22.2053 36.4079C20.9405 36.3961 19.7479 35.8157 18.9586 34.8272C18.1689 33.8391 17.8665 32.5477 18.1344 31.3113C18.4027 30.0755 19.213 29.0253 20.3409 28.4528C20.4432 27.8445 20.7561 27.2908 21.225 26.89C21.6939 26.4888 22.2892 26.2655 22.9062 26.2594C23.1435 26.262 23.3795 26.2974 23.6072 26.3643C24.3518 25.6257 25.3618 25.2167 26.4107 25.229C27.7453 25.2312 28.9916 25.8989 29.7324 27.0094C30.4582 26.9639 31.1771 27.1671 31.7719 27.5849C32.3666 28.0027 32.8019 28.6102 33.0055 29.308C34.0972 29.4269 35.0424 30.1191 35.4856 31.1242C35.9283 32.1289 35.8015 33.294 35.1526 34.1798C34.5036 35.066 33.4316 35.5385 32.3395 35.4196C31.85 36.0935 31.0703 36.4964 30.237 36.506C29.8091 36.506 29.3874 36.4002 29.0107 36.1975C28.2984 36.7883 27.399 37.1065 26.4734 37.0947L26.4737 37.0948ZM23.9858 34.5086C24.1977 34.5077 24.3988 34.603 24.5325 34.7678C25.0058 35.3542 25.7198 35.6947 26.4738 35.6929C27.2058 35.6899 27.9011 35.3704 28.38 34.8167C28.5019 34.6734 28.6763 34.5851 28.8638 34.5715C29.0552 34.561 29.2427 34.6297 29.3825 34.7608C29.6731 35.0212 30.0704 35.1274 30.4523 35.047C30.8343 34.9666 31.155 34.7096 31.3168 34.3543C31.4531 34.0436 31.7927 33.8754 32.1226 33.9549C32.2467 33.9829 32.3739 33.9973 32.5011 33.9969C33.07 33.9602 33.5809 33.635 33.8553 33.1351C34.1297 32.6351 34.1298 32.0294 33.8553 31.5299C33.5809 31.0299 33.07 30.7048 32.5011 30.6676H32.4381C32.0745 30.6694 31.7699 30.3923 31.7372 30.03C31.6838 29.5152 31.4125 29.0476 30.992 28.746C30.5712 28.4445 30.0411 28.3379 29.5363 28.4528C29.2164 28.5284 28.8869 28.3706 28.7444 28.0744C28.3581 27.2781 27.5876 26.7384 26.7071 26.647C25.8269 26.5557 24.962 26.9259 24.4202 27.626C24.2083 27.8969 23.8316 27.9738 23.53 27.8082C23.3386 27.7055 23.1236 27.6544 22.9064 27.6609C22.229 27.6609 21.6797 28.2102 21.6797 28.8876C21.6832 29.1935 21.5001 29.471 21.2173 29.5882C20.4486 29.8368 19.8246 30.4045 19.5046 31.1466C19.1851 31.8887 19.2009 32.7321 19.5483 33.4614C19.8957 34.1908 20.5408 34.7349 21.3182 34.9543C22.0956 35.1732 22.9299 35.0469 23.6073 34.6064C23.7222 34.5409 23.8529 34.5068 23.9857 34.5085L23.9858 34.5086Z" fill="black"/>
</svg>
