<?xml version="1.0" encoding="UTF-8"?>
<svg width="700pt" height="700pt" version="1.1" viewBox="0 0 700 700" xmlns="http://www.w3.org/2000/svg" xmlns:xlink="http://www.w3.org/1999/xlink">
 <defs>
  <symbol id="w" overflow="visible">
   <path d="m20.984-1.25c-1.0859 0.5625-2.2148 0.98438-3.3906 1.2656-1.168 0.28125-2.3867 0.42188-3.6562 0.42188-3.8047 0-6.8203-1.0625-9.0469-3.1875-2.2188-2.125-3.3281-5.0039-3.3281-8.6406 0-3.6562 1.1094-6.5469 3.3281-8.6719 2.2266-2.125 5.2422-3.1875 9.0469-3.1875 1.2695 0 2.4883 0.14844 3.6562 0.4375 1.1758 0.28125 2.3047 0.70312 3.3906 1.2656v4.7188c-1.0938-0.73828-2.1719-1.2812-3.2344-1.625-1.0547-0.35156-2.168-0.53125-3.3438-0.53125-2.0938 0-3.7461 0.67969-4.9531 2.0312-1.1992 1.3438-1.7969 3.1992-1.7969 5.5625 0 2.3555 0.59766 4.2031 1.7969 5.5469 1.207 1.3438 2.8594 2.0156 4.9531 2.0156 1.1758 0 2.2891-0.17188 3.3438-0.51562 1.0625-0.34375 2.1406-0.89062 3.2344-1.6406z"/>
  </symbol>
  <symbol id="b" overflow="visible">
   <path d="m15.359-12.469c-0.48047-0.21875-0.96094-0.37891-1.4375-0.48438-0.46875-0.11328-0.94531-0.17188-1.4219-0.17188-1.4062 0-2.4922 0.45312-3.25 1.3594-0.76172 0.89844-1.1406 2.1875-1.1406 3.875v7.8906h-5.4844v-17.125h5.4844v2.8125c0.69531-1.125 1.5039-1.9414 2.4219-2.4531 0.91406-0.51953 2.0078-0.78125 3.2812-0.78125 0.1875 0 0.38281 0.011719 0.59375 0.03125 0.21875 0.011719 0.53125 0.042969 0.9375 0.09375z"/>
  </symbol>
  <symbol id="a" overflow="visible">
   <path d="m19.734-8.6094v1.5625h-12.812c0.13281 1.2812 0.59766 2.2461 1.3906 2.8906 0.80078 0.63672 1.9141 0.95312 3.3438 0.95312 1.1562 0 2.3359-0.16406 3.5469-0.5 1.207-0.34375 2.4453-0.86328 3.7188-1.5625v4.2188c-1.293 0.49219-2.5898 0.85938-3.8906 1.1094-1.293 0.25-2.5859 0.375-3.875 0.375-3.1055 0-5.5156-0.78516-7.2344-2.3594-1.7188-1.5703-2.5781-3.7812-2.5781-6.625 0-2.8008 0.84375-5 2.5312-6.5938 1.6875-1.6016 4.0078-2.4062 6.9688-2.4062 2.6953 0 4.8516 0.8125 6.4688 2.4375 1.6133 1.6172 2.4219 3.7812 2.4219 6.5zm-5.625-1.8281c0-1.0391-0.30859-1.8789-0.92188-2.5156-0.60547-0.63281-1.3984-0.95312-2.375-0.95312-1.0625 0-1.9297 0.30469-2.5938 0.90625-0.65625 0.59375-1.0703 1.4492-1.2344 2.5625z"/>
  </symbol>
  <symbol id="m" overflow="visible">
   <path d="m10.312-7.7031c-1.1484 0-2.0078 0.19531-2.5781 0.57812-0.57422 0.38672-0.85938 0.95312-0.85938 1.7031 0 0.69922 0.22656 1.2461 0.6875 1.6406 0.46875 0.38672 1.1133 0.57812 1.9375 0.57812 1.0312 0 1.8945-0.36719 2.5938-1.1094 0.70703-0.73828 1.0625-1.6602 1.0625-2.7656v-0.625zm8.3594-2.0781v9.7812h-5.5156v-2.5469c-0.74219 1.043-1.5703 1.8047-2.4844 2.2812-0.91797 0.46875-2.0312 0.70312-3.3438 0.70312-1.7734 0-3.2148-0.51562-4.3281-1.5469-1.1055-1.0312-1.6562-2.375-1.6562-4.0312 0-2.0078 0.6875-3.4844 2.0625-4.4219 1.3828-0.9375 3.5547-1.4062 6.5156-1.4062h3.2344v-0.42188c0-0.875-0.34375-1.5078-1.0312-1.9062-0.67969-0.40625-1.7422-0.60938-3.1875-0.60938-1.1797 0-2.2734 0.12109-3.2812 0.35938-1.0117 0.23047-1.9492 0.57812-2.8125 1.0469v-4.1719c1.1758-0.28906 2.3516-0.50781 3.5312-0.65625 1.1875-0.14453 2.3672-0.21875 3.5469-0.21875 3.0938 0 5.3203 0.60938 6.6875 1.8281 1.375 1.2188 2.0625 3.1992 2.0625 5.9375z"/>
  </symbol>
  <symbol id="d" overflow="visible">
   <path d="m8.6094-22v4.875h5.6406v3.9062h-5.6406v7.2656c0 0.80469 0.15625 1.3438 0.46875 1.625 0.32031 0.27344 0.95312 0.40625 1.8906 0.40625h2.8125v3.9219h-4.6875c-2.168 0-3.7031-0.44531-4.6094-1.3438-0.89844-0.90625-1.3438-2.4414-1.3438-4.6094v-7.2656h-2.7344v-3.9062h2.7344v-4.875z"/>
  </symbol>
  <symbol id="l" overflow="visible">
   <path d="m14.281-14.625v-9.1719h5.5156v23.797h-5.5156v-2.4844c-0.75 1.0117-1.5781 1.75-2.4844 2.2188s-1.9609 0.70312-3.1562 0.70312c-2.1172 0-3.8516-0.83594-5.2031-2.5156-1.3555-1.6758-2.0312-3.832-2.0312-6.4688 0-2.6445 0.67578-4.8047 2.0312-6.4844 1.3516-1.6758 3.0859-2.5156 5.2031-2.5156 1.1875 0 2.2344 0.24219 3.1406 0.71875 0.91406 0.46875 1.75 1.2031 2.5 2.2031zm-3.6094 11.094c1.1758 0 2.0703-0.42578 2.6875-1.2812 0.61328-0.86328 0.92188-2.1094 0.92188-3.7344 0-1.6328-0.30859-2.8789-0.92188-3.7344-0.61719-0.85156-1.5117-1.2812-2.6875-1.2812-1.1562 0-2.0469 0.42969-2.6719 1.2812-0.61719 0.85547-0.92188 2.1016-0.92188 3.7344 0 1.625 0.30469 2.8711 0.92188 3.7344 0.625 0.85547 1.5156 1.2812 2.6719 1.2812z"/>
  </symbol>
  <symbol id="k" overflow="visible">
   <path d="m11.75-3.5312c1.1641 0 2.0547-0.42578 2.6719-1.2812 0.625-0.86328 0.9375-2.1094 0.9375-3.7344 0-1.6328-0.3125-2.8789-0.9375-3.7344-0.61719-0.85156-1.5078-1.2812-2.6719-1.2812-1.1797 0-2.0781 0.43359-2.7031 1.2969-0.625 0.85547-0.9375 2.0938-0.9375 3.7188 0 1.6172 0.3125 2.8555 0.9375 3.7188 0.625 0.86719 1.5234 1.2969 2.7031 1.2969zm-3.6406-11.094c0.75-1 1.582-1.7344 2.5-2.2031 0.92578-0.47656 1.9844-0.71875 3.1719-0.71875 2.1133 0 3.8477 0.83984 5.2031 2.5156 1.3516 1.6797 2.0312 3.8398 2.0312 6.4844 0 2.6367-0.67969 4.793-2.0312 6.4688-1.3555 1.6797-3.0898 2.5156-5.2031 2.5156-1.1875 0-2.2461-0.23438-3.1719-0.70312-0.91797-0.47656-1.75-1.2188-2.5-2.2188v2.4844h-5.4844v-23.797h5.4844z"/>
  </symbol>
  <symbol id="j" overflow="visible">
   <path d="m0.375-17.125h5.4844l4.6094 11.625 3.9062-11.625h5.4844l-7.2031 18.75c-0.73047 1.9062-1.5781 3.2383-2.5469 4-0.96094 0.75781-2.2305 1.1406-3.8125 1.1406h-3.1562v-3.5938h1.7031c0.92578 0 1.6016-0.15234 2.0312-0.45312 0.42578-0.29297 0.75391-0.82422 0.98438-1.5938l0.15625-0.46875z"/>
  </symbol>
  <symbol id="e" overflow="visible">
   <path d="m2.875-22.844h6.5781l8.3125 15.672v-15.672h5.5781v22.844h-6.5781l-8.3125-15.672v15.672h-5.5781z"/>
  </symbol>
  <symbol id="v" overflow="visible">
   <path d="m2.625-17.125h5.4844v17.125h-5.4844zm0-6.6719h5.4844v4.4688h-5.4844z"/>
  </symbol>
  <symbol id="i" overflow="visible">
   <path d="m16.469-16.594v4.4688c-0.74219-0.50781-1.4844-0.88281-2.2344-1.125-0.75-0.25-1.5273-0.375-2.3281-0.375-1.5312 0-2.7266 0.44922-3.5781 1.3438-0.85547 0.88672-1.2812 2.1328-1.2812 3.7344 0 1.5938 0.42578 2.8398 1.2812 3.7344 0.85156 0.89844 2.0469 1.3438 3.5781 1.3438 0.85156 0 1.6641-0.125 2.4375-0.375 0.76953-0.25781 1.4766-0.64062 2.125-1.1406v4.4844c-0.85547 0.3125-1.7266 0.54688-2.6094 0.70312-0.875 0.15625-1.7578 0.23438-2.6406 0.23438-3.0938 0-5.5156-0.78906-7.2656-2.375-1.7422-1.582-2.6094-3.7852-2.6094-6.6094 0-2.8203 0.86719-5.0234 2.6094-6.6094 1.75-1.5938 4.1719-2.3906 7.2656-2.3906 0.89453 0 1.7734 0.078125 2.6406 0.23438 0.875 0.15625 1.7422 0.39844 2.6094 0.71875z"/>
  </symbol>
  <symbol id="c" overflow="visible">
   <path d="m10.781-13.625c-1.2109 0-2.1367 0.4375-2.7812 1.3125-0.63672 0.86719-0.95312 2.1211-0.95312 3.7656 0 1.6367 0.31641 2.8906 0.95312 3.7656 0.64453 0.875 1.5703 1.3125 2.7812 1.3125 1.1953 0 2.1094-0.4375 2.7344-1.3125 0.63281-0.875 0.95312-2.1289 0.95312-3.7656 0-1.6445-0.32031-2.8984-0.95312-3.7656-0.625-0.875-1.5391-1.3125-2.7344-1.3125zm0-3.9219c2.9453 0 5.25 0.79688 6.9062 2.3906s2.4844 3.7969 2.4844 6.6094-0.82812 5.0156-2.4844 6.6094c-1.6562 1.5859-3.9609 2.375-6.9062 2.375-2.9609 0-5.2734-0.78906-6.9375-2.375-1.668-1.5938-2.5-3.7969-2.5-6.6094s0.83203-5.0156 2.5-6.6094c1.6641-1.5938 3.9766-2.3906 6.9375-2.3906z"/>
  </symbol>
  <symbol id="u" overflow="visible">
   <path d="m12.016-14c0.9375 0 1.6445-0.20312 2.125-0.60938 0.47656-0.40625 0.71875-1.0039 0.71875-1.7969 0-0.78906-0.24219-1.3906-0.71875-1.7969-0.48047-0.41406-1.1875-0.625-2.125-0.625h-3.25v4.8281zm0.20312 10c1.1875 0 2.0781-0.25 2.6719-0.75s0.89062-1.2539 0.89062-2.2656c0-0.98828-0.29688-1.7266-0.89062-2.2188-0.58594-0.5-1.4766-0.75-2.6719-0.75h-3.4531v5.9844zm5.4844-8.2188c1.2578 0.36719 2.2344 1.043 2.9219 2.0312 0.69531 0.99219 1.0469 2.2031 1.0469 3.6406 0 2.1992-0.74609 3.8398-2.2344 4.9219-1.4922 1.0859-3.75 1.625-6.7812 1.625h-9.7812v-22.844h8.8438c3.1641 0 5.4609 0.48047 6.8906 1.4375 1.4258 0.96094 2.1406 2.4961 2.1406 4.6094 0 1.1172-0.26172 2.0625-0.78125 2.8438-0.52344 0.78125-1.2773 1.3594-2.2656 1.7344z"/>
  </symbol>
  <symbol id="h" overflow="visible">
   <path d="m10.781-13.625c-1.2109 0-2.1367 0.4375-2.7812 1.3125-0.63672 0.86719-0.95312 2.1211-0.95312 3.7656 0 1.6367 0.31641 2.8906 0.95312 3.7656 0.64453 0.875 1.5703 1.3125 2.7812 1.3125 1.1953 0 2.1094-0.4375 2.7344-1.3125 0.63281-0.875 0.95312-2.1289 0.95312-3.7656 0-1.6445-0.32031-2.8984-0.95312-3.7656-0.625-0.875-1.5391-1.3125-2.7344-1.3125zm0-3.9219c2.9453 0 5.25 0.79688 6.9062 2.3906s2.4844 3.7969 2.4844 6.6094-0.82812 5.0156-2.4844 6.6094c-1.6562 1.5859-3.9609 2.375-6.9062 2.375-2.9609 0-5.2734-0.78906-6.9375-2.375-1.668-1.5938-2.5-3.7969-2.5-6.6094s0.83203-5.0156 2.5-6.6094c1.6641-1.5938 3.9766-2.3906 6.9375-2.3906zm-4.7656-6.7031h3.5938v3.7656h-3.5938zm6.0469 0h3.5938v3.7656h-3.5938z"/>
  </symbol>
  <symbol id="g" overflow="visible">
   <path d="m2.625-23.797h5.4844v12.953l6.2969-6.2812h6.3594l-8.3594 7.8594 9.0312 9.2656h-6.6406l-6.6875-7.1406v7.1406h-5.4844z"/>
  </symbol>
  <symbol id="f" overflow="visible">
   <path d="m19.859-10.438v10.438h-5.5156v-7.9844c0-1.4766-0.03125-2.5-0.09375-3.0625s-0.17969-0.97266-0.34375-1.2344c-0.21875-0.35156-0.51172-0.62891-0.875-0.82812-0.36719-0.20703-0.78125-0.3125-1.25-0.3125-1.1484 0-2.0469 0.44531-2.7031 1.3281-0.64844 0.88672-0.96875 2.1094-0.96875 3.6719v8.4219h-5.4844v-17.125h5.4844v2.5c0.82031-1 1.6953-1.7344 2.625-2.2031 0.92578-0.47656 1.9531-0.71875 3.0781-0.71875 1.9766 0 3.4766 0.60938 4.5 1.8281 1.0312 1.2109 1.5469 2.9688 1.5469 5.2812z"/>
  </symbol>
  <symbol id="t" overflow="visible">
   <path d="m14.281-2.9062c-0.75 1-1.5781 1.7344-2.4844 2.2031s-1.9609 0.70312-3.1562 0.70312c-2.0938 0-3.8242-0.82031-5.1875-2.4688-1.3672-1.6445-2.0469-3.7422-2.0469-6.2969 0-2.5625 0.67969-4.6602 2.0469-6.2969 1.3633-1.6328 3.0938-2.4531 5.1875-2.4531 1.1953 0 2.25 0.23438 3.1562 0.70312s1.7344 1.2109 2.4844 2.2188v-2.5312h5.5156v15.391c0 2.7578-0.87109 4.8633-2.6094 6.3125-1.7422 1.457-4.2617 2.1875-7.5625 2.1875-1.0742 0-2.1094-0.085937-3.1094-0.25-1-0.16797-2.0078-0.41797-3.0156-0.75v-4.2656c0.95703 0.55078 1.8945 0.96094 2.8125 1.2344 0.91406 0.26953 1.8438 0.40625 2.7812 0.40625 1.7891 0 3.1016-0.39844 3.9375-1.1875 0.83203-0.78125 1.25-2.0078 1.25-3.6875zm-3.6094-10.656c-1.125 0-2.0078 0.41797-2.6406 1.25-0.63672 0.83594-0.95312 2.0156-0.95312 3.5469 0 1.5742 0.30469 2.7656 0.92188 3.5781 0.61328 0.80469 1.5039 1.2031 2.6719 1.2031 1.1445 0 2.0312-0.41406 2.6562-1.25 0.63281-0.83203 0.95312-2.0078 0.95312-3.5312 0-1.5312-0.32031-2.7109-0.95312-3.5469-0.625-0.83203-1.5117-1.25-2.6562-1.25z"/>
  </symbol>
  <symbol id="s" overflow="visible">
   <path d="m13.906-23.797v3.5938h-3.0312c-0.77344 0-1.3125 0.14062-1.625 0.42188-0.30469 0.28125-0.45312 0.76562-0.45312 1.4531v1.2031h4.6875v3.9062h-4.6875v13.219h-5.4844v-13.219h-2.7188v-3.9062h2.7188v-1.2031c0-1.8633 0.51953-3.2383 1.5625-4.125 1.0391-0.89453 2.6562-1.3438 4.8438-1.3438z"/>
  </symbol>
  <symbol id="r" overflow="visible">
   <path d="m18.516-14.281c0.6875-1.0625 1.5039-1.8672 2.4531-2.4219 0.95703-0.5625 2.0078-0.84375 3.1562-0.84375 1.9688 0 3.4688 0.60938 4.5 1.8281 1.0312 1.2109 1.5469 2.9688 1.5469 5.2812v10.438h-5.5156v-8.9375c0.007812-0.125 0.015625-0.25781 0.015625-0.40625 0.007813-0.14453 0.015625-0.34766 0.015625-0.60938 0-1.2188-0.17969-2.0977-0.53125-2.6406-0.35547-0.55078-0.93359-0.82812-1.7344-0.82812-1.043 0-1.8438 0.43359-2.4062 1.2969-0.5625 0.85547-0.85547 2.0938-0.875 3.7188v8.4062h-5.5156v-8.9375c0-1.8945-0.16406-3.1133-0.48438-3.6562-0.32422-0.55078-0.90625-0.82812-1.75-0.82812-1.043 0-1.8516 0.43359-2.4219 1.2969-0.57422 0.86719-0.85938 2.1016-0.85938 3.7031v8.4219h-5.5156v-17.125h5.5156v2.5c0.66406-0.96875 1.4375-1.6953 2.3125-2.1875 0.875-0.48828 1.8359-0.73438 2.8906-0.73438 1.1758 0 2.2188 0.28906 3.125 0.85938 0.91406 0.57422 1.6094 1.375 2.0781 2.4062z"/>
  </symbol>
  <symbol id="q" overflow="visible">
   <path d="m19.859-10.438v10.438h-5.5156v-7.9531c0-1.5-0.03125-2.5312-0.09375-3.0938s-0.17969-0.97266-0.34375-1.2344c-0.21875-0.35156-0.51172-0.62891-0.875-0.82812-0.36719-0.20703-0.78125-0.3125-1.25-0.3125-1.1484 0-2.0469 0.44531-2.7031 1.3281-0.64844 0.88672-0.96875 2.1094-0.96875 3.6719v8.4219h-5.4844v-23.797h5.4844v9.1719c0.82031-1 1.6953-1.7344 2.625-2.2031 0.92578-0.47656 1.9531-0.71875 3.0781-0.71875 1.9766 0 3.4766 0.60938 4.5 1.8281 1.0312 1.2109 1.5469 2.9688 1.5469 5.2812z"/>
  </symbol>
  <symbol id="p" overflow="visible">
   <path d="m2.4531-6.6719v-10.453h5.5v1.7031c0 0.92969-0.007813 2.0938-0.015625 3.5-0.011719 1.3984-0.015625 2.3359-0.015625 2.8125 0 1.375 0.035156 2.3672 0.10938 2.9688 0.070312 0.60547 0.19141 1.0469 0.35938 1.3281 0.22656 0.35547 0.52344 0.63281 0.89062 0.82812 0.36328 0.1875 0.78125 0.28125 1.25 0.28125 1.1328 0 2.0312-0.4375 2.6875-1.3125s0.98438-2.0938 0.98438-3.6562v-8.4531h5.4688v17.125h-5.4688v-2.4844c-0.83594 1-1.7148 1.7422-2.6406 2.2188-0.91797 0.46875-1.9336 0.70312-3.0469 0.70312-1.9805 0-3.4844-0.60156-4.5156-1.8125-1.0312-1.2188-1.5469-2.9844-1.5469-5.2969z"/>
  </symbol>
  <symbol id="o" overflow="visible">
   <path d="m2.875-22.844h9.7812c2.9062 0 5.1328 0.64844 6.6875 1.9375 1.5508 1.293 2.3281 3.1328 2.3281 5.5156 0 2.3984-0.77734 4.2422-2.3281 5.5312-1.5547 1.293-3.7812 1.9375-6.6875 1.9375h-3.8906v7.9219h-5.8906zm5.8906 4.2656v6.3906h3.25c1.1445 0 2.0312-0.27344 2.6562-0.82812 0.625-0.5625 0.9375-1.3516 0.9375-2.375 0-1.0195-0.3125-1.8047-0.9375-2.3594-0.625-0.55078-1.5117-0.82812-2.6562-0.82812z"/>
  </symbol>
  <symbol id="n" overflow="visible">
   <path d="m2.625-17.125h5.4844v16.812c0 2.3008-0.55469 4.0547-1.6562 5.2656-1.1055 1.207-2.6992 1.8125-4.7812 1.8125h-2.7188v-3.5938h0.95312c1.0391 0 1.7539-0.23438 2.1406-0.70312 0.38281-0.46875 0.57812-1.3984 0.57812-2.7812zm0-6.6719h5.4844v4.4688h-5.4844z"/>
  </symbol>
 </defs>
 <g>
  <path d="m644.44 341.8h-588.88c-3.457 0-6.2617-2.8047-6.2617-6.2656 0-3.457 2.8047-6.2617 6.2617-6.2617h588.88c3.457 0 6.2617 2.8047 6.2617 6.2617 0 3.4609-2.8047 6.2656-6.2617 6.2656z"/>
  <path d="m571.39 341.8c-2.6055 0.019531-4.9531-1.5781-5.8906-4.0078l-24.555-64.215-48.801-17.793h-0.003907c-0.83203-0.30469-1.5977-0.77344-2.2539-1.375l-26-25.059-35.52 42.348c-0.96484 1.5391-2.5508 2.5859-4.3477 2.8633-1.7969 0.27734-3.625-0.23828-5.0117-1.4102-1.3867-1.1758-2.1953-2.8945-2.2148-4.7148-0.015625-1.8164 0.75391-3.5508 2.1133-4.7578l39.844-47.551v0.003906c1.1094-1.3359 2.7188-2.1523 4.4492-2.2578 1.7422-0.09375 3.4453 0.54297 4.6992 1.7539l29.758 28.695 50.117 18.293c1.7109 0.63281 3.0586 1.9844 3.6953 3.6953l25.746 66.969c1.2383 3.2188-0.35938 6.8281-3.5703 8.082-0.71484 0.29688-1.4805 0.44531-2.2539 0.4375z"/>
  <path d="m449.73 341.8c-2.582-0.007812-4.8984-1.5977-5.8281-4.0078l-37.523-96.664-28.816-15.602c-1.4375-0.77344-2.5195-2.0742-3.0078-3.6328l-21.613-68.223-57.383-44.543-83.387 145.22c-0.87109 1.5273-2.3516 2.6211-4.0703 3.0039l-26.875 5.7656-33.77 75.176c-1.418 3.1641-5.1328 4.582-8.3008 3.1641-3.1641-1.418-4.582-5.1367-3.1602-8.3008l35.145-77.746c0.80859-1.8203 2.4375-3.1445 4.3828-3.5703l27.375-6.2656 85.391-148.91c0.88672-1.582 2.418-2.7031 4.1953-3.0703 1.7852-0.3125 3.6172 0.12109 5.0781 1.1914l64.59 50.117h-0.003906c1.0078 0.78125 1.75 1.8516 2.1328 3.0703l21.422 67.844 28.816 15.348 0.003906 0.003907c1.3398 0.69531 2.3867 1.8516 2.9414 3.2578l38.09 98.855c1.2383 3.2188-0.35938 6.8281-3.5703 8.082-0.71484 0.29688-1.4805 0.44531-2.2539 0.4375z"/>
  <path d="m206.91 257.54c-3.4609 0.29297-6.5039-2.2734-6.7969-5.7344-0.29297-3.4609 2.2734-6.5039 5.7344-6.7969l47.234-8.5195 17.164-29.758c0.79297-1.5117 2.168-2.6367 3.8047-3.1133 1.6406-0.47656 3.4023-0.26172 4.8828 0.59375 1.4766 0.85547 2.543 2.2734 2.9492 3.9336 0.40625 1.6562 0.11719 3.4102-0.79688 4.8516l-18.793 32.578-0.003906-0.003906c-0.91406 1.6133-2.4961 2.7383-4.3203 3.0703l-50.117 9.0195z"/>
  <path d="m523.47 307.66c-1.5234-0.003906-2.9922-0.55859-4.1328-1.5664l-26.438-23.555c-1.1445-1.0742-1.8789-2.5156-2.0703-4.0742l-3.0039-27.879c-0.17578-1.6602 0.32031-3.3242 1.3789-4.6211 1.0625-1.293 2.5938-2.1094 4.2578-2.2695 3.4414-0.32422 6.5 2.1992 6.8281 5.6406l2.5703 25.496 24.621 21.988h-0.003907c1.9141 1.7383 2.5625 4.4766 1.6328 6.8867-0.92578 2.4141-3.2422 4.0078-5.8281 4.0156z"/>
  <path d="m395.29 321.5c-2.4102-0.007812-4.6016-1.3945-5.6367-3.5703l-10.84-22.867-24.496-17.102h0.003907c-2.8398-1.9922-3.5273-5.9023-1.5352-8.7383 1.9883-2.8398 5.9023-3.5273 8.7383-1.5352l26.062 18.039c0.88672 0.625 1.6016 1.4648 2.0664 2.4453l11.59 24.371c1.4688 3.1289 0.12109 6.8594-3.0078 8.332-0.91016 0.45703-1.9258 0.67578-2.9453 0.625z"/>
  <path d="m422.8 479.25c-1.832 0-3.5703-0.80469-4.7617-2.1953l-35.586-41.66c-2.2461-2.6289-1.9375-6.582 0.69141-8.832s6.582-1.9414 8.832 0.6875l32.828 38.465 50.492-16.535 12.531-34.078v-0.003906c0.52344-1.3867 1.5234-2.5391 2.8164-3.2578l57.07-32.012 17.227-46.484h0.003906c1.2109-3.2539 4.8281-4.9062 8.082-3.6953 3.25 1.2109 4.9062 4.8281 3.6953 8.082l-18.105 48.613c-0.51172 1.4062-1.5117 2.5859-2.8203 3.3203l-57.07 32.012-13.094 34.707c-0.66016 1.7734-2.0859 3.1562-3.8828 3.7578l-57.574 18.793h0.003906c-0.44922 0.15234-0.91016 0.25781-1.3789 0.31641z"/>
  <path d="m278.71 560c-1.8945-0.042969-3.668-0.94141-4.8242-2.4414l-61.395-80.816c-0.35156-0.42969-0.62891-0.91797-0.8125-1.4414l-17.73-44.98-22.992-11.965h0.003906c-1.3086-0.69141-2.332-1.8242-2.8828-3.1953l-32.137-77.242c-1.3164-3.2031 0.21094-6.8633 3.4141-8.1758 3.1992-1.3164 6.8594 0.21484 8.1758 3.4141l31.324 75.176 23.055 12.027h-0.003906c1.375 0.65625 2.4336 1.8281 2.9453 3.2578l18.168 46.234 55.883 73.734 48.613-58.949 20.172-45.355c0.73438-1.6562 2.1523-2.9141 3.8828-3.4453l54.816-17.168 37.59-82.191h-0.003906c1.4375-3.1484 5.1523-4.5391 8.3008-3.1016 3.1484 1.4375 4.5391 5.1523 3.1016 8.3008l-38.527 84.762c-0.75 1.6328-2.1641 2.8633-3.8828 3.3828l-54.941 17.164-19.422 43.852v0.003906c-0.25391 0.51562-0.57031 1-0.9375 1.4375l-54.129 65.281c-1.1562 1.5-2.9297 2.3984-4.8242 2.4414z"/>
  <path d="m262.86 493.16c-1.8008-0.003906-3.5117-0.77734-4.6992-2.1289l-17.289-19.547c-0.75391-0.87109-1.2539-1.9336-1.4414-3.0703l-4.9492-27.566-37.023-8.957h-0.003906c-3.3477-0.80469-5.418-4.1641-4.6328-7.5156 0.38672-1.625 1.4023-3.0273 2.8242-3.8945 1.4219-0.87109 3.1328-1.1367 4.7539-0.74219l40.973 9.8984c2.4219 0.58594 4.2695 2.5547 4.6992 5.0117l5.3867 29.883 16.102 18.23c2.293 2.5781 2.0703 6.5273-0.50391 8.832-1.1562 1.0195-2.6523 1.5781-4.1953 1.5664z"/>
  <path d="m309.15 452.94c-0.90625-0.007812-1.8008-0.19922-2.6289-0.56641-1.5156-0.69141-2.6914-1.9648-3.2656-3.5273-0.57812-1.5625-0.50781-3.293 0.19531-4.8047l9.9609-21.738v-27.188c0.003907-2.2617 1.2266-4.3438 3.1953-5.4492l38.215-21.801c1.4414-0.91797 3.1914-1.207 4.8516-0.80078 1.6562 0.40625 3.0781 1.4727 3.9336 2.9531 0.85156 1.4766 1.0664 3.2383 0.59375 4.8789-0.47656 1.6406-1.6016 3.0156-3.1133 3.8047l-35.082 20.047v25.059c0.003907 0.91016-0.1875 1.8047-0.56641 2.6328l-10.523 22.93c-1.0547 2.2148-3.3086 3.6133-5.7656 3.5703z"/>
  <path d="m539.45 106c-8.7109 0.023438-17.117-3.2188-23.555-9.0859-4.6602 1.9688-9.6641 2.9922-14.723 3.0078-11.293-0.14062-21.922-5.3516-28.949-14.191-7.0312-8.8398-9.7109-20.371-7.3047-31.402 2.4062-11.035 9.6445-20.398 19.715-25.512 0.91797-5.4727 3.7422-10.441 7.9727-14.031 4.2305-3.5898 9.5938-5.5625 15.145-5.5742 2.1211 0.023437 4.2266 0.33594 6.2617 0.9375 6.6523-6.6133 15.684-10.27 25.059-10.148 11.867 0.023438 22.938 5.9688 29.508 15.852 6.4961-0.38281 12.93 1.4492 18.254 5.1914 5.3242 3.7422 9.2227 9.1758 11.066 15.418 9.5273 1.332 17.656 7.5703 21.414 16.43 3.7539 8.8594 2.5781 19.043-3.0898 26.816-5.6719 7.7734-15.008 12-24.59 11.133-4.3711 6.0391-11.34 9.6641-18.793 9.7695-3.8281 0.015625-7.5977-0.92969-10.965-2.7539-6.2812 5.2734-14.227 8.1602-22.426 8.1445zm-22.238-23.055h-0.003906c1.875 0.011719 3.6445 0.86328 4.8242 2.3164 4.2109 5.125 10.465 8.1328 17.094 8.2148 6.6328 0.085938 12.961-2.7578 17.301-7.7773 1.1016-1.293 2.6875-2.0859 4.3828-2.1914 1.6992-0.0625 3.3555 0.51953 4.6367 1.6289 2 1.8906 4.6445 2.9414 7.3945 2.9453 4.2734 0.03125 8.1758-2.4102 10.023-6.2656 1.2148-2.75 4.2109-4.2461 7.1406-3.5703 4.418 0.98047 9.0391-0.078125 12.586-2.8867 3.5508-2.8047 5.6445-7.0625 5.707-11.586 0-3.9531-1.5703-7.7461-4.3672-10.543s-6.5898-4.3672-10.543-4.3672h-0.5c-3.2539 0.015625-5.9727-2.4609-6.2656-5.6992-0.48047-4.5938-2.8945-8.7617-6.6406-11.465-3.7422-2.7031-8.457-3.6797-12.969-2.6953-2.8438 0.68359-5.7852-0.69531-7.0781-3.3203-3.4531-7.1133-10.344-11.941-18.211-12.758-7.8672-0.81641-15.602 2.4922-20.441 8.75-2.0117 2.582-5.668 3.1797-8.3945 1.3789-1.6211-0.86719-3.4258-1.3203-5.2617-1.3164-6.0547 0-10.965 4.9102-10.965 10.965-0.003906 2.7266-1.6289 5.1875-4.1328 6.2617-7.582 2.6211-13.453 8.7109-15.789 16.383-2.3359 7.6758-0.85938 16.004 3.9727 22.402 4.8359 6.4023 12.441 10.102 20.461 9.957 4.418-0.066406 8.7383-1.2969 12.527-3.5742 1.0352-0.71484 2.25-1.1289 3.5078-1.1875z"/>
  <path d="m125.04 152.8c-8.7188 0-17.121-3.2617-23.555-9.1484-4.6133 1.9805-9.5781 3.0039-14.598 3.0078-11.305-0.10547-21.965-5.293-29.02-14.129-7.0586-8.832-9.7617-20.375-7.3672-31.426 2.3984-11.047 9.6406-20.434 19.723-25.551 0.91406-5.4375 3.7109-10.387 7.9023-13.969 4.1914-3.5859 9.5117-5.582 15.027-5.6367 2.1211 0.023438 4.2305 0.33984 6.2656 0.9375 6.6562-6.6016 15.684-10.258 25.059-10.148 11.93 0.019531 23.07 5.9883 29.691 15.914 6.4883-0.40625 12.914 1.4102 18.23 5.1445 5.3164 3.7344 9.207 9.1641 11.027 15.402 9.7578 1.0625 18.207 7.25 22.168 16.234 3.957 8.9805 2.8242 19.395-2.9766 27.312-5.8008 7.9219-15.383 12.145-25.145 11.082-4.375 6.0234-11.344 9.625-18.793 9.7109-3.8242 0-7.5938-0.94531-10.961-2.7578-6.3672 5.2812-14.406 8.125-22.68 8.0195zm-22.238-23.117c1.8945-0.007813 3.6914 0.84375 4.8867 2.3164 4.2305 5.2422 10.613 8.2852 17.352 8.2695 6.543-0.027344 12.758-2.8828 17.039-7.832 1.0898-1.2812 2.6484-2.0703 4.3242-2.1914 1.7109-0.09375 3.3867 0.51953 4.6367 1.6914 2.5977 2.3281 6.1484 3.2773 9.5625 2.5586 3.4141-0.71875 6.2812-3.0156 7.7266-6.1914 1.2188-2.7773 4.2539-4.2812 7.2031-3.5703 1.1094 0.25 2.2461 0.37891 3.3828 0.375 5.0859-0.32812 9.6523-3.2344 12.105-7.7031s2.4531-9.8828 0-14.348c-2.4531-4.4688-7.0195-7.375-12.105-7.707h-0.5625c-3.25 0.015625-5.9727-2.4609-6.2656-5.6992-0.47656-4.6016-2.9023-8.7812-6.6602-11.477-3.7617-2.6953-8.5-3.6484-13.012-2.6211-2.8594 0.67578-5.8047-0.73438-7.0781-3.3828-3.4531-7.1172-10.34-11.941-18.211-12.758-7.8672-0.81641-15.598 2.4922-20.441 8.75-1.8945 2.4219-5.2617 3.1094-7.957 1.6289-1.7109-0.91797-3.6328-1.375-5.5742-1.3164-6.0547 0-10.965 4.9102-10.965 10.965 0.03125 2.7344-1.6055 5.2148-4.1328 6.2617-6.8711 2.2227-12.449 7.2969-15.309 13.93-2.8555 6.6328-2.7148 14.172 0.39062 20.691 3.1055 6.5195 8.8711 11.383 15.82 13.344 6.9492 1.957 14.406 0.82813 20.461-3.1094 1.0273-0.58594 2.1953-0.89063 3.3828-0.875z"/>
  <use x="49.296875" y="653.96875" xlink:href="#w"/>
  <use x="72.28125" y="653.96875" xlink:href="#b"/>
  <use x="87.730469" y="653.96875" xlink:href="#a"/>
  <use x="108.976562" y="653.96875" xlink:href="#m"/>
  <use x="130.113281" y="653.96875" xlink:href="#d"/>
  <use x="145.085938" y="653.96875" xlink:href="#a"/>
  <use x="166.328125" y="653.96875" xlink:href="#l"/>
  <use x="199.65625" y="653.96875" xlink:href="#k"/>
  <use x="222.078125" y="653.96875" xlink:href="#j"/>
  <use x="253.402344" y="653.96875" xlink:href="#e"/>
  <use x="279.617188" y="653.96875" xlink:href="#v"/>
  <use x="290.355469" y="653.96875" xlink:href="#i"/>
  <use x="308.921875" y="653.96875" xlink:href="#c"/>
  <use x="341.347656" y="653.96875" xlink:href="#u"/>
  <use x="365.222656" y="653.96875" xlink:href="#h"/>
  <use x="386.742188" y="653.96875" xlink:href="#g"/>
  <use x="407.570312" y="653.96875" xlink:href="#a"/>
  <use x="428.816406" y="653.96875" xlink:href="#f"/>
  <use x="451.117188" y="653.96875" xlink:href="#g"/>
  <use x="471.945312" y="653.96875" xlink:href="#b"/>
  <use x="487.394531" y="653.96875" xlink:href="#h"/>
  <use x="508.914062" y="653.96875" xlink:href="#t"/>
  <use x="531.335937" y="653.96875" xlink:href="#a"/>
  <use x="552.582031" y="653.96875" xlink:href="#b"/>
  <use x="49.296875" y="685.292969" xlink:href="#s"/>
  <use x="62.921875" y="685.292969" xlink:href="#b"/>
  <use x="78.371094" y="685.292969" xlink:href="#c"/>
  <use x="99.890625" y="685.292969" xlink:href="#r"/>
  <use x="143.433594" y="685.292969" xlink:href="#d"/>
  <use x="158.40625" y="685.292969" xlink:href="#q"/>
  <use x="180.707031" y="685.292969" xlink:href="#a"/>
  <use x="212.855469" y="685.292969" xlink:href="#e"/>
  <use x="239.070312" y="685.292969" xlink:href="#c"/>
  <use x="260.589844" y="685.292969" xlink:href="#p"/>
  <use x="282.890625" y="685.292969" xlink:href="#f"/>
  <use x="316.09375" y="685.292969" xlink:href="#o"/>
  <use x="339.050781" y="685.292969" xlink:href="#b"/>
  <use x="354.5" y="685.292969" xlink:href="#c"/>
  <use x="376.019531" y="685.292969" xlink:href="#n"/>
  <use x="386.757812" y="685.292969" xlink:href="#a"/>
  <use x="408" y="685.292969" xlink:href="#i"/>
  <use x="426.566406" y="685.292969" xlink:href="#d"/>
 </g>
</svg>
