<?xml version="1.0" encoding="UTF-8"?>
<svg width="700pt" height="700pt" version="1.1" viewBox="0 0 700 700" xmlns="http://www.w3.org/2000/svg" xmlns:xlink="http://www.w3.org/1999/xlink">
 <defs>
  <symbol id="p" overflow="visible">
   <path d="m29.312-1.75c-1.5117 0.78125-3.0898 1.3711-4.7344 1.7656-1.6367 0.40625-3.3398 0.60938-5.1094 0.60938-5.3125 0-9.5273-1.4844-12.641-4.4531-3.1055-2.9688-4.6562-7-4.6562-12.094s1.5508-9.125 4.6562-12.094c3.1133-2.9688 7.3281-4.4531 12.641-4.4531 1.7695 0 3.4727 0.19922 5.1094 0.59375 1.6445 0.39844 3.2227 0.99219 4.7344 1.7812v6.5938c-1.5312-1.0391-3.0391-1.8008-4.5156-2.2812-1.4805-0.48828-3.0391-0.73438-4.6719-0.73438-2.9375 0-5.2461 0.94531-6.9219 2.8281-1.6797 1.875-2.5156 4.4648-2.5156 7.7656 0 3.293 0.83594 5.8828 2.5156 7.7656 1.6758 1.875 3.9844 2.8125 6.9219 2.8125 1.6328 0 3.1914-0.23828 4.6719-0.71875 1.4766-0.48828 2.9844-1.2539 4.5156-2.2969z"/>
  </symbol>
  <symbol id="j" overflow="visible">
   <path d="m21.453-17.406c-0.67969-0.3125-1.3516-0.53906-2.0156-0.6875-0.65625-0.15625-1.3203-0.23438-1.9844-0.23438-1.9688 0-3.4844 0.63281-4.5469 1.8906-1.0547 1.2617-1.5781 3.0703-1.5781 5.4219v11.016h-7.6562v-23.922h7.6562v3.9219c0.97656-1.5625 2.1016-2.7031 3.375-3.4219 1.2812-0.71875 2.8125-1.0781 4.5938-1.0781 0.25 0 0.52344 0.011719 0.82812 0.03125 0.30078 0.023438 0.73438 0.070312 1.2969 0.14062z"/>
  </symbol>
  <symbol id="b" overflow="visible">
   <path d="m27.562-12.031v2.1875h-17.891c0.1875 1.793 0.83203 3.1367 1.9375 4.0312 1.1133 0.89844 2.6719 1.3438 4.6719 1.3438 1.6016 0 3.25-0.23438 4.9375-0.70312 1.6875-0.47656 3.4219-1.2031 5.2031-2.1719v5.8906c-1.8047 0.6875-3.6094 1.2031-5.4219 1.5469-1.8125 0.35156-3.6211 0.53125-5.4219 0.53125-4.3359 0-7.7031-1.0977-10.109-3.2969-2.3984-2.207-3.5938-5.2969-3.5938-9.2656 0-3.9062 1.1758-6.9727 3.5312-9.2031 2.3633-2.2383 5.6094-3.3594 9.7344-3.3594 3.7578 0 6.7695 1.1367 9.0312 3.4062 2.2578 2.2617 3.3906 5.2812 3.3906 9.0625zm-7.8594-2.5312c0-1.457-0.42969-2.6289-1.2812-3.5156-0.84375-0.89453-1.9492-1.3438-3.3125-1.3438-1.4922 0-2.6992 0.41797-3.625 1.25-0.91797 0.83594-1.4922 2.0391-1.7188 3.6094z"/>
  </symbol>
  <symbol id="i" overflow="visible">
   <path d="m14.391-10.766c-1.5938 0-2.793 0.27344-3.5938 0.8125-0.80469 0.54297-1.2031 1.3398-1.2031 2.3906 0 0.96875 0.32031 1.7305 0.96875 2.2812 0.64453 0.54297 1.5469 0.8125 2.7031 0.8125 1.4375 0 2.6445-0.51562 3.625-1.5469 0.98828-1.0312 1.4844-2.3203 1.4844-3.875v-0.875zm11.688-2.8906v13.656h-7.7031v-3.5469c-1.0312 1.4492-2.1875 2.5078-3.4688 3.1719s-2.8398 1-4.6719 1c-2.4805 0-4.4961-0.72266-6.0469-2.1719-1.543-1.4453-2.3125-3.3203-2.3125-5.625 0-2.8125 0.96094-4.8672 2.8906-6.1719 1.9375-1.3125 4.9688-1.9688 9.0938-1.9688h4.5156v-0.60938c0-1.207-0.48047-2.0938-1.4375-2.6562-0.94922-0.5625-2.4375-0.84375-4.4688-0.84375-1.6367 0-3.1562 0.16797-4.5625 0.5-1.4062 0.32422-2.7188 0.8125-3.9375 1.4688v-5.8281c1.6445-0.40625 3.2891-0.70703 4.9375-0.90625 1.6562-0.20703 3.3047-0.3125 4.9531-0.3125 4.3203 0 7.4375 0.85547 9.3438 2.5625 1.9141 1.6992 2.875 4.4609 2.875 8.2812z"/>
  </symbol>
  <symbol id="h" overflow="visible">
   <path d="m12.031-30.719v6.7969h7.875v5.4688h-7.875v10.141c0 1.1172 0.21875 1.8711 0.65625 2.2656 0.4375 0.38672 1.3125 0.57812 2.625 0.57812h3.9375v5.4688h-6.5625c-3.0234 0-5.1641-0.62891-6.4219-1.8906-1.2617-1.2578-1.8906-3.3984-1.8906-6.4219v-10.141h-3.7969v-5.4688h3.7969v-6.7969z"/>
  </symbol>
  <symbol id="g" overflow="visible">
   <path d="m19.953-20.422v-12.812h7.6875v33.234h-7.6875v-3.4531c-1.0547 1.4062-2.2148 2.4375-3.4844 3.0938-1.2734 0.65625-2.7422 0.98438-4.4062 0.98438-2.9492 0-5.3711-1.1719-7.2656-3.5156-1.8867-2.3438-2.8281-5.3594-2.8281-9.0469s0.94141-6.7031 2.8281-9.0469c1.8945-2.3438 4.3164-3.5156 7.2656-3.5156 1.6562 0 3.1172 0.33594 4.3906 1 1.2812 0.65625 2.4453 1.6836 3.5 3.0781zm-5.0469 15.484c1.6445 0 2.8945-0.59766 3.75-1.7969 0.86328-1.1953 1.2969-2.9297 1.2969-5.2031 0-2.2812-0.43359-4.0195-1.2969-5.2188-0.85547-1.1953-2.1055-1.7969-3.75-1.7969-1.625 0-2.8711 0.60156-3.7344 1.7969-0.85547 1.1992-1.2812 2.9375-1.2812 5.2188 0 2.2734 0.42578 4.0078 1.2812 5.2031 0.86328 1.1992 2.1094 1.7969 3.7344 1.7969z"/>
  </symbol>
  <symbol id="f" overflow="visible">
   <path d="m16.406-4.9375c1.6328 0 2.8828-0.59766 3.75-1.7969 0.86328-1.1953 1.2969-2.9297 1.2969-5.2031 0-2.2812-0.43359-4.0195-1.2969-5.2188-0.86719-1.1953-2.1172-1.7969-3.75-1.7969-1.6367 0-2.8906 0.60547-3.7656 1.8125-0.875 1.1992-1.3125 2.9336-1.3125 5.2031 0 2.2617 0.4375 3.9961 1.3125 5.2031 0.875 1.1992 2.1289 1.7969 3.7656 1.7969zm-5.0781-15.484c1.0508-1.3945 2.2188-2.4219 3.5-3.0781 1.2812-0.66406 2.7539-1 4.4219-1 2.9453 0 5.3672 1.1719 7.2656 3.5156 1.8945 2.3438 2.8438 5.3594 2.8438 9.0469s-0.94922 6.7031-2.8438 9.0469c-1.8984 2.3438-4.3203 3.5156-7.2656 3.5156-1.668 0-3.1406-0.33594-4.4219-1s-2.4492-1.6914-3.5-3.0781v3.4531h-7.6562v-33.234h7.6562z"/>
  </symbol>
  <symbol id="e" overflow="visible">
   <path d="m0.53125-23.922h7.6562l6.4219 16.234 5.4688-16.234h7.6562l-10.062 26.188c-1.0117 2.6641-2.1953 4.5234-3.5469 5.5781-1.3438 1.0625-3.1211 1.5938-5.3281 1.5938h-4.4219v-5.0156h2.3906c1.3008 0 2.2422-0.21094 2.8281-0.625 0.59375-0.40625 1.0547-1.1484 1.3906-2.2188l0.20312-0.65625z"/>
  </symbol>
  <symbol id="a" overflow="visible">
   <path d="m23.375-5.8125h-12.859l-2.0312 5.8125h-8.2656l11.812-31.891h9.7969l11.812 31.891h-8.2656zm-10.812-5.9219h8.7344l-4.3594-12.688z"/>
  </symbol>
  <symbol id="d" overflow="visible">
   <path d="m4.0156-31.891h9.1875l11.594 21.875v-21.875h7.7969v31.891h-9.1875l-11.594-21.875v21.875h-7.7969z"/>
  </symbol>
  <symbol id="o" overflow="visible">
   <path d="m12.234-25.672v19.453h2.9531c3.3633 0 5.9297-0.83203 7.7031-2.5 1.7695-1.6641 2.6562-4.0859 2.6562-7.2656 0-3.1562-0.88672-5.5547-2.6562-7.2031-1.7617-1.6562-4.3281-2.4844-7.7031-2.4844zm-8.2188-6.2188h8.6719c4.8438 0 8.4453 0.34375 10.812 1.0312 2.375 0.6875 4.4102 1.8594 6.1094 3.5156 1.4883 1.4375 2.5977 3.1016 3.3281 4.9844 0.72656 1.875 1.0938 4 1.0938 6.375 0 2.4062-0.36719 4.5586-1.0938 6.4531-0.73047 1.8867-1.8398 3.5469-3.3281 4.9844-1.7109 1.6484-3.7617 2.8203-6.1562 3.5156-2.3984 0.6875-5.9844 1.0312-10.766 1.0312h-8.6719z"/>
  </symbol>
  <symbol id="c" overflow="visible">
   <path d="m4.0156-31.891h8.2188v31.891h-8.2188z"/>
  </symbol>
  <symbol id="n" overflow="visible">
   <path d="m4.0156-31.891h8.2188v11.641l11.859-11.641h9.5469l-15.359 15.094 16.938 16.797h-10.281l-12.703-12.562v12.562h-8.2188z"/>
  </symbol>
  <symbol id="m" overflow="visible">
   <path d="m4.0156-31.891h8.2188v28.797c0 3.9688-1.0781 6.9375-3.2344 8.9062s-5.4219 2.9531-9.7969 2.9531h-1.6562v-6.2188h1.2812c1.707 0 3-0.48047 3.875-1.4375 0.875-0.96094 1.3125-2.3594 1.3125-4.2031z"/>
  </symbol>
  <symbol id="l" overflow="visible">
   <path d="m4.0156-31.891h8.2188v19.109c0 2.6367 0.42969 4.5234 1.2969 5.6562 0.86328 1.1367 2.2695 1.7031 4.2188 1.7031 1.9688 0 3.3789-0.56641 4.2344-1.7031 0.86328-1.1328 1.2969-3.0195 1.2969-5.6562v-19.109h8.2344v19.109c0 4.5234-1.1367 7.8867-3.4062 10.094-2.2617 2.2109-5.7148 3.3125-10.359 3.3125-4.625 0-8.0742-1.1016-10.344-3.3125-2.2617-2.207-3.3906-5.5703-3.3906-10.094z"/>
  </symbol>
  <symbol id="k" overflow="visible">
   <path d="m4.0156-31.891h8.2188v25.672h14.453v6.2188h-22.672z"/>
  </symbol>
 </defs>
 <g>
  <path d="m602.52 278.57-39.445-41.379-31.359-41.301c-0.4375-0.57031-1.0156-1.043-1.6641-1.3281l-92.949-42.316c-0.070313-0.027344-0.14844-0.007812-0.21094-0.035156-0.58594-0.23438-1.2344-0.375-1.8984-0.33203-0.007813 0-0.027344 0.007813-0.035156 0.007813h-0.035157l-124.16 11.82-48.211-23.344c-0.68359-0.33203-1.4336-0.40234-2.1953-0.33984-0.22656 0.015625-0.42188 0.070312-0.64844 0.13281-0.25391 0.0625-0.52344 0.042969-0.76953 0.15625l-53.637 24.012-55.371 29.688-22.812-3.8047c-1.5938-0.28125-3.125 0.36719-4.1055 1.6094-0.98047 1.2422-1.2266 2.9297-0.62891 4.418l9.4219 23.504-18.727 29.102c-0.33984 0.51562-0.54297 1.0938-0.64062 1.6875-0.035156 0.20312 0 0.40234-0.007812 0.60547-0.007813 0.39453-0.015626 0.76953 0.078124 1.1562 0.007813 0.070312-0.007812 0.13281 0.007813 0.19141 0.0625 0.20312 0.19141 0.35938 0.28125 0.55078 0.10547 0.22656 0.14844 0.48047 0.28906 0.69922l4.8906 7.4531-20.16 17.062c-0.91016 0.76953-1.4688 1.8906-1.5586 3.0898-0.078124 1.207 0.32422 2.3789 1.1211 3.2812l33.094 36.984c0.85938 0.95312 2.0312 1.4531 3.2109 1.4531 1.0312 0 2.0742-0.375 2.9141-1.1367l16.781-15.41 28.062-20.027 37.422 10.938 2.3711 19.199-43.102 32.141c-0.70703 0.51562-1.25 1.2266-1.5469 2.0312 0 0 0 0.007812-0.007813 0.007812-0.19141 0.53516-0.29688 1.0938-0.28125 1.6641v57.41c0 2.4414 1.9414 4.418 4.3398 4.418h24.254c1.4609 0 2.8281-0.74219 3.6211-1.9844 0.80469-1.2422 0.9375-2.8086 0.375-4.1836l-1.5312-3.6133 63.016-41.422 2.8359 24.367-18.82 25.48c-0.98828 1.3281-1.1562 3.125-0.42188 4.6211 0.75781 1.4961 2.2617 2.4414 3.9062 2.4414h44.828c1.7852 0 3.3867-1.1016 4.043-2.793l18.629-48.039c0.20312-0.51562 0.30469-1.0586 0.30469-1.6172v-37.801l97.316 19.969 25.023 38.922-25.332 23.703c-1.3125 1.2266-1.7578 3.1484-1.1016 4.8555 0.65625 1.6914 2.2578 2.8008 4.0547 2.8008h56.184c1.6992 0 3.2539-1.0156 3.9648-2.5898l32.129-72.285 36.969 40.258-14.402 22.051c-0.88281 1.3555-0.95312 3.0977-0.20312 4.5312 0.76172 1.4336 2.2305 2.3281 3.832 2.3281h39.199c0.90234 0 1.7344-0.30469 2.4492-0.80469 0.21094-0.14844 0.30469-0.40234 0.48828-0.58594 0.38672-0.38672 0.82422-0.72656 1.0508-1.2617 0.035156-0.078125 0-0.17578 0.035156-0.25391 0.027344-0.070313 0.085938-0.10547 0.11328-0.17578l11.254-36.297c0.18359-0.58594 0.24609-1.207 0.18359-1.8203l-9.6875-87.84 9.8711 0.8125c0.12109 0.007813 0.23438 0.015625 0.35938 0.015625 1.6641 0 3.2031-0.97266 3.9219-2.5273 0.76172-1.6836 0.4375-3.6602-0.82422-4.9805zm-52.613-5.4258 11.234-25.289 27.09 28.402zm4.8672-32.426-41.703 93.809-55.766 46.113-6.3945-77.961v-0.007813l-10.691-139.32 85.285 38.824zm-229.36 79.965-10.789-148.48 116.73-11.113 10.824 141.07-18.945 38.586zm-19.586-149.58 8.6719 119.38-46.359-137.63zm137.73 148.02 4.3594 53.199-17.289-26.871zm-300.2-117.27-5.7578 8.9062-4.25-10.578zm-3.0547 20.789c0.007812 0 0.015624 0 0.015624-0.007812l9.2305-14.281 23.391 64.758-49.867-23.688zm11.508 74.191-22.836-34.871 43.023 20.449zm-17.824 15.574-27.125-30.32 15.969-13.512 22.137 33.75zm49.965-34.387-27.895-77.324 47.738-25.602 13.902 112.78zm1.0391 127.43v-31.586l13.316 31.586zm19.391-9.4961-18.359-42.133 42.402-31.621c1.2695-0.94531 1.9336-2.5195 1.7344-4.1055l-3.0195-24.516c-0.007813-0.085937-0.015625-0.17578-0.035156-0.26172l-15.086-122.37 46.078-20.605 58.012 172.19-44.598 29.297c-0.015625 0.007813-0.015625 0.027344-0.027344 0.035157zm70.316 4.2109 1.2773 11.008h-9.4062zm25.051 11.008h-15.023l-2.6758-22.996c-0.007812-0.078125-0.015625-0.16797-0.027343-0.23438l-3.5078-30.188 38.465-25.289v34.238zm179.26 0h-42.246l19.773-18.496 48.547-40.137zm73.184-5.7227 8.7656-13.441 12.336 13.441zm37.93-32.312-8.7344 28.191-17.762-19.348c-0.042968-0.042969-0.085937-0.097657-0.13281-0.14062l-41.719-45.43 24.316-54.695 34.246 2.8086z"/>
  <use x="70" y="691.25" xlink:href="#p"/>
  <use x="102.109375" y="691.25" xlink:href="#j"/>
  <use x="123.683594" y="691.25" xlink:href="#b"/>
  <use x="153.355469" y="691.25" xlink:href="#i"/>
  <use x="182.878906" y="691.25" xlink:href="#h"/>
  <use x="203.792969" y="691.25" xlink:href="#b"/>
  <use x="233.464844" y="691.25" xlink:href="#g"/>
  <use x="280.011719" y="691.25" xlink:href="#f"/>
  <use x="311.328125" y="691.25" xlink:href="#e"/>
  <use x="355.078125" y="691.25" xlink:href="#a"/>
  <use x="388.9375" y="691.25" xlink:href="#d"/>
  <use x="425.554688" y="691.25" xlink:href="#o"/>
  <use x="461.871094" y="691.25" xlink:href="#c"/>
  <use x="478.148438" y="691.25" xlink:href="#n"/>
  <use x="512.050781" y="691.25" xlink:href="#a"/>
  <use x="561.140625" y="691.25" xlink:href="#m"/>
  <use x="577.417969" y="691.25" xlink:href="#l"/>
  <use x="612.945312" y="691.25" xlink:href="#k"/>
  <use x="640.820312" y="691.25" xlink:href="#c"/>
  <use x="657.101562" y="691.25" xlink:href="#a"/>
  <use x="690.960938" y="691.25" xlink:href="#d"/>
 </g>
</svg>
